<?xml version="1.0" encoding="utf-8" standalone="no"?>
<!DOCTYPE svg PUBLIC "-//W3C//DTD SVG 1.1//EN"
  "http://www.w3.org/Graphics/SVG/1.1/DTD/svg11.dtd">
<svg xmlns:xlink="http://www.w3.org/1999/xlink" width="684pt" height="252pt" viewBox="0 0 684 252" xmlns="http://www.w3.org/2000/svg" version="1.1">
 <metadata>
  <rdf:RDF xmlns:dc="http://purl.org/dc/elements/1.1/" xmlns:cc="http://creativecommons.org/ns#" xmlns:rdf="http://www.w3.org/1999/02/22-rdf-syntax-ns#">
   <cc:Work>
    <dc:type rdf:resource="http://purl.org/dc/dcmitype/StillImage"/>
    <dc:date>2022-07-03T16:24:40.576877</dc:date>
    <dc:format>image/svg+xml</dc:format>
    <dc:creator>
     <cc:Agent>
      <dc:title>Matplotlib v3.5.1, https://matplotlib.org/</dc:title>
     </cc:Agent>
    </dc:creator>
   </cc:Work>
  </rdf:RDF>
 </metadata>
 <defs>
  <style type="text/css">*{stroke-linejoin: round; stroke-linecap: butt}</style>
 </defs>
 <g id="figure_1">
  <g id="patch_1">
   <path d="M 0 252 
L 684 252 
L 684 0 
L 0 0 
z
" style="fill: #ffffff"/>
  </g>
  <g id="axes_1">
   <g id="patch_2">
    <path d="M 85.5 201.6 
L 326.454545 201.6 
L 326.454545 30.24 
L 85.5 30.24 
z
" style="fill: #ffffff"/>
   </g>
   <g id="matplotlib.axis_1">
    <g id="xtick_1">
     <g id="line2d_1">
      <defs>
       <path id="m44bae57fc4" d="M 0 0 
L 0 3.5 
" style="stroke: #000000; stroke-width: 0.8"/>
      </defs>
      <g>
       <use xlink:href="#m44bae57fc4" x="96.452479" y="201.6" style="stroke: #000000; stroke-width: 0.8"/>
      </g>
     </g>
     <g id="text_1">
      <!-- 0 -->
      <g transform="translate(93.271229 216.198437)scale(0.1 -0.1)">
       <defs>
        <path id="DejaVuSans-30" d="M 2034 4250 
Q 1547 4250 1301 3770 
Q 1056 3291 1056 2328 
Q 1056 1369 1301 889 
Q 1547 409 2034 409 
Q 2525 409 2770 889 
Q 3016 1369 3016 2328 
Q 3016 3291 2770 3770 
Q 2525 4250 2034 4250 
z
M 2034 4750 
Q 2819 4750 3233 4129 
Q 3647 3509 3647 2328 
Q 3647 1150 3233 529 
Q 2819 -91 2034 -91 
Q 1250 -91 836 529 
Q 422 1150 422 2328 
Q 422 3509 836 4129 
Q 1250 4750 2034 4750 
z
" transform="scale(0.015625)"/>
       </defs>
       <use xlink:href="#DejaVuSans-30"/>
      </g>
     </g>
    </g>
    <g id="xtick_2">
     <g id="line2d_2">
      <g>
       <use xlink:href="#m44bae57fc4" x="140.482547" y="201.6" style="stroke: #000000; stroke-width: 0.8"/>
      </g>
     </g>
     <g id="text_2">
      <!-- 2000 -->
      <g transform="translate(127.757547 216.198437)scale(0.1 -0.1)">
       <defs>
        <path id="DejaVuSans-32" d="M 1228 531 
L 3431 531 
L 3431 0 
L 469 0 
L 469 531 
Q 828 903 1448 1529 
Q 2069 2156 2228 2338 
Q 2531 2678 2651 2914 
Q 2772 3150 2772 3378 
Q 2772 3750 2511 3984 
Q 2250 4219 1831 4219 
Q 1534 4219 1204 4116 
Q 875 4013 500 3803 
L 500 4441 
Q 881 4594 1212 4672 
Q 1544 4750 1819 4750 
Q 2544 4750 2975 4387 
Q 3406 4025 3406 3419 
Q 3406 3131 3298 2873 
Q 3191 2616 2906 2266 
Q 2828 2175 2409 1742 
Q 1991 1309 1228 531 
z
" transform="scale(0.015625)"/>
       </defs>
       <use xlink:href="#DejaVuSans-32"/>
       <use xlink:href="#DejaVuSans-30" x="63.623047"/>
       <use xlink:href="#DejaVuSans-30" x="127.246094"/>
       <use xlink:href="#DejaVuSans-30" x="190.869141"/>
      </g>
     </g>
    </g>
    <g id="xtick_3">
     <g id="line2d_3">
      <g>
       <use xlink:href="#m44bae57fc4" x="184.512615" y="201.6" style="stroke: #000000; stroke-width: 0.8"/>
      </g>
     </g>
     <g id="text_3">
      <!-- 4000 -->
      <g transform="translate(171.787615 216.198437)scale(0.1 -0.1)">
       <defs>
        <path id="DejaVuSans-34" d="M 2419 4116 
L 825 1625 
L 2419 1625 
L 2419 4116 
z
M 2253 4666 
L 3047 4666 
L 3047 1625 
L 3713 1625 
L 3713 1100 
L 3047 1100 
L 3047 0 
L 2419 0 
L 2419 1100 
L 313 1100 
L 313 1709 
L 2253 4666 
z
" transform="scale(0.015625)"/>
       </defs>
       <use xlink:href="#DejaVuSans-34"/>
       <use xlink:href="#DejaVuSans-30" x="63.623047"/>
       <use xlink:href="#DejaVuSans-30" x="127.246094"/>
       <use xlink:href="#DejaVuSans-30" x="190.869141"/>
      </g>
     </g>
    </g>
    <g id="xtick_4">
     <g id="line2d_4">
      <g>
       <use xlink:href="#m44bae57fc4" x="228.542682" y="201.6" style="stroke: #000000; stroke-width: 0.8"/>
      </g>
     </g>
     <g id="text_4">
      <!-- 6000 -->
      <g transform="translate(215.817682 216.198437)scale(0.1 -0.1)">
       <defs>
        <path id="DejaVuSans-36" d="M 2113 2584 
Q 1688 2584 1439 2293 
Q 1191 2003 1191 1497 
Q 1191 994 1439 701 
Q 1688 409 2113 409 
Q 2538 409 2786 701 
Q 3034 994 3034 1497 
Q 3034 2003 2786 2293 
Q 2538 2584 2113 2584 
z
M 3366 4563 
L 3366 3988 
Q 3128 4100 2886 4159 
Q 2644 4219 2406 4219 
Q 1781 4219 1451 3797 
Q 1122 3375 1075 2522 
Q 1259 2794 1537 2939 
Q 1816 3084 2150 3084 
Q 2853 3084 3261 2657 
Q 3669 2231 3669 1497 
Q 3669 778 3244 343 
Q 2819 -91 2113 -91 
Q 1303 -91 875 529 
Q 447 1150 447 2328 
Q 447 3434 972 4092 
Q 1497 4750 2381 4750 
Q 2619 4750 2861 4703 
Q 3103 4656 3366 4563 
z
" transform="scale(0.015625)"/>
       </defs>
       <use xlink:href="#DejaVuSans-36"/>
       <use xlink:href="#DejaVuSans-30" x="63.623047"/>
       <use xlink:href="#DejaVuSans-30" x="127.246094"/>
       <use xlink:href="#DejaVuSans-30" x="190.869141"/>
      </g>
     </g>
    </g>
    <g id="xtick_5">
     <g id="line2d_5">
      <g>
       <use xlink:href="#m44bae57fc4" x="272.57275" y="201.6" style="stroke: #000000; stroke-width: 0.8"/>
      </g>
     </g>
     <g id="text_5">
      <!-- 8000 -->
      <g transform="translate(259.84775 216.198437)scale(0.1 -0.1)">
       <defs>
        <path id="DejaVuSans-38" d="M 2034 2216 
Q 1584 2216 1326 1975 
Q 1069 1734 1069 1313 
Q 1069 891 1326 650 
Q 1584 409 2034 409 
Q 2484 409 2743 651 
Q 3003 894 3003 1313 
Q 3003 1734 2745 1975 
Q 2488 2216 2034 2216 
z
M 1403 2484 
Q 997 2584 770 2862 
Q 544 3141 544 3541 
Q 544 4100 942 4425 
Q 1341 4750 2034 4750 
Q 2731 4750 3128 4425 
Q 3525 4100 3525 3541 
Q 3525 3141 3298 2862 
Q 3072 2584 2669 2484 
Q 3125 2378 3379 2068 
Q 3634 1759 3634 1313 
Q 3634 634 3220 271 
Q 2806 -91 2034 -91 
Q 1263 -91 848 271 
Q 434 634 434 1313 
Q 434 1759 690 2068 
Q 947 2378 1403 2484 
z
M 1172 3481 
Q 1172 3119 1398 2916 
Q 1625 2713 2034 2713 
Q 2441 2713 2670 2916 
Q 2900 3119 2900 3481 
Q 2900 3844 2670 4047 
Q 2441 4250 2034 4250 
Q 1625 4250 1398 4047 
Q 1172 3844 1172 3481 
z
" transform="scale(0.015625)"/>
       </defs>
       <use xlink:href="#DejaVuSans-38"/>
       <use xlink:href="#DejaVuSans-30" x="63.623047"/>
       <use xlink:href="#DejaVuSans-30" x="127.246094"/>
       <use xlink:href="#DejaVuSans-30" x="190.869141"/>
      </g>
     </g>
    </g>
    <g id="xtick_6">
     <g id="line2d_6">
      <g>
       <use xlink:href="#m44bae57fc4" x="316.602818" y="201.6" style="stroke: #000000; stroke-width: 0.8"/>
      </g>
     </g>
     <g id="text_6">
      <!-- 10000 -->
      <g transform="translate(300.696568 216.198437)scale(0.1 -0.1)">
       <defs>
        <path id="DejaVuSans-31" d="M 794 531 
L 1825 531 
L 1825 4091 
L 703 3866 
L 703 4441 
L 1819 4666 
L 2450 4666 
L 2450 531 
L 3481 531 
L 3481 0 
L 794 0 
L 794 531 
z
" transform="scale(0.015625)"/>
       </defs>
       <use xlink:href="#DejaVuSans-31"/>
       <use xlink:href="#DejaVuSans-30" x="63.623047"/>
       <use xlink:href="#DejaVuSans-30" x="127.246094"/>
       <use xlink:href="#DejaVuSans-30" x="190.869141"/>
       <use xlink:href="#DejaVuSans-30" x="254.492188"/>
      </g>
     </g>
    </g>
    <g id="text_7">
     <!-- Number of episodes -->
     <g transform="translate(155.734304 229.876562)scale(0.1 -0.1)">
      <defs>
       <path id="DejaVuSans-4e" d="M 628 4666 
L 1478 4666 
L 3547 763 
L 3547 4666 
L 4159 4666 
L 4159 0 
L 3309 0 
L 1241 3903 
L 1241 0 
L 628 0 
L 628 4666 
z
" transform="scale(0.015625)"/>
       <path id="DejaVuSans-75" d="M 544 1381 
L 544 3500 
L 1119 3500 
L 1119 1403 
Q 1119 906 1312 657 
Q 1506 409 1894 409 
Q 2359 409 2629 706 
Q 2900 1003 2900 1516 
L 2900 3500 
L 3475 3500 
L 3475 0 
L 2900 0 
L 2900 538 
Q 2691 219 2414 64 
Q 2138 -91 1772 -91 
Q 1169 -91 856 284 
Q 544 659 544 1381 
z
M 1991 3584 
L 1991 3584 
z
" transform="scale(0.015625)"/>
       <path id="DejaVuSans-6d" d="M 3328 2828 
Q 3544 3216 3844 3400 
Q 4144 3584 4550 3584 
Q 5097 3584 5394 3201 
Q 5691 2819 5691 2113 
L 5691 0 
L 5113 0 
L 5113 2094 
Q 5113 2597 4934 2840 
Q 4756 3084 4391 3084 
Q 3944 3084 3684 2787 
Q 3425 2491 3425 1978 
L 3425 0 
L 2847 0 
L 2847 2094 
Q 2847 2600 2669 2842 
Q 2491 3084 2119 3084 
Q 1678 3084 1418 2786 
Q 1159 2488 1159 1978 
L 1159 0 
L 581 0 
L 581 3500 
L 1159 3500 
L 1159 2956 
Q 1356 3278 1631 3431 
Q 1906 3584 2284 3584 
Q 2666 3584 2933 3390 
Q 3200 3197 3328 2828 
z
" transform="scale(0.015625)"/>
       <path id="DejaVuSans-62" d="M 3116 1747 
Q 3116 2381 2855 2742 
Q 2594 3103 2138 3103 
Q 1681 3103 1420 2742 
Q 1159 2381 1159 1747 
Q 1159 1113 1420 752 
Q 1681 391 2138 391 
Q 2594 391 2855 752 
Q 3116 1113 3116 1747 
z
M 1159 2969 
Q 1341 3281 1617 3432 
Q 1894 3584 2278 3584 
Q 2916 3584 3314 3078 
Q 3713 2572 3713 1747 
Q 3713 922 3314 415 
Q 2916 -91 2278 -91 
Q 1894 -91 1617 61 
Q 1341 213 1159 525 
L 1159 0 
L 581 0 
L 581 4863 
L 1159 4863 
L 1159 2969 
z
" transform="scale(0.015625)"/>
       <path id="DejaVuSans-65" d="M 3597 1894 
L 3597 1613 
L 953 1613 
Q 991 1019 1311 708 
Q 1631 397 2203 397 
Q 2534 397 2845 478 
Q 3156 559 3463 722 
L 3463 178 
Q 3153 47 2828 -22 
Q 2503 -91 2169 -91 
Q 1331 -91 842 396 
Q 353 884 353 1716 
Q 353 2575 817 3079 
Q 1281 3584 2069 3584 
Q 2775 3584 3186 3129 
Q 3597 2675 3597 1894 
z
M 3022 2063 
Q 3016 2534 2758 2815 
Q 2500 3097 2075 3097 
Q 1594 3097 1305 2825 
Q 1016 2553 972 2059 
L 3022 2063 
z
" transform="scale(0.015625)"/>
       <path id="DejaVuSans-72" d="M 2631 2963 
Q 2534 3019 2420 3045 
Q 2306 3072 2169 3072 
Q 1681 3072 1420 2755 
Q 1159 2438 1159 1844 
L 1159 0 
L 581 0 
L 581 3500 
L 1159 3500 
L 1159 2956 
Q 1341 3275 1631 3429 
Q 1922 3584 2338 3584 
Q 2397 3584 2469 3576 
Q 2541 3569 2628 3553 
L 2631 2963 
z
" transform="scale(0.015625)"/>
       <path id="DejaVuSans-20" transform="scale(0.015625)"/>
       <path id="DejaVuSans-6f" d="M 1959 3097 
Q 1497 3097 1228 2736 
Q 959 2375 959 1747 
Q 959 1119 1226 758 
Q 1494 397 1959 397 
Q 2419 397 2687 759 
Q 2956 1122 2956 1747 
Q 2956 2369 2687 2733 
Q 2419 3097 1959 3097 
z
M 1959 3584 
Q 2709 3584 3137 3096 
Q 3566 2609 3566 1747 
Q 3566 888 3137 398 
Q 2709 -91 1959 -91 
Q 1206 -91 779 398 
Q 353 888 353 1747 
Q 353 2609 779 3096 
Q 1206 3584 1959 3584 
z
" transform="scale(0.015625)"/>
       <path id="DejaVuSans-66" d="M 2375 4863 
L 2375 4384 
L 1825 4384 
Q 1516 4384 1395 4259 
Q 1275 4134 1275 3809 
L 1275 3500 
L 2222 3500 
L 2222 3053 
L 1275 3053 
L 1275 0 
L 697 0 
L 697 3053 
L 147 3053 
L 147 3500 
L 697 3500 
L 697 3744 
Q 697 4328 969 4595 
Q 1241 4863 1831 4863 
L 2375 4863 
z
" transform="scale(0.015625)"/>
       <path id="DejaVuSans-70" d="M 1159 525 
L 1159 -1331 
L 581 -1331 
L 581 3500 
L 1159 3500 
L 1159 2969 
Q 1341 3281 1617 3432 
Q 1894 3584 2278 3584 
Q 2916 3584 3314 3078 
Q 3713 2572 3713 1747 
Q 3713 922 3314 415 
Q 2916 -91 2278 -91 
Q 1894 -91 1617 61 
Q 1341 213 1159 525 
z
M 3116 1747 
Q 3116 2381 2855 2742 
Q 2594 3103 2138 3103 
Q 1681 3103 1420 2742 
Q 1159 2381 1159 1747 
Q 1159 1113 1420 752 
Q 1681 391 2138 391 
Q 2594 391 2855 752 
Q 3116 1113 3116 1747 
z
" transform="scale(0.015625)"/>
       <path id="DejaVuSans-69" d="M 603 3500 
L 1178 3500 
L 1178 0 
L 603 0 
L 603 3500 
z
M 603 4863 
L 1178 4863 
L 1178 4134 
L 603 4134 
L 603 4863 
z
" transform="scale(0.015625)"/>
       <path id="DejaVuSans-73" d="M 2834 3397 
L 2834 2853 
Q 2591 2978 2328 3040 
Q 2066 3103 1784 3103 
Q 1356 3103 1142 2972 
Q 928 2841 928 2578 
Q 928 2378 1081 2264 
Q 1234 2150 1697 2047 
L 1894 2003 
Q 2506 1872 2764 1633 
Q 3022 1394 3022 966 
Q 3022 478 2636 193 
Q 2250 -91 1575 -91 
Q 1294 -91 989 -36 
Q 684 19 347 128 
L 347 722 
Q 666 556 975 473 
Q 1284 391 1588 391 
Q 1994 391 2212 530 
Q 2431 669 2431 922 
Q 2431 1156 2273 1281 
Q 2116 1406 1581 1522 
L 1381 1569 
Q 847 1681 609 1914 
Q 372 2147 372 2553 
Q 372 3047 722 3315 
Q 1072 3584 1716 3584 
Q 2034 3584 2315 3537 
Q 2597 3491 2834 3397 
z
" transform="scale(0.015625)"/>
       <path id="DejaVuSans-64" d="M 2906 2969 
L 2906 4863 
L 3481 4863 
L 3481 0 
L 2906 0 
L 2906 525 
Q 2725 213 2448 61 
Q 2172 -91 1784 -91 
Q 1150 -91 751 415 
Q 353 922 353 1747 
Q 353 2572 751 3078 
Q 1150 3584 1784 3584 
Q 2172 3584 2448 3432 
Q 2725 3281 2906 2969 
z
M 947 1747 
Q 947 1113 1208 752 
Q 1469 391 1925 391 
Q 2381 391 2643 752 
Q 2906 1113 2906 1747 
Q 2906 2381 2643 2742 
Q 2381 3103 1925 3103 
Q 1469 3103 1208 2742 
Q 947 2381 947 1747 
z
" transform="scale(0.015625)"/>
      </defs>
      <use xlink:href="#DejaVuSans-4e"/>
      <use xlink:href="#DejaVuSans-75" x="74.804688"/>
      <use xlink:href="#DejaVuSans-6d" x="138.183594"/>
      <use xlink:href="#DejaVuSans-62" x="235.595703"/>
      <use xlink:href="#DejaVuSans-65" x="299.072266"/>
      <use xlink:href="#DejaVuSans-72" x="360.595703"/>
      <use xlink:href="#DejaVuSans-20" x="401.708984"/>
      <use xlink:href="#DejaVuSans-6f" x="433.496094"/>
      <use xlink:href="#DejaVuSans-66" x="494.677734"/>
      <use xlink:href="#DejaVuSans-20" x="529.882812"/>
      <use xlink:href="#DejaVuSans-65" x="561.669922"/>
      <use xlink:href="#DejaVuSans-70" x="623.193359"/>
      <use xlink:href="#DejaVuSans-69" x="686.669922"/>
      <use xlink:href="#DejaVuSans-73" x="714.453125"/>
      <use xlink:href="#DejaVuSans-6f" x="766.552734"/>
      <use xlink:href="#DejaVuSans-64" x="827.734375"/>
      <use xlink:href="#DejaVuSans-65" x="891.210938"/>
      <use xlink:href="#DejaVuSans-73" x="952.734375"/>
     </g>
    </g>
   </g>
   <g id="matplotlib.axis_2">
    <g id="ytick_1">
     <g id="line2d_7">
      <defs>
       <path id="mfec8619305" d="M 0 0 
L -3.5 0 
" style="stroke: #000000; stroke-width: 0.8"/>
      </defs>
      <g>
       <use xlink:href="#mfec8619305" x="85.5" y="174.05179" style="stroke: #000000; stroke-width: 0.8"/>
      </g>
     </g>
     <g id="text_8">
      <!-- 70 -->
      <g transform="translate(65.775 177.851008)scale(0.1 -0.1)">
       <defs>
        <path id="DejaVuSans-37" d="M 525 4666 
L 3525 4666 
L 3525 4397 
L 1831 0 
L 1172 0 
L 2766 4134 
L 525 4134 
L 525 4666 
z
" transform="scale(0.015625)"/>
       </defs>
       <use xlink:href="#DejaVuSans-37"/>
       <use xlink:href="#DejaVuSans-30" x="63.623047"/>
      </g>
     </g>
    </g>
    <g id="ytick_2">
     <g id="line2d_8">
      <g>
       <use xlink:href="#mfec8619305" x="85.5" y="139.68815" style="stroke: #000000; stroke-width: 0.8"/>
      </g>
     </g>
     <g id="text_9">
      <!-- 72 -->
      <g transform="translate(65.775 143.487368)scale(0.1 -0.1)">
       <use xlink:href="#DejaVuSans-37"/>
       <use xlink:href="#DejaVuSans-32" x="63.623047"/>
      </g>
     </g>
    </g>
    <g id="ytick_3">
     <g id="line2d_9">
      <g>
       <use xlink:href="#mfec8619305" x="85.5" y="105.324509" style="stroke: #000000; stroke-width: 0.8"/>
      </g>
     </g>
     <g id="text_10">
      <!-- 74 -->
      <g transform="translate(65.775 109.123728)scale(0.1 -0.1)">
       <use xlink:href="#DejaVuSans-37"/>
       <use xlink:href="#DejaVuSans-34" x="63.623047"/>
      </g>
     </g>
    </g>
    <g id="ytick_4">
     <g id="line2d_10">
      <g>
       <use xlink:href="#mfec8619305" x="85.5" y="70.960869" style="stroke: #000000; stroke-width: 0.8"/>
      </g>
     </g>
     <g id="text_11">
      <!-- 76 -->
      <g transform="translate(65.775 74.760088)scale(0.1 -0.1)">
       <use xlink:href="#DejaVuSans-37"/>
       <use xlink:href="#DejaVuSans-36" x="63.623047"/>
      </g>
     </g>
    </g>
    <g id="ytick_5">
     <g id="line2d_11">
      <g>
       <use xlink:href="#mfec8619305" x="85.5" y="36.597229" style="stroke: #000000; stroke-width: 0.8"/>
      </g>
     </g>
     <g id="text_12">
      <!-- 78 -->
      <g transform="translate(65.775 40.396448)scale(0.1 -0.1)">
       <use xlink:href="#DejaVuSans-37"/>
       <use xlink:href="#DejaVuSans-38" x="63.623047"/>
      </g>
     </g>
    </g>
    <g id="text_13">
     <!-- Makespan -->
     <g transform="translate(59.695312 141.100469)rotate(-90)scale(0.1 -0.1)">
      <defs>
       <path id="DejaVuSans-4d" d="M 628 4666 
L 1569 4666 
L 2759 1491 
L 3956 4666 
L 4897 4666 
L 4897 0 
L 4281 0 
L 4281 4097 
L 3078 897 
L 2444 897 
L 1241 4097 
L 1241 0 
L 628 0 
L 628 4666 
z
" transform="scale(0.015625)"/>
       <path id="DejaVuSans-61" d="M 2194 1759 
Q 1497 1759 1228 1600 
Q 959 1441 959 1056 
Q 959 750 1161 570 
Q 1363 391 1709 391 
Q 2188 391 2477 730 
Q 2766 1069 2766 1631 
L 2766 1759 
L 2194 1759 
z
M 3341 1997 
L 3341 0 
L 2766 0 
L 2766 531 
Q 2569 213 2275 61 
Q 1981 -91 1556 -91 
Q 1019 -91 701 211 
Q 384 513 384 1019 
Q 384 1609 779 1909 
Q 1175 2209 1959 2209 
L 2766 2209 
L 2766 2266 
Q 2766 2663 2505 2880 
Q 2244 3097 1772 3097 
Q 1472 3097 1187 3025 
Q 903 2953 641 2809 
L 641 3341 
Q 956 3463 1253 3523 
Q 1550 3584 1831 3584 
Q 2591 3584 2966 3190 
Q 3341 2797 3341 1997 
z
" transform="scale(0.015625)"/>
       <path id="DejaVuSans-6b" d="M 581 4863 
L 1159 4863 
L 1159 1991 
L 2875 3500 
L 3609 3500 
L 1753 1863 
L 3688 0 
L 2938 0 
L 1159 1709 
L 1159 0 
L 581 0 
L 581 4863 
z
" transform="scale(0.015625)"/>
       <path id="DejaVuSans-6e" d="M 3513 2113 
L 3513 0 
L 2938 0 
L 2938 2094 
Q 2938 2591 2744 2837 
Q 2550 3084 2163 3084 
Q 1697 3084 1428 2787 
Q 1159 2491 1159 1978 
L 1159 0 
L 581 0 
L 581 3500 
L 1159 3500 
L 1159 2956 
Q 1366 3272 1645 3428 
Q 1925 3584 2291 3584 
Q 2894 3584 3203 3211 
Q 3513 2838 3513 2113 
z
" transform="scale(0.015625)"/>
      </defs>
      <use xlink:href="#DejaVuSans-4d"/>
      <use xlink:href="#DejaVuSans-61" x="86.279297"/>
      <use xlink:href="#DejaVuSans-6b" x="147.558594"/>
      <use xlink:href="#DejaVuSans-65" x="201.84375"/>
      <use xlink:href="#DejaVuSans-73" x="263.367188"/>
      <use xlink:href="#DejaVuSans-70" x="315.466797"/>
      <use xlink:href="#DejaVuSans-61" x="378.943359"/>
      <use xlink:href="#DejaVuSans-6e" x="440.222656"/>
     </g>
    </g>
   </g>
   <g id="line2d_12">
    <path d="M 96.452479 134.619544 
L 97.553231 125.856779 
L 98.653983 122.162751 
L 99.754734 146.560904 
L 100.855486 135.994121 
L 101.956238 122.764046 
L 103.056989 154.63638 
L 104.157741 145.529905 
L 105.258493 156.612253 
L 106.359245 134.275834 
L 107.459996 130.925385 
L 108.560748 144.069466 
L 109.6615 148.021343 
L 110.762251 147.334054 
L 111.863003 129.207229 
L 112.963755 152.316798 
L 114.064506 135.564549 
L 115.165258 136.681279 
L 116.26601 138.743144 
L 117.366761 132.901388 
L 118.467513 137.45456 
L 119.568265 139.68815 
L 120.669017 157.814975 
L 121.769768 157.385403 
L 122.87052 153.175941 
L 123.971272 151.371792 
L 126.172775 142.351311 
L 127.273527 156.354536 
L 128.374278 160.220419 
L 129.47503 145.959477 
L 130.575782 162.540002 
L 131.676533 136.767272 
L 132.777285 155.924964 
L 133.878037 155.667247 
L 134.978789 150.512649 
L 136.07954 122.162751 
L 137.180292 148.021343 
L 138.281044 155.409531 
L 139.381795 153.433658 
L 140.482547 151.199938 
L 141.583299 154.63638 
L 142.68405 176.199517 
L 143.784802 168.553613 
L 144.885554 148.107205 
L 145.986305 155.409531 
L 147.087057 137.884001 
L 148.187809 172.161779 
L 149.288561 141.23445 
L 150.389312 156.182681 
L 151.490064 153.777237 
L 152.590816 161.509003 
L 153.691567 155.151814 
L 154.792319 151.887226 
L 155.893071 173.020922 
L 156.993822 160.821846 
L 158.094574 155.667247 
L 159.195326 160.478136 
L 160.296077 160.99357 
L 161.396829 143.038599 
L 162.497581 164.687729 
L 163.598333 166.921319 
L 164.699084 164.430012 
L 165.799836 157.299541 
L 166.900588 173.278639 
L 168.001339 154.034954 
L 169.102091 171.989924 
L 170.202843 143.124461 
L 171.303594 168.295896 
L 172.404346 153.777237 
L 173.505098 144.499038 
L 174.605849 156.182681 
L 175.706601 171.044919 
L 176.807353 171.560484 
L 177.908105 153.949092 
L 179.008856 156.440398 
L 180.109608 161.33728 
L 181.21036 175.082657 
L 182.311111 155.151814 
L 183.411863 157.471396 
L 184.512615 171.646345 
L 185.613366 163.570869 
L 186.714118 160.220419 
L 187.81487 155.581386 
L 188.915621 161.766851 
L 190.016373 154.979959 
L 191.117125 163.141297 
L 192.217877 168.639474 
L 193.318628 129.6368 
L 194.41938 169.412756 
L 195.520132 166.663602 
L 196.620883 152.74637 
L 197.721635 145.358182 
L 198.822387 168.725467 
L 199.923138 175.426367 
L 201.02389 157.900837 
L 202.124642 157.127686 
L 203.225393 157.471396 
L 204.326145 165.976313 
L 205.426897 176.972668 
L 206.527649 171.732207 
L 207.6284 180.40911 
L 208.729152 163.141297 
L 209.829904 165.890451 
L 210.930655 177.316378 
L 212.031407 155.839102 
L 213.132159 165.117301 
L 214.23291 163.485007 
L 215.333662 175.426367 
L 216.434414 156.440398 
L 217.535165 164.601736 
L 218.635917 153.51952 
L 219.736669 161.680858 
L 220.837421 166.663602 
L 221.938172 156.698115 
L 223.038924 184.790427 
L 224.139676 176.371372 
L 225.240427 152.059081 
L 226.341179 175.684084 
L 227.441931 181.611833 
L 228.542682 170.873195 
L 229.643434 153.691375 
L 230.744186 172.161779 
L 231.844937 172.677213 
L 232.945689 165.632735 
L 234.046441 163.141297 
L 235.147193 142.265449 
L 236.247944 171.989924 
L 237.348696 147.076337 
L 238.449448 163.914579 
L 239.550199 174.653216 
L 240.650951 162.711726 
L 241.751703 161.938575 
L 242.852454 183.501843 
L 243.953206 159.962703 
L 245.053958 162.88358 
L 246.154709 167.780462 
L 247.255461 161.079563 
L 248.356213 169.154908 
L 249.456965 164.945446 
L 250.557716 181.783556 
L 251.658468 175.426367 
L 252.75922 164.430012 
L 253.859971 169.240901 
L 254.960723 172.591351 
L 256.061475 152.316798 
L 257.162226 160.134557 
L 258.262978 160.478136 
L 260.464481 176.371372 
L 261.565233 163.055435 
L 262.665985 152.918093 
L 263.766737 175.254512 
L 264.867488 168.210034 
L 265.96824 165.117301 
L 267.068992 164.945446 
L 268.169743 183.072272 
L 269.270495 170.873195 
L 270.371247 175.855939 
L 271.471998 164.773591 
L 273.673502 157.729113 
L 274.774253 191.663182 
L 275.875005 166.835457 
L 276.975757 179.120395 
L 278.076509 159.962703 
L 279.17726 173.450363 
L 280.278012 169.498618 
L 281.378764 168.381758 
L 282.479515 172.247641 
L 283.580267 174.653216 
L 284.681019 171.904062 
L 285.78177 171.560484 
L 286.882522 161.165425 
L 287.983274 164.000441 
L 289.084025 172.934929 
L 290.184777 161.251287 
L 291.285529 172.161779 
L 292.386281 174.223645 
L 293.487032 159.619124 
L 294.587784 174.395368 
L 296.789287 162.282285 
L 297.890039 163.914579 
L 298.990791 175.426367 
L 300.091542 143.725888 
L 301.192294 165.632735 
L 302.293046 176.285379 
L 303.393797 167.608607 
L 304.494549 180.580834 
L 305.595301 172.075917 
L 306.696053 193.810909 
L 307.796804 177.402239 
L 308.897556 169.240901 
L 309.998308 175.855939 
L 311.099059 178.261383 
L 312.199811 160.220419 
L 313.300563 166.749464 
L 314.401314 171.388629 
L 315.502066 174.395368 
L 315.502066 174.395368 
" clip-path="url(#pc8a290e025)" style="fill: none; stroke: #1f77b4; stroke-width: 1.5; stroke-linecap: square"/>
   </g>
   <g id="line2d_13">
    <path d="M 96.452479 40.892684 
L 98.653983 86.710827 
L 100.855486 63.801821 
L 103.056989 76.688186 
L 105.258493 79.551779 
L 107.459996 72.392731 
L 109.6615 38.029091 
L 111.863003 50.915456 
L 114.064506 106.756371 
L 116.26601 78.119917 
L 118.467513 106.756371 
L 120.669017 118.210874 
L 122.87052 109.619964 
L 125.072023 99.597192 
L 127.273527 106.756371 
L 129.47503 98.165461 
L 131.676533 135.392695 
L 133.878037 121.074467 
L 136.07954 105.324509 
L 138.281044 115.347281 
L 140.482547 109.619964 
L 142.68405 113.915419 
L 144.885554 112.483557 
L 147.087057 96.733599 
L 149.288561 111.051826 
L 151.490064 142.551743 
L 153.691567 141.120012 
L 155.893071 159.733563 
L 158.094574 161.165425 
L 160.296077 159.733563 
L 162.497581 171.188197 
L 164.699084 131.097239 
L 166.900588 159.733563 
L 169.102091 156.86997 
L 171.303594 172.619928 
L 173.505098 164.029018 
L 175.706601 154.006377 
L 177.908105 145.415467 
L 180.109608 165.46088 
L 182.311111 175.483652 
L 184.512615 171.188197 
L 186.714118 168.324473 
L 188.915621 151.142653 
L 191.117125 151.142653 
L 193.318628 142.551743 
L 195.520132 136.824557 
L 197.721635 152.574515 
L 199.923138 142.551743 
L 202.124642 156.86997 
L 204.326145 141.120012 
L 206.527649 141.120012 
L 208.729152 148.27906 
L 210.930655 154.006377 
L 213.132159 156.86997 
L 215.333662 143.983605 
L 217.535165 136.824557 
L 219.736669 161.165425 
L 221.938172 146.847198 
L 224.139676 139.68815 
L 226.341179 136.824557 
L 228.542682 132.529102 
L 230.744186 129.665377 
L 232.945689 161.165425 
L 235.147193 129.665377 
L 237.348696 135.392695 
L 239.550199 125.369922 
L 241.751703 125.369922 
L 243.953206 128.233646 
L 246.154709 119.642736 
L 248.356213 119.642736 
L 250.557716 119.642736 
L 252.75922 129.665377 
L 254.960723 129.665377 
L 257.162226 99.597192 
L 259.36373 126.801784 
L 261.565233 102.460916 
L 263.766737 139.68815 
L 265.96824 128.233646 
L 268.169743 135.392695 
L 270.371247 121.074467 
L 272.57275 131.097239 
L 274.774253 136.824557 
L 276.975757 121.074467 
L 279.17726 106.756371 
L 281.378764 113.915419 
L 283.580267 106.756371 
L 285.78177 119.642736 
L 287.983274 126.801784 
L 290.184777 146.847198 
L 292.386281 125.369922 
L 294.587784 121.074467 
L 296.789287 103.892647 
L 298.990791 93.870006 
L 301.192294 92.438144 
L 303.393797 121.074467 
L 305.595301 115.347281 
L 307.796804 118.210874 
L 309.998308 103.892647 
L 312.199811 109.619964 
L 314.401314 99.597192 
" clip-path="url(#pc8a290e025)" style="fill: none; stroke: #ff7f0e; stroke-width: 1.5; stroke-linecap: square"/>
   </g>
   <g id="patch_3">
    <path d="M 85.5 201.6 
L 85.5 30.24 
" style="fill: none; stroke: #000000; stroke-width: 0.8; stroke-linejoin: miter; stroke-linecap: square"/>
   </g>
   <g id="patch_4">
    <path d="M 326.454545 201.6 
L 326.454545 30.24 
" style="fill: none; stroke: #000000; stroke-width: 0.8; stroke-linejoin: miter; stroke-linecap: square"/>
   </g>
   <g id="patch_5">
    <path d="M 85.5 201.6 
L 326.454545 201.6 
" style="fill: none; stroke: #000000; stroke-width: 0.8; stroke-linejoin: miter; stroke-linecap: square"/>
   </g>
   <g id="patch_6">
    <path d="M 85.5 30.24 
L 326.454545 30.24 
" style="fill: none; stroke: #000000; stroke-width: 0.8; stroke-linejoin: miter; stroke-linecap: square"/>
   </g>
   <g id="text_14">
    <!-- MK01 -->
    <g transform="translate(189.23071 20.24)scale(0.12 -0.12)">
     <defs>
      <path id="DejaVuSans-4b" d="M 628 4666 
L 1259 4666 
L 1259 2694 
L 3353 4666 
L 4166 4666 
L 1850 2491 
L 4331 0 
L 3500 0 
L 1259 2247 
L 1259 0 
L 628 0 
L 628 4666 
z
" transform="scale(0.015625)"/>
     </defs>
     <use xlink:href="#DejaVuSans-4d"/>
     <use xlink:href="#DejaVuSans-4b" x="86.279297"/>
     <use xlink:href="#DejaVuSans-30" x="151.855469"/>
     <use xlink:href="#DejaVuSans-31" x="215.478516"/>
    </g>
   </g>
   <g id="legend_1">
    <g id="patch_7">
     <path d="M 238.073295 67.59625 
L 319.454545 67.59625 
Q 321.454545 67.59625 321.454545 65.59625 
L 321.454545 37.24 
Q 321.454545 35.24 319.454545 35.24 
L 238.073295 35.24 
Q 236.073295 35.24 236.073295 37.24 
L 236.073295 65.59625 
Q 236.073295 67.59625 238.073295 67.59625 
z
" style="fill: #ffffff; opacity: 0.8; stroke: #cccccc; stroke-linejoin: miter"/>
    </g>
    <g id="line2d_14">
     <path d="M 240.073295 43.338437 
L 250.073295 43.338437 
L 260.073295 43.338437 
" style="fill: none; stroke: #1f77b4; stroke-width: 1.5; stroke-linecap: square"/>
    </g>
    <g id="text_15">
     <!-- Training -->
     <g transform="translate(268.073295 46.838437)scale(0.1 -0.1)">
      <defs>
       <path id="DejaVuSans-54" d="M -19 4666 
L 3928 4666 
L 3928 4134 
L 2272 4134 
L 2272 0 
L 1638 0 
L 1638 4134 
L -19 4134 
L -19 4666 
z
" transform="scale(0.015625)"/>
       <path id="DejaVuSans-67" d="M 2906 1791 
Q 2906 2416 2648 2759 
Q 2391 3103 1925 3103 
Q 1463 3103 1205 2759 
Q 947 2416 947 1791 
Q 947 1169 1205 825 
Q 1463 481 1925 481 
Q 2391 481 2648 825 
Q 2906 1169 2906 1791 
z
M 3481 434 
Q 3481 -459 3084 -895 
Q 2688 -1331 1869 -1331 
Q 1566 -1331 1297 -1286 
Q 1028 -1241 775 -1147 
L 775 -588 
Q 1028 -725 1275 -790 
Q 1522 -856 1778 -856 
Q 2344 -856 2625 -561 
Q 2906 -266 2906 331 
L 2906 616 
Q 2728 306 2450 153 
Q 2172 0 1784 0 
Q 1141 0 747 490 
Q 353 981 353 1791 
Q 353 2603 747 3093 
Q 1141 3584 1784 3584 
Q 2172 3584 2450 3431 
Q 2728 3278 2906 2969 
L 2906 3500 
L 3481 3500 
L 3481 434 
z
" transform="scale(0.015625)"/>
      </defs>
      <use xlink:href="#DejaVuSans-54"/>
      <use xlink:href="#DejaVuSans-72" x="46.333984"/>
      <use xlink:href="#DejaVuSans-61" x="87.447266"/>
      <use xlink:href="#DejaVuSans-69" x="148.726562"/>
      <use xlink:href="#DejaVuSans-6e" x="176.509766"/>
      <use xlink:href="#DejaVuSans-69" x="239.888672"/>
      <use xlink:href="#DejaVuSans-6e" x="267.671875"/>
      <use xlink:href="#DejaVuSans-67" x="331.050781"/>
     </g>
    </g>
    <g id="line2d_15">
     <path d="M 240.073295 58.016562 
L 250.073295 58.016562 
L 260.073295 58.016562 
" style="fill: none; stroke: #ff7f0e; stroke-width: 1.5; stroke-linecap: square"/>
    </g>
    <g id="text_16">
     <!-- Validation -->
     <g transform="translate(268.073295 61.516562)scale(0.1 -0.1)">
      <defs>
       <path id="DejaVuSans-56" d="M 1831 0 
L 50 4666 
L 709 4666 
L 2188 738 
L 3669 4666 
L 4325 4666 
L 2547 0 
L 1831 0 
z
" transform="scale(0.015625)"/>
       <path id="DejaVuSans-6c" d="M 603 4863 
L 1178 4863 
L 1178 0 
L 603 0 
L 603 4863 
z
" transform="scale(0.015625)"/>
       <path id="DejaVuSans-74" d="M 1172 4494 
L 1172 3500 
L 2356 3500 
L 2356 3053 
L 1172 3053 
L 1172 1153 
Q 1172 725 1289 603 
Q 1406 481 1766 481 
L 2356 481 
L 2356 0 
L 1766 0 
Q 1100 0 847 248 
Q 594 497 594 1153 
L 594 3053 
L 172 3053 
L 172 3500 
L 594 3500 
L 594 4494 
L 1172 4494 
z
" transform="scale(0.015625)"/>
      </defs>
      <use xlink:href="#DejaVuSans-56"/>
      <use xlink:href="#DejaVuSans-61" x="60.658203"/>
      <use xlink:href="#DejaVuSans-6c" x="121.9375"/>
      <use xlink:href="#DejaVuSans-69" x="149.720703"/>
      <use xlink:href="#DejaVuSans-64" x="177.503906"/>
      <use xlink:href="#DejaVuSans-61" x="240.980469"/>
      <use xlink:href="#DejaVuSans-74" x="302.259766"/>
      <use xlink:href="#DejaVuSans-69" x="341.46875"/>
      <use xlink:href="#DejaVuSans-6f" x="369.251953"/>
      <use xlink:href="#DejaVuSans-6e" x="430.433594"/>
     </g>
    </g>
   </g>
  </g>
  <g id="axes_2">
   <g id="patch_8">
    <path d="M 374.645455 201.6 
L 615.6 201.6 
L 615.6 30.24 
L 374.645455 30.24 
z
" style="fill: #ffffff"/>
   </g>
   <g id="matplotlib.axis_3">
    <g id="xtick_7">
     <g id="line2d_16">
      <g>
       <use xlink:href="#m44bae57fc4" x="385.597934" y="201.6" style="stroke: #000000; stroke-width: 0.8"/>
      </g>
     </g>
     <g id="text_17">
      <!-- 0 -->
      <g transform="translate(382.416684 216.198437)scale(0.1 -0.1)">
       <use xlink:href="#DejaVuSans-30"/>
      </g>
     </g>
    </g>
    <g id="xtick_8">
     <g id="line2d_17">
      <g>
       <use xlink:href="#m44bae57fc4" x="429.628002" y="201.6" style="stroke: #000000; stroke-width: 0.8"/>
      </g>
     </g>
     <g id="text_18">
      <!-- 2000 -->
      <g transform="translate(416.903002 216.198437)scale(0.1 -0.1)">
       <use xlink:href="#DejaVuSans-32"/>
       <use xlink:href="#DejaVuSans-30" x="63.623047"/>
       <use xlink:href="#DejaVuSans-30" x="127.246094"/>
       <use xlink:href="#DejaVuSans-30" x="190.869141"/>
      </g>
     </g>
    </g>
    <g id="xtick_9">
     <g id="line2d_18">
      <g>
       <use xlink:href="#m44bae57fc4" x="473.658069" y="201.6" style="stroke: #000000; stroke-width: 0.8"/>
      </g>
     </g>
     <g id="text_19">
      <!-- 4000 -->
      <g transform="translate(460.933069 216.198437)scale(0.1 -0.1)">
       <use xlink:href="#DejaVuSans-34"/>
       <use xlink:href="#DejaVuSans-30" x="63.623047"/>
       <use xlink:href="#DejaVuSans-30" x="127.246094"/>
       <use xlink:href="#DejaVuSans-30" x="190.869141"/>
      </g>
     </g>
    </g>
    <g id="xtick_10">
     <g id="line2d_19">
      <g>
       <use xlink:href="#m44bae57fc4" x="517.688137" y="201.6" style="stroke: #000000; stroke-width: 0.8"/>
      </g>
     </g>
     <g id="text_20">
      <!-- 6000 -->
      <g transform="translate(504.963137 216.198437)scale(0.1 -0.1)">
       <use xlink:href="#DejaVuSans-36"/>
       <use xlink:href="#DejaVuSans-30" x="63.623047"/>
       <use xlink:href="#DejaVuSans-30" x="127.246094"/>
       <use xlink:href="#DejaVuSans-30" x="190.869141"/>
      </g>
     </g>
    </g>
    <g id="xtick_11">
     <g id="line2d_20">
      <g>
       <use xlink:href="#m44bae57fc4" x="561.718205" y="201.6" style="stroke: #000000; stroke-width: 0.8"/>
      </g>
     </g>
     <g id="text_21">
      <!-- 8000 -->
      <g transform="translate(548.993205 216.198437)scale(0.1 -0.1)">
       <use xlink:href="#DejaVuSans-38"/>
       <use xlink:href="#DejaVuSans-30" x="63.623047"/>
       <use xlink:href="#DejaVuSans-30" x="127.246094"/>
       <use xlink:href="#DejaVuSans-30" x="190.869141"/>
      </g>
     </g>
    </g>
    <g id="xtick_12">
     <g id="line2d_21">
      <g>
       <use xlink:href="#m44bae57fc4" x="605.748272" y="201.6" style="stroke: #000000; stroke-width: 0.8"/>
      </g>
     </g>
     <g id="text_22">
      <!-- 10000 -->
      <g transform="translate(589.842022 216.198437)scale(0.1 -0.1)">
       <use xlink:href="#DejaVuSans-31"/>
       <use xlink:href="#DejaVuSans-30" x="63.623047"/>
       <use xlink:href="#DejaVuSans-30" x="127.246094"/>
       <use xlink:href="#DejaVuSans-30" x="190.869141"/>
       <use xlink:href="#DejaVuSans-30" x="254.492188"/>
      </g>
     </g>
    </g>
    <g id="text_23">
     <!-- Number of episodes -->
     <g transform="translate(444.879759 229.876562)scale(0.1 -0.1)">
      <use xlink:href="#DejaVuSans-4e"/>
      <use xlink:href="#DejaVuSans-75" x="74.804688"/>
      <use xlink:href="#DejaVuSans-6d" x="138.183594"/>
      <use xlink:href="#DejaVuSans-62" x="235.595703"/>
      <use xlink:href="#DejaVuSans-65" x="299.072266"/>
      <use xlink:href="#DejaVuSans-72" x="360.595703"/>
      <use xlink:href="#DejaVuSans-20" x="401.708984"/>
      <use xlink:href="#DejaVuSans-6f" x="433.496094"/>
      <use xlink:href="#DejaVuSans-66" x="494.677734"/>
      <use xlink:href="#DejaVuSans-20" x="529.882812"/>
      <use xlink:href="#DejaVuSans-65" x="561.669922"/>
      <use xlink:href="#DejaVuSans-70" x="623.193359"/>
      <use xlink:href="#DejaVuSans-69" x="686.669922"/>
      <use xlink:href="#DejaVuSans-73" x="714.453125"/>
      <use xlink:href="#DejaVuSans-6f" x="766.552734"/>
      <use xlink:href="#DejaVuSans-64" x="827.734375"/>
      <use xlink:href="#DejaVuSans-65" x="891.210938"/>
      <use xlink:href="#DejaVuSans-73" x="952.734375"/>
     </g>
    </g>
   </g>
   <g id="matplotlib.axis_4">
    <g id="ytick_6">
     <g id="line2d_22">
      <g>
       <use xlink:href="#mfec8619305" x="374.645455" y="169.821119" style="stroke: #000000; stroke-width: 0.8"/>
      </g>
     </g>
     <g id="text_24">
      <!-- 70 -->
      <g transform="translate(354.920455 173.620338)scale(0.1 -0.1)">
       <use xlink:href="#DejaVuSans-37"/>
       <use xlink:href="#DejaVuSans-30" x="63.623047"/>
      </g>
     </g>
    </g>
    <g id="ytick_7">
     <g id="line2d_23">
      <g>
       <use xlink:href="#mfec8619305" x="374.645455" y="133.380924" style="stroke: #000000; stroke-width: 0.8"/>
      </g>
     </g>
     <g id="text_25">
      <!-- 80 -->
      <g transform="translate(354.920455 137.180143)scale(0.1 -0.1)">
       <use xlink:href="#DejaVuSans-38"/>
       <use xlink:href="#DejaVuSans-30" x="63.623047"/>
      </g>
     </g>
    </g>
    <g id="ytick_8">
     <g id="line2d_24">
      <g>
       <use xlink:href="#mfec8619305" x="374.645455" y="96.94073" style="stroke: #000000; stroke-width: 0.8"/>
      </g>
     </g>
     <g id="text_26">
      <!-- 90 -->
      <g transform="translate(354.920455 100.739948)scale(0.1 -0.1)">
       <defs>
        <path id="DejaVuSans-39" d="M 703 97 
L 703 672 
Q 941 559 1184 500 
Q 1428 441 1663 441 
Q 2288 441 2617 861 
Q 2947 1281 2994 2138 
Q 2813 1869 2534 1725 
Q 2256 1581 1919 1581 
Q 1219 1581 811 2004 
Q 403 2428 403 3163 
Q 403 3881 828 4315 
Q 1253 4750 1959 4750 
Q 2769 4750 3195 4129 
Q 3622 3509 3622 2328 
Q 3622 1225 3098 567 
Q 2575 -91 1691 -91 
Q 1453 -91 1209 -44 
Q 966 3 703 97 
z
M 1959 2075 
Q 2384 2075 2632 2365 
Q 2881 2656 2881 3163 
Q 2881 3666 2632 3958 
Q 2384 4250 1959 4250 
Q 1534 4250 1286 3958 
Q 1038 3666 1038 3163 
Q 1038 2656 1286 2365 
Q 1534 2075 1959 2075 
z
" transform="scale(0.015625)"/>
       </defs>
       <use xlink:href="#DejaVuSans-39"/>
       <use xlink:href="#DejaVuSans-30" x="63.623047"/>
      </g>
     </g>
    </g>
    <g id="ytick_9">
     <g id="line2d_25">
      <g>
       <use xlink:href="#mfec8619305" x="374.645455" y="60.500535" style="stroke: #000000; stroke-width: 0.8"/>
      </g>
     </g>
     <g id="text_27">
      <!-- 100 -->
      <g transform="translate(348.557955 64.299754)scale(0.1 -0.1)">
       <use xlink:href="#DejaVuSans-31"/>
       <use xlink:href="#DejaVuSans-30" x="63.623047"/>
       <use xlink:href="#DejaVuSans-30" x="127.246094"/>
      </g>
     </g>
    </g>
    <g id="text_28">
     <!-- Makespan -->
     <g transform="translate(342.478267 141.100469)rotate(-90)scale(0.1 -0.1)">
      <use xlink:href="#DejaVuSans-4d"/>
      <use xlink:href="#DejaVuSans-61" x="86.279297"/>
      <use xlink:href="#DejaVuSans-6b" x="147.558594"/>
      <use xlink:href="#DejaVuSans-65" x="201.84375"/>
      <use xlink:href="#DejaVuSans-73" x="263.367188"/>
      <use xlink:href="#DejaVuSans-70" x="315.466797"/>
      <use xlink:href="#DejaVuSans-61" x="378.943359"/>
      <use xlink:href="#DejaVuSans-6e" x="440.222656"/>
     </g>
    </g>
   </g>
   <g id="line2d_26">
    <path d="M 385.597934 160.21912 
L 386.698686 157.959846 
L 388.900189 162.114026 
L 390.000941 159.034825 
L 391.101692 159.289905 
L 392.202444 157.613659 
L 393.303196 164.063561 
L 394.403947 160.71107 
L 395.504699 161.822497 
L 396.605451 160.984361 
L 397.706203 162.988582 
L 398.806954 157.996266 
L 399.907706 163.608059 
L 401.008458 165.685149 
L 402.109209 162.842818 
L 403.209961 163.571639 
L 404.310713 163.425875 
L 405.411464 160.802176 
L 406.512216 161.239441 
L 407.612968 164.464406 
L 408.713719 165.940229 
L 409.814471 163.644507 
L 410.915223 162.423764 
L 412.015975 166.031335 
L 413.116726 167.652923 
L 414.217478 171.278732 
L 415.31823 167.069894 
L 416.418981 164.84704 
L 417.519733 167.780477 
L 418.620485 168.636824 
L 419.721236 168.108425 
L 420.821988 165.229647 
L 421.92274 165.594043 
L 423.023491 170.385937 
L 425.224995 168.891904 
L 426.325747 167.507159 
L 427.426498 170.659256 
L 428.52725 170.367727 
L 429.628002 168.52748 
L 430.728753 168.126663 
L 431.829505 167.17921 
L 432.930257 170.057989 
L 434.031008 169.657145 
L 435.13176 167.561817 
L 436.232512 167.853345 
L 437.333263 166.541496 
L 438.434015 169.566039 
L 439.534767 167.252079 
L 440.635519 170.950756 
L 441.73627 172.827424 
L 442.837022 170.149067 
L 443.937774 169.529591 
L 445.038525 168.071977 
L 446.139277 171.916419 
L 447.240029 169.857567 
L 448.34078 170.641018 
L 449.441532 169.456723 
L 450.542284 172.736346 
L 451.643035 169.875777 
L 452.743787 170.276621 
L 453.844539 171.023652 
L 454.945291 169.966883 
L 456.046042 172.845662 
L 457.146794 170.404175 
L 458.247546 173.938851 
L 459.348297 169.219852 
L 460.449049 170.021541 
L 461.549801 170.58636 
L 462.650552 171.497365 
L 463.751304 171.023652 
L 464.852056 173.246506 
L 465.952807 170.950756 
L 467.053559 170.203753 
L 468.154311 173.702009 
L 469.255063 173.41048 
L 470.355814 170.477044 
L 471.456566 172.098631 
L 472.557318 170.221963 
L 473.658069 171.533813 
L 474.758821 172.025763 
L 475.859573 174.449011 
L 476.960324 169.438485 
L 478.061076 173.683771 
L 479.161828 170.440596 
L 480.262579 172.207947 
L 481.363331 174.467249 
L 482.464083 172.809214 
L 483.564835 172.91853 
L 484.665586 171.606681 
L 485.766338 175.032068 
L 486.86709 171.041862 
L 487.967841 175.032068 
L 489.068593 173.574455 
L 490.169345 172.317263 
L 491.270096 173.829535 
L 492.370848 172.973188 
L 493.4716 169.638907 
L 494.572351 172.499475 
L 495.673103 173.811325 
L 496.773855 175.48757 
L 497.874607 171.3516 
L 498.975358 175.615097 
L 500.07611 173.319374 
L 501.176862 173.064294 
L 502.277613 174.485459 
L 503.378365 173.228268 
L 504.479117 174.795198 
L 505.579868 172.262605 
L 506.68062 171.843551 
L 507.781372 173.538007 
L 508.882123 170.60457 
L 509.982875 170.659256 
L 511.083627 174.248589 
L 512.184379 173.811325 
L 513.28513 172.882082 
L 514.385882 170.56815 
L 515.486634 173.42869 
L 516.587385 170.422385 
L 517.688137 174.157511 
L 518.788889 174.758778 
L 519.88964 170.367727 
L 520.990392 172.517686 
L 522.091144 171.278732 
L 523.191895 173.191848 
L 524.292647 171.788893 
L 525.393399 173.17361 
L 526.494151 173.064294 
L 527.594902 174.303275 
L 528.695654 176.070599 
L 529.796406 169.055878 
L 530.897157 174.813436 
L 531.997909 175.287148 
L 533.098661 173.774877 
L 534.199412 171.388048 
L 535.300164 170.914336 
L 537.501667 173.702009 
L 538.602419 173.42869 
L 539.703171 172.64524 
L 540.803923 174.594776 
L 543.005426 174.102853 
L 544.106178 175.669782 
L 545.206929 175.032068 
L 546.307681 174.558355 
L 547.408433 174.74054 
L 548.509184 174.613013 
L 549.609936 171.934657 
L 550.710688 170.313069 
L 551.811439 172.936768 
L 552.912191 173.64735 
L 554.012943 172.809214 
L 555.113695 174.97741 
L 556.214446 176.380365 
L 557.315198 174.97741 
L 558.41595 174.849856 
L 559.516701 172.353711 
L 560.617453 173.282926 
L 561.718205 174.412591 
L 562.818956 174.430801 
L 563.919708 172.517686 
L 565.02046 171.588471 
L 566.121211 171.005414 
L 567.221963 170.622808 
L 568.322715 173.829535 
L 569.423467 170.877888 
L 570.524218 172.718108 
L 572.725722 172.262605 
L 573.826473 169.675355 
L 574.927225 173.556244 
L 576.027977 169.347406 
L 577.128728 170.786782 
L 578.22948 173.264716 
L 579.330232 174.066405 
L 580.430983 171.388048 
L 581.531735 172.317263 
L 582.632487 172.736346 
L 583.733239 168.327058 
L 584.83399 168.964772 
L 585.934742 169.201642 
L 587.035494 168.600376 
L 588.136245 168.891904 
L 589.236997 168.563928 
L 590.337749 169.547829 
L 591.4385 170.768572 
L 592.539252 169.037668 
L 593.640004 171.33339 
L 594.740755 167.689371 
L 595.841507 172.299053 
L 596.942259 166.869472 
L 598.043011 172.90032 
L 599.143762 165.411859 
L 600.244514 168.928324 
L 601.345266 168.563928 
L 602.446017 169.839329 
L 603.546769 164.227536 
L 604.647521 168.545718 
L 604.647521 168.545718 
" clip-path="url(#pc96d5e7ae0)" style="fill: none; stroke: #1f77b4; stroke-width: 1.5; stroke-linecap: square"/>
   </g>
   <g id="line2d_27">
    <path d="M 385.597934 47.13914 
L 387.799437 38.029091 
L 390.000941 48.657472 
L 392.202444 56.856516 
L 394.403947 72.343598 
L 396.605451 89.045363 
L 398.806954 83.579334 
L 401.008458 105.747101 
L 403.209961 125.485558 
L 405.411464 153.726709 
L 407.612968 170.124796 
L 409.814471 172.554134 
L 412.015975 174.072466 
L 414.217478 183.182514 
L 416.418981 180.4495 
L 418.620485 179.538495 
L 420.821988 175.590826 
L 423.023491 182.878865 
L 425.224995 192.596241 
L 427.426498 184.093519 
L 429.628002 182.271509 
L 431.829505 182.575187 
L 434.031008 185.308202 
L 436.232512 184.700874 
L 438.434015 185.915529 
L 440.635519 191.077908 
L 442.837022 186.219207 
L 445.038525 189.255899 
L 447.240029 189.863226 
L 449.441532 187.737539 
L 451.643035 190.166904 
L 453.844539 185.611879 
L 456.046042 187.130211 
L 458.247546 183.789869 
L 460.449049 186.522884 
L 462.650552 192.292577 
L 464.852056 191.685236 
L 467.053559 193.810909 
L 469.255063 185.308202 
L 471.456566 191.077908 
L 473.658069 187.737539 
L 475.859573 189.255899 
L 478.061076 185.611879 
L 480.262579 192.899904 
L 482.464083 190.774231 
L 484.665586 188.952221 
L 486.86709 186.522884 
L 489.068593 185.611879 
L 491.270096 185.915529 
L 493.4716 184.397197 
L 495.673103 181.360505 
L 497.874607 186.826534 
L 500.07611 183.486192 
L 502.277613 187.130211 
L 504.479117 181.056855 
L 506.68062 185.611879 
L 508.882123 185.611879 
L 511.083627 181.056855 
L 513.28513 181.96786 
L 515.486634 180.14585 
L 517.688137 180.14585 
L 519.88964 179.538495 
L 522.091144 176.80548 
L 524.292647 179.842172 
L 526.494151 184.700874 
L 528.695654 185.611879 
L 530.897157 190.470553 
L 533.098661 182.878865 
L 535.300164 178.931168 
L 537.501667 185.611879 
L 539.703171 188.648544 
L 541.904674 180.4495 
L 544.106178 182.271509 
L 546.307681 178.62749 
L 548.509184 173.465138 
L 550.710688 178.32384 
L 552.912191 184.397197 
L 555.113695 181.360505 
L 557.315198 181.96786 
L 559.516701 183.789869 
L 561.718205 177.716485 
L 563.919708 176.501831 
L 566.121211 179.234845 
L 568.322715 185.915529 
L 570.524218 176.80548 
L 572.725722 176.501831 
L 574.927225 178.62749 
L 577.128728 176.198153 
L 579.330232 175.590826 
L 581.531735 179.538495 
L 583.733239 175.894475 
L 585.934742 179.234845 
L 588.136245 174.376143 
L 590.337749 179.842172 
L 592.539252 184.700874 
L 594.740755 180.4495 
L 596.942259 185.004524 
L 599.143762 186.522884 
L 601.345266 171.643129 
L 603.546769 180.753177 
" clip-path="url(#pc96d5e7ae0)" style="fill: none; stroke: #ff7f0e; stroke-width: 1.5; stroke-linecap: square"/>
   </g>
   <g id="patch_9">
    <path d="M 374.645455 201.6 
L 374.645455 30.24 
" style="fill: none; stroke: #000000; stroke-width: 0.8; stroke-linejoin: miter; stroke-linecap: square"/>
   </g>
   <g id="patch_10">
    <path d="M 615.6 201.6 
L 615.6 30.24 
" style="fill: none; stroke: #000000; stroke-width: 0.8; stroke-linejoin: miter; stroke-linecap: square"/>
   </g>
   <g id="patch_11">
    <path d="M 374.645455 201.6 
L 615.6 201.6 
" style="fill: none; stroke: #000000; stroke-width: 0.8; stroke-linejoin: miter; stroke-linecap: square"/>
   </g>
   <g id="patch_12">
    <path d="M 374.645455 30.24 
L 615.6 30.24 
" style="fill: none; stroke: #000000; stroke-width: 0.8; stroke-linejoin: miter; stroke-linecap: square"/>
   </g>
   <g id="text_29">
    <!-- MK02 -->
    <g transform="translate(478.376165 20.24)scale(0.12 -0.12)">
     <use xlink:href="#DejaVuSans-4d"/>
     <use xlink:href="#DejaVuSans-4b" x="86.279297"/>
     <use xlink:href="#DejaVuSans-30" x="151.855469"/>
     <use xlink:href="#DejaVuSans-32" x="215.478516"/>
    </g>
   </g>
   <g id="legend_2">
    <g id="patch_13">
     <path d="M 527.21875 67.59625 
L 608.6 67.59625 
Q 610.6 67.59625 610.6 65.59625 
L 610.6 37.24 
Q 610.6 35.24 608.6 35.24 
L 527.21875 35.24 
Q 525.21875 35.24 525.21875 37.24 
L 525.21875 65.59625 
Q 525.21875 67.59625 527.21875 67.59625 
z
" style="fill: #ffffff; opacity: 0.8; stroke: #cccccc; stroke-linejoin: miter"/>
    </g>
    <g id="line2d_28">
     <path d="M 529.21875 43.338437 
L 539.21875 43.338437 
L 549.21875 43.338437 
" style="fill: none; stroke: #1f77b4; stroke-width: 1.5; stroke-linecap: square"/>
    </g>
    <g id="text_30">
     <!-- Training -->
     <g transform="translate(557.21875 46.838437)scale(0.1 -0.1)">
      <use xlink:href="#DejaVuSans-54"/>
      <use xlink:href="#DejaVuSans-72" x="46.333984"/>
      <use xlink:href="#DejaVuSans-61" x="87.447266"/>
      <use xlink:href="#DejaVuSans-69" x="148.726562"/>
      <use xlink:href="#DejaVuSans-6e" x="176.509766"/>
      <use xlink:href="#DejaVuSans-69" x="239.888672"/>
      <use xlink:href="#DejaVuSans-6e" x="267.671875"/>
      <use xlink:href="#DejaVuSans-67" x="331.050781"/>
     </g>
    </g>
    <g id="line2d_29">
     <path d="M 529.21875 58.016562 
L 539.21875 58.016562 
L 549.21875 58.016562 
" style="fill: none; stroke: #ff7f0e; stroke-width: 1.5; stroke-linecap: square"/>
    </g>
    <g id="text_31">
     <!-- Validation -->
     <g transform="translate(557.21875 61.516562)scale(0.1 -0.1)">
      <use xlink:href="#DejaVuSans-56"/>
      <use xlink:href="#DejaVuSans-61" x="60.658203"/>
      <use xlink:href="#DejaVuSans-6c" x="121.9375"/>
      <use xlink:href="#DejaVuSans-69" x="149.720703"/>
      <use xlink:href="#DejaVuSans-64" x="177.503906"/>
      <use xlink:href="#DejaVuSans-61" x="240.980469"/>
      <use xlink:href="#DejaVuSans-74" x="302.259766"/>
      <use xlink:href="#DejaVuSans-69" x="341.46875"/>
      <use xlink:href="#DejaVuSans-6f" x="369.251953"/>
      <use xlink:href="#DejaVuSans-6e" x="430.433594"/>
     </g>
    </g>
   </g>
  </g>
 </g>
 <defs>
  <clipPath id="pc8a290e025">
   <rect x="85.5" y="30.24" width="240.954545" height="171.36"/>
  </clipPath>
  <clipPath id="pc96d5e7ae0">
   <rect x="374.645455" y="30.24" width="240.954545" height="171.36"/>
  </clipPath>
 </defs>
</svg>
