<?xml version="1.0" encoding="utf-8" standalone="no"?>
<!DOCTYPE svg PUBLIC "-//W3C//DTD SVG 1.1//EN"
  "http://www.w3.org/Graphics/SVG/1.1/DTD/svg11.dtd">
<svg xmlns:xlink="http://www.w3.org/1999/xlink" width="684pt" height="252pt" viewBox="0 0 684 252" xmlns="http://www.w3.org/2000/svg" version="1.1">
 <metadata>
  <rdf:RDF xmlns:dc="http://purl.org/dc/elements/1.1/" xmlns:cc="http://creativecommons.org/ns#" xmlns:rdf="http://www.w3.org/1999/02/22-rdf-syntax-ns#">
   <cc:Work>
    <dc:type rdf:resource="http://purl.org/dc/dcmitype/StillImage"/>
    <dc:date>2022-07-03T16:24:40.643094</dc:date>
    <dc:format>image/svg+xml</dc:format>
    <dc:creator>
     <cc:Agent>
      <dc:title>Matplotlib v3.5.1, https://matplotlib.org/</dc:title>
     </cc:Agent>
    </dc:creator>
   </cc:Work>
  </rdf:RDF>
 </metadata>
 <defs>
  <style type="text/css">*{stroke-linejoin: round; stroke-linecap: butt}</style>
 </defs>
 <g id="figure_1">
  <g id="patch_1">
   <path d="M 0 252 
L 684 252 
L 684 0 
L 0 0 
z
" style="fill: #ffffff"/>
  </g>
  <g id="axes_1">
   <g id="patch_2">
    <path d="M 85.5 201.6 
L 326.454545 201.6 
L 326.454545 30.24 
L 85.5 30.24 
z
" style="fill: #ffffff"/>
   </g>
   <g id="matplotlib.axis_1">
    <g id="xtick_1">
     <g id="line2d_1">
      <defs>
       <path id="m611dadbf1b" d="M 0 0 
L 0 3.5 
" style="stroke: #000000; stroke-width: 0.8"/>
      </defs>
      <g>
       <use xlink:href="#m611dadbf1b" x="96.452479" y="201.6" style="stroke: #000000; stroke-width: 0.8"/>
      </g>
     </g>
     <g id="text_1">
      <!-- 0 -->
      <g transform="translate(93.271229 216.198437)scale(0.1 -0.1)">
       <defs>
        <path id="DejaVuSans-30" d="M 2034 4250 
Q 1547 4250 1301 3770 
Q 1056 3291 1056 2328 
Q 1056 1369 1301 889 
Q 1547 409 2034 409 
Q 2525 409 2770 889 
Q 3016 1369 3016 2328 
Q 3016 3291 2770 3770 
Q 2525 4250 2034 4250 
z
M 2034 4750 
Q 2819 4750 3233 4129 
Q 3647 3509 3647 2328 
Q 3647 1150 3233 529 
Q 2819 -91 2034 -91 
Q 1250 -91 836 529 
Q 422 1150 422 2328 
Q 422 3509 836 4129 
Q 1250 4750 2034 4750 
z
" transform="scale(0.015625)"/>
       </defs>
       <use xlink:href="#DejaVuSans-30"/>
      </g>
     </g>
    </g>
    <g id="xtick_2">
     <g id="line2d_2">
      <g>
       <use xlink:href="#m611dadbf1b" x="140.482547" y="201.6" style="stroke: #000000; stroke-width: 0.8"/>
      </g>
     </g>
     <g id="text_2">
      <!-- 2000 -->
      <g transform="translate(127.757547 216.198437)scale(0.1 -0.1)">
       <defs>
        <path id="DejaVuSans-32" d="M 1228 531 
L 3431 531 
L 3431 0 
L 469 0 
L 469 531 
Q 828 903 1448 1529 
Q 2069 2156 2228 2338 
Q 2531 2678 2651 2914 
Q 2772 3150 2772 3378 
Q 2772 3750 2511 3984 
Q 2250 4219 1831 4219 
Q 1534 4219 1204 4116 
Q 875 4013 500 3803 
L 500 4441 
Q 881 4594 1212 4672 
Q 1544 4750 1819 4750 
Q 2544 4750 2975 4387 
Q 3406 4025 3406 3419 
Q 3406 3131 3298 2873 
Q 3191 2616 2906 2266 
Q 2828 2175 2409 1742 
Q 1991 1309 1228 531 
z
" transform="scale(0.015625)"/>
       </defs>
       <use xlink:href="#DejaVuSans-32"/>
       <use xlink:href="#DejaVuSans-30" x="63.623047"/>
       <use xlink:href="#DejaVuSans-30" x="127.246094"/>
       <use xlink:href="#DejaVuSans-30" x="190.869141"/>
      </g>
     </g>
    </g>
    <g id="xtick_3">
     <g id="line2d_3">
      <g>
       <use xlink:href="#m611dadbf1b" x="184.512615" y="201.6" style="stroke: #000000; stroke-width: 0.8"/>
      </g>
     </g>
     <g id="text_3">
      <!-- 4000 -->
      <g transform="translate(171.787615 216.198437)scale(0.1 -0.1)">
       <defs>
        <path id="DejaVuSans-34" d="M 2419 4116 
L 825 1625 
L 2419 1625 
L 2419 4116 
z
M 2253 4666 
L 3047 4666 
L 3047 1625 
L 3713 1625 
L 3713 1100 
L 3047 1100 
L 3047 0 
L 2419 0 
L 2419 1100 
L 313 1100 
L 313 1709 
L 2253 4666 
z
" transform="scale(0.015625)"/>
       </defs>
       <use xlink:href="#DejaVuSans-34"/>
       <use xlink:href="#DejaVuSans-30" x="63.623047"/>
       <use xlink:href="#DejaVuSans-30" x="127.246094"/>
       <use xlink:href="#DejaVuSans-30" x="190.869141"/>
      </g>
     </g>
    </g>
    <g id="xtick_4">
     <g id="line2d_4">
      <g>
       <use xlink:href="#m611dadbf1b" x="228.542682" y="201.6" style="stroke: #000000; stroke-width: 0.8"/>
      </g>
     </g>
     <g id="text_4">
      <!-- 6000 -->
      <g transform="translate(215.817682 216.198437)scale(0.1 -0.1)">
       <defs>
        <path id="DejaVuSans-36" d="M 2113 2584 
Q 1688 2584 1439 2293 
Q 1191 2003 1191 1497 
Q 1191 994 1439 701 
Q 1688 409 2113 409 
Q 2538 409 2786 701 
Q 3034 994 3034 1497 
Q 3034 2003 2786 2293 
Q 2538 2584 2113 2584 
z
M 3366 4563 
L 3366 3988 
Q 3128 4100 2886 4159 
Q 2644 4219 2406 4219 
Q 1781 4219 1451 3797 
Q 1122 3375 1075 2522 
Q 1259 2794 1537 2939 
Q 1816 3084 2150 3084 
Q 2853 3084 3261 2657 
Q 3669 2231 3669 1497 
Q 3669 778 3244 343 
Q 2819 -91 2113 -91 
Q 1303 -91 875 529 
Q 447 1150 447 2328 
Q 447 3434 972 4092 
Q 1497 4750 2381 4750 
Q 2619 4750 2861 4703 
Q 3103 4656 3366 4563 
z
" transform="scale(0.015625)"/>
       </defs>
       <use xlink:href="#DejaVuSans-36"/>
       <use xlink:href="#DejaVuSans-30" x="63.623047"/>
       <use xlink:href="#DejaVuSans-30" x="127.246094"/>
       <use xlink:href="#DejaVuSans-30" x="190.869141"/>
      </g>
     </g>
    </g>
    <g id="xtick_5">
     <g id="line2d_5">
      <g>
       <use xlink:href="#m611dadbf1b" x="272.57275" y="201.6" style="stroke: #000000; stroke-width: 0.8"/>
      </g>
     </g>
     <g id="text_5">
      <!-- 8000 -->
      <g transform="translate(259.84775 216.198437)scale(0.1 -0.1)">
       <defs>
        <path id="DejaVuSans-38" d="M 2034 2216 
Q 1584 2216 1326 1975 
Q 1069 1734 1069 1313 
Q 1069 891 1326 650 
Q 1584 409 2034 409 
Q 2484 409 2743 651 
Q 3003 894 3003 1313 
Q 3003 1734 2745 1975 
Q 2488 2216 2034 2216 
z
M 1403 2484 
Q 997 2584 770 2862 
Q 544 3141 544 3541 
Q 544 4100 942 4425 
Q 1341 4750 2034 4750 
Q 2731 4750 3128 4425 
Q 3525 4100 3525 3541 
Q 3525 3141 3298 2862 
Q 3072 2584 2669 2484 
Q 3125 2378 3379 2068 
Q 3634 1759 3634 1313 
Q 3634 634 3220 271 
Q 2806 -91 2034 -91 
Q 1263 -91 848 271 
Q 434 634 434 1313 
Q 434 1759 690 2068 
Q 947 2378 1403 2484 
z
M 1172 3481 
Q 1172 3119 1398 2916 
Q 1625 2713 2034 2713 
Q 2441 2713 2670 2916 
Q 2900 3119 2900 3481 
Q 2900 3844 2670 4047 
Q 2441 4250 2034 4250 
Q 1625 4250 1398 4047 
Q 1172 3844 1172 3481 
z
" transform="scale(0.015625)"/>
       </defs>
       <use xlink:href="#DejaVuSans-38"/>
       <use xlink:href="#DejaVuSans-30" x="63.623047"/>
       <use xlink:href="#DejaVuSans-30" x="127.246094"/>
       <use xlink:href="#DejaVuSans-30" x="190.869141"/>
      </g>
     </g>
    </g>
    <g id="xtick_6">
     <g id="line2d_6">
      <g>
       <use xlink:href="#m611dadbf1b" x="316.602818" y="201.6" style="stroke: #000000; stroke-width: 0.8"/>
      </g>
     </g>
     <g id="text_6">
      <!-- 10000 -->
      <g transform="translate(300.696568 216.198437)scale(0.1 -0.1)">
       <defs>
        <path id="DejaVuSans-31" d="M 794 531 
L 1825 531 
L 1825 4091 
L 703 3866 
L 703 4441 
L 1819 4666 
L 2450 4666 
L 2450 531 
L 3481 531 
L 3481 0 
L 794 0 
L 794 531 
z
" transform="scale(0.015625)"/>
       </defs>
       <use xlink:href="#DejaVuSans-31"/>
       <use xlink:href="#DejaVuSans-30" x="63.623047"/>
       <use xlink:href="#DejaVuSans-30" x="127.246094"/>
       <use xlink:href="#DejaVuSans-30" x="190.869141"/>
       <use xlink:href="#DejaVuSans-30" x="254.492188"/>
      </g>
     </g>
    </g>
    <g id="text_7">
     <!-- Number of episodes -->
     <g transform="translate(155.734304 229.876562)scale(0.1 -0.1)">
      <defs>
       <path id="DejaVuSans-4e" d="M 628 4666 
L 1478 4666 
L 3547 763 
L 3547 4666 
L 4159 4666 
L 4159 0 
L 3309 0 
L 1241 3903 
L 1241 0 
L 628 0 
L 628 4666 
z
" transform="scale(0.015625)"/>
       <path id="DejaVuSans-75" d="M 544 1381 
L 544 3500 
L 1119 3500 
L 1119 1403 
Q 1119 906 1312 657 
Q 1506 409 1894 409 
Q 2359 409 2629 706 
Q 2900 1003 2900 1516 
L 2900 3500 
L 3475 3500 
L 3475 0 
L 2900 0 
L 2900 538 
Q 2691 219 2414 64 
Q 2138 -91 1772 -91 
Q 1169 -91 856 284 
Q 544 659 544 1381 
z
M 1991 3584 
L 1991 3584 
z
" transform="scale(0.015625)"/>
       <path id="DejaVuSans-6d" d="M 3328 2828 
Q 3544 3216 3844 3400 
Q 4144 3584 4550 3584 
Q 5097 3584 5394 3201 
Q 5691 2819 5691 2113 
L 5691 0 
L 5113 0 
L 5113 2094 
Q 5113 2597 4934 2840 
Q 4756 3084 4391 3084 
Q 3944 3084 3684 2787 
Q 3425 2491 3425 1978 
L 3425 0 
L 2847 0 
L 2847 2094 
Q 2847 2600 2669 2842 
Q 2491 3084 2119 3084 
Q 1678 3084 1418 2786 
Q 1159 2488 1159 1978 
L 1159 0 
L 581 0 
L 581 3500 
L 1159 3500 
L 1159 2956 
Q 1356 3278 1631 3431 
Q 1906 3584 2284 3584 
Q 2666 3584 2933 3390 
Q 3200 3197 3328 2828 
z
" transform="scale(0.015625)"/>
       <path id="DejaVuSans-62" d="M 3116 1747 
Q 3116 2381 2855 2742 
Q 2594 3103 2138 3103 
Q 1681 3103 1420 2742 
Q 1159 2381 1159 1747 
Q 1159 1113 1420 752 
Q 1681 391 2138 391 
Q 2594 391 2855 752 
Q 3116 1113 3116 1747 
z
M 1159 2969 
Q 1341 3281 1617 3432 
Q 1894 3584 2278 3584 
Q 2916 3584 3314 3078 
Q 3713 2572 3713 1747 
Q 3713 922 3314 415 
Q 2916 -91 2278 -91 
Q 1894 -91 1617 61 
Q 1341 213 1159 525 
L 1159 0 
L 581 0 
L 581 4863 
L 1159 4863 
L 1159 2969 
z
" transform="scale(0.015625)"/>
       <path id="DejaVuSans-65" d="M 3597 1894 
L 3597 1613 
L 953 1613 
Q 991 1019 1311 708 
Q 1631 397 2203 397 
Q 2534 397 2845 478 
Q 3156 559 3463 722 
L 3463 178 
Q 3153 47 2828 -22 
Q 2503 -91 2169 -91 
Q 1331 -91 842 396 
Q 353 884 353 1716 
Q 353 2575 817 3079 
Q 1281 3584 2069 3584 
Q 2775 3584 3186 3129 
Q 3597 2675 3597 1894 
z
M 3022 2063 
Q 3016 2534 2758 2815 
Q 2500 3097 2075 3097 
Q 1594 3097 1305 2825 
Q 1016 2553 972 2059 
L 3022 2063 
z
" transform="scale(0.015625)"/>
       <path id="DejaVuSans-72" d="M 2631 2963 
Q 2534 3019 2420 3045 
Q 2306 3072 2169 3072 
Q 1681 3072 1420 2755 
Q 1159 2438 1159 1844 
L 1159 0 
L 581 0 
L 581 3500 
L 1159 3500 
L 1159 2956 
Q 1341 3275 1631 3429 
Q 1922 3584 2338 3584 
Q 2397 3584 2469 3576 
Q 2541 3569 2628 3553 
L 2631 2963 
z
" transform="scale(0.015625)"/>
       <path id="DejaVuSans-20" transform="scale(0.015625)"/>
       <path id="DejaVuSans-6f" d="M 1959 3097 
Q 1497 3097 1228 2736 
Q 959 2375 959 1747 
Q 959 1119 1226 758 
Q 1494 397 1959 397 
Q 2419 397 2687 759 
Q 2956 1122 2956 1747 
Q 2956 2369 2687 2733 
Q 2419 3097 1959 3097 
z
M 1959 3584 
Q 2709 3584 3137 3096 
Q 3566 2609 3566 1747 
Q 3566 888 3137 398 
Q 2709 -91 1959 -91 
Q 1206 -91 779 398 
Q 353 888 353 1747 
Q 353 2609 779 3096 
Q 1206 3584 1959 3584 
z
" transform="scale(0.015625)"/>
       <path id="DejaVuSans-66" d="M 2375 4863 
L 2375 4384 
L 1825 4384 
Q 1516 4384 1395 4259 
Q 1275 4134 1275 3809 
L 1275 3500 
L 2222 3500 
L 2222 3053 
L 1275 3053 
L 1275 0 
L 697 0 
L 697 3053 
L 147 3053 
L 147 3500 
L 697 3500 
L 697 3744 
Q 697 4328 969 4595 
Q 1241 4863 1831 4863 
L 2375 4863 
z
" transform="scale(0.015625)"/>
       <path id="DejaVuSans-70" d="M 1159 525 
L 1159 -1331 
L 581 -1331 
L 581 3500 
L 1159 3500 
L 1159 2969 
Q 1341 3281 1617 3432 
Q 1894 3584 2278 3584 
Q 2916 3584 3314 3078 
Q 3713 2572 3713 1747 
Q 3713 922 3314 415 
Q 2916 -91 2278 -91 
Q 1894 -91 1617 61 
Q 1341 213 1159 525 
z
M 3116 1747 
Q 3116 2381 2855 2742 
Q 2594 3103 2138 3103 
Q 1681 3103 1420 2742 
Q 1159 2381 1159 1747 
Q 1159 1113 1420 752 
Q 1681 391 2138 391 
Q 2594 391 2855 752 
Q 3116 1113 3116 1747 
z
" transform="scale(0.015625)"/>
       <path id="DejaVuSans-69" d="M 603 3500 
L 1178 3500 
L 1178 0 
L 603 0 
L 603 3500 
z
M 603 4863 
L 1178 4863 
L 1178 4134 
L 603 4134 
L 603 4863 
z
" transform="scale(0.015625)"/>
       <path id="DejaVuSans-73" d="M 2834 3397 
L 2834 2853 
Q 2591 2978 2328 3040 
Q 2066 3103 1784 3103 
Q 1356 3103 1142 2972 
Q 928 2841 928 2578 
Q 928 2378 1081 2264 
Q 1234 2150 1697 2047 
L 1894 2003 
Q 2506 1872 2764 1633 
Q 3022 1394 3022 966 
Q 3022 478 2636 193 
Q 2250 -91 1575 -91 
Q 1294 -91 989 -36 
Q 684 19 347 128 
L 347 722 
Q 666 556 975 473 
Q 1284 391 1588 391 
Q 1994 391 2212 530 
Q 2431 669 2431 922 
Q 2431 1156 2273 1281 
Q 2116 1406 1581 1522 
L 1381 1569 
Q 847 1681 609 1914 
Q 372 2147 372 2553 
Q 372 3047 722 3315 
Q 1072 3584 1716 3584 
Q 2034 3584 2315 3537 
Q 2597 3491 2834 3397 
z
" transform="scale(0.015625)"/>
       <path id="DejaVuSans-64" d="M 2906 2969 
L 2906 4863 
L 3481 4863 
L 3481 0 
L 2906 0 
L 2906 525 
Q 2725 213 2448 61 
Q 2172 -91 1784 -91 
Q 1150 -91 751 415 
Q 353 922 353 1747 
Q 353 2572 751 3078 
Q 1150 3584 1784 3584 
Q 2172 3584 2448 3432 
Q 2725 3281 2906 2969 
z
M 947 1747 
Q 947 1113 1208 752 
Q 1469 391 1925 391 
Q 2381 391 2643 752 
Q 2906 1113 2906 1747 
Q 2906 2381 2643 2742 
Q 2381 3103 1925 3103 
Q 1469 3103 1208 2742 
Q 947 2381 947 1747 
z
" transform="scale(0.015625)"/>
      </defs>
      <use xlink:href="#DejaVuSans-4e"/>
      <use xlink:href="#DejaVuSans-75" x="74.804688"/>
      <use xlink:href="#DejaVuSans-6d" x="138.183594"/>
      <use xlink:href="#DejaVuSans-62" x="235.595703"/>
      <use xlink:href="#DejaVuSans-65" x="299.072266"/>
      <use xlink:href="#DejaVuSans-72" x="360.595703"/>
      <use xlink:href="#DejaVuSans-20" x="401.708984"/>
      <use xlink:href="#DejaVuSans-6f" x="433.496094"/>
      <use xlink:href="#DejaVuSans-66" x="494.677734"/>
      <use xlink:href="#DejaVuSans-20" x="529.882812"/>
      <use xlink:href="#DejaVuSans-65" x="561.669922"/>
      <use xlink:href="#DejaVuSans-70" x="623.193359"/>
      <use xlink:href="#DejaVuSans-69" x="686.669922"/>
      <use xlink:href="#DejaVuSans-73" x="714.453125"/>
      <use xlink:href="#DejaVuSans-6f" x="766.552734"/>
      <use xlink:href="#DejaVuSans-64" x="827.734375"/>
      <use xlink:href="#DejaVuSans-65" x="891.210938"/>
      <use xlink:href="#DejaVuSans-73" x="952.734375"/>
     </g>
    </g>
   </g>
   <g id="matplotlib.axis_2">
    <g id="ytick_1">
     <g id="line2d_7">
      <defs>
       <path id="m4741e13f75" d="M 0 0 
L -3.5 0 
" style="stroke: #000000; stroke-width: 0.8"/>
      </defs>
      <g>
       <use xlink:href="#m4741e13f75" x="85.5" y="187.581813" style="stroke: #000000; stroke-width: 0.8"/>
      </g>
     </g>
     <g id="text_8">
      <!-- 330 -->
      <g transform="translate(59.4125 191.381032)scale(0.1 -0.1)">
       <defs>
        <path id="DejaVuSans-33" d="M 2597 2516 
Q 3050 2419 3304 2112 
Q 3559 1806 3559 1356 
Q 3559 666 3084 287 
Q 2609 -91 1734 -91 
Q 1441 -91 1130 -33 
Q 819 25 488 141 
L 488 750 
Q 750 597 1062 519 
Q 1375 441 1716 441 
Q 2309 441 2620 675 
Q 2931 909 2931 1356 
Q 2931 1769 2642 2001 
Q 2353 2234 1838 2234 
L 1294 2234 
L 1294 2753 
L 1863 2753 
Q 2328 2753 2575 2939 
Q 2822 3125 2822 3475 
Q 2822 3834 2567 4026 
Q 2313 4219 1838 4219 
Q 1578 4219 1281 4162 
Q 984 4106 628 3988 
L 628 4550 
Q 988 4650 1302 4700 
Q 1616 4750 1894 4750 
Q 2613 4750 3031 4423 
Q 3450 4097 3450 3541 
Q 3450 3153 3228 2886 
Q 3006 2619 2597 2516 
z
" transform="scale(0.015625)"/>
       </defs>
       <use xlink:href="#DejaVuSans-33"/>
       <use xlink:href="#DejaVuSans-33" x="63.623047"/>
       <use xlink:href="#DejaVuSans-30" x="127.246094"/>
      </g>
     </g>
    </g>
    <g id="ytick_2">
     <g id="line2d_8">
      <g>
       <use xlink:href="#m4741e13f75" x="85.5" y="165.596846" style="stroke: #000000; stroke-width: 0.8"/>
      </g>
     </g>
     <g id="text_9">
      <!-- 340 -->
      <g transform="translate(59.4125 169.396065)scale(0.1 -0.1)">
       <use xlink:href="#DejaVuSans-33"/>
       <use xlink:href="#DejaVuSans-34" x="63.623047"/>
       <use xlink:href="#DejaVuSans-30" x="127.246094"/>
      </g>
     </g>
    </g>
    <g id="ytick_3">
     <g id="line2d_9">
      <g>
       <use xlink:href="#m4741e13f75" x="85.5" y="143.61188" style="stroke: #000000; stroke-width: 0.8"/>
      </g>
     </g>
     <g id="text_10">
      <!-- 350 -->
      <g transform="translate(59.4125 147.411098)scale(0.1 -0.1)">
       <defs>
        <path id="DejaVuSans-35" d="M 691 4666 
L 3169 4666 
L 3169 4134 
L 1269 4134 
L 1269 2991 
Q 1406 3038 1543 3061 
Q 1681 3084 1819 3084 
Q 2600 3084 3056 2656 
Q 3513 2228 3513 1497 
Q 3513 744 3044 326 
Q 2575 -91 1722 -91 
Q 1428 -91 1123 -41 
Q 819 9 494 109 
L 494 744 
Q 775 591 1075 516 
Q 1375 441 1709 441 
Q 2250 441 2565 725 
Q 2881 1009 2881 1497 
Q 2881 1984 2565 2268 
Q 2250 2553 1709 2553 
Q 1456 2553 1204 2497 
Q 953 2441 691 2322 
L 691 4666 
z
" transform="scale(0.015625)"/>
       </defs>
       <use xlink:href="#DejaVuSans-33"/>
       <use xlink:href="#DejaVuSans-35" x="63.623047"/>
       <use xlink:href="#DejaVuSans-30" x="127.246094"/>
      </g>
     </g>
    </g>
    <g id="ytick_4">
     <g id="line2d_10">
      <g>
       <use xlink:href="#m4741e13f75" x="85.5" y="121.626913" style="stroke: #000000; stroke-width: 0.8"/>
      </g>
     </g>
     <g id="text_11">
      <!-- 360 -->
      <g transform="translate(59.4125 125.426132)scale(0.1 -0.1)">
       <use xlink:href="#DejaVuSans-33"/>
       <use xlink:href="#DejaVuSans-36" x="63.623047"/>
       <use xlink:href="#DejaVuSans-30" x="127.246094"/>
      </g>
     </g>
    </g>
    <g id="ytick_5">
     <g id="line2d_11">
      <g>
       <use xlink:href="#m4741e13f75" x="85.5" y="99.641946" style="stroke: #000000; stroke-width: 0.8"/>
      </g>
     </g>
     <g id="text_12">
      <!-- 370 -->
      <g transform="translate(59.4125 103.441165)scale(0.1 -0.1)">
       <defs>
        <path id="DejaVuSans-37" d="M 525 4666 
L 3525 4666 
L 3525 4397 
L 1831 0 
L 1172 0 
L 2766 4134 
L 525 4134 
L 525 4666 
z
" transform="scale(0.015625)"/>
       </defs>
       <use xlink:href="#DejaVuSans-33"/>
       <use xlink:href="#DejaVuSans-37" x="63.623047"/>
       <use xlink:href="#DejaVuSans-30" x="127.246094"/>
      </g>
     </g>
    </g>
    <g id="ytick_6">
     <g id="line2d_12">
      <g>
       <use xlink:href="#m4741e13f75" x="85.5" y="77.65698" style="stroke: #000000; stroke-width: 0.8"/>
      </g>
     </g>
     <g id="text_13">
      <!-- 380 -->
      <g transform="translate(59.4125 81.456199)scale(0.1 -0.1)">
       <use xlink:href="#DejaVuSans-33"/>
       <use xlink:href="#DejaVuSans-38" x="63.623047"/>
       <use xlink:href="#DejaVuSans-30" x="127.246094"/>
      </g>
     </g>
    </g>
    <g id="ytick_7">
     <g id="line2d_13">
      <g>
       <use xlink:href="#m4741e13f75" x="85.5" y="55.672013" style="stroke: #000000; stroke-width: 0.8"/>
      </g>
     </g>
     <g id="text_14">
      <!-- 390 -->
      <g transform="translate(59.4125 59.471232)scale(0.1 -0.1)">
       <defs>
        <path id="DejaVuSans-39" d="M 703 97 
L 703 672 
Q 941 559 1184 500 
Q 1428 441 1663 441 
Q 2288 441 2617 861 
Q 2947 1281 2994 2138 
Q 2813 1869 2534 1725 
Q 2256 1581 1919 1581 
Q 1219 1581 811 2004 
Q 403 2428 403 3163 
Q 403 3881 828 4315 
Q 1253 4750 1959 4750 
Q 2769 4750 3195 4129 
Q 3622 3509 3622 2328 
Q 3622 1225 3098 567 
Q 2575 -91 1691 -91 
Q 1453 -91 1209 -44 
Q 966 3 703 97 
z
M 1959 2075 
Q 2384 2075 2632 2365 
Q 2881 2656 2881 3163 
Q 2881 3666 2632 3958 
Q 2384 4250 1959 4250 
Q 1534 4250 1286 3958 
Q 1038 3666 1038 3163 
Q 1038 2656 1286 2365 
Q 1534 2075 1959 2075 
z
" transform="scale(0.015625)"/>
       </defs>
       <use xlink:href="#DejaVuSans-33"/>
       <use xlink:href="#DejaVuSans-39" x="63.623047"/>
       <use xlink:href="#DejaVuSans-30" x="127.246094"/>
      </g>
     </g>
    </g>
    <g id="ytick_8">
     <g id="line2d_14">
      <g>
       <use xlink:href="#m4741e13f75" x="85.5" y="33.687047" style="stroke: #000000; stroke-width: 0.8"/>
      </g>
     </g>
     <g id="text_15">
      <!-- 400 -->
      <g transform="translate(59.4125 37.486265)scale(0.1 -0.1)">
       <use xlink:href="#DejaVuSans-34"/>
       <use xlink:href="#DejaVuSans-30" x="63.623047"/>
       <use xlink:href="#DejaVuSans-30" x="127.246094"/>
      </g>
     </g>
    </g>
    <g id="text_16">
     <!-- Makespan -->
     <g transform="translate(53.332812 141.100469)rotate(-90)scale(0.1 -0.1)">
      <defs>
       <path id="DejaVuSans-4d" d="M 628 4666 
L 1569 4666 
L 2759 1491 
L 3956 4666 
L 4897 4666 
L 4897 0 
L 4281 0 
L 4281 4097 
L 3078 897 
L 2444 897 
L 1241 4097 
L 1241 0 
L 628 0 
L 628 4666 
z
" transform="scale(0.015625)"/>
       <path id="DejaVuSans-61" d="M 2194 1759 
Q 1497 1759 1228 1600 
Q 959 1441 959 1056 
Q 959 750 1161 570 
Q 1363 391 1709 391 
Q 2188 391 2477 730 
Q 2766 1069 2766 1631 
L 2766 1759 
L 2194 1759 
z
M 3341 1997 
L 3341 0 
L 2766 0 
L 2766 531 
Q 2569 213 2275 61 
Q 1981 -91 1556 -91 
Q 1019 -91 701 211 
Q 384 513 384 1019 
Q 384 1609 779 1909 
Q 1175 2209 1959 2209 
L 2766 2209 
L 2766 2266 
Q 2766 2663 2505 2880 
Q 2244 3097 1772 3097 
Q 1472 3097 1187 3025 
Q 903 2953 641 2809 
L 641 3341 
Q 956 3463 1253 3523 
Q 1550 3584 1831 3584 
Q 2591 3584 2966 3190 
Q 3341 2797 3341 1997 
z
" transform="scale(0.015625)"/>
       <path id="DejaVuSans-6b" d="M 581 4863 
L 1159 4863 
L 1159 1991 
L 2875 3500 
L 3609 3500 
L 1753 1863 
L 3688 0 
L 2938 0 
L 1159 1709 
L 1159 0 
L 581 0 
L 581 4863 
z
" transform="scale(0.015625)"/>
       <path id="DejaVuSans-6e" d="M 3513 2113 
L 3513 0 
L 2938 0 
L 2938 2094 
Q 2938 2591 2744 2837 
Q 2550 3084 2163 3084 
Q 1697 3084 1428 2787 
Q 1159 2491 1159 1978 
L 1159 0 
L 581 0 
L 581 3500 
L 1159 3500 
L 1159 2956 
Q 1366 3272 1645 3428 
Q 1925 3584 2291 3584 
Q 2894 3584 3203 3211 
Q 3513 2838 3513 2113 
z
" transform="scale(0.015625)"/>
      </defs>
      <use xlink:href="#DejaVuSans-4d"/>
      <use xlink:href="#DejaVuSans-61" x="86.279297"/>
      <use xlink:href="#DejaVuSans-6b" x="147.558594"/>
      <use xlink:href="#DejaVuSans-65" x="201.84375"/>
      <use xlink:href="#DejaVuSans-73" x="263.367188"/>
      <use xlink:href="#DejaVuSans-70" x="315.466797"/>
      <use xlink:href="#DejaVuSans-61" x="378.943359"/>
      <use xlink:href="#DejaVuSans-6e" x="440.222656"/>
     </g>
    </g>
   </g>
   <g id="line2d_15">
    <path d="M 96.452479 39.864817 
L 97.553231 42.975708 
L 98.653983 43.756132 
L 99.754734 42.371135 
L 100.855486 38.029091 
L 101.956238 43.855094 
L 103.056989 42.689893 
L 104.157741 44.272813 
L 105.258493 44.580568 
L 106.359245 40.106686 
L 107.459996 41.865457 
L 108.560748 47.053877 
L 109.6615 43.679243 
L 110.762251 39.590005 
L 111.863003 43.514329 
L 112.963755 39.919766 
L 114.064506 40.876107 
L 115.165258 46.746122 
L 116.26601 51.318966 
L 117.366761 43.558275 
L 118.467513 46.317399 
L 119.568265 50.28567 
L 120.669017 49.417288 
L 121.769768 43.008651 
L 122.87052 42.05231 
L 125.072023 44.063954 
L 126.172775 43.228514 
L 127.273527 41.997361 
L 128.374278 47.834367 
L 129.47503 42.997648 
L 130.575782 40.656311 
L 131.676533 49.043514 
L 132.777285 52.429217 
L 133.878037 47.988278 
L 134.978789 45.339052 
L 136.07954 46.0866 
L 137.180292 38.358852 
L 138.281044 50.758405 
L 139.381795 57.145035 
L 140.482547 46.05359 
L 141.583299 49.494243 
L 142.68405 51.09917 
L 143.784802 48.614858 
L 144.885554 51.813641 
L 145.986305 50.8573 
L 147.087057 46.943979 
L 148.187809 47.944265 
L 149.288561 49.801998 
L 150.389312 43.360418 
L 151.490064 51.681736 
L 152.590816 52.758978 
L 153.691567 50.120823 
L 154.792319 44.877387 
L 155.893071 46.88903 
L 156.993822 53.715319 
L 158.094574 46.075597 
L 159.195326 49.725109 
L 160.296077 46.251447 
L 161.396829 53.880233 
L 162.497581 50.28567 
L 163.598333 44.789428 
L 164.699084 40.007724 
L 165.799836 51.736685 
L 166.900588 50.923252 
L 168.001339 53.517462 
L 169.102091 47.251801 
L 170.202843 51.604781 
L 171.303594 44.800431 
L 172.404346 52.495169 
L 173.505098 57.090019 
L 174.605849 54.484806 
L 175.706601 59.321526 
L 176.807353 54.012137 
L 177.908105 59.200624 
L 179.008856 44.954342 
L 180.109608 53.671373 
L 181.21036 50.197778 
L 182.311111 51.09917 
L 183.411863 50.879307 
L 184.512615 46.020581 
L 185.613366 49.48324 
L 186.714118 45.141195 
L 187.81487 53.737325 
L 188.915621 57.881513 
L 190.016373 52.846937 
L 191.117125 52.923892 
L 192.217877 48.878667 
L 194.41938 55.188341 
L 195.520132 52.64908 
L 196.620883 43.063667 
L 197.721635 56.419494 
L 198.822387 51.890596 
L 199.923138 51.176058 
L 201.02389 51.176058 
L 202.124642 49.351335 
L 203.225393 51.384918 
L 204.326145 51.24201 
L 205.426897 50.956262 
L 206.527649 53.880233 
L 207.6284 55.441147 
L 208.729152 51.560835 
L 209.829904 43.998001 
L 210.930655 59.585335 
L 212.031407 47.350695 
L 213.132159 46.790068 
L 214.23291 50.736399 
L 215.333662 53.198704 
L 216.434414 62.399408 
L 217.535165 49.142475 
L 218.635917 58.804844 
L 219.736669 46.976988 
L 220.837421 57.540749 
L 221.938172 50.142762 
L 223.038924 54.64972 
L 224.139676 56.914169 
L 225.240427 53.209708 
L 226.341179 58.991765 
L 227.441931 67.895649 
L 228.542682 55.639004 
L 229.643434 49.461233 
L 230.744186 58.969758 
L 231.844937 58.28823 
L 232.945689 59.574331 
L 234.046441 62.113592 
L 235.147193 62.443353 
L 236.247944 59.783191 
L 237.348696 53.088806 
L 239.550199 59.552392 
L 240.650951 47.350695 
L 241.751703 55.045434 
L 243.953206 60.112952 
L 245.053958 57.06808 
L 246.154709 61.344105 
L 247.255461 53.286663 
L 248.356213 57.320886 
L 249.456965 54.220997 
L 250.557716 54.902526 
L 251.658468 52.693026 
L 252.75922 53.561475 
L 253.859971 54.594771 
L 254.960723 58.639997 
L 256.061475 59.387478 
L 257.162226 55.441147 
L 258.262978 59.013704 
L 259.36373 54.968478 
L 260.464481 49.681096 
L 261.565233 54.572765 
L 262.665985 51.48388 
L 263.766737 57.584695 
L 264.867488 58.299233 
L 265.96824 55.880873 
L 267.068992 59.948105 
L 268.169743 59.398481 
L 269.270495 51.132112 
L 270.371247 52.890883 
L 272.57275 65.114586 
L 273.673502 56.639357 
L 274.774253 50.758405 
L 275.875005 55.606061 
L 276.975757 58.200271 
L 278.076509 56.6723 
L 279.17726 55.364191 
L 280.278012 51.000208 
L 281.378764 67.576891 
L 282.479515 56.6723 
L 283.580267 57.166975 
L 284.681019 60.497729 
L 285.78177 57.947465 
L 286.882522 54.847577 
L 287.983274 51.121109 
L 289.084025 62.652213 
L 290.184777 55.309242 
L 291.285529 49.582202 
L 292.386281 59.761185 
L 293.487032 64.334095 
L 294.587784 52.484166 
L 295.688536 59.706236 
L 296.789287 54.462867 
L 297.890039 55.617064 
L 298.990791 56.034784 
L 300.091542 57.188981 
L 301.192294 54.64972 
L 302.293046 57.815561 
L 303.393797 53.880233 
L 304.494549 53.572478 
L 305.595301 61.366111 
L 306.696053 48.515896 
L 307.796804 57.101023 
L 308.897556 53.858227 
L 309.998308 49.681096 
L 311.099059 53.69338 
L 312.199811 51.494883 
L 313.300563 51.461873 
L 314.401314 62.542315 
L 315.502066 54.583768 
L 315.502066 54.583768 
" clip-path="url(#p3334db1f3a)" style="fill: none; stroke: #1f77b4; stroke-width: 1.5; stroke-linecap: square"/>
   </g>
   <g id="line2d_16">
    <path d="M 96.452479 122.176537 
L 98.653983 91.947208 
L 100.855486 76.924125 
L 103.056989 120.894058 
L 105.258493 126.3903 
L 107.459996 124.375034 
L 109.6615 123.642179 
L 111.863003 145.993607 
L 114.064506 165.413616 
L 116.26601 153.505115 
L 118.467513 132.98579 
L 120.669017 152.039473 
L 122.87052 162.115871 
L 125.072023 163.58158 
L 127.273527 114.481799 
L 129.47503 139.398117 
L 131.676533 130.787293 
L 133.878037 134.451499 
L 136.07954 133.16902 
L 138.281044 145.260752 
L 140.482547 142.146238 
L 142.68405 145.810376 
L 144.885554 151.673012 
L 147.087057 159.734211 
L 149.288561 148.192103 
L 151.490064 132.253003 
L 153.691567 151.306618 
L 155.893071 151.856242 
L 158.094574 137.19962 
L 160.296077 165.96324 
L 162.497581 145.810376 
L 164.699084 154.787593 
L 166.900588 155.703611 
L 169.102091 176.955723 
L 171.303594 155.153987 
L 173.505098 151.306618 
L 175.706601 166.512864 
L 177.908105 175.856475 
L 180.109608 178.604596 
L 182.311111 150.3906 
L 184.512615 154.970757 
L 186.714118 149.108121 
L 188.915621 145.993607 
L 191.117125 172.009106 
L 193.318628 151.489848 
L 195.520132 115.214653 
L 197.721635 143.79511 
L 199.923138 177.505347 
L 202.124642 170.17707 
L 204.326145 151.123388 
L 206.527649 162.482332 
L 208.729152 169.99384 
L 210.930655 146.726394 
L 213.132159 161.383083 
L 215.333662 150.20737 
L 217.535165 141.779777 
L 219.736669 170.726694 
L 221.938172 178.238202 
L 224.139676 181.719177 
L 226.341179 166.879325 
L 228.542682 152.222636 
L 230.744186 163.215119 
L 232.945689 163.764743 
L 235.147193 153.871508 
L 237.348696 141.963007 
L 239.550199 150.20737 
L 241.751703 131.886542 
L 243.953206 167.978573 
L 246.154709 168.528197 
L 248.356213 163.031956 
L 250.557716 162.115871 
L 252.75922 168.528197 
L 254.960723 163.215119 
L 257.162226 168.344967 
L 259.36373 155.153987 
L 261.565233 177.871808 
L 263.766737 149.474515 
L 265.96824 167.428949 
L 268.169743 193.810909 
L 270.371247 144.527898 
L 272.57275 160.466998 
L 274.774253 161.383083 
L 276.975757 167.062488 
L 279.17726 157.352484 
L 281.378764 159.36775 
L 283.580267 169.260985 
L 285.78177 147.825643 
L 287.983274 165.413616 
L 290.184777 157.535714 
L 292.386281 154.054739 
L 294.587784 181.352717 
L 296.789287 154.421133 
L 298.990791 152.589097 
L 301.192294 159.55098 
L 303.393797 157.718878 
L 305.595301 155.520381 
L 307.796804 183.001589 
L 309.998308 180.803092 
L 312.199811 165.413616 
L 314.401314 170.543464 
" clip-path="url(#p3334db1f3a)" style="fill: none; stroke: #ff7f0e; stroke-width: 1.5; stroke-linecap: square"/>
   </g>
   <g id="patch_3">
    <path d="M 85.5 201.6 
L 85.5 30.24 
" style="fill: none; stroke: #000000; stroke-width: 0.8; stroke-linejoin: miter; stroke-linecap: square"/>
   </g>
   <g id="patch_4">
    <path d="M 326.454545 201.6 
L 326.454545 30.24 
" style="fill: none; stroke: #000000; stroke-width: 0.8; stroke-linejoin: miter; stroke-linecap: square"/>
   </g>
   <g id="patch_5">
    <path d="M 85.5 201.6 
L 326.454545 201.6 
" style="fill: none; stroke: #000000; stroke-width: 0.8; stroke-linejoin: miter; stroke-linecap: square"/>
   </g>
   <g id="patch_6">
    <path d="M 85.5 30.24 
L 326.454545 30.24 
" style="fill: none; stroke: #000000; stroke-width: 0.8; stroke-linejoin: miter; stroke-linecap: square"/>
   </g>
   <g id="text_17">
    <!-- MK03 -->
    <g transform="translate(189.23071 20.24)scale(0.12 -0.12)">
     <defs>
      <path id="DejaVuSans-4b" d="M 628 4666 
L 1259 4666 
L 1259 2694 
L 3353 4666 
L 4166 4666 
L 1850 2491 
L 4331 0 
L 3500 0 
L 1259 2247 
L 1259 0 
L 628 0 
L 628 4666 
z
" transform="scale(0.015625)"/>
     </defs>
     <use xlink:href="#DejaVuSans-4d"/>
     <use xlink:href="#DejaVuSans-4b" x="86.279297"/>
     <use xlink:href="#DejaVuSans-30" x="151.855469"/>
     <use xlink:href="#DejaVuSans-33" x="215.478516"/>
    </g>
   </g>
   <g id="legend_1">
    <g id="patch_7">
     <path d="M 238.073295 132.098125 
L 319.454545 132.098125 
Q 321.454545 132.098125 321.454545 130.098125 
L 321.454545 101.741875 
Q 321.454545 99.741875 319.454545 99.741875 
L 238.073295 99.741875 
Q 236.073295 99.741875 236.073295 101.741875 
L 236.073295 130.098125 
Q 236.073295 132.098125 238.073295 132.098125 
z
" style="fill: #ffffff; opacity: 0.8; stroke: #cccccc; stroke-linejoin: miter"/>
    </g>
    <g id="line2d_17">
     <path d="M 240.073295 107.840312 
L 250.073295 107.840312 
L 260.073295 107.840312 
" style="fill: none; stroke: #1f77b4; stroke-width: 1.5; stroke-linecap: square"/>
    </g>
    <g id="text_18">
     <!-- Training -->
     <g transform="translate(268.073295 111.340312)scale(0.1 -0.1)">
      <defs>
       <path id="DejaVuSans-54" d="M -19 4666 
L 3928 4666 
L 3928 4134 
L 2272 4134 
L 2272 0 
L 1638 0 
L 1638 4134 
L -19 4134 
L -19 4666 
z
" transform="scale(0.015625)"/>
       <path id="DejaVuSans-67" d="M 2906 1791 
Q 2906 2416 2648 2759 
Q 2391 3103 1925 3103 
Q 1463 3103 1205 2759 
Q 947 2416 947 1791 
Q 947 1169 1205 825 
Q 1463 481 1925 481 
Q 2391 481 2648 825 
Q 2906 1169 2906 1791 
z
M 3481 434 
Q 3481 -459 3084 -895 
Q 2688 -1331 1869 -1331 
Q 1566 -1331 1297 -1286 
Q 1028 -1241 775 -1147 
L 775 -588 
Q 1028 -725 1275 -790 
Q 1522 -856 1778 -856 
Q 2344 -856 2625 -561 
Q 2906 -266 2906 331 
L 2906 616 
Q 2728 306 2450 153 
Q 2172 0 1784 0 
Q 1141 0 747 490 
Q 353 981 353 1791 
Q 353 2603 747 3093 
Q 1141 3584 1784 3584 
Q 2172 3584 2450 3431 
Q 2728 3278 2906 2969 
L 2906 3500 
L 3481 3500 
L 3481 434 
z
" transform="scale(0.015625)"/>
      </defs>
      <use xlink:href="#DejaVuSans-54"/>
      <use xlink:href="#DejaVuSans-72" x="46.333984"/>
      <use xlink:href="#DejaVuSans-61" x="87.447266"/>
      <use xlink:href="#DejaVuSans-69" x="148.726562"/>
      <use xlink:href="#DejaVuSans-6e" x="176.509766"/>
      <use xlink:href="#DejaVuSans-69" x="239.888672"/>
      <use xlink:href="#DejaVuSans-6e" x="267.671875"/>
      <use xlink:href="#DejaVuSans-67" x="331.050781"/>
     </g>
    </g>
    <g id="line2d_18">
     <path d="M 240.073295 122.518437 
L 250.073295 122.518437 
L 260.073295 122.518437 
" style="fill: none; stroke: #ff7f0e; stroke-width: 1.5; stroke-linecap: square"/>
    </g>
    <g id="text_19">
     <!-- Validation -->
     <g transform="translate(268.073295 126.018437)scale(0.1 -0.1)">
      <defs>
       <path id="DejaVuSans-56" d="M 1831 0 
L 50 4666 
L 709 4666 
L 2188 738 
L 3669 4666 
L 4325 4666 
L 2547 0 
L 1831 0 
z
" transform="scale(0.015625)"/>
       <path id="DejaVuSans-6c" d="M 603 4863 
L 1178 4863 
L 1178 0 
L 603 0 
L 603 4863 
z
" transform="scale(0.015625)"/>
       <path id="DejaVuSans-74" d="M 1172 4494 
L 1172 3500 
L 2356 3500 
L 2356 3053 
L 1172 3053 
L 1172 1153 
Q 1172 725 1289 603 
Q 1406 481 1766 481 
L 2356 481 
L 2356 0 
L 1766 0 
Q 1100 0 847 248 
Q 594 497 594 1153 
L 594 3053 
L 172 3053 
L 172 3500 
L 594 3500 
L 594 4494 
L 1172 4494 
z
" transform="scale(0.015625)"/>
      </defs>
      <use xlink:href="#DejaVuSans-56"/>
      <use xlink:href="#DejaVuSans-61" x="60.658203"/>
      <use xlink:href="#DejaVuSans-6c" x="121.9375"/>
      <use xlink:href="#DejaVuSans-69" x="149.720703"/>
      <use xlink:href="#DejaVuSans-64" x="177.503906"/>
      <use xlink:href="#DejaVuSans-61" x="240.980469"/>
      <use xlink:href="#DejaVuSans-74" x="302.259766"/>
      <use xlink:href="#DejaVuSans-69" x="341.46875"/>
      <use xlink:href="#DejaVuSans-6f" x="369.251953"/>
      <use xlink:href="#DejaVuSans-6e" x="430.433594"/>
     </g>
    </g>
   </g>
  </g>
  <g id="axes_2">
   <g id="patch_8">
    <path d="M 374.645455 201.6 
L 615.6 201.6 
L 615.6 30.24 
L 374.645455 30.24 
z
" style="fill: #ffffff"/>
   </g>
   <g id="matplotlib.axis_3">
    <g id="xtick_7">
     <g id="line2d_19">
      <g>
       <use xlink:href="#m611dadbf1b" x="385.597934" y="201.6" style="stroke: #000000; stroke-width: 0.8"/>
      </g>
     </g>
     <g id="text_20">
      <!-- 0 -->
      <g transform="translate(382.416684 216.198437)scale(0.1 -0.1)">
       <use xlink:href="#DejaVuSans-30"/>
      </g>
     </g>
    </g>
    <g id="xtick_8">
     <g id="line2d_20">
      <g>
       <use xlink:href="#m611dadbf1b" x="429.628002" y="201.6" style="stroke: #000000; stroke-width: 0.8"/>
      </g>
     </g>
     <g id="text_21">
      <!-- 2000 -->
      <g transform="translate(416.903002 216.198437)scale(0.1 -0.1)">
       <use xlink:href="#DejaVuSans-32"/>
       <use xlink:href="#DejaVuSans-30" x="63.623047"/>
       <use xlink:href="#DejaVuSans-30" x="127.246094"/>
       <use xlink:href="#DejaVuSans-30" x="190.869141"/>
      </g>
     </g>
    </g>
    <g id="xtick_9">
     <g id="line2d_21">
      <g>
       <use xlink:href="#m611dadbf1b" x="473.658069" y="201.6" style="stroke: #000000; stroke-width: 0.8"/>
      </g>
     </g>
     <g id="text_22">
      <!-- 4000 -->
      <g transform="translate(460.933069 216.198437)scale(0.1 -0.1)">
       <use xlink:href="#DejaVuSans-34"/>
       <use xlink:href="#DejaVuSans-30" x="63.623047"/>
       <use xlink:href="#DejaVuSans-30" x="127.246094"/>
       <use xlink:href="#DejaVuSans-30" x="190.869141"/>
      </g>
     </g>
    </g>
    <g id="xtick_10">
     <g id="line2d_22">
      <g>
       <use xlink:href="#m611dadbf1b" x="517.688137" y="201.6" style="stroke: #000000; stroke-width: 0.8"/>
      </g>
     </g>
     <g id="text_23">
      <!-- 6000 -->
      <g transform="translate(504.963137 216.198437)scale(0.1 -0.1)">
       <use xlink:href="#DejaVuSans-36"/>
       <use xlink:href="#DejaVuSans-30" x="63.623047"/>
       <use xlink:href="#DejaVuSans-30" x="127.246094"/>
       <use xlink:href="#DejaVuSans-30" x="190.869141"/>
      </g>
     </g>
    </g>
    <g id="xtick_11">
     <g id="line2d_23">
      <g>
       <use xlink:href="#m611dadbf1b" x="561.718205" y="201.6" style="stroke: #000000; stroke-width: 0.8"/>
      </g>
     </g>
     <g id="text_24">
      <!-- 8000 -->
      <g transform="translate(548.993205 216.198437)scale(0.1 -0.1)">
       <use xlink:href="#DejaVuSans-38"/>
       <use xlink:href="#DejaVuSans-30" x="63.623047"/>
       <use xlink:href="#DejaVuSans-30" x="127.246094"/>
       <use xlink:href="#DejaVuSans-30" x="190.869141"/>
      </g>
     </g>
    </g>
    <g id="xtick_12">
     <g id="line2d_24">
      <g>
       <use xlink:href="#m611dadbf1b" x="605.748272" y="201.6" style="stroke: #000000; stroke-width: 0.8"/>
      </g>
     </g>
     <g id="text_25">
      <!-- 10000 -->
      <g transform="translate(589.842022 216.198437)scale(0.1 -0.1)">
       <use xlink:href="#DejaVuSans-31"/>
       <use xlink:href="#DejaVuSans-30" x="63.623047"/>
       <use xlink:href="#DejaVuSans-30" x="127.246094"/>
       <use xlink:href="#DejaVuSans-30" x="190.869141"/>
       <use xlink:href="#DejaVuSans-30" x="254.492188"/>
      </g>
     </g>
    </g>
    <g id="text_26">
     <!-- Number of episodes -->
     <g transform="translate(444.879759 229.876562)scale(0.1 -0.1)">
      <use xlink:href="#DejaVuSans-4e"/>
      <use xlink:href="#DejaVuSans-75" x="74.804688"/>
      <use xlink:href="#DejaVuSans-6d" x="138.183594"/>
      <use xlink:href="#DejaVuSans-62" x="235.595703"/>
      <use xlink:href="#DejaVuSans-65" x="299.072266"/>
      <use xlink:href="#DejaVuSans-72" x="360.595703"/>
      <use xlink:href="#DejaVuSans-20" x="401.708984"/>
      <use xlink:href="#DejaVuSans-6f" x="433.496094"/>
      <use xlink:href="#DejaVuSans-66" x="494.677734"/>
      <use xlink:href="#DejaVuSans-20" x="529.882812"/>
      <use xlink:href="#DejaVuSans-65" x="561.669922"/>
      <use xlink:href="#DejaVuSans-70" x="623.193359"/>
      <use xlink:href="#DejaVuSans-69" x="686.669922"/>
      <use xlink:href="#DejaVuSans-73" x="714.453125"/>
      <use xlink:href="#DejaVuSans-6f" x="766.552734"/>
      <use xlink:href="#DejaVuSans-64" x="827.734375"/>
      <use xlink:href="#DejaVuSans-65" x="891.210938"/>
      <use xlink:href="#DejaVuSans-73" x="952.734375"/>
     </g>
    </g>
   </g>
   <g id="matplotlib.axis_4">
    <g id="ytick_9">
     <g id="line2d_25">
      <g>
       <use xlink:href="#m4741e13f75" x="374.645455" y="179.84717" style="stroke: #000000; stroke-width: 0.8"/>
      </g>
     </g>
     <g id="text_27">
      <!-- 110 -->
      <g transform="translate(348.557955 183.646389)scale(0.1 -0.1)">
       <use xlink:href="#DejaVuSans-31"/>
       <use xlink:href="#DejaVuSans-31" x="63.623047"/>
       <use xlink:href="#DejaVuSans-30" x="127.246094"/>
      </g>
     </g>
    </g>
    <g id="ytick_10">
     <g id="line2d_26">
      <g>
       <use xlink:href="#m4741e13f75" x="374.645455" y="147.623119" style="stroke: #000000; stroke-width: 0.8"/>
      </g>
     </g>
     <g id="text_28">
      <!-- 115 -->
      <g transform="translate(348.557955 151.422338)scale(0.1 -0.1)">
       <use xlink:href="#DejaVuSans-31"/>
       <use xlink:href="#DejaVuSans-31" x="63.623047"/>
       <use xlink:href="#DejaVuSans-35" x="127.246094"/>
      </g>
     </g>
    </g>
    <g id="ytick_11">
     <g id="line2d_27">
      <g>
       <use xlink:href="#m4741e13f75" x="374.645455" y="115.399068" style="stroke: #000000; stroke-width: 0.8"/>
      </g>
     </g>
     <g id="text_29">
      <!-- 120 -->
      <g transform="translate(348.557955 119.198287)scale(0.1 -0.1)">
       <use xlink:href="#DejaVuSans-31"/>
       <use xlink:href="#DejaVuSans-32" x="63.623047"/>
       <use xlink:href="#DejaVuSans-30" x="127.246094"/>
      </g>
     </g>
    </g>
    <g id="ytick_12">
     <g id="line2d_28">
      <g>
       <use xlink:href="#m4741e13f75" x="374.645455" y="83.175018" style="stroke: #000000; stroke-width: 0.8"/>
      </g>
     </g>
     <g id="text_30">
      <!-- 125 -->
      <g transform="translate(348.557955 86.974236)scale(0.1 -0.1)">
       <use xlink:href="#DejaVuSans-31"/>
       <use xlink:href="#DejaVuSans-32" x="63.623047"/>
       <use xlink:href="#DejaVuSans-35" x="127.246094"/>
      </g>
     </g>
    </g>
    <g id="ytick_13">
     <g id="line2d_29">
      <g>
       <use xlink:href="#m4741e13f75" x="374.645455" y="50.950967" style="stroke: #000000; stroke-width: 0.8"/>
      </g>
     </g>
     <g id="text_31">
      <!-- 130 -->
      <g transform="translate(348.557955 54.750186)scale(0.1 -0.1)">
       <use xlink:href="#DejaVuSans-31"/>
       <use xlink:href="#DejaVuSans-33" x="63.623047"/>
       <use xlink:href="#DejaVuSans-30" x="127.246094"/>
      </g>
     </g>
    </g>
    <g id="text_32">
     <!-- Makespan -->
     <g transform="translate(342.478267 141.100469)rotate(-90)scale(0.1 -0.1)">
      <use xlink:href="#DejaVuSans-4d"/>
      <use xlink:href="#DejaVuSans-61" x="86.279297"/>
      <use xlink:href="#DejaVuSans-6b" x="147.558594"/>
      <use xlink:href="#DejaVuSans-65" x="201.84375"/>
      <use xlink:href="#DejaVuSans-73" x="263.367188"/>
      <use xlink:href="#DejaVuSans-70" x="315.466797"/>
      <use xlink:href="#DejaVuSans-61" x="378.943359"/>
      <use xlink:href="#DejaVuSans-6e" x="440.222656"/>
     </g>
    </g>
   </g>
   <g id="line2d_30">
    <path d="M 385.597934 38.029091 
L 386.698686 61.133779 
L 387.799437 65.161785 
L 388.900189 58.265791 
L 390.000941 60.263765 
L 391.101692 68.770863 
L 392.202444 62.873905 
L 393.303196 69.963137 
L 394.403947 68.803069 
L 395.504699 51.98216 
L 396.605451 64.420596 
L 397.706203 66.192929 
L 398.806954 66.321853 
L 399.907706 63.647251 
L 401.008458 62.712726 
L 402.109209 60.940442 
L 403.209961 73.44334 
L 404.310713 59.32924 
L 405.411464 66.547396 
L 407.612968 61.746043 
L 408.713719 65.258453 
L 409.814471 77.27801 
L 410.915223 51.917649 
L 412.015975 61.874967 
L 413.116726 57.234696 
L 414.217478 58.394715 
L 415.31823 54.463377 
L 417.519733 60.553769 
L 418.620485 69.221998 
L 419.721236 68.416396 
L 420.821988 68.255266 
L 421.92274 60.875931 
L 423.023491 71.993268 
L 425.224995 70.99433 
L 426.325747 51.498819 
L 428.52725 67.385252 
L 429.628002 70.156523 
L 430.728753 62.938318 
L 431.829505 56.719099 
L 432.930257 72.959999 
L 434.031008 65.097323 
L 435.13176 68.158598 
L 436.232512 64.162847 
L 437.333263 61.166034 
L 438.434015 62.422721 
L 439.534767 46.439619 
L 440.635519 64.420596 
L 441.73627 63.614995 
L 442.837022 76.601333 
L 443.937774 69.866469 
L 445.038525 54.91456 
L 446.139277 63.905049 
L 447.240029 61.520452 
L 448.34078 63.48617 
L 449.441532 59.909249 
L 450.542284 59.135903 
L 451.643035 65.61292 
L 452.743787 73.507802 
L 453.844539 54.882305 
L 454.945291 73.830063 
L 456.046042 65.322915 
L 457.146794 62.841649 
L 458.247546 68.126392 
L 459.348297 68.641988 
L 460.449049 59.393652 
L 461.549801 58.74923 
L 462.650552 61.488196 
L 463.751304 71.284335 
L 464.852056 58.942567 
L 465.952807 74.474534 
L 467.053559 55.881243 
L 468.154311 68.480858 
L 469.255063 79.211473 
L 470.355814 68.899787 
L 471.456566 67.868593 
L 472.557318 63.32499 
L 473.658069 62.841649 
L 474.758821 66.289597 
L 475.859573 58.072454 
L 476.960324 65.45179 
L 478.061076 75.73127 
L 479.161828 60.166998 
L 480.262579 61.069366 
L 481.363331 60.166998 
L 482.464083 61.29486 
L 483.564835 64.613982 
L 484.665586 61.166034 
L 485.766338 72.283273 
L 486.86709 62.680568 
L 487.967841 56.55792 
L 489.068593 70.414272 
L 490.169345 63.034986 
L 491.270096 57.814705 
L 492.370848 53.883367 
L 493.4716 70.736532 
L 494.572351 68.158598 
L 495.673103 72.05773 
L 496.773855 65.483996 
L 498.975358 73.765601 
L 500.07611 65.065117 
L 501.176862 68.029724 
L 502.277613 66.225185 
L 503.378365 62.293797 
L 504.479117 75.151211 
L 505.579868 66.064054 
L 506.68062 71.57434 
L 507.781372 63.808332 
L 508.882123 62.680568 
L 509.982875 64.291722 
L 511.083627 82.369416 
L 512.184379 63.00273 
L 513.28513 62.068304 
L 514.385882 57.428032 
L 515.486634 71.509927 
L 516.587385 64.485058 
L 517.688137 72.347735 
L 518.788889 73.378928 
L 519.88964 68.319728 
L 520.990392 77.954737 
L 522.091144 63.32499 
L 523.191895 81.402685 
L 524.292647 66.321853 
L 525.393399 58.716975 
L 526.494151 75.344597 
L 527.594902 60.811518 
L 528.695654 62.648313 
L 529.796406 78.921419 
L 530.897157 66.547396 
L 531.997909 59.6515 
L 533.098661 70.99433 
L 534.199412 63.00273 
L 535.300164 72.283273 
L 536.400916 63.292735 
L 537.501667 74.700076 
L 538.602419 66.966324 
L 539.703171 64.38839 
L 540.803923 52.336577 
L 541.904674 67.256329 
L 543.005426 72.05773 
L 544.106178 73.958937 
L 545.206929 60.521514 
L 546.307681 63.808332 
L 547.408433 63.292735 
L 548.509184 60.682595 
L 549.609936 77.374679 
L 550.710688 69.898724 
L 551.811439 63.937255 
L 552.912191 71.928806 
L 554.012943 60.585926 
L 555.113695 58.136966 
L 556.214446 59.780325 
L 557.315198 75.344597 
L 558.41595 59.748168 
L 559.516701 66.740732 
L 560.617453 59.715913 
L 561.718205 60.166998 
L 562.818956 71.509927 
L 563.919708 68.190854 
L 565.02046 61.649375 
L 566.121211 72.05773 
L 567.221963 74.893413 
L 568.322715 61.101523 
L 569.423467 62.26164 
L 570.524218 59.006979 
L 571.62497 62.068304 
L 572.725722 61.520452 
L 573.826473 56.912436 
L 574.927225 66.869656 
L 576.027977 72.702201 
L 577.128728 68.609733 
L 578.22948 66.99853 
L 579.330232 66.064054 
L 580.430983 71.703263 
L 581.531735 69.512002 
L 582.632487 72.315528 
L 583.733239 51.788824 
L 584.83399 66.128516 
L 585.934742 56.364584 
L 587.035494 65.77405 
L 588.136245 64.71065 
L 589.236997 66.482983 
L 590.337749 55.591238 
L 591.4385 65.45179 
L 592.539252 69.512002 
L 593.640004 75.8924 
L 594.740755 64.291722 
L 595.841507 78.631415 
L 596.942259 55.752319 
L 598.043011 63.808332 
L 599.143762 55.526825 
L 600.244514 62.358308 
L 601.345266 73.121129 
L 602.446017 57.879118 
L 603.546769 61.004855 
L 604.647521 66.289597 
L 604.647521 66.289597 
" clip-path="url(#pdfe5dff235)" style="fill: none; stroke: #1f77b4; stroke-width: 1.5; stroke-linecap: square"/>
   </g>
   <g id="line2d_31">
    <path d="M 385.597934 144.400714 
L 387.799437 112.176663 
L 390.000941 117.010271 
L 392.202444 114.32495 
L 394.403947 143.326596 
L 396.605451 157.290335 
L 398.806954 150.845524 
L 401.008458 145.474833 
L 403.209961 164.272229 
L 405.411464 160.51274 
L 407.612968 171.254074 
L 409.814471 143.86363 
L 412.015975 119.158557 
L 414.217478 168.031668 
L 416.418981 145.474833 
L 418.620485 148.697238 
L 420.821988 140.10419 
L 423.023491 143.326596 
L 425.224995 156.216216 
L 427.426498 158.364453 
L 429.628002 162.661026 
L 431.829505 137.955904 
L 434.031008 147.623119 
L 436.232512 173.40236 
L 438.434015 143.86363 
L 440.635519 166.420466 
L 442.837022 135.807618 
L 445.038525 136.344701 
L 447.240029 129.899891 
L 449.441532 148.160203 
L 451.643035 144.400714 
L 453.844539 135.807618 
L 456.046042 149.771406 
L 458.247546 161.586858 
L 460.449049 137.955904 
L 462.650552 169.642871 
L 464.852056 170.179955 
L 467.053559 177.161849 
L 469.255063 168.031668 
L 471.456566 164.809263 
L 473.658069 163.735145 
L 475.859573 166.420466 
L 478.061076 159.438621 
L 480.262579 166.95755 
L 482.464083 164.809263 
L 484.665586 160.51274 
L 486.86709 165.883431 
L 489.068593 156.753251 
L 491.270096 147.086035 
L 493.4716 193.810909 
L 495.673103 177.161849 
L 497.874607 164.809263 
L 500.07611 166.420466 
L 502.277613 160.51274 
L 504.479117 151.382608 
L 506.68062 139.030023 
L 508.882123 155.142048 
L 511.083627 154.605013 
L 513.28513 148.697238 
L 515.486634 157.827418 
L 517.688137 148.160203 
L 519.88964 151.919643 
L 522.091144 168.568752 
L 524.292647 156.753251 
L 526.494151 140.641225 
L 528.695654 169.105836 
L 530.897157 184.143694 
L 533.098661 162.661026 
L 535.300164 166.95755 
L 537.501667 173.40236 
L 539.703171 144.937798 
L 541.904674 147.623119 
L 544.106178 139.567107 
L 546.307681 130.97401 
L 548.509184 127.751605 
L 550.710688 125.603368 
L 552.912191 130.97401 
L 555.113695 162.123942 
L 557.315198 160.51274 
L 559.516701 166.420466 
L 561.718205 158.364453 
L 563.919708 135.807618 
L 566.121211 152.456727 
L 568.322715 156.216216 
L 570.524218 168.568752 
L 572.725722 172.328241 
L 574.927225 168.568752 
L 577.128728 151.382608 
L 579.330232 143.326596 
L 581.531735 146.011917 
L 583.733239 167.494634 
L 585.934742 153.530846 
L 588.136245 167.494634 
L 590.337749 163.735145 
L 592.539252 159.975656 
L 594.740755 164.809263 
L 596.942259 175.550646 
L 599.143762 168.031668 
L 601.345266 173.40236 
L 603.546769 177.161849 
" clip-path="url(#pdfe5dff235)" style="fill: none; stroke: #ff7f0e; stroke-width: 1.5; stroke-linecap: square"/>
   </g>
   <g id="patch_9">
    <path d="M 374.645455 201.6 
L 374.645455 30.24 
" style="fill: none; stroke: #000000; stroke-width: 0.8; stroke-linejoin: miter; stroke-linecap: square"/>
   </g>
   <g id="patch_10">
    <path d="M 615.6 201.6 
L 615.6 30.24 
" style="fill: none; stroke: #000000; stroke-width: 0.8; stroke-linejoin: miter; stroke-linecap: square"/>
   </g>
   <g id="patch_11">
    <path d="M 374.645455 201.6 
L 615.6 201.6 
" style="fill: none; stroke: #000000; stroke-width: 0.8; stroke-linejoin: miter; stroke-linecap: square"/>
   </g>
   <g id="patch_12">
    <path d="M 374.645455 30.24 
L 615.6 30.24 
" style="fill: none; stroke: #000000; stroke-width: 0.8; stroke-linejoin: miter; stroke-linecap: square"/>
   </g>
   <g id="text_33">
    <!-- MK04 -->
    <g transform="translate(478.376165 20.24)scale(0.12 -0.12)">
     <use xlink:href="#DejaVuSans-4d"/>
     <use xlink:href="#DejaVuSans-4b" x="86.279297"/>
     <use xlink:href="#DejaVuSans-30" x="151.855469"/>
     <use xlink:href="#DejaVuSans-34" x="215.478516"/>
    </g>
   </g>
   <g id="legend_2">
    <g id="patch_13">
     <path d="M 454.432102 132.098125 
L 535.813352 132.098125 
Q 537.813352 132.098125 537.813352 130.098125 
L 537.813352 101.741875 
Q 537.813352 99.741875 535.813352 99.741875 
L 454.432102 99.741875 
Q 452.432102 99.741875 452.432102 101.741875 
L 452.432102 130.098125 
Q 452.432102 132.098125 454.432102 132.098125 
z
" style="fill: #ffffff; opacity: 0.8; stroke: #cccccc; stroke-linejoin: miter"/>
    </g>
    <g id="line2d_32">
     <path d="M 456.432102 107.840312 
L 466.432102 107.840312 
L 476.432102 107.840312 
" style="fill: none; stroke: #1f77b4; stroke-width: 1.5; stroke-linecap: square"/>
    </g>
    <g id="text_34">
     <!-- Training -->
     <g transform="translate(484.432102 111.340312)scale(0.1 -0.1)">
      <use xlink:href="#DejaVuSans-54"/>
      <use xlink:href="#DejaVuSans-72" x="46.333984"/>
      <use xlink:href="#DejaVuSans-61" x="87.447266"/>
      <use xlink:href="#DejaVuSans-69" x="148.726562"/>
      <use xlink:href="#DejaVuSans-6e" x="176.509766"/>
      <use xlink:href="#DejaVuSans-69" x="239.888672"/>
      <use xlink:href="#DejaVuSans-6e" x="267.671875"/>
      <use xlink:href="#DejaVuSans-67" x="331.050781"/>
     </g>
    </g>
    <g id="line2d_33">
     <path d="M 456.432102 122.518437 
L 466.432102 122.518437 
L 476.432102 122.518437 
" style="fill: none; stroke: #ff7f0e; stroke-width: 1.5; stroke-linecap: square"/>
    </g>
    <g id="text_35">
     <!-- Validation -->
     <g transform="translate(484.432102 126.018437)scale(0.1 -0.1)">
      <use xlink:href="#DejaVuSans-56"/>
      <use xlink:href="#DejaVuSans-61" x="60.658203"/>
      <use xlink:href="#DejaVuSans-6c" x="121.9375"/>
      <use xlink:href="#DejaVuSans-69" x="149.720703"/>
      <use xlink:href="#DejaVuSans-64" x="177.503906"/>
      <use xlink:href="#DejaVuSans-61" x="240.980469"/>
      <use xlink:href="#DejaVuSans-74" x="302.259766"/>
      <use xlink:href="#DejaVuSans-69" x="341.46875"/>
      <use xlink:href="#DejaVuSans-6f" x="369.251953"/>
      <use xlink:href="#DejaVuSans-6e" x="430.433594"/>
     </g>
    </g>
   </g>
  </g>
 </g>
 <defs>
  <clipPath id="p3334db1f3a">
   <rect x="85.5" y="30.24" width="240.954545" height="171.36"/>
  </clipPath>
  <clipPath id="pdfe5dff235">
   <rect x="374.645455" y="30.24" width="240.954545" height="171.36"/>
  </clipPath>
 </defs>
</svg>
