<?xml version="1.0" encoding="utf-8" standalone="no"?>
<!DOCTYPE svg PUBLIC "-//W3C//DTD SVG 1.1//EN"
  "http://www.w3.org/Graphics/SVG/1.1/DTD/svg11.dtd">
<svg xmlns:xlink="http://www.w3.org/1999/xlink" width="684pt" height="252pt" viewBox="0 0 684 252" xmlns="http://www.w3.org/2000/svg" version="1.1">
 <metadata>
  <rdf:RDF xmlns:dc="http://purl.org/dc/elements/1.1/" xmlns:cc="http://creativecommons.org/ns#" xmlns:rdf="http://www.w3.org/1999/02/22-rdf-syntax-ns#">
   <cc:Work>
    <dc:type rdf:resource="http://purl.org/dc/dcmitype/StillImage"/>
    <dc:date>2022-07-03T16:24:40.782511</dc:date>
    <dc:format>image/svg+xml</dc:format>
    <dc:creator>
     <cc:Agent>
      <dc:title>Matplotlib v3.5.1, https://matplotlib.org/</dc:title>
     </cc:Agent>
    </dc:creator>
   </cc:Work>
  </rdf:RDF>
 </metadata>
 <defs>
  <style type="text/css">*{stroke-linejoin: round; stroke-linecap: butt}</style>
 </defs>
 <g id="figure_1">
  <g id="patch_1">
   <path d="M 0 252 
L 684 252 
L 684 0 
L 0 0 
z
" style="fill: #ffffff"/>
  </g>
  <g id="axes_1">
   <g id="patch_2">
    <path d="M 85.5 201.6 
L 326.454545 201.6 
L 326.454545 30.24 
L 85.5 30.24 
z
" style="fill: #ffffff"/>
   </g>
   <g id="matplotlib.axis_1">
    <g id="xtick_1">
     <g id="line2d_1">
      <defs>
       <path id="m8001b44a6c" d="M 0 0 
L 0 3.5 
" style="stroke: #000000; stroke-width: 0.8"/>
      </defs>
      <g>
       <use xlink:href="#m8001b44a6c" x="96.452479" y="201.6" style="stroke: #000000; stroke-width: 0.8"/>
      </g>
     </g>
     <g id="text_1">
      <!-- 0 -->
      <g transform="translate(93.271229 216.198437)scale(0.1 -0.1)">
       <defs>
        <path id="DejaVuSans-30" d="M 2034 4250 
Q 1547 4250 1301 3770 
Q 1056 3291 1056 2328 
Q 1056 1369 1301 889 
Q 1547 409 2034 409 
Q 2525 409 2770 889 
Q 3016 1369 3016 2328 
Q 3016 3291 2770 3770 
Q 2525 4250 2034 4250 
z
M 2034 4750 
Q 2819 4750 3233 4129 
Q 3647 3509 3647 2328 
Q 3647 1150 3233 529 
Q 2819 -91 2034 -91 
Q 1250 -91 836 529 
Q 422 1150 422 2328 
Q 422 3509 836 4129 
Q 1250 4750 2034 4750 
z
" transform="scale(0.015625)"/>
       </defs>
       <use xlink:href="#DejaVuSans-30"/>
      </g>
     </g>
    </g>
    <g id="xtick_2">
     <g id="line2d_2">
      <g>
       <use xlink:href="#m8001b44a6c" x="140.482547" y="201.6" style="stroke: #000000; stroke-width: 0.8"/>
      </g>
     </g>
     <g id="text_2">
      <!-- 2000 -->
      <g transform="translate(127.757547 216.198437)scale(0.1 -0.1)">
       <defs>
        <path id="DejaVuSans-32" d="M 1228 531 
L 3431 531 
L 3431 0 
L 469 0 
L 469 531 
Q 828 903 1448 1529 
Q 2069 2156 2228 2338 
Q 2531 2678 2651 2914 
Q 2772 3150 2772 3378 
Q 2772 3750 2511 3984 
Q 2250 4219 1831 4219 
Q 1534 4219 1204 4116 
Q 875 4013 500 3803 
L 500 4441 
Q 881 4594 1212 4672 
Q 1544 4750 1819 4750 
Q 2544 4750 2975 4387 
Q 3406 4025 3406 3419 
Q 3406 3131 3298 2873 
Q 3191 2616 2906 2266 
Q 2828 2175 2409 1742 
Q 1991 1309 1228 531 
z
" transform="scale(0.015625)"/>
       </defs>
       <use xlink:href="#DejaVuSans-32"/>
       <use xlink:href="#DejaVuSans-30" x="63.623047"/>
       <use xlink:href="#DejaVuSans-30" x="127.246094"/>
       <use xlink:href="#DejaVuSans-30" x="190.869141"/>
      </g>
     </g>
    </g>
    <g id="xtick_3">
     <g id="line2d_3">
      <g>
       <use xlink:href="#m8001b44a6c" x="184.512615" y="201.6" style="stroke: #000000; stroke-width: 0.8"/>
      </g>
     </g>
     <g id="text_3">
      <!-- 4000 -->
      <g transform="translate(171.787615 216.198437)scale(0.1 -0.1)">
       <defs>
        <path id="DejaVuSans-34" d="M 2419 4116 
L 825 1625 
L 2419 1625 
L 2419 4116 
z
M 2253 4666 
L 3047 4666 
L 3047 1625 
L 3713 1625 
L 3713 1100 
L 3047 1100 
L 3047 0 
L 2419 0 
L 2419 1100 
L 313 1100 
L 313 1709 
L 2253 4666 
z
" transform="scale(0.015625)"/>
       </defs>
       <use xlink:href="#DejaVuSans-34"/>
       <use xlink:href="#DejaVuSans-30" x="63.623047"/>
       <use xlink:href="#DejaVuSans-30" x="127.246094"/>
       <use xlink:href="#DejaVuSans-30" x="190.869141"/>
      </g>
     </g>
    </g>
    <g id="xtick_4">
     <g id="line2d_4">
      <g>
       <use xlink:href="#m8001b44a6c" x="228.542682" y="201.6" style="stroke: #000000; stroke-width: 0.8"/>
      </g>
     </g>
     <g id="text_4">
      <!-- 6000 -->
      <g transform="translate(215.817682 216.198437)scale(0.1 -0.1)">
       <defs>
        <path id="DejaVuSans-36" d="M 2113 2584 
Q 1688 2584 1439 2293 
Q 1191 2003 1191 1497 
Q 1191 994 1439 701 
Q 1688 409 2113 409 
Q 2538 409 2786 701 
Q 3034 994 3034 1497 
Q 3034 2003 2786 2293 
Q 2538 2584 2113 2584 
z
M 3366 4563 
L 3366 3988 
Q 3128 4100 2886 4159 
Q 2644 4219 2406 4219 
Q 1781 4219 1451 3797 
Q 1122 3375 1075 2522 
Q 1259 2794 1537 2939 
Q 1816 3084 2150 3084 
Q 2853 3084 3261 2657 
Q 3669 2231 3669 1497 
Q 3669 778 3244 343 
Q 2819 -91 2113 -91 
Q 1303 -91 875 529 
Q 447 1150 447 2328 
Q 447 3434 972 4092 
Q 1497 4750 2381 4750 
Q 2619 4750 2861 4703 
Q 3103 4656 3366 4563 
z
" transform="scale(0.015625)"/>
       </defs>
       <use xlink:href="#DejaVuSans-36"/>
       <use xlink:href="#DejaVuSans-30" x="63.623047"/>
       <use xlink:href="#DejaVuSans-30" x="127.246094"/>
       <use xlink:href="#DejaVuSans-30" x="190.869141"/>
      </g>
     </g>
    </g>
    <g id="xtick_5">
     <g id="line2d_5">
      <g>
       <use xlink:href="#m8001b44a6c" x="272.57275" y="201.6" style="stroke: #000000; stroke-width: 0.8"/>
      </g>
     </g>
     <g id="text_5">
      <!-- 8000 -->
      <g transform="translate(259.84775 216.198437)scale(0.1 -0.1)">
       <defs>
        <path id="DejaVuSans-38" d="M 2034 2216 
Q 1584 2216 1326 1975 
Q 1069 1734 1069 1313 
Q 1069 891 1326 650 
Q 1584 409 2034 409 
Q 2484 409 2743 651 
Q 3003 894 3003 1313 
Q 3003 1734 2745 1975 
Q 2488 2216 2034 2216 
z
M 1403 2484 
Q 997 2584 770 2862 
Q 544 3141 544 3541 
Q 544 4100 942 4425 
Q 1341 4750 2034 4750 
Q 2731 4750 3128 4425 
Q 3525 4100 3525 3541 
Q 3525 3141 3298 2862 
Q 3072 2584 2669 2484 
Q 3125 2378 3379 2068 
Q 3634 1759 3634 1313 
Q 3634 634 3220 271 
Q 2806 -91 2034 -91 
Q 1263 -91 848 271 
Q 434 634 434 1313 
Q 434 1759 690 2068 
Q 947 2378 1403 2484 
z
M 1172 3481 
Q 1172 3119 1398 2916 
Q 1625 2713 2034 2713 
Q 2441 2713 2670 2916 
Q 2900 3119 2900 3481 
Q 2900 3844 2670 4047 
Q 2441 4250 2034 4250 
Q 1625 4250 1398 4047 
Q 1172 3844 1172 3481 
z
" transform="scale(0.015625)"/>
       </defs>
       <use xlink:href="#DejaVuSans-38"/>
       <use xlink:href="#DejaVuSans-30" x="63.623047"/>
       <use xlink:href="#DejaVuSans-30" x="127.246094"/>
       <use xlink:href="#DejaVuSans-30" x="190.869141"/>
      </g>
     </g>
    </g>
    <g id="xtick_6">
     <g id="line2d_6">
      <g>
       <use xlink:href="#m8001b44a6c" x="316.602818" y="201.6" style="stroke: #000000; stroke-width: 0.8"/>
      </g>
     </g>
     <g id="text_6">
      <!-- 10000 -->
      <g transform="translate(300.696568 216.198437)scale(0.1 -0.1)">
       <defs>
        <path id="DejaVuSans-31" d="M 794 531 
L 1825 531 
L 1825 4091 
L 703 3866 
L 703 4441 
L 1819 4666 
L 2450 4666 
L 2450 531 
L 3481 531 
L 3481 0 
L 794 0 
L 794 531 
z
" transform="scale(0.015625)"/>
       </defs>
       <use xlink:href="#DejaVuSans-31"/>
       <use xlink:href="#DejaVuSans-30" x="63.623047"/>
       <use xlink:href="#DejaVuSans-30" x="127.246094"/>
       <use xlink:href="#DejaVuSans-30" x="190.869141"/>
       <use xlink:href="#DejaVuSans-30" x="254.492188"/>
      </g>
     </g>
    </g>
    <g id="text_7">
     <!-- Number of episodes -->
     <g transform="translate(155.734304 229.876562)scale(0.1 -0.1)">
      <defs>
       <path id="DejaVuSans-4e" d="M 628 4666 
L 1478 4666 
L 3547 763 
L 3547 4666 
L 4159 4666 
L 4159 0 
L 3309 0 
L 1241 3903 
L 1241 0 
L 628 0 
L 628 4666 
z
" transform="scale(0.015625)"/>
       <path id="DejaVuSans-75" d="M 544 1381 
L 544 3500 
L 1119 3500 
L 1119 1403 
Q 1119 906 1312 657 
Q 1506 409 1894 409 
Q 2359 409 2629 706 
Q 2900 1003 2900 1516 
L 2900 3500 
L 3475 3500 
L 3475 0 
L 2900 0 
L 2900 538 
Q 2691 219 2414 64 
Q 2138 -91 1772 -91 
Q 1169 -91 856 284 
Q 544 659 544 1381 
z
M 1991 3584 
L 1991 3584 
z
" transform="scale(0.015625)"/>
       <path id="DejaVuSans-6d" d="M 3328 2828 
Q 3544 3216 3844 3400 
Q 4144 3584 4550 3584 
Q 5097 3584 5394 3201 
Q 5691 2819 5691 2113 
L 5691 0 
L 5113 0 
L 5113 2094 
Q 5113 2597 4934 2840 
Q 4756 3084 4391 3084 
Q 3944 3084 3684 2787 
Q 3425 2491 3425 1978 
L 3425 0 
L 2847 0 
L 2847 2094 
Q 2847 2600 2669 2842 
Q 2491 3084 2119 3084 
Q 1678 3084 1418 2786 
Q 1159 2488 1159 1978 
L 1159 0 
L 581 0 
L 581 3500 
L 1159 3500 
L 1159 2956 
Q 1356 3278 1631 3431 
Q 1906 3584 2284 3584 
Q 2666 3584 2933 3390 
Q 3200 3197 3328 2828 
z
" transform="scale(0.015625)"/>
       <path id="DejaVuSans-62" d="M 3116 1747 
Q 3116 2381 2855 2742 
Q 2594 3103 2138 3103 
Q 1681 3103 1420 2742 
Q 1159 2381 1159 1747 
Q 1159 1113 1420 752 
Q 1681 391 2138 391 
Q 2594 391 2855 752 
Q 3116 1113 3116 1747 
z
M 1159 2969 
Q 1341 3281 1617 3432 
Q 1894 3584 2278 3584 
Q 2916 3584 3314 3078 
Q 3713 2572 3713 1747 
Q 3713 922 3314 415 
Q 2916 -91 2278 -91 
Q 1894 -91 1617 61 
Q 1341 213 1159 525 
L 1159 0 
L 581 0 
L 581 4863 
L 1159 4863 
L 1159 2969 
z
" transform="scale(0.015625)"/>
       <path id="DejaVuSans-65" d="M 3597 1894 
L 3597 1613 
L 953 1613 
Q 991 1019 1311 708 
Q 1631 397 2203 397 
Q 2534 397 2845 478 
Q 3156 559 3463 722 
L 3463 178 
Q 3153 47 2828 -22 
Q 2503 -91 2169 -91 
Q 1331 -91 842 396 
Q 353 884 353 1716 
Q 353 2575 817 3079 
Q 1281 3584 2069 3584 
Q 2775 3584 3186 3129 
Q 3597 2675 3597 1894 
z
M 3022 2063 
Q 3016 2534 2758 2815 
Q 2500 3097 2075 3097 
Q 1594 3097 1305 2825 
Q 1016 2553 972 2059 
L 3022 2063 
z
" transform="scale(0.015625)"/>
       <path id="DejaVuSans-72" d="M 2631 2963 
Q 2534 3019 2420 3045 
Q 2306 3072 2169 3072 
Q 1681 3072 1420 2755 
Q 1159 2438 1159 1844 
L 1159 0 
L 581 0 
L 581 3500 
L 1159 3500 
L 1159 2956 
Q 1341 3275 1631 3429 
Q 1922 3584 2338 3584 
Q 2397 3584 2469 3576 
Q 2541 3569 2628 3553 
L 2631 2963 
z
" transform="scale(0.015625)"/>
       <path id="DejaVuSans-20" transform="scale(0.015625)"/>
       <path id="DejaVuSans-6f" d="M 1959 3097 
Q 1497 3097 1228 2736 
Q 959 2375 959 1747 
Q 959 1119 1226 758 
Q 1494 397 1959 397 
Q 2419 397 2687 759 
Q 2956 1122 2956 1747 
Q 2956 2369 2687 2733 
Q 2419 3097 1959 3097 
z
M 1959 3584 
Q 2709 3584 3137 3096 
Q 3566 2609 3566 1747 
Q 3566 888 3137 398 
Q 2709 -91 1959 -91 
Q 1206 -91 779 398 
Q 353 888 353 1747 
Q 353 2609 779 3096 
Q 1206 3584 1959 3584 
z
" transform="scale(0.015625)"/>
       <path id="DejaVuSans-66" d="M 2375 4863 
L 2375 4384 
L 1825 4384 
Q 1516 4384 1395 4259 
Q 1275 4134 1275 3809 
L 1275 3500 
L 2222 3500 
L 2222 3053 
L 1275 3053 
L 1275 0 
L 697 0 
L 697 3053 
L 147 3053 
L 147 3500 
L 697 3500 
L 697 3744 
Q 697 4328 969 4595 
Q 1241 4863 1831 4863 
L 2375 4863 
z
" transform="scale(0.015625)"/>
       <path id="DejaVuSans-70" d="M 1159 525 
L 1159 -1331 
L 581 -1331 
L 581 3500 
L 1159 3500 
L 1159 2969 
Q 1341 3281 1617 3432 
Q 1894 3584 2278 3584 
Q 2916 3584 3314 3078 
Q 3713 2572 3713 1747 
Q 3713 922 3314 415 
Q 2916 -91 2278 -91 
Q 1894 -91 1617 61 
Q 1341 213 1159 525 
z
M 3116 1747 
Q 3116 2381 2855 2742 
Q 2594 3103 2138 3103 
Q 1681 3103 1420 2742 
Q 1159 2381 1159 1747 
Q 1159 1113 1420 752 
Q 1681 391 2138 391 
Q 2594 391 2855 752 
Q 3116 1113 3116 1747 
z
" transform="scale(0.015625)"/>
       <path id="DejaVuSans-69" d="M 603 3500 
L 1178 3500 
L 1178 0 
L 603 0 
L 603 3500 
z
M 603 4863 
L 1178 4863 
L 1178 4134 
L 603 4134 
L 603 4863 
z
" transform="scale(0.015625)"/>
       <path id="DejaVuSans-73" d="M 2834 3397 
L 2834 2853 
Q 2591 2978 2328 3040 
Q 2066 3103 1784 3103 
Q 1356 3103 1142 2972 
Q 928 2841 928 2578 
Q 928 2378 1081 2264 
Q 1234 2150 1697 2047 
L 1894 2003 
Q 2506 1872 2764 1633 
Q 3022 1394 3022 966 
Q 3022 478 2636 193 
Q 2250 -91 1575 -91 
Q 1294 -91 989 -36 
Q 684 19 347 128 
L 347 722 
Q 666 556 975 473 
Q 1284 391 1588 391 
Q 1994 391 2212 530 
Q 2431 669 2431 922 
Q 2431 1156 2273 1281 
Q 2116 1406 1581 1522 
L 1381 1569 
Q 847 1681 609 1914 
Q 372 2147 372 2553 
Q 372 3047 722 3315 
Q 1072 3584 1716 3584 
Q 2034 3584 2315 3537 
Q 2597 3491 2834 3397 
z
" transform="scale(0.015625)"/>
       <path id="DejaVuSans-64" d="M 2906 2969 
L 2906 4863 
L 3481 4863 
L 3481 0 
L 2906 0 
L 2906 525 
Q 2725 213 2448 61 
Q 2172 -91 1784 -91 
Q 1150 -91 751 415 
Q 353 922 353 1747 
Q 353 2572 751 3078 
Q 1150 3584 1784 3584 
Q 2172 3584 2448 3432 
Q 2725 3281 2906 2969 
z
M 947 1747 
Q 947 1113 1208 752 
Q 1469 391 1925 391 
Q 2381 391 2643 752 
Q 2906 1113 2906 1747 
Q 2906 2381 2643 2742 
Q 2381 3103 1925 3103 
Q 1469 3103 1208 2742 
Q 947 2381 947 1747 
z
" transform="scale(0.015625)"/>
      </defs>
      <use xlink:href="#DejaVuSans-4e"/>
      <use xlink:href="#DejaVuSans-75" x="74.804688"/>
      <use xlink:href="#DejaVuSans-6d" x="138.183594"/>
      <use xlink:href="#DejaVuSans-62" x="235.595703"/>
      <use xlink:href="#DejaVuSans-65" x="299.072266"/>
      <use xlink:href="#DejaVuSans-72" x="360.595703"/>
      <use xlink:href="#DejaVuSans-20" x="401.708984"/>
      <use xlink:href="#DejaVuSans-6f" x="433.496094"/>
      <use xlink:href="#DejaVuSans-66" x="494.677734"/>
      <use xlink:href="#DejaVuSans-20" x="529.882812"/>
      <use xlink:href="#DejaVuSans-65" x="561.669922"/>
      <use xlink:href="#DejaVuSans-70" x="623.193359"/>
      <use xlink:href="#DejaVuSans-69" x="686.669922"/>
      <use xlink:href="#DejaVuSans-73" x="714.453125"/>
      <use xlink:href="#DejaVuSans-6f" x="766.552734"/>
      <use xlink:href="#DejaVuSans-64" x="827.734375"/>
      <use xlink:href="#DejaVuSans-65" x="891.210938"/>
      <use xlink:href="#DejaVuSans-73" x="952.734375"/>
     </g>
    </g>
   </g>
   <g id="matplotlib.axis_2">
    <g id="ytick_1">
     <g id="line2d_7">
      <defs>
       <path id="mab3a9e8ded" d="M 0 0 
L -3.5 0 
" style="stroke: #000000; stroke-width: 0.8"/>
      </defs>
      <g>
       <use xlink:href="#mab3a9e8ded" x="85.5" y="182.550937" style="stroke: #000000; stroke-width: 0.8"/>
      </g>
     </g>
     <g id="text_8">
      <!-- 300 -->
      <g transform="translate(59.4125 186.350156)scale(0.1 -0.1)">
       <defs>
        <path id="DejaVuSans-33" d="M 2597 2516 
Q 3050 2419 3304 2112 
Q 3559 1806 3559 1356 
Q 3559 666 3084 287 
Q 2609 -91 1734 -91 
Q 1441 -91 1130 -33 
Q 819 25 488 141 
L 488 750 
Q 750 597 1062 519 
Q 1375 441 1716 441 
Q 2309 441 2620 675 
Q 2931 909 2931 1356 
Q 2931 1769 2642 2001 
Q 2353 2234 1838 2234 
L 1294 2234 
L 1294 2753 
L 1863 2753 
Q 2328 2753 2575 2939 
Q 2822 3125 2822 3475 
Q 2822 3834 2567 4026 
Q 2313 4219 1838 4219 
Q 1578 4219 1281 4162 
Q 984 4106 628 3988 
L 628 4550 
Q 988 4650 1302 4700 
Q 1616 4750 1894 4750 
Q 2613 4750 3031 4423 
Q 3450 4097 3450 3541 
Q 3450 3153 3228 2886 
Q 3006 2619 2597 2516 
z
" transform="scale(0.015625)"/>
       </defs>
       <use xlink:href="#DejaVuSans-33"/>
       <use xlink:href="#DejaVuSans-30" x="63.623047"/>
       <use xlink:href="#DejaVuSans-30" x="127.246094"/>
      </g>
     </g>
    </g>
    <g id="ytick_2">
     <g id="line2d_8">
      <g>
       <use xlink:href="#mab3a9e8ded" x="85.5" y="148.770999" style="stroke: #000000; stroke-width: 0.8"/>
      </g>
     </g>
     <g id="text_9">
      <!-- 350 -->
      <g transform="translate(59.4125 152.570218)scale(0.1 -0.1)">
       <defs>
        <path id="DejaVuSans-35" d="M 691 4666 
L 3169 4666 
L 3169 4134 
L 1269 4134 
L 1269 2991 
Q 1406 3038 1543 3061 
Q 1681 3084 1819 3084 
Q 2600 3084 3056 2656 
Q 3513 2228 3513 1497 
Q 3513 744 3044 326 
Q 2575 -91 1722 -91 
Q 1428 -91 1123 -41 
Q 819 9 494 109 
L 494 744 
Q 775 591 1075 516 
Q 1375 441 1709 441 
Q 2250 441 2565 725 
Q 2881 1009 2881 1497 
Q 2881 1984 2565 2268 
Q 2250 2553 1709 2553 
Q 1456 2553 1204 2497 
Q 953 2441 691 2322 
L 691 4666 
z
" transform="scale(0.015625)"/>
       </defs>
       <use xlink:href="#DejaVuSans-33"/>
       <use xlink:href="#DejaVuSans-35" x="63.623047"/>
       <use xlink:href="#DejaVuSans-30" x="127.246094"/>
      </g>
     </g>
    </g>
    <g id="ytick_3">
     <g id="line2d_9">
      <g>
       <use xlink:href="#mab3a9e8ded" x="85.5" y="114.991062" style="stroke: #000000; stroke-width: 0.8"/>
      </g>
     </g>
     <g id="text_10">
      <!-- 400 -->
      <g transform="translate(59.4125 118.790281)scale(0.1 -0.1)">
       <use xlink:href="#DejaVuSans-34"/>
       <use xlink:href="#DejaVuSans-30" x="63.623047"/>
       <use xlink:href="#DejaVuSans-30" x="127.246094"/>
      </g>
     </g>
    </g>
    <g id="ytick_4">
     <g id="line2d_10">
      <g>
       <use xlink:href="#mab3a9e8ded" x="85.5" y="81.211125" style="stroke: #000000; stroke-width: 0.8"/>
      </g>
     </g>
     <g id="text_11">
      <!-- 450 -->
      <g transform="translate(59.4125 85.010343)scale(0.1 -0.1)">
       <use xlink:href="#DejaVuSans-34"/>
       <use xlink:href="#DejaVuSans-35" x="63.623047"/>
       <use xlink:href="#DejaVuSans-30" x="127.246094"/>
      </g>
     </g>
    </g>
    <g id="ytick_5">
     <g id="line2d_11">
      <g>
       <use xlink:href="#mab3a9e8ded" x="85.5" y="47.431187" style="stroke: #000000; stroke-width: 0.8"/>
      </g>
     </g>
     <g id="text_12">
      <!-- 500 -->
      <g transform="translate(59.4125 51.230406)scale(0.1 -0.1)">
       <use xlink:href="#DejaVuSans-35"/>
       <use xlink:href="#DejaVuSans-30" x="63.623047"/>
       <use xlink:href="#DejaVuSans-30" x="127.246094"/>
      </g>
     </g>
    </g>
    <g id="text_13">
     <!-- Makespan -->
     <g transform="translate(53.332812 141.100469)rotate(-90)scale(0.1 -0.1)">
      <defs>
       <path id="DejaVuSans-4d" d="M 628 4666 
L 1569 4666 
L 2759 1491 
L 3956 4666 
L 4897 4666 
L 4897 0 
L 4281 0 
L 4281 4097 
L 3078 897 
L 2444 897 
L 1241 4097 
L 1241 0 
L 628 0 
L 628 4666 
z
" transform="scale(0.015625)"/>
       <path id="DejaVuSans-61" d="M 2194 1759 
Q 1497 1759 1228 1600 
Q 959 1441 959 1056 
Q 959 750 1161 570 
Q 1363 391 1709 391 
Q 2188 391 2477 730 
Q 2766 1069 2766 1631 
L 2766 1759 
L 2194 1759 
z
M 3341 1997 
L 3341 0 
L 2766 0 
L 2766 531 
Q 2569 213 2275 61 
Q 1981 -91 1556 -91 
Q 1019 -91 701 211 
Q 384 513 384 1019 
Q 384 1609 779 1909 
Q 1175 2209 1959 2209 
L 2766 2209 
L 2766 2266 
Q 2766 2663 2505 2880 
Q 2244 3097 1772 3097 
Q 1472 3097 1187 3025 
Q 903 2953 641 2809 
L 641 3341 
Q 956 3463 1253 3523 
Q 1550 3584 1831 3584 
Q 2591 3584 2966 3190 
Q 3341 2797 3341 1997 
z
" transform="scale(0.015625)"/>
       <path id="DejaVuSans-6b" d="M 581 4863 
L 1159 4863 
L 1159 1991 
L 2875 3500 
L 3609 3500 
L 1753 1863 
L 3688 0 
L 2938 0 
L 1159 1709 
L 1159 0 
L 581 0 
L 581 4863 
z
" transform="scale(0.015625)"/>
       <path id="DejaVuSans-6e" d="M 3513 2113 
L 3513 0 
L 2938 0 
L 2938 2094 
Q 2938 2591 2744 2837 
Q 2550 3084 2163 3084 
Q 1697 3084 1428 2787 
Q 1159 2491 1159 1978 
L 1159 0 
L 581 0 
L 581 3500 
L 1159 3500 
L 1159 2956 
Q 1366 3272 1645 3428 
Q 1925 3584 2291 3584 
Q 2894 3584 3203 3211 
Q 3513 2838 3513 2113 
z
" transform="scale(0.015625)"/>
      </defs>
      <use xlink:href="#DejaVuSans-4d"/>
      <use xlink:href="#DejaVuSans-61" x="86.279297"/>
      <use xlink:href="#DejaVuSans-6b" x="147.558594"/>
      <use xlink:href="#DejaVuSans-65" x="201.84375"/>
      <use xlink:href="#DejaVuSans-73" x="263.367188"/>
      <use xlink:href="#DejaVuSans-70" x="315.466797"/>
      <use xlink:href="#DejaVuSans-61" x="378.943359"/>
      <use xlink:href="#DejaVuSans-6e" x="440.222656"/>
     </g>
    </g>
   </g>
   <g id="line2d_12">
    <path d="M 96.452479 137.721574 
L 97.553231 133.191694 
L 98.653983 137.785757 
L 99.754734 132.715385 
L 100.855486 136.796007 
L 101.956238 135.279292 
L 103.056989 134.954997 
L 104.157741 135.536022 
L 105.258493 133.127511 
L 106.359245 134.124024 
L 107.459996 136.454827 
L 108.560748 138.478262 
L 109.6615 136.258918 
L 110.762251 136.839923 
L 111.863003 135.998806 
L 112.963755 137.65065 
L 114.064506 137.711451 
L 115.165258 139.032238 
L 116.26601 136.86019 
L 117.366761 138.768765 
L 118.467513 141.109712 
L 119.568265 140.261832 
L 120.669017 138.549187 
L 121.769768 141.461016 
L 122.87052 139.592996 
L 123.971272 142.400108 
L 125.072023 142.143377 
L 126.172775 141.61303 
L 127.273527 144.339073 
L 128.374278 140.312511 
L 129.47503 141.741395 
L 130.575782 144.288395 
L 131.676533 140.775294 
L 132.777285 144.203945 
L 133.878037 143.768192 
L 134.978789 143.812107 
L 136.07954 145.328823 
L 137.180292 142.477795 
L 138.281044 143.710771 
L 139.381795 142.183912 
L 140.482547 146.666516 
L 141.583299 146.264534 
L 142.68405 144.099228 
L 143.784802 146.669897 
L 144.885554 143.278378 
L 145.986305 146.13955 
L 147.087057 146.734059 
L 148.187809 144.52824 
L 149.288561 146.149673 
L 150.389312 147.027964 
L 151.490064 146.913103 
L 152.590816 147.119156 
L 153.691567 147.058354 
L 154.792319 148.804771 
L 155.893071 144.717407 
L 156.993822 147.524519 
L 158.094574 146.335459 
L 159.195326 145.889561 
L 160.296077 148.051485 
L 161.396829 146.413166 
L 162.497581 149.973564 
L 163.598333 147.331971 
L 164.699084 147.619113 
L 165.799836 150.287715 
L 166.900588 147.588702 
L 168.001339 148.65952 
L 169.102091 147.568434 
L 170.202843 149.456742 
L 171.303594 149.237164 
L 172.404346 148.80141 
L 173.505098 149.96006 
L 174.605849 150.294478 
L 175.706601 146.845539 
L 176.807353 147.419802 
L 177.908105 149.321614 
L 179.008856 146.646249 
L 180.109608 149.62226 
L 181.21036 147.467099 
L 182.311111 147.889348 
L 183.411863 150.503912 
L 184.512615 150.382309 
L 185.613366 149.304728 
L 186.714118 148.514269 
L 187.81487 149.250669 
L 188.915621 149.699948 
L 190.016373 149.828313 
L 191.117125 148.477116 
L 192.217877 149.331737 
L 193.318628 149.382415 
L 194.41938 150.476882 
L 195.520132 150.709965 
L 196.620883 149.588468 
L 197.721635 149.787779 
L 198.822387 149.037854 
L 199.923138 147.210368 
L 201.02389 149.980327 
L 202.124642 149.862085 
L 203.225393 148.250796 
L 204.326145 148.210262 
L 205.426897 148.615604 
L 206.527649 149.683062 
L 207.6284 151.679447 
L 208.729152 152.236824 
L 209.829904 151.338266 
L 210.930655 151.932797 
L 212.031407 150.959933 
L 213.132159 153.30088 
L 214.23291 148.882479 
L 215.333662 151.138976 
L 216.434414 152.415847 
L 217.535165 149.84858 
L 218.635917 149.581726 
L 219.736669 150.605248 
L 220.837421 151.378801 
L 221.938172 151.672705 
L 223.038924 150.655926 
L 224.139676 151.182892 
L 225.240427 150.61201 
L 226.341179 151.8855 
L 227.441931 152.125345 
L 228.542682 151.726744 
L 229.643434 152.317893 
L 230.744186 153.821104 
L 231.844937 149.375653 
L 232.945689 152.838096 
L 234.046441 154.662221 
L 235.147193 154.081196 
L 236.247944 152.976606 
L 237.348696 153.104971 
L 238.449448 152.189527 
L 239.550199 151.912529 
L 240.650951 150.801177 
L 241.751703 152.79082 
L 242.852454 153.294138 
L 243.953206 152.284121 
L 245.053958 151.510547 
L 246.154709 153.767045 
L 249.456965 154.820977 
L 250.557716 153.635319 
L 251.658468 151.956445 
L 252.75922 152.513822 
L 253.859971 150.858597 
L 254.960723 152.523946 
L 256.061475 153.699501 
L 257.162226 153.338054 
L 258.262978 153.155629 
L 259.36373 153.432627 
L 260.464481 155.307409 
L 261.565233 153.297519 
L 262.665985 153.473161 
L 263.766737 153.463038 
L 264.867488 154.307536 
L 265.96824 155.851282 
L 267.068992 155.104738 
L 268.169743 153.962974 
L 269.270495 156.006656 
L 270.371247 153.645442 
L 271.471998 154.317659 
L 272.57275 155.371592 
L 273.673502 154.773701 
L 274.774253 152.652311 
L 275.875005 154.702756 
L 276.975757 155.33782 
L 279.17726 153.574497 
L 280.278012 156.516737 
L 281.378764 152.949576 
L 282.479515 155.466185 
L 283.580267 152.898898 
L 284.681019 154.287269 
L 285.78177 154.766938 
L 286.882522 151.473394 
L 287.983274 154.777082 
L 289.084025 153.388711 
L 290.184777 153.419122 
L 291.285529 151.635532 
L 292.386281 153.506953 
L 293.487032 154.581153 
L 294.587784 153.861638 
L 295.688536 155.307409 
L 296.789287 155.152035 
L 297.890039 153.358321 
L 298.990791 156.854536 
L 300.091542 153.091446 
L 301.192294 154.456169 
L 302.293046 154.523733 
L 303.393797 154.908808 
L 304.494549 152.328037 
L 306.696053 153.321147 
L 307.796804 154.182552 
L 308.897556 153.189421 
L 309.998308 155.273637 
L 311.099059 152.821211 
L 312.199811 154.429139 
L 313.300563 154.614924 
L 314.401314 155.665476 
L 315.502066 157.509868 
L 315.502066 157.509868 
" clip-path="url(#p6cf273ea3e)" style="fill: none; stroke: #1f77b4; stroke-width: 1.5; stroke-linecap: square"/>
   </g>
   <g id="line2d_13">
    <path d="M 96.452479 59.986071 
L 98.653983 48.726078 
L 100.855486 50.809181 
L 103.056989 54.018275 
L 105.258493 75.187043 
L 107.459996 72.484648 
L 109.6615 65.053061 
L 111.863003 58.803773 
L 114.064506 60.774263 
L 116.26601 46.811895 
L 118.467513 44.559893 
L 120.669017 53.28637 
L 122.87052 53.680476 
L 125.072023 62.913652 
L 127.273527 62.632159 
L 129.47503 71.47125 
L 131.676533 58.634873 
L 133.878037 58.803773 
L 136.07954 57.959275 
L 138.281044 55.031673 
L 140.482547 50.358789 
L 142.68405 50.415075 
L 144.885554 53.11747 
L 147.087057 52.610771 
L 149.288561 56.664363 
L 151.490064 43.940601 
L 153.691567 38.029091 
L 155.893071 39.774395 
L 158.094574 52.272971 
L 160.296077 68.656241 
L 162.497581 67.586557 
L 164.699084 66.629445 
L 166.900588 71.527536 
L 169.102091 59.929764 
L 171.303594 52.385585 
L 173.505098 63.532964 
L 175.706601 54.637567 
L 177.908105 55.425779 
L 180.109608 76.819733 
L 182.311111 81.154818 
L 184.512615 75.243329 
L 186.714118 82.224523 
L 188.915621 92.527404 
L 191.117125 83.125328 
L 193.318628 61.900254 
L 195.520132 105.19488 
L 197.721635 108.178768 
L 199.923138 111.781968 
L 202.124642 109.980378 
L 204.326145 123.886439 
L 206.527649 121.184044 
L 208.729152 122.873041 
L 210.930655 115.216268 
L 213.132159 126.870347 
L 215.333662 127.433332 
L 217.535165 125.688049 
L 219.736669 117.355658 
L 221.938172 113.020573 
L 224.139676 112.119767 
L 226.341179 109.417372 
L 228.542682 114.428056 
L 230.744186 102.548792 
L 232.945689 111.838275 
L 235.147193 123.661253 
L 237.348696 129.009736 
L 239.550199 116.34226 
L 241.751703 138.411812 
L 243.953206 135.484231 
L 246.154709 119.889153 
L 248.356213 119.269861 
L 250.557716 126.926633 
L 252.75922 154.513589 
L 254.960723 156.821878 
L 257.162226 158.736081 
L 259.36373 157.77899 
L 261.565233 168.138157 
L 263.766737 153.500191 
L 265.96824 151.473394 
L 268.169743 157.891583 
L 270.371247 162.564467 
L 272.57275 185.591131 
L 274.774253 187.786827 
L 276.975757 193.810909 
L 279.17726 181.143433 
L 281.378764 179.116636 
L 283.580267 176.752041 
L 285.78177 181.875338 
L 287.983274 179.679642 
L 290.184777 183.113943 
L 292.386281 182.213137 
L 294.587784 185.478538 
L 296.789287 180.805633 
L 298.990791 183.226536 
L 301.192294 184.690326 
L 303.393797 193.754623 
L 305.595301 189.250618 
L 307.796804 190.20773 
L 309.998308 192.572325 
L 312.199811 189.70103 
L 314.401314 186.09783 
" clip-path="url(#p6cf273ea3e)" style="fill: none; stroke: #ff7f0e; stroke-width: 1.5; stroke-linecap: square"/>
   </g>
   <g id="patch_3">
    <path d="M 85.5 201.6 
L 85.5 30.24 
" style="fill: none; stroke: #000000; stroke-width: 0.8; stroke-linejoin: miter; stroke-linecap: square"/>
   </g>
   <g id="patch_4">
    <path d="M 326.454545 201.6 
L 326.454545 30.24 
" style="fill: none; stroke: #000000; stroke-width: 0.8; stroke-linejoin: miter; stroke-linecap: square"/>
   </g>
   <g id="patch_5">
    <path d="M 85.5 201.6 
L 326.454545 201.6 
" style="fill: none; stroke: #000000; stroke-width: 0.8; stroke-linejoin: miter; stroke-linecap: square"/>
   </g>
   <g id="patch_6">
    <path d="M 85.5 30.24 
L 326.454545 30.24 
" style="fill: none; stroke: #000000; stroke-width: 0.8; stroke-linejoin: miter; stroke-linecap: square"/>
   </g>
   <g id="text_14">
    <!-- MK07 -->
    <g transform="translate(189.23071 20.24)scale(0.12 -0.12)">
     <defs>
      <path id="DejaVuSans-4b" d="M 628 4666 
L 1259 4666 
L 1259 2694 
L 3353 4666 
L 4166 4666 
L 1850 2491 
L 4331 0 
L 3500 0 
L 1259 2247 
L 1259 0 
L 628 0 
L 628 4666 
z
" transform="scale(0.015625)"/>
      <path id="DejaVuSans-37" d="M 525 4666 
L 3525 4666 
L 3525 4397 
L 1831 0 
L 1172 0 
L 2766 4134 
L 525 4134 
L 525 4666 
z
" transform="scale(0.015625)"/>
     </defs>
     <use xlink:href="#DejaVuSans-4d"/>
     <use xlink:href="#DejaVuSans-4b" x="86.279297"/>
     <use xlink:href="#DejaVuSans-30" x="151.855469"/>
     <use xlink:href="#DejaVuSans-37" x="215.478516"/>
    </g>
   </g>
   <g id="legend_1">
    <g id="patch_7">
     <path d="M 238.073295 67.59625 
L 319.454545 67.59625 
Q 321.454545 67.59625 321.454545 65.59625 
L 321.454545 37.24 
Q 321.454545 35.24 319.454545 35.24 
L 238.073295 35.24 
Q 236.073295 35.24 236.073295 37.24 
L 236.073295 65.59625 
Q 236.073295 67.59625 238.073295 67.59625 
z
" style="fill: #ffffff; opacity: 0.8; stroke: #cccccc; stroke-linejoin: miter"/>
    </g>
    <g id="line2d_14">
     <path d="M 240.073295 43.338437 
L 250.073295 43.338437 
L 260.073295 43.338437 
" style="fill: none; stroke: #1f77b4; stroke-width: 1.5; stroke-linecap: square"/>
    </g>
    <g id="text_15">
     <!-- Training -->
     <g transform="translate(268.073295 46.838437)scale(0.1 -0.1)">
      <defs>
       <path id="DejaVuSans-54" d="M -19 4666 
L 3928 4666 
L 3928 4134 
L 2272 4134 
L 2272 0 
L 1638 0 
L 1638 4134 
L -19 4134 
L -19 4666 
z
" transform="scale(0.015625)"/>
       <path id="DejaVuSans-67" d="M 2906 1791 
Q 2906 2416 2648 2759 
Q 2391 3103 1925 3103 
Q 1463 3103 1205 2759 
Q 947 2416 947 1791 
Q 947 1169 1205 825 
Q 1463 481 1925 481 
Q 2391 481 2648 825 
Q 2906 1169 2906 1791 
z
M 3481 434 
Q 3481 -459 3084 -895 
Q 2688 -1331 1869 -1331 
Q 1566 -1331 1297 -1286 
Q 1028 -1241 775 -1147 
L 775 -588 
Q 1028 -725 1275 -790 
Q 1522 -856 1778 -856 
Q 2344 -856 2625 -561 
Q 2906 -266 2906 331 
L 2906 616 
Q 2728 306 2450 153 
Q 2172 0 1784 0 
Q 1141 0 747 490 
Q 353 981 353 1791 
Q 353 2603 747 3093 
Q 1141 3584 1784 3584 
Q 2172 3584 2450 3431 
Q 2728 3278 2906 2969 
L 2906 3500 
L 3481 3500 
L 3481 434 
z
" transform="scale(0.015625)"/>
      </defs>
      <use xlink:href="#DejaVuSans-54"/>
      <use xlink:href="#DejaVuSans-72" x="46.333984"/>
      <use xlink:href="#DejaVuSans-61" x="87.447266"/>
      <use xlink:href="#DejaVuSans-69" x="148.726562"/>
      <use xlink:href="#DejaVuSans-6e" x="176.509766"/>
      <use xlink:href="#DejaVuSans-69" x="239.888672"/>
      <use xlink:href="#DejaVuSans-6e" x="267.671875"/>
      <use xlink:href="#DejaVuSans-67" x="331.050781"/>
     </g>
    </g>
    <g id="line2d_15">
     <path d="M 240.073295 58.016562 
L 250.073295 58.016562 
L 260.073295 58.016562 
" style="fill: none; stroke: #ff7f0e; stroke-width: 1.5; stroke-linecap: square"/>
    </g>
    <g id="text_16">
     <!-- Validation -->
     <g transform="translate(268.073295 61.516562)scale(0.1 -0.1)">
      <defs>
       <path id="DejaVuSans-56" d="M 1831 0 
L 50 4666 
L 709 4666 
L 2188 738 
L 3669 4666 
L 4325 4666 
L 2547 0 
L 1831 0 
z
" transform="scale(0.015625)"/>
       <path id="DejaVuSans-6c" d="M 603 4863 
L 1178 4863 
L 1178 0 
L 603 0 
L 603 4863 
z
" transform="scale(0.015625)"/>
       <path id="DejaVuSans-74" d="M 1172 4494 
L 1172 3500 
L 2356 3500 
L 2356 3053 
L 1172 3053 
L 1172 1153 
Q 1172 725 1289 603 
Q 1406 481 1766 481 
L 2356 481 
L 2356 0 
L 1766 0 
Q 1100 0 847 248 
Q 594 497 594 1153 
L 594 3053 
L 172 3053 
L 172 3500 
L 594 3500 
L 594 4494 
L 1172 4494 
z
" transform="scale(0.015625)"/>
      </defs>
      <use xlink:href="#DejaVuSans-56"/>
      <use xlink:href="#DejaVuSans-61" x="60.658203"/>
      <use xlink:href="#DejaVuSans-6c" x="121.9375"/>
      <use xlink:href="#DejaVuSans-69" x="149.720703"/>
      <use xlink:href="#DejaVuSans-64" x="177.503906"/>
      <use xlink:href="#DejaVuSans-61" x="240.980469"/>
      <use xlink:href="#DejaVuSans-74" x="302.259766"/>
      <use xlink:href="#DejaVuSans-69" x="341.46875"/>
      <use xlink:href="#DejaVuSans-6f" x="369.251953"/>
      <use xlink:href="#DejaVuSans-6e" x="430.433594"/>
     </g>
    </g>
   </g>
  </g>
  <g id="axes_2">
   <g id="patch_8">
    <path d="M 374.645455 201.6 
L 615.6 201.6 
L 615.6 30.24 
L 374.645455 30.24 
z
" style="fill: #ffffff"/>
   </g>
   <g id="matplotlib.axis_3">
    <g id="xtick_7">
     <g id="line2d_16">
      <g>
       <use xlink:href="#m8001b44a6c" x="385.597934" y="201.6" style="stroke: #000000; stroke-width: 0.8"/>
      </g>
     </g>
     <g id="text_17">
      <!-- 0 -->
      <g transform="translate(382.416684 216.198437)scale(0.1 -0.1)">
       <use xlink:href="#DejaVuSans-30"/>
      </g>
     </g>
    </g>
    <g id="xtick_8">
     <g id="line2d_17">
      <g>
       <use xlink:href="#m8001b44a6c" x="429.628002" y="201.6" style="stroke: #000000; stroke-width: 0.8"/>
      </g>
     </g>
     <g id="text_18">
      <!-- 2000 -->
      <g transform="translate(416.903002 216.198437)scale(0.1 -0.1)">
       <use xlink:href="#DejaVuSans-32"/>
       <use xlink:href="#DejaVuSans-30" x="63.623047"/>
       <use xlink:href="#DejaVuSans-30" x="127.246094"/>
       <use xlink:href="#DejaVuSans-30" x="190.869141"/>
      </g>
     </g>
    </g>
    <g id="xtick_9">
     <g id="line2d_18">
      <g>
       <use xlink:href="#m8001b44a6c" x="473.658069" y="201.6" style="stroke: #000000; stroke-width: 0.8"/>
      </g>
     </g>
     <g id="text_19">
      <!-- 4000 -->
      <g transform="translate(460.933069 216.198437)scale(0.1 -0.1)">
       <use xlink:href="#DejaVuSans-34"/>
       <use xlink:href="#DejaVuSans-30" x="63.623047"/>
       <use xlink:href="#DejaVuSans-30" x="127.246094"/>
       <use xlink:href="#DejaVuSans-30" x="190.869141"/>
      </g>
     </g>
    </g>
    <g id="xtick_10">
     <g id="line2d_19">
      <g>
       <use xlink:href="#m8001b44a6c" x="517.688137" y="201.6" style="stroke: #000000; stroke-width: 0.8"/>
      </g>
     </g>
     <g id="text_20">
      <!-- 6000 -->
      <g transform="translate(504.963137 216.198437)scale(0.1 -0.1)">
       <use xlink:href="#DejaVuSans-36"/>
       <use xlink:href="#DejaVuSans-30" x="63.623047"/>
       <use xlink:href="#DejaVuSans-30" x="127.246094"/>
       <use xlink:href="#DejaVuSans-30" x="190.869141"/>
      </g>
     </g>
    </g>
    <g id="xtick_11">
     <g id="line2d_20">
      <g>
       <use xlink:href="#m8001b44a6c" x="561.718205" y="201.6" style="stroke: #000000; stroke-width: 0.8"/>
      </g>
     </g>
     <g id="text_21">
      <!-- 8000 -->
      <g transform="translate(548.993205 216.198437)scale(0.1 -0.1)">
       <use xlink:href="#DejaVuSans-38"/>
       <use xlink:href="#DejaVuSans-30" x="63.623047"/>
       <use xlink:href="#DejaVuSans-30" x="127.246094"/>
       <use xlink:href="#DejaVuSans-30" x="190.869141"/>
      </g>
     </g>
    </g>
    <g id="xtick_12">
     <g id="line2d_21">
      <g>
       <use xlink:href="#m8001b44a6c" x="605.748272" y="201.6" style="stroke: #000000; stroke-width: 0.8"/>
      </g>
     </g>
     <g id="text_22">
      <!-- 10000 -->
      <g transform="translate(589.842022 216.198437)scale(0.1 -0.1)">
       <use xlink:href="#DejaVuSans-31"/>
       <use xlink:href="#DejaVuSans-30" x="63.623047"/>
       <use xlink:href="#DejaVuSans-30" x="127.246094"/>
       <use xlink:href="#DejaVuSans-30" x="190.869141"/>
       <use xlink:href="#DejaVuSans-30" x="254.492188"/>
      </g>
     </g>
    </g>
    <g id="text_23">
     <!-- Number of episodes -->
     <g transform="translate(444.879759 229.876562)scale(0.1 -0.1)">
      <use xlink:href="#DejaVuSans-4e"/>
      <use xlink:href="#DejaVuSans-75" x="74.804688"/>
      <use xlink:href="#DejaVuSans-6d" x="138.183594"/>
      <use xlink:href="#DejaVuSans-62" x="235.595703"/>
      <use xlink:href="#DejaVuSans-65" x="299.072266"/>
      <use xlink:href="#DejaVuSans-72" x="360.595703"/>
      <use xlink:href="#DejaVuSans-20" x="401.708984"/>
      <use xlink:href="#DejaVuSans-6f" x="433.496094"/>
      <use xlink:href="#DejaVuSans-66" x="494.677734"/>
      <use xlink:href="#DejaVuSans-20" x="529.882812"/>
      <use xlink:href="#DejaVuSans-65" x="561.669922"/>
      <use xlink:href="#DejaVuSans-70" x="623.193359"/>
      <use xlink:href="#DejaVuSans-69" x="686.669922"/>
      <use xlink:href="#DejaVuSans-73" x="714.453125"/>
      <use xlink:href="#DejaVuSans-6f" x="766.552734"/>
      <use xlink:href="#DejaVuSans-64" x="827.734375"/>
      <use xlink:href="#DejaVuSans-65" x="891.210938"/>
      <use xlink:href="#DejaVuSans-73" x="952.734375"/>
     </g>
    </g>
   </g>
   <g id="matplotlib.axis_4">
    <g id="ytick_6">
     <g id="line2d_22">
      <g>
       <use xlink:href="#mab3a9e8ded" x="374.645455" y="198.941642" style="stroke: #000000; stroke-width: 0.8"/>
      </g>
     </g>
     <g id="text_24">
      <!-- 540 -->
      <g transform="translate(348.557955 202.740861)scale(0.1 -0.1)">
       <use xlink:href="#DejaVuSans-35"/>
       <use xlink:href="#DejaVuSans-34" x="63.623047"/>
       <use xlink:href="#DejaVuSans-30" x="127.246094"/>
      </g>
     </g>
    </g>
    <g id="ytick_7">
     <g id="line2d_23">
      <g>
       <use xlink:href="#mab3a9e8ded" x="374.645455" y="173.287977" style="stroke: #000000; stroke-width: 0.8"/>
      </g>
     </g>
     <g id="text_25">
      <!-- 550 -->
      <g transform="translate(348.557955 177.087196)scale(0.1 -0.1)">
       <use xlink:href="#DejaVuSans-35"/>
       <use xlink:href="#DejaVuSans-35" x="63.623047"/>
       <use xlink:href="#DejaVuSans-30" x="127.246094"/>
      </g>
     </g>
    </g>
    <g id="ytick_8">
     <g id="line2d_24">
      <g>
       <use xlink:href="#mab3a9e8ded" x="374.645455" y="147.634312" style="stroke: #000000; stroke-width: 0.8"/>
      </g>
     </g>
     <g id="text_26">
      <!-- 560 -->
      <g transform="translate(348.557955 151.433531)scale(0.1 -0.1)">
       <use xlink:href="#DejaVuSans-35"/>
       <use xlink:href="#DejaVuSans-36" x="63.623047"/>
       <use xlink:href="#DejaVuSans-30" x="127.246094"/>
      </g>
     </g>
    </g>
    <g id="ytick_9">
     <g id="line2d_25">
      <g>
       <use xlink:href="#mab3a9e8ded" x="374.645455" y="121.980647" style="stroke: #000000; stroke-width: 0.8"/>
      </g>
     </g>
     <g id="text_27">
      <!-- 570 -->
      <g transform="translate(348.557955 125.779866)scale(0.1 -0.1)">
       <use xlink:href="#DejaVuSans-35"/>
       <use xlink:href="#DejaVuSans-37" x="63.623047"/>
       <use xlink:href="#DejaVuSans-30" x="127.246094"/>
      </g>
     </g>
    </g>
    <g id="ytick_10">
     <g id="line2d_26">
      <g>
       <use xlink:href="#mab3a9e8ded" x="374.645455" y="96.326982" style="stroke: #000000; stroke-width: 0.8"/>
      </g>
     </g>
     <g id="text_28">
      <!-- 580 -->
      <g transform="translate(348.557955 100.126201)scale(0.1 -0.1)">
       <use xlink:href="#DejaVuSans-35"/>
       <use xlink:href="#DejaVuSans-38" x="63.623047"/>
       <use xlink:href="#DejaVuSans-30" x="127.246094"/>
      </g>
     </g>
    </g>
    <g id="ytick_11">
     <g id="line2d_27">
      <g>
       <use xlink:href="#mab3a9e8ded" x="374.645455" y="70.673317" style="stroke: #000000; stroke-width: 0.8"/>
      </g>
     </g>
     <g id="text_29">
      <!-- 590 -->
      <g transform="translate(348.557955 74.472536)scale(0.1 -0.1)">
       <defs>
        <path id="DejaVuSans-39" d="M 703 97 
L 703 672 
Q 941 559 1184 500 
Q 1428 441 1663 441 
Q 2288 441 2617 861 
Q 2947 1281 2994 2138 
Q 2813 1869 2534 1725 
Q 2256 1581 1919 1581 
Q 1219 1581 811 2004 
Q 403 2428 403 3163 
Q 403 3881 828 4315 
Q 1253 4750 1959 4750 
Q 2769 4750 3195 4129 
Q 3622 3509 3622 2328 
Q 3622 1225 3098 567 
Q 2575 -91 1691 -91 
Q 1453 -91 1209 -44 
Q 966 3 703 97 
z
M 1959 2075 
Q 2384 2075 2632 2365 
Q 2881 2656 2881 3163 
Q 2881 3666 2632 3958 
Q 2384 4250 1959 4250 
Q 1534 4250 1286 3958 
Q 1038 3666 1038 3163 
Q 1038 2656 1286 2365 
Q 1534 2075 1959 2075 
z
" transform="scale(0.015625)"/>
       </defs>
       <use xlink:href="#DejaVuSans-35"/>
       <use xlink:href="#DejaVuSans-39" x="63.623047"/>
       <use xlink:href="#DejaVuSans-30" x="127.246094"/>
      </g>
     </g>
    </g>
    <g id="ytick_12">
     <g id="line2d_28">
      <g>
       <use xlink:href="#mab3a9e8ded" x="374.645455" y="45.019652" style="stroke: #000000; stroke-width: 0.8"/>
      </g>
     </g>
     <g id="text_30">
      <!-- 600 -->
      <g transform="translate(348.557955 48.818871)scale(0.1 -0.1)">
       <use xlink:href="#DejaVuSans-36"/>
       <use xlink:href="#DejaVuSans-30" x="63.623047"/>
       <use xlink:href="#DejaVuSans-30" x="127.246094"/>
      </g>
     </g>
    </g>
    <g id="text_31">
     <!-- Makespan -->
     <g transform="translate(342.478267 141.100469)rotate(-90)scale(0.1 -0.1)">
      <use xlink:href="#DejaVuSans-4d"/>
      <use xlink:href="#DejaVuSans-61" x="86.279297"/>
      <use xlink:href="#DejaVuSans-6b" x="147.558594"/>
      <use xlink:href="#DejaVuSans-65" x="201.84375"/>
      <use xlink:href="#DejaVuSans-73" x="263.367188"/>
      <use xlink:href="#DejaVuSans-70" x="315.466797"/>
      <use xlink:href="#DejaVuSans-61" x="378.943359"/>
      <use xlink:href="#DejaVuSans-6e" x="440.222656"/>
     </g>
    </g>
   </g>
   <g id="line2d_29">
    <path d="M 385.597934 46.084223 
L 386.698686 46.841119 
L 387.799437 51.189434 
L 388.900189 45.866267 
L 390.000941 58.423629 
L 391.101692 55.422194 
L 392.202444 53.062101 
L 393.303196 59.924425 
L 394.403947 49.034457 
L 395.504699 59.154846 
L 396.605451 63.772475 
L 397.706203 50.945642 
L 398.806954 44.750339 
L 399.907706 67.992553 
L 401.008458 44.686142 
L 402.109209 53.138981 
L 403.209961 54.15235 
L 404.310713 65.529745 
L 405.411464 54.049792 
L 406.512216 59.821867 
L 408.713719 46.956516 
L 409.814471 48.662429 
L 410.915223 59.770509 
L 412.015975 47.995408 
L 413.116726 53.806001 
L 414.217478 40.966329 
L 415.31823 67.876999 
L 416.418981 60.642803 
L 417.519733 43.326579 
L 418.620485 62.951539 
L 419.721236 58.128637 
L 420.821988 44.814379 
L 421.92274 46.071383 
L 423.023491 60.77104 
L 424.124243 51.66402 
L 425.224995 47.033396 
L 426.325747 50.188903 
L 427.426498 58.462147 
L 428.52725 61.425221 
L 429.628002 47.251508 
L 430.728753 54.024113 
L 431.829505 62.733583 
L 432.930257 43.467655 
L 434.031008 60.578606 
L 435.13176 45.494239 
L 436.232512 50.907124 
L 437.333263 57.282179 
L 438.434015 50.958482 
L 439.534767 52.228326 
L 440.635519 54.857889 
L 441.73627 60.001461 
L 442.837022 57.795127 
L 443.937774 48.328918 
L 445.038525 56.448404 
L 446.139277 67.287014 
L 447.240029 49.060136 
L 448.34078 51.458747 
L 449.441532 63.336406 
L 450.542284 50.71469 
L 451.643035 62.156281 
L 452.743787 53.857358 
L 453.844539 64.837046 
L 454.945291 65.876094 
L 456.046042 70.724674 
L 457.146794 59.052132 
L 458.247546 58.256874 
L 459.348297 55.088684 
L 460.449049 61.361024 
L 461.549801 48.675268 
L 462.650552 58.898216 
L 463.751304 61.976687 
L 464.852056 58.859854 
L 465.952807 51.138076 
L 467.053559 52.767109 
L 468.154311 59.552397 
L 469.255063 63.644238 
L 470.355814 64.798684 
L 471.456566 61.207108 
L 472.557318 46.161259 
L 473.658069 64.9526 
L 474.758821 47.931368 
L 475.859573 57.359059 
L 476.960324 47.572179 
L 478.061076 57.731087 
L 479.161828 58.628902 
L 480.262579 48.585549 
L 481.363331 54.024113 
L 482.464083 52.843989 
L 483.564835 62.271679 
L 484.665586 68.903208 
L 485.766338 61.386703 
L 486.86709 63.708278 
L 487.967841 60.463208 
L 489.068593 51.163755 
L 490.169345 67.094581 
L 491.270096 58.911055 
L 492.370848 53.613567 
L 493.4716 55.383676 
L 494.572351 59.578076 
L 495.673103 60.257935 
L 496.773855 53.100619 
L 497.874607 61.912647 
L 498.975358 60.950634 
L 500.07611 60.309293 
L 501.176862 56.602319 
L 502.277613 45.237765 
L 503.378365 61.797093 
L 504.479117 64.516375 
L 505.579868 63.785314 
L 506.68062 57.833645 
L 507.781372 59.270244 
L 508.882123 54.062632 
L 509.982875 56.320167 
L 511.083627 51.279153 
L 512.184379 55.92246 
L 513.28513 53.613567 
L 514.385882 48.598388 
L 515.486634 46.956516 
L 516.587385 44.160198 
L 517.688137 51.651181 
L 518.788889 61.489261 
L 519.88964 47.751774 
L 520.990392 56.550962 
L 522.091144 51.702382 
L 523.191895 55.614628 
L 524.292647 55.768544 
L 525.393399 62.079402 
L 526.494151 48.123802 
L 527.594902 60.83508 
L 528.695654 63.977748 
L 529.796406 59.962943 
L 530.897157 63.041414 
L 531.997909 53.459651 
L 533.098661 58.167155 
L 534.199412 49.560401 
L 535.300164 64.195704 
L 536.400916 53.716282 
L 537.501667 57.615533 
L 538.602419 60.296453 
L 539.703171 53.100619 
L 540.803923 50.265783 
L 541.904674 58.218513 
L 544.106178 65.606781 
L 545.206929 53.664925 
L 546.307681 60.09118 
L 547.408433 55.447873 
L 548.509184 52.75427 
L 549.609936 38.978264 
L 550.710688 58.308232 
L 551.811439 51.7409 
L 552.912191 46.328014 
L 554.012943 52.087249 
L 555.113695 57.179464 
L 556.214446 58.269714 
L 557.315198 69.223879 
L 558.41595 55.755705 
L 559.516701 53.921399 
L 560.617453 46.212616 
L 561.718205 56.409886 
L 562.818956 73.867186 
L 563.919708 50.31714 
L 565.02046 48.085284 
L 566.121211 41.851462 
L 567.221963 65.080837 
L 568.322715 54.665455 
L 569.423467 47.328544 
L 570.524218 58.231352 
L 571.62497 52.048731 
L 572.725722 71.519932 
L 573.826473 72.186952 
L 576.027977 47.790292 
L 577.128728 48.931899 
L 578.22948 51.022679 
L 579.330232 52.587514 
L 580.430983 57.551492 
L 581.531735 44.442507 
L 582.632487 53.190338 
L 583.733239 55.550431 
L 584.83399 61.553458 
L 585.934742 46.494769 
L 587.035494 56.833115 
L 588.136245 44.776017 
L 589.236997 56.204612 
L 590.337749 62.374394 
L 591.4385 62.348715 
L 592.539252 43.108466 
L 593.640004 48.149324 
L 594.740755 47.982725 
L 595.841507 62.579511 
L 596.942259 38.029091 
L 598.043011 48.316079 
L 599.143762 56.114893 
L 600.244514 49.406485 
L 601.345266 63.27221 
L 602.446017 56.268809 
L 603.546769 50.419698 
L 604.647521 60.899277 
L 604.647521 60.899277 
" clip-path="url(#p9c6148d628)" style="fill: none; stroke: #1f77b4; stroke-width: 1.5; stroke-linecap: square"/>
   </g>
   <g id="line2d_30">
    <path d="M 385.597934 146.99297 
L 387.799437 129.890475 
L 390.000941 128.607792 
L 392.202444 146.1379 
L 394.403947 134.80748 
L 396.605451 134.166138 
L 398.806954 111.932909 
L 401.008458 110.008885 
L 403.209961 114.498276 
L 405.411464 143.572534 
L 407.612968 158.750848 
L 409.814471 177.56364 
L 412.015975 138.441801 
L 414.217478 147.84804 
L 416.418981 142.289851 
L 418.620485 123.26333 
L 420.821988 126.897652 
L 423.023491 146.565357 
L 425.224995 91.623862 
L 427.426498 133.524796 
L 429.628002 132.883455 
L 431.829505 155.971753 
L 434.031008 122.835717 
L 436.232512 129.035405 
L 438.434015 143.786262 
L 440.635519 154.475342 
L 442.837022 151.054749 
L 445.038525 134.80748 
L 447.240029 145.282674 
L 449.441532 173.929319 
L 451.643035 141.220896 
L 453.844539 116.208572 
L 456.046042 139.938213 
L 458.247546 145.496559 
L 460.449049 159.178461 
L 462.650552 138.655529 
L 464.852056 118.987667 
L 467.053559 165.378149 
L 469.255063 143.144921 
L 471.456566 140.365826 
L 473.658069 164.950536 
L 475.859573 129.249133 
L 478.061076 163.454124 
L 480.262579 141.007167 
L 482.464083 125.614968 
L 484.665586 142.289851 
L 486.86709 123.477059 
L 489.068593 141.434624 
L 491.270096 148.275654 
L 493.4716 159.606075 
L 495.673103 168.798586 
L 497.874607 165.378149 
L 500.07611 153.406387 
L 502.277613 141.220896 
L 504.479117 161.743828 
L 506.68062 154.68907 
L 508.882123 155.971753 
L 511.083627 176.067072 
L 513.28513 165.591878 
L 515.486634 144.427604 
L 517.688137 165.378149 
L 519.88964 170.081269 
L 522.091144 186.328538 
L 524.292647 178.41871 
L 526.494151 175.853344 
L 528.695654 172.646635 
L 530.897157 169.012314 
L 533.098661 167.088289 
L 535.300164 151.909975 
L 537.501667 152.978773 
L 539.703171 143.999991 
L 541.904674 162.385169 
L 544.106178 152.551317 
L 546.307681 161.316215 
L 548.509184 175.853344 
L 550.710688 161.530099 
L 552.912191 164.736808 
L 555.113695 158.109506 
L 557.315198 145.496559 
L 559.516701 158.964733 
L 561.718205 169.226199 
L 563.919708 185.25974 
L 566.121211 172.432907 
L 568.322715 177.136027 
L 570.524218 151.909975 
L 572.725722 130.531817 
L 574.927225 190.604201 
L 577.128728 173.287977 
L 579.330232 135.448821 
L 581.531735 145.924016 
L 583.733239 132.028385 
L 585.934742 113.643206 
L 588.136245 174.57066 
L 590.337749 184.618398 
L 592.539252 167.302174 
L 594.740755 149.98595 
L 596.942259 150.627292 
L 599.143762 168.157244 
L 601.345266 153.192658 
L 603.546769 193.810909 
" clip-path="url(#p9c6148d628)" style="fill: none; stroke: #ff7f0e; stroke-width: 1.5; stroke-linecap: square"/>
   </g>
   <g id="patch_9">
    <path d="M 374.645455 201.6 
L 374.645455 30.24 
" style="fill: none; stroke: #000000; stroke-width: 0.8; stroke-linejoin: miter; stroke-linecap: square"/>
   </g>
   <g id="patch_10">
    <path d="M 615.6 201.6 
L 615.6 30.24 
" style="fill: none; stroke: #000000; stroke-width: 0.8; stroke-linejoin: miter; stroke-linecap: square"/>
   </g>
   <g id="patch_11">
    <path d="M 374.645455 201.6 
L 615.6 201.6 
" style="fill: none; stroke: #000000; stroke-width: 0.8; stroke-linejoin: miter; stroke-linecap: square"/>
   </g>
   <g id="patch_12">
    <path d="M 374.645455 30.24 
L 615.6 30.24 
" style="fill: none; stroke: #000000; stroke-width: 0.8; stroke-linejoin: miter; stroke-linecap: square"/>
   </g>
   <g id="text_32">
    <!-- MK08 -->
    <g transform="translate(478.376165 20.24)scale(0.12 -0.12)">
     <use xlink:href="#DejaVuSans-4d"/>
     <use xlink:href="#DejaVuSans-4b" x="86.279297"/>
     <use xlink:href="#DejaVuSans-30" x="151.855469"/>
     <use xlink:href="#DejaVuSans-38" x="215.478516"/>
    </g>
   </g>
   <g id="legend_2">
    <g id="patch_13">
     <path d="M 381.645455 196.6 
L 463.026705 196.6 
Q 465.026705 196.6 465.026705 194.6 
L 465.026705 166.24375 
Q 465.026705 164.24375 463.026705 164.24375 
L 381.645455 164.24375 
Q 379.645455 164.24375 379.645455 166.24375 
L 379.645455 194.6 
Q 379.645455 196.6 381.645455 196.6 
z
" style="fill: #ffffff; opacity: 0.8; stroke: #cccccc; stroke-linejoin: miter"/>
    </g>
    <g id="line2d_31">
     <path d="M 383.645455 172.342187 
L 393.645455 172.342187 
L 403.645455 172.342187 
" style="fill: none; stroke: #1f77b4; stroke-width: 1.5; stroke-linecap: square"/>
    </g>
    <g id="text_33">
     <!-- Training -->
     <g transform="translate(411.645455 175.842187)scale(0.1 -0.1)">
      <use xlink:href="#DejaVuSans-54"/>
      <use xlink:href="#DejaVuSans-72" x="46.333984"/>
      <use xlink:href="#DejaVuSans-61" x="87.447266"/>
      <use xlink:href="#DejaVuSans-69" x="148.726562"/>
      <use xlink:href="#DejaVuSans-6e" x="176.509766"/>
      <use xlink:href="#DejaVuSans-69" x="239.888672"/>
      <use xlink:href="#DejaVuSans-6e" x="267.671875"/>
      <use xlink:href="#DejaVuSans-67" x="331.050781"/>
     </g>
    </g>
    <g id="line2d_32">
     <path d="M 383.645455 187.020312 
L 393.645455 187.020312 
L 403.645455 187.020312 
" style="fill: none; stroke: #ff7f0e; stroke-width: 1.5; stroke-linecap: square"/>
    </g>
    <g id="text_34">
     <!-- Validation -->
     <g transform="translate(411.645455 190.520312)scale(0.1 -0.1)">
      <use xlink:href="#DejaVuSans-56"/>
      <use xlink:href="#DejaVuSans-61" x="60.658203"/>
      <use xlink:href="#DejaVuSans-6c" x="121.9375"/>
      <use xlink:href="#DejaVuSans-69" x="149.720703"/>
      <use xlink:href="#DejaVuSans-64" x="177.503906"/>
      <use xlink:href="#DejaVuSans-61" x="240.980469"/>
      <use xlink:href="#DejaVuSans-74" x="302.259766"/>
      <use xlink:href="#DejaVuSans-69" x="341.46875"/>
      <use xlink:href="#DejaVuSans-6f" x="369.251953"/>
      <use xlink:href="#DejaVuSans-6e" x="430.433594"/>
     </g>
    </g>
   </g>
  </g>
 </g>
 <defs>
  <clipPath id="p6cf273ea3e">
   <rect x="85.5" y="30.24" width="240.954545" height="171.36"/>
  </clipPath>
  <clipPath id="p9c6148d628">
   <rect x="374.645455" y="30.24" width="240.954545" height="171.36"/>
  </clipPath>
 </defs>
</svg>
