<?xml version="1.0" encoding="utf-8" standalone="no"?>
<!DOCTYPE svg PUBLIC "-//W3C//DTD SVG 1.1//EN"
  "http://www.w3.org/Graphics/SVG/1.1/DTD/svg11.dtd">
<svg xmlns:xlink="http://www.w3.org/1999/xlink" width="684pt" height="252pt" viewBox="0 0 684 252" xmlns="http://www.w3.org/2000/svg" version="1.1">
 <metadata>
  <rdf:RDF xmlns:dc="http://purl.org/dc/elements/1.1/" xmlns:cc="http://creativecommons.org/ns#" xmlns:rdf="http://www.w3.org/1999/02/22-rdf-syntax-ns#">
   <cc:Work>
    <dc:type rdf:resource="http://purl.org/dc/dcmitype/StillImage"/>
    <dc:date>2022-07-03T16:24:40.847672</dc:date>
    <dc:format>image/svg+xml</dc:format>
    <dc:creator>
     <cc:Agent>
      <dc:title>Matplotlib v3.5.1, https://matplotlib.org/</dc:title>
     </cc:Agent>
    </dc:creator>
   </cc:Work>
  </rdf:RDF>
 </metadata>
 <defs>
  <style type="text/css">*{stroke-linejoin: round; stroke-linecap: butt}</style>
 </defs>
 <g id="figure_1">
  <g id="patch_1">
   <path d="M 0 252 
L 684 252 
L 684 0 
L 0 0 
z
" style="fill: #ffffff"/>
  </g>
  <g id="axes_1">
   <g id="patch_2">
    <path d="M 85.5 201.6 
L 326.454545 201.6 
L 326.454545 30.24 
L 85.5 30.24 
z
" style="fill: #ffffff"/>
   </g>
   <g id="matplotlib.axis_1">
    <g id="xtick_1">
     <g id="line2d_1">
      <defs>
       <path id="me7b0538c08" d="M 0 0 
L 0 3.5 
" style="stroke: #000000; stroke-width: 0.8"/>
      </defs>
      <g>
       <use xlink:href="#me7b0538c08" x="96.452479" y="201.6" style="stroke: #000000; stroke-width: 0.8"/>
      </g>
     </g>
     <g id="text_1">
      <!-- 0 -->
      <g transform="translate(93.271229 216.198437)scale(0.1 -0.1)">
       <defs>
        <path id="DejaVuSans-30" d="M 2034 4250 
Q 1547 4250 1301 3770 
Q 1056 3291 1056 2328 
Q 1056 1369 1301 889 
Q 1547 409 2034 409 
Q 2525 409 2770 889 
Q 3016 1369 3016 2328 
Q 3016 3291 2770 3770 
Q 2525 4250 2034 4250 
z
M 2034 4750 
Q 2819 4750 3233 4129 
Q 3647 3509 3647 2328 
Q 3647 1150 3233 529 
Q 2819 -91 2034 -91 
Q 1250 -91 836 529 
Q 422 1150 422 2328 
Q 422 3509 836 4129 
Q 1250 4750 2034 4750 
z
" transform="scale(0.015625)"/>
       </defs>
       <use xlink:href="#DejaVuSans-30"/>
      </g>
     </g>
    </g>
    <g id="xtick_2">
     <g id="line2d_2">
      <g>
       <use xlink:href="#me7b0538c08" x="140.482547" y="201.6" style="stroke: #000000; stroke-width: 0.8"/>
      </g>
     </g>
     <g id="text_2">
      <!-- 2000 -->
      <g transform="translate(127.757547 216.198437)scale(0.1 -0.1)">
       <defs>
        <path id="DejaVuSans-32" d="M 1228 531 
L 3431 531 
L 3431 0 
L 469 0 
L 469 531 
Q 828 903 1448 1529 
Q 2069 2156 2228 2338 
Q 2531 2678 2651 2914 
Q 2772 3150 2772 3378 
Q 2772 3750 2511 3984 
Q 2250 4219 1831 4219 
Q 1534 4219 1204 4116 
Q 875 4013 500 3803 
L 500 4441 
Q 881 4594 1212 4672 
Q 1544 4750 1819 4750 
Q 2544 4750 2975 4387 
Q 3406 4025 3406 3419 
Q 3406 3131 3298 2873 
Q 3191 2616 2906 2266 
Q 2828 2175 2409 1742 
Q 1991 1309 1228 531 
z
" transform="scale(0.015625)"/>
       </defs>
       <use xlink:href="#DejaVuSans-32"/>
       <use xlink:href="#DejaVuSans-30" x="63.623047"/>
       <use xlink:href="#DejaVuSans-30" x="127.246094"/>
       <use xlink:href="#DejaVuSans-30" x="190.869141"/>
      </g>
     </g>
    </g>
    <g id="xtick_3">
     <g id="line2d_3">
      <g>
       <use xlink:href="#me7b0538c08" x="184.512615" y="201.6" style="stroke: #000000; stroke-width: 0.8"/>
      </g>
     </g>
     <g id="text_3">
      <!-- 4000 -->
      <g transform="translate(171.787615 216.198437)scale(0.1 -0.1)">
       <defs>
        <path id="DejaVuSans-34" d="M 2419 4116 
L 825 1625 
L 2419 1625 
L 2419 4116 
z
M 2253 4666 
L 3047 4666 
L 3047 1625 
L 3713 1625 
L 3713 1100 
L 3047 1100 
L 3047 0 
L 2419 0 
L 2419 1100 
L 313 1100 
L 313 1709 
L 2253 4666 
z
" transform="scale(0.015625)"/>
       </defs>
       <use xlink:href="#DejaVuSans-34"/>
       <use xlink:href="#DejaVuSans-30" x="63.623047"/>
       <use xlink:href="#DejaVuSans-30" x="127.246094"/>
       <use xlink:href="#DejaVuSans-30" x="190.869141"/>
      </g>
     </g>
    </g>
    <g id="xtick_4">
     <g id="line2d_4">
      <g>
       <use xlink:href="#me7b0538c08" x="228.542682" y="201.6" style="stroke: #000000; stroke-width: 0.8"/>
      </g>
     </g>
     <g id="text_4">
      <!-- 6000 -->
      <g transform="translate(215.817682 216.198437)scale(0.1 -0.1)">
       <defs>
        <path id="DejaVuSans-36" d="M 2113 2584 
Q 1688 2584 1439 2293 
Q 1191 2003 1191 1497 
Q 1191 994 1439 701 
Q 1688 409 2113 409 
Q 2538 409 2786 701 
Q 3034 994 3034 1497 
Q 3034 2003 2786 2293 
Q 2538 2584 2113 2584 
z
M 3366 4563 
L 3366 3988 
Q 3128 4100 2886 4159 
Q 2644 4219 2406 4219 
Q 1781 4219 1451 3797 
Q 1122 3375 1075 2522 
Q 1259 2794 1537 2939 
Q 1816 3084 2150 3084 
Q 2853 3084 3261 2657 
Q 3669 2231 3669 1497 
Q 3669 778 3244 343 
Q 2819 -91 2113 -91 
Q 1303 -91 875 529 
Q 447 1150 447 2328 
Q 447 3434 972 4092 
Q 1497 4750 2381 4750 
Q 2619 4750 2861 4703 
Q 3103 4656 3366 4563 
z
" transform="scale(0.015625)"/>
       </defs>
       <use xlink:href="#DejaVuSans-36"/>
       <use xlink:href="#DejaVuSans-30" x="63.623047"/>
       <use xlink:href="#DejaVuSans-30" x="127.246094"/>
       <use xlink:href="#DejaVuSans-30" x="190.869141"/>
      </g>
     </g>
    </g>
    <g id="xtick_5">
     <g id="line2d_5">
      <g>
       <use xlink:href="#me7b0538c08" x="272.57275" y="201.6" style="stroke: #000000; stroke-width: 0.8"/>
      </g>
     </g>
     <g id="text_5">
      <!-- 8000 -->
      <g transform="translate(259.84775 216.198437)scale(0.1 -0.1)">
       <defs>
        <path id="DejaVuSans-38" d="M 2034 2216 
Q 1584 2216 1326 1975 
Q 1069 1734 1069 1313 
Q 1069 891 1326 650 
Q 1584 409 2034 409 
Q 2484 409 2743 651 
Q 3003 894 3003 1313 
Q 3003 1734 2745 1975 
Q 2488 2216 2034 2216 
z
M 1403 2484 
Q 997 2584 770 2862 
Q 544 3141 544 3541 
Q 544 4100 942 4425 
Q 1341 4750 2034 4750 
Q 2731 4750 3128 4425 
Q 3525 4100 3525 3541 
Q 3525 3141 3298 2862 
Q 3072 2584 2669 2484 
Q 3125 2378 3379 2068 
Q 3634 1759 3634 1313 
Q 3634 634 3220 271 
Q 2806 -91 2034 -91 
Q 1263 -91 848 271 
Q 434 634 434 1313 
Q 434 1759 690 2068 
Q 947 2378 1403 2484 
z
M 1172 3481 
Q 1172 3119 1398 2916 
Q 1625 2713 2034 2713 
Q 2441 2713 2670 2916 
Q 2900 3119 2900 3481 
Q 2900 3844 2670 4047 
Q 2441 4250 2034 4250 
Q 1625 4250 1398 4047 
Q 1172 3844 1172 3481 
z
" transform="scale(0.015625)"/>
       </defs>
       <use xlink:href="#DejaVuSans-38"/>
       <use xlink:href="#DejaVuSans-30" x="63.623047"/>
       <use xlink:href="#DejaVuSans-30" x="127.246094"/>
       <use xlink:href="#DejaVuSans-30" x="190.869141"/>
      </g>
     </g>
    </g>
    <g id="xtick_6">
     <g id="line2d_6">
      <g>
       <use xlink:href="#me7b0538c08" x="316.602818" y="201.6" style="stroke: #000000; stroke-width: 0.8"/>
      </g>
     </g>
     <g id="text_6">
      <!-- 10000 -->
      <g transform="translate(300.696568 216.198437)scale(0.1 -0.1)">
       <defs>
        <path id="DejaVuSans-31" d="M 794 531 
L 1825 531 
L 1825 4091 
L 703 3866 
L 703 4441 
L 1819 4666 
L 2450 4666 
L 2450 531 
L 3481 531 
L 3481 0 
L 794 0 
L 794 531 
z
" transform="scale(0.015625)"/>
       </defs>
       <use xlink:href="#DejaVuSans-31"/>
       <use xlink:href="#DejaVuSans-30" x="63.623047"/>
       <use xlink:href="#DejaVuSans-30" x="127.246094"/>
       <use xlink:href="#DejaVuSans-30" x="190.869141"/>
       <use xlink:href="#DejaVuSans-30" x="254.492188"/>
      </g>
     </g>
    </g>
    <g id="text_7">
     <!-- Number of episodes -->
     <g transform="translate(155.734304 229.876562)scale(0.1 -0.1)">
      <defs>
       <path id="DejaVuSans-4e" d="M 628 4666 
L 1478 4666 
L 3547 763 
L 3547 4666 
L 4159 4666 
L 4159 0 
L 3309 0 
L 1241 3903 
L 1241 0 
L 628 0 
L 628 4666 
z
" transform="scale(0.015625)"/>
       <path id="DejaVuSans-75" d="M 544 1381 
L 544 3500 
L 1119 3500 
L 1119 1403 
Q 1119 906 1312 657 
Q 1506 409 1894 409 
Q 2359 409 2629 706 
Q 2900 1003 2900 1516 
L 2900 3500 
L 3475 3500 
L 3475 0 
L 2900 0 
L 2900 538 
Q 2691 219 2414 64 
Q 2138 -91 1772 -91 
Q 1169 -91 856 284 
Q 544 659 544 1381 
z
M 1991 3584 
L 1991 3584 
z
" transform="scale(0.015625)"/>
       <path id="DejaVuSans-6d" d="M 3328 2828 
Q 3544 3216 3844 3400 
Q 4144 3584 4550 3584 
Q 5097 3584 5394 3201 
Q 5691 2819 5691 2113 
L 5691 0 
L 5113 0 
L 5113 2094 
Q 5113 2597 4934 2840 
Q 4756 3084 4391 3084 
Q 3944 3084 3684 2787 
Q 3425 2491 3425 1978 
L 3425 0 
L 2847 0 
L 2847 2094 
Q 2847 2600 2669 2842 
Q 2491 3084 2119 3084 
Q 1678 3084 1418 2786 
Q 1159 2488 1159 1978 
L 1159 0 
L 581 0 
L 581 3500 
L 1159 3500 
L 1159 2956 
Q 1356 3278 1631 3431 
Q 1906 3584 2284 3584 
Q 2666 3584 2933 3390 
Q 3200 3197 3328 2828 
z
" transform="scale(0.015625)"/>
       <path id="DejaVuSans-62" d="M 3116 1747 
Q 3116 2381 2855 2742 
Q 2594 3103 2138 3103 
Q 1681 3103 1420 2742 
Q 1159 2381 1159 1747 
Q 1159 1113 1420 752 
Q 1681 391 2138 391 
Q 2594 391 2855 752 
Q 3116 1113 3116 1747 
z
M 1159 2969 
Q 1341 3281 1617 3432 
Q 1894 3584 2278 3584 
Q 2916 3584 3314 3078 
Q 3713 2572 3713 1747 
Q 3713 922 3314 415 
Q 2916 -91 2278 -91 
Q 1894 -91 1617 61 
Q 1341 213 1159 525 
L 1159 0 
L 581 0 
L 581 4863 
L 1159 4863 
L 1159 2969 
z
" transform="scale(0.015625)"/>
       <path id="DejaVuSans-65" d="M 3597 1894 
L 3597 1613 
L 953 1613 
Q 991 1019 1311 708 
Q 1631 397 2203 397 
Q 2534 397 2845 478 
Q 3156 559 3463 722 
L 3463 178 
Q 3153 47 2828 -22 
Q 2503 -91 2169 -91 
Q 1331 -91 842 396 
Q 353 884 353 1716 
Q 353 2575 817 3079 
Q 1281 3584 2069 3584 
Q 2775 3584 3186 3129 
Q 3597 2675 3597 1894 
z
M 3022 2063 
Q 3016 2534 2758 2815 
Q 2500 3097 2075 3097 
Q 1594 3097 1305 2825 
Q 1016 2553 972 2059 
L 3022 2063 
z
" transform="scale(0.015625)"/>
       <path id="DejaVuSans-72" d="M 2631 2963 
Q 2534 3019 2420 3045 
Q 2306 3072 2169 3072 
Q 1681 3072 1420 2755 
Q 1159 2438 1159 1844 
L 1159 0 
L 581 0 
L 581 3500 
L 1159 3500 
L 1159 2956 
Q 1341 3275 1631 3429 
Q 1922 3584 2338 3584 
Q 2397 3584 2469 3576 
Q 2541 3569 2628 3553 
L 2631 2963 
z
" transform="scale(0.015625)"/>
       <path id="DejaVuSans-20" transform="scale(0.015625)"/>
       <path id="DejaVuSans-6f" d="M 1959 3097 
Q 1497 3097 1228 2736 
Q 959 2375 959 1747 
Q 959 1119 1226 758 
Q 1494 397 1959 397 
Q 2419 397 2687 759 
Q 2956 1122 2956 1747 
Q 2956 2369 2687 2733 
Q 2419 3097 1959 3097 
z
M 1959 3584 
Q 2709 3584 3137 3096 
Q 3566 2609 3566 1747 
Q 3566 888 3137 398 
Q 2709 -91 1959 -91 
Q 1206 -91 779 398 
Q 353 888 353 1747 
Q 353 2609 779 3096 
Q 1206 3584 1959 3584 
z
" transform="scale(0.015625)"/>
       <path id="DejaVuSans-66" d="M 2375 4863 
L 2375 4384 
L 1825 4384 
Q 1516 4384 1395 4259 
Q 1275 4134 1275 3809 
L 1275 3500 
L 2222 3500 
L 2222 3053 
L 1275 3053 
L 1275 0 
L 697 0 
L 697 3053 
L 147 3053 
L 147 3500 
L 697 3500 
L 697 3744 
Q 697 4328 969 4595 
Q 1241 4863 1831 4863 
L 2375 4863 
z
" transform="scale(0.015625)"/>
       <path id="DejaVuSans-70" d="M 1159 525 
L 1159 -1331 
L 581 -1331 
L 581 3500 
L 1159 3500 
L 1159 2969 
Q 1341 3281 1617 3432 
Q 1894 3584 2278 3584 
Q 2916 3584 3314 3078 
Q 3713 2572 3713 1747 
Q 3713 922 3314 415 
Q 2916 -91 2278 -91 
Q 1894 -91 1617 61 
Q 1341 213 1159 525 
z
M 3116 1747 
Q 3116 2381 2855 2742 
Q 2594 3103 2138 3103 
Q 1681 3103 1420 2742 
Q 1159 2381 1159 1747 
Q 1159 1113 1420 752 
Q 1681 391 2138 391 
Q 2594 391 2855 752 
Q 3116 1113 3116 1747 
z
" transform="scale(0.015625)"/>
       <path id="DejaVuSans-69" d="M 603 3500 
L 1178 3500 
L 1178 0 
L 603 0 
L 603 3500 
z
M 603 4863 
L 1178 4863 
L 1178 4134 
L 603 4134 
L 603 4863 
z
" transform="scale(0.015625)"/>
       <path id="DejaVuSans-73" d="M 2834 3397 
L 2834 2853 
Q 2591 2978 2328 3040 
Q 2066 3103 1784 3103 
Q 1356 3103 1142 2972 
Q 928 2841 928 2578 
Q 928 2378 1081 2264 
Q 1234 2150 1697 2047 
L 1894 2003 
Q 2506 1872 2764 1633 
Q 3022 1394 3022 966 
Q 3022 478 2636 193 
Q 2250 -91 1575 -91 
Q 1294 -91 989 -36 
Q 684 19 347 128 
L 347 722 
Q 666 556 975 473 
Q 1284 391 1588 391 
Q 1994 391 2212 530 
Q 2431 669 2431 922 
Q 2431 1156 2273 1281 
Q 2116 1406 1581 1522 
L 1381 1569 
Q 847 1681 609 1914 
Q 372 2147 372 2553 
Q 372 3047 722 3315 
Q 1072 3584 1716 3584 
Q 2034 3584 2315 3537 
Q 2597 3491 2834 3397 
z
" transform="scale(0.015625)"/>
       <path id="DejaVuSans-64" d="M 2906 2969 
L 2906 4863 
L 3481 4863 
L 3481 0 
L 2906 0 
L 2906 525 
Q 2725 213 2448 61 
Q 2172 -91 1784 -91 
Q 1150 -91 751 415 
Q 353 922 353 1747 
Q 353 2572 751 3078 
Q 1150 3584 1784 3584 
Q 2172 3584 2448 3432 
Q 2725 3281 2906 2969 
z
M 947 1747 
Q 947 1113 1208 752 
Q 1469 391 1925 391 
Q 2381 391 2643 752 
Q 2906 1113 2906 1747 
Q 2906 2381 2643 2742 
Q 2381 3103 1925 3103 
Q 1469 3103 1208 2742 
Q 947 2381 947 1747 
z
" transform="scale(0.015625)"/>
      </defs>
      <use xlink:href="#DejaVuSans-4e"/>
      <use xlink:href="#DejaVuSans-75" x="74.804688"/>
      <use xlink:href="#DejaVuSans-6d" x="138.183594"/>
      <use xlink:href="#DejaVuSans-62" x="235.595703"/>
      <use xlink:href="#DejaVuSans-65" x="299.072266"/>
      <use xlink:href="#DejaVuSans-72" x="360.595703"/>
      <use xlink:href="#DejaVuSans-20" x="401.708984"/>
      <use xlink:href="#DejaVuSans-6f" x="433.496094"/>
      <use xlink:href="#DejaVuSans-66" x="494.677734"/>
      <use xlink:href="#DejaVuSans-20" x="529.882812"/>
      <use xlink:href="#DejaVuSans-65" x="561.669922"/>
      <use xlink:href="#DejaVuSans-70" x="623.193359"/>
      <use xlink:href="#DejaVuSans-69" x="686.669922"/>
      <use xlink:href="#DejaVuSans-73" x="714.453125"/>
      <use xlink:href="#DejaVuSans-6f" x="766.552734"/>
      <use xlink:href="#DejaVuSans-64" x="827.734375"/>
      <use xlink:href="#DejaVuSans-65" x="891.210938"/>
      <use xlink:href="#DejaVuSans-73" x="952.734375"/>
     </g>
    </g>
   </g>
   <g id="matplotlib.axis_2">
    <g id="ytick_1">
     <g id="line2d_7">
      <defs>
       <path id="m75f9273b6a" d="M 0 0 
L -3.5 0 
" style="stroke: #000000; stroke-width: 0.8"/>
      </defs>
      <g>
       <use xlink:href="#m75f9273b6a" x="85.5" y="183.034446" style="stroke: #000000; stroke-width: 0.8"/>
      </g>
     </g>
     <g id="text_8">
      <!-- 500 -->
      <g transform="translate(59.4125 186.833664)scale(0.1 -0.1)">
       <defs>
        <path id="DejaVuSans-35" d="M 691 4666 
L 3169 4666 
L 3169 4134 
L 1269 4134 
L 1269 2991 
Q 1406 3038 1543 3061 
Q 1681 3084 1819 3084 
Q 2600 3084 3056 2656 
Q 3513 2228 3513 1497 
Q 3513 744 3044 326 
Q 2575 -91 1722 -91 
Q 1428 -91 1123 -41 
Q 819 9 494 109 
L 494 744 
Q 775 591 1075 516 
Q 1375 441 1709 441 
Q 2250 441 2565 725 
Q 2881 1009 2881 1497 
Q 2881 1984 2565 2268 
Q 2250 2553 1709 2553 
Q 1456 2553 1204 2497 
Q 953 2441 691 2322 
L 691 4666 
z
" transform="scale(0.015625)"/>
       </defs>
       <use xlink:href="#DejaVuSans-35"/>
       <use xlink:href="#DejaVuSans-30" x="63.623047"/>
       <use xlink:href="#DejaVuSans-30" x="127.246094"/>
      </g>
     </g>
    </g>
    <g id="ytick_2">
     <g id="line2d_8">
      <g>
       <use xlink:href="#m75f9273b6a" x="85.5" y="154.424381" style="stroke: #000000; stroke-width: 0.8"/>
      </g>
     </g>
     <g id="text_9">
      <!-- 550 -->
      <g transform="translate(59.4125 158.2236)scale(0.1 -0.1)">
       <use xlink:href="#DejaVuSans-35"/>
       <use xlink:href="#DejaVuSans-35" x="63.623047"/>
       <use xlink:href="#DejaVuSans-30" x="127.246094"/>
      </g>
     </g>
    </g>
    <g id="ytick_3">
     <g id="line2d_9">
      <g>
       <use xlink:href="#m75f9273b6a" x="85.5" y="125.814317" style="stroke: #000000; stroke-width: 0.8"/>
      </g>
     </g>
     <g id="text_10">
      <!-- 600 -->
      <g transform="translate(59.4125 129.613536)scale(0.1 -0.1)">
       <use xlink:href="#DejaVuSans-36"/>
       <use xlink:href="#DejaVuSans-30" x="63.623047"/>
       <use xlink:href="#DejaVuSans-30" x="127.246094"/>
      </g>
     </g>
    </g>
    <g id="ytick_4">
     <g id="line2d_10">
      <g>
       <use xlink:href="#m75f9273b6a" x="85.5" y="97.204252" style="stroke: #000000; stroke-width: 0.8"/>
      </g>
     </g>
     <g id="text_11">
      <!-- 650 -->
      <g transform="translate(59.4125 101.003471)scale(0.1 -0.1)">
       <use xlink:href="#DejaVuSans-36"/>
       <use xlink:href="#DejaVuSans-35" x="63.623047"/>
       <use xlink:href="#DejaVuSans-30" x="127.246094"/>
      </g>
     </g>
    </g>
    <g id="ytick_5">
     <g id="line2d_11">
      <g>
       <use xlink:href="#m75f9273b6a" x="85.5" y="68.594188" style="stroke: #000000; stroke-width: 0.8"/>
      </g>
     </g>
     <g id="text_12">
      <!-- 700 -->
      <g transform="translate(59.4125 72.393407)scale(0.1 -0.1)">
       <defs>
        <path id="DejaVuSans-37" d="M 525 4666 
L 3525 4666 
L 3525 4397 
L 1831 0 
L 1172 0 
L 2766 4134 
L 525 4134 
L 525 4666 
z
" transform="scale(0.015625)"/>
       </defs>
       <use xlink:href="#DejaVuSans-37"/>
       <use xlink:href="#DejaVuSans-30" x="63.623047"/>
       <use xlink:href="#DejaVuSans-30" x="127.246094"/>
      </g>
     </g>
    </g>
    <g id="ytick_6">
     <g id="line2d_12">
      <g>
       <use xlink:href="#m75f9273b6a" x="85.5" y="39.984124" style="stroke: #000000; stroke-width: 0.8"/>
      </g>
     </g>
     <g id="text_13">
      <!-- 750 -->
      <g transform="translate(59.4125 43.783342)scale(0.1 -0.1)">
       <use xlink:href="#DejaVuSans-37"/>
       <use xlink:href="#DejaVuSans-35" x="63.623047"/>
       <use xlink:href="#DejaVuSans-30" x="127.246094"/>
      </g>
     </g>
    </g>
    <g id="text_14">
     <!-- Makespan -->
     <g transform="translate(53.332812 141.100469)rotate(-90)scale(0.1 -0.1)">
      <defs>
       <path id="DejaVuSans-4d" d="M 628 4666 
L 1569 4666 
L 2759 1491 
L 3956 4666 
L 4897 4666 
L 4897 0 
L 4281 0 
L 4281 4097 
L 3078 897 
L 2444 897 
L 1241 4097 
L 1241 0 
L 628 0 
L 628 4666 
z
" transform="scale(0.015625)"/>
       <path id="DejaVuSans-61" d="M 2194 1759 
Q 1497 1759 1228 1600 
Q 959 1441 959 1056 
Q 959 750 1161 570 
Q 1363 391 1709 391 
Q 2188 391 2477 730 
Q 2766 1069 2766 1631 
L 2766 1759 
L 2194 1759 
z
M 3341 1997 
L 3341 0 
L 2766 0 
L 2766 531 
Q 2569 213 2275 61 
Q 1981 -91 1556 -91 
Q 1019 -91 701 211 
Q 384 513 384 1019 
Q 384 1609 779 1909 
Q 1175 2209 1959 2209 
L 2766 2209 
L 2766 2266 
Q 2766 2663 2505 2880 
Q 2244 3097 1772 3097 
Q 1472 3097 1187 3025 
Q 903 2953 641 2809 
L 641 3341 
Q 956 3463 1253 3523 
Q 1550 3584 1831 3584 
Q 2591 3584 2966 3190 
Q 3341 2797 3341 1997 
z
" transform="scale(0.015625)"/>
       <path id="DejaVuSans-6b" d="M 581 4863 
L 1159 4863 
L 1159 1991 
L 2875 3500 
L 3609 3500 
L 1753 1863 
L 3688 0 
L 2938 0 
L 1159 1709 
L 1159 0 
L 581 0 
L 581 4863 
z
" transform="scale(0.015625)"/>
       <path id="DejaVuSans-6e" d="M 3513 2113 
L 3513 0 
L 2938 0 
L 2938 2094 
Q 2938 2591 2744 2837 
Q 2550 3084 2163 3084 
Q 1697 3084 1428 2787 
Q 1159 2491 1159 1978 
L 1159 0 
L 581 0 
L 581 3500 
L 1159 3500 
L 1159 2956 
Q 1366 3272 1645 3428 
Q 1925 3584 2291 3584 
Q 2894 3584 3203 3211 
Q 3513 2838 3513 2113 
z
" transform="scale(0.015625)"/>
      </defs>
      <use xlink:href="#DejaVuSans-4d"/>
      <use xlink:href="#DejaVuSans-61" x="86.279297"/>
      <use xlink:href="#DejaVuSans-6b" x="147.558594"/>
      <use xlink:href="#DejaVuSans-65" x="201.84375"/>
      <use xlink:href="#DejaVuSans-73" x="263.367188"/>
      <use xlink:href="#DejaVuSans-70" x="315.466797"/>
      <use xlink:href="#DejaVuSans-61" x="378.943359"/>
      <use xlink:href="#DejaVuSans-6e" x="440.222656"/>
     </g>
    </g>
   </g>
   <g id="line2d_13">
    <path d="M 96.452479 121.173773 
L 97.553231 123.06203 
L 98.653983 118.524478 
L 99.754734 122.132203 
L 100.855486 123.273742 
L 101.956238 122.678665 
L 103.056989 120.896264 
L 104.157741 121.150862 
L 105.258493 119.83767 
L 106.359245 118.976504 
L 107.459996 120.346938 
L 108.560748 122.406848 
L 109.6615 120.595844 
L 110.762251 121.754565 
L 111.863003 122.169397 
L 112.963755 121.983425 
L 114.064506 122.861774 
L 115.165258 125.725609 
L 116.26601 123.479726 
L 117.366761 122.077826 
L 118.467513 122.595685 
L 119.568265 124.435327 
L 120.669017 121.024995 
L 121.769768 121.66013 
L 122.87052 123.968982 
L 123.971272 122.684393 
L 125.072023 120.776089 
L 126.172775 122.444043 
L 127.273527 123.585582 
L 128.374278 123.680017 
L 129.47503 125.462419 
L 130.575782 124.655595 
L 131.676533 123.119236 
L 132.777285 123.645687 
L 133.878037 121.777441 
L 134.978789 126.432304 
L 136.07954 123.542695 
L 137.180292 125.923036 
L 138.281044 125.456691 
L 139.381795 126.026029 
L 140.482547 124.206433 
L 141.583299 124.149226 
L 142.68405 122.100736 
L 143.784802 125.516761 
L 144.885554 124.94456 
L 145.986305 125.116248 
L 147.087057 125.794305 
L 148.187809 125.802862 
L 149.288561 127.942889 
L 150.389312 124.06911 
L 152.590816 127.058848 
L 153.691567 128.257628 
L 154.792319 126.761327 
L 155.893071 129.344789 
L 156.993822 129.078735 
L 158.094574 128.068791 
L 159.195326 126.403701 
L 160.296077 127.645368 
L 161.396829 124.890217 
L 162.497581 127.158976 
L 163.598333 124.887354 
L 164.699084 128.397814 
L 165.799836 129.590831 
L 166.900588 126.40653 
L 168.001339 129.719598 
L 169.102091 127.905729 
L 170.202843 128.932821 
L 171.303594 126.366506 
L 172.404346 128.237581 
L 173.505098 127.284878 
L 174.605849 128.057336 
L 175.706601 129.971368 
L 176.807353 126.340732 
L 177.908105 129.813998 
L 179.008856 130.666573 
L 180.109608 126.772747 
L 181.21036 128.495078 
L 182.311111 126.212001 
L 183.411863 132.260173 
L 184.512615 124.346619 
L 185.613366 128.125997 
L 186.714118 128.400678 
L 187.81487 133.178545 
L 188.915621 127.742632 
L 190.016373 129.482112 
L 191.117125 127.742632 
L 192.217877 129.934173 
L 193.318628 130.526386 
L 194.41938 129.10161 
L 195.520132 128.683915 
L 196.620883 127.467987 
L 197.721635 128.858432 
L 198.822387 125.794305 
L 199.923138 130.191671 
L 201.02389 128.778315 
L 202.124642 128.492215 
L 203.225393 127.081758 
L 204.326145 128.497942 
L 205.426897 128.929957 
L 206.527649 129.010074 
L 207.6284 129.344789 
L 208.729152 132.803771 
L 209.829904 130.534977 
L 212.031407 127.576707 
L 213.132159 129.467828 
L 214.23291 131.12719 
L 215.333662 130.869728 
L 216.434414 129.645209 
L 217.535165 131.424746 
L 218.635917 130.340414 
L 219.736669 131.770917 
L 220.837421 129.999971 
L 221.938172 127.89141 
L 223.038924 130.517795 
L 224.139676 131.049973 
L 225.240427 130.306083 
L 226.341179 131.007051 
L 227.441931 127.902866 
L 228.542682 129.928446 
L 229.643434 133.052677 
L 230.744186 133.015483 
L 231.844937 131.241638 
L 232.945689 128.855568 
L 234.046441 130.763872 
L 235.147193 131.544921 
L 236.247944 131.945469 
L 237.348696 129.816862 
L 238.449448 130.183079 
L 239.550199 130.286071 
L 240.650951 128.826965 
L 241.751703 129.708142 
L 242.852454 131.413291 
L 243.953206 129.573684 
L 245.053958 129.977095 
L 246.154709 129.2704 
L 247.255461 129.187455 
L 248.356213 131.447622 
L 249.456965 131.934014 
L 250.557716 131.613582 
L 251.658468 126.64688 
L 252.75922 128.598071 
L 253.859971 131.396143 
L 254.960723 129.347653 
L 256.061475 132.008403 
L 257.162226 129.339061 
L 258.262978 132.314515 
L 259.36373 130.884012 
L 260.464481 128.992891 
L 261.565233 128.457884 
L 262.665985 131.645049 
L 263.766737 129.547944 
L 264.867488 132.975424 
L 265.96824 130.580763 
L 268.169743 131.642186 
L 269.270495 129.507886 
L 270.371247 130.02571 
L 271.471998 129.862648 
L 272.57275 131.353221 
L 273.673502 129.256116 
L 274.774253 131.107179 
L 275.875005 130.666573 
L 276.975757 128.366347 
L 279.17726 131.210171 
L 280.278012 130.563581 
L 281.378764 131.810975 
L 282.479515 129.075871 
L 283.580267 129.439225 
L 284.681019 126.466635 
L 285.78177 129.66522 
L 286.882522 130.583627 
L 287.983274 129.922718 
L 289.084025 131.576388 
L 291.285529 128.789771 
L 292.386281 133.018346 
L 293.487032 129.06728 
L 294.587784 133.313004 
L 295.688536 128.529409 
L 296.789287 130.655152 
L 297.890039 130.062904 
L 298.990791 130.912615 
L 300.091542 129.799714 
L 301.192294 129.324777 
L 302.293046 130.248877 
L 303.393797 131.390416 
L 304.494549 128.826965 
L 305.595301 132.111395 
L 306.696053 129.090155 
L 307.796804 129.816862 
L 308.897556 132.177192 
L 309.998308 129.748201 
L 311.099059 129.951321 
L 312.199811 128.054472 
L 313.300563 128.718245 
L 314.401314 128.786907 
L 315.502066 131.670789 
L 315.502066 131.670789 
" clip-path="url(#pf22e58490f)" style="fill: none; stroke: #1f77b4; stroke-width: 1.5; stroke-linecap: square"/>
   </g>
   <g id="line2d_14">
    <path d="M 96.452479 45.181607 
L 98.653983 38.029091 
L 100.855486 44.466355 
L 103.056989 45.372364 
L 105.258493 41.414627 
L 107.459996 57.770035 
L 109.6615 48.042613 
L 111.863003 54.336828 
L 114.064506 50.855948 
L 116.26601 68.546516 
L 118.467513 75.651326 
L 120.669017 77.463308 
L 122.87052 92.006769 
L 125.072023 100.63746 
L 127.273527 103.879946 
L 129.47503 95.487649 
L 131.676533 89.670257 
L 133.878037 105.930322 
L 136.07954 99.922209 
L 138.281044 117.660448 
L 140.482547 128.818374 
L 142.68405 133.205262 
L 144.885554 152.374005 
L 147.087057 164.867055 
L 149.288561 174.117654 
L 151.490064 177.312433 
L 153.691567 177.741584 
L 155.893071 179.505877 
L 158.094574 173.640796 
L 160.296077 172.40105 
L 162.497581 169.778438 
L 164.699084 176.215719 
L 166.900588 164.056425 
L 169.102091 175.834258 
L 171.303594 177.550844 
L 173.505098 180.507229 
L 175.706601 178.933676 
L 177.908105 178.599886 
L 180.109608 172.925545 
L 182.311111 158.620512 
L 184.512615 172.114949 
L 186.714118 179.267448 
L 188.915621 170.589068 
L 191.117125 176.883282 
L 193.318628 178.695247 
L 195.520132 176.35877 
L 197.721635 179.744288 
L 199.923138 182.033093 
L 202.124642 178.552196 
L 204.326145 179.076726 
L 206.527649 178.552196 
L 208.729152 182.986756 
L 210.930655 175.21435 
L 213.132159 177.836945 
L 215.333662 171.73347 
L 217.535165 175.405107 
L 219.736669 176.072652 
L 221.938172 177.836945 
L 224.139676 174.499098 
L 226.341179 183.845058 
L 228.542682 175.834258 
L 230.744186 180.12575 
L 232.945689 177.646223 
L 235.147193 179.553549 
L 237.348696 178.552196 
L 239.550199 179.648927 
L 241.751703 176.16803 
L 243.953206 178.409146 
L 246.154709 179.601238 
L 248.356213 174.737527 
L 250.557716 179.458188 
L 252.75922 177.264744 
L 254.960723 175.3574 
L 257.162226 184.56031 
L 259.36373 190.997574 
L 261.565233 184.798739 
L 263.766737 185.275562 
L 265.96824 178.456835 
L 268.169743 184.8941 
L 270.371247 189.32866 
L 272.57275 188.613408 
L 274.774253 188.85182 
L 276.975757 185.466301 
L 279.17726 190.091601 
L 281.378764 180.697951 
L 283.580267 181.699304 
L 285.78177 186.372292 
L 287.983274 184.846411 
L 290.184777 179.9827 
L 292.386281 190.616113 
L 294.587784 180.79333 
L 296.789287 184.607999 
L 298.990791 186.133863 
L 301.192294 179.839649 
L 303.393797 190.568423 
L 305.595301 184.035798 
L 307.796804 193.810909 
L 309.998308 186.849115 
L 312.199811 184.607999 
L 314.401314 193.42943 
" clip-path="url(#pf22e58490f)" style="fill: none; stroke: #ff7f0e; stroke-width: 1.5; stroke-linecap: square"/>
   </g>
   <g id="patch_3">
    <path d="M 85.5 201.6 
L 85.5 30.24 
" style="fill: none; stroke: #000000; stroke-width: 0.8; stroke-linejoin: miter; stroke-linecap: square"/>
   </g>
   <g id="patch_4">
    <path d="M 326.454545 201.6 
L 326.454545 30.24 
" style="fill: none; stroke: #000000; stroke-width: 0.8; stroke-linejoin: miter; stroke-linecap: square"/>
   </g>
   <g id="patch_5">
    <path d="M 85.5 201.6 
L 326.454545 201.6 
" style="fill: none; stroke: #000000; stroke-width: 0.8; stroke-linejoin: miter; stroke-linecap: square"/>
   </g>
   <g id="patch_6">
    <path d="M 85.5 30.24 
L 326.454545 30.24 
" style="fill: none; stroke: #000000; stroke-width: 0.8; stroke-linejoin: miter; stroke-linecap: square"/>
   </g>
   <g id="text_15">
    <!-- MK09 -->
    <g transform="translate(189.23071 20.24)scale(0.12 -0.12)">
     <defs>
      <path id="DejaVuSans-4b" d="M 628 4666 
L 1259 4666 
L 1259 2694 
L 3353 4666 
L 4166 4666 
L 1850 2491 
L 4331 0 
L 3500 0 
L 1259 2247 
L 1259 0 
L 628 0 
L 628 4666 
z
" transform="scale(0.015625)"/>
      <path id="DejaVuSans-39" d="M 703 97 
L 703 672 
Q 941 559 1184 500 
Q 1428 441 1663 441 
Q 2288 441 2617 861 
Q 2947 1281 2994 2138 
Q 2813 1869 2534 1725 
Q 2256 1581 1919 1581 
Q 1219 1581 811 2004 
Q 403 2428 403 3163 
Q 403 3881 828 4315 
Q 1253 4750 1959 4750 
Q 2769 4750 3195 4129 
Q 3622 3509 3622 2328 
Q 3622 1225 3098 567 
Q 2575 -91 1691 -91 
Q 1453 -91 1209 -44 
Q 966 3 703 97 
z
M 1959 2075 
Q 2384 2075 2632 2365 
Q 2881 2656 2881 3163 
Q 2881 3666 2632 3958 
Q 2384 4250 1959 4250 
Q 1534 4250 1286 3958 
Q 1038 3666 1038 3163 
Q 1038 2656 1286 2365 
Q 1534 2075 1959 2075 
z
" transform="scale(0.015625)"/>
     </defs>
     <use xlink:href="#DejaVuSans-4d"/>
     <use xlink:href="#DejaVuSans-4b" x="86.279297"/>
     <use xlink:href="#DejaVuSans-30" x="151.855469"/>
     <use xlink:href="#DejaVuSans-39" x="215.478516"/>
    </g>
   </g>
   <g id="legend_1">
    <g id="patch_7">
     <path d="M 238.073295 67.59625 
L 319.454545 67.59625 
Q 321.454545 67.59625 321.454545 65.59625 
L 321.454545 37.24 
Q 321.454545 35.24 319.454545 35.24 
L 238.073295 35.24 
Q 236.073295 35.24 236.073295 37.24 
L 236.073295 65.59625 
Q 236.073295 67.59625 238.073295 67.59625 
z
" style="fill: #ffffff; opacity: 0.8; stroke: #cccccc; stroke-linejoin: miter"/>
    </g>
    <g id="line2d_15">
     <path d="M 240.073295 43.338437 
L 250.073295 43.338437 
L 260.073295 43.338437 
" style="fill: none; stroke: #1f77b4; stroke-width: 1.5; stroke-linecap: square"/>
    </g>
    <g id="text_16">
     <!-- Training -->
     <g transform="translate(268.073295 46.838437)scale(0.1 -0.1)">
      <defs>
       <path id="DejaVuSans-54" d="M -19 4666 
L 3928 4666 
L 3928 4134 
L 2272 4134 
L 2272 0 
L 1638 0 
L 1638 4134 
L -19 4134 
L -19 4666 
z
" transform="scale(0.015625)"/>
       <path id="DejaVuSans-67" d="M 2906 1791 
Q 2906 2416 2648 2759 
Q 2391 3103 1925 3103 
Q 1463 3103 1205 2759 
Q 947 2416 947 1791 
Q 947 1169 1205 825 
Q 1463 481 1925 481 
Q 2391 481 2648 825 
Q 2906 1169 2906 1791 
z
M 3481 434 
Q 3481 -459 3084 -895 
Q 2688 -1331 1869 -1331 
Q 1566 -1331 1297 -1286 
Q 1028 -1241 775 -1147 
L 775 -588 
Q 1028 -725 1275 -790 
Q 1522 -856 1778 -856 
Q 2344 -856 2625 -561 
Q 2906 -266 2906 331 
L 2906 616 
Q 2728 306 2450 153 
Q 2172 0 1784 0 
Q 1141 0 747 490 
Q 353 981 353 1791 
Q 353 2603 747 3093 
Q 1141 3584 1784 3584 
Q 2172 3584 2450 3431 
Q 2728 3278 2906 2969 
L 2906 3500 
L 3481 3500 
L 3481 434 
z
" transform="scale(0.015625)"/>
      </defs>
      <use xlink:href="#DejaVuSans-54"/>
      <use xlink:href="#DejaVuSans-72" x="46.333984"/>
      <use xlink:href="#DejaVuSans-61" x="87.447266"/>
      <use xlink:href="#DejaVuSans-69" x="148.726562"/>
      <use xlink:href="#DejaVuSans-6e" x="176.509766"/>
      <use xlink:href="#DejaVuSans-69" x="239.888672"/>
      <use xlink:href="#DejaVuSans-6e" x="267.671875"/>
      <use xlink:href="#DejaVuSans-67" x="331.050781"/>
     </g>
    </g>
    <g id="line2d_16">
     <path d="M 240.073295 58.016562 
L 250.073295 58.016562 
L 260.073295 58.016562 
" style="fill: none; stroke: #ff7f0e; stroke-width: 1.5; stroke-linecap: square"/>
    </g>
    <g id="text_17">
     <!-- Validation -->
     <g transform="translate(268.073295 61.516562)scale(0.1 -0.1)">
      <defs>
       <path id="DejaVuSans-56" d="M 1831 0 
L 50 4666 
L 709 4666 
L 2188 738 
L 3669 4666 
L 4325 4666 
L 2547 0 
L 1831 0 
z
" transform="scale(0.015625)"/>
       <path id="DejaVuSans-6c" d="M 603 4863 
L 1178 4863 
L 1178 0 
L 603 0 
L 603 4863 
z
" transform="scale(0.015625)"/>
       <path id="DejaVuSans-74" d="M 1172 4494 
L 1172 3500 
L 2356 3500 
L 2356 3053 
L 1172 3053 
L 1172 1153 
Q 1172 725 1289 603 
Q 1406 481 1766 481 
L 2356 481 
L 2356 0 
L 1766 0 
Q 1100 0 847 248 
Q 594 497 594 1153 
L 594 3053 
L 172 3053 
L 172 3500 
L 594 3500 
L 594 4494 
L 1172 4494 
z
" transform="scale(0.015625)"/>
      </defs>
      <use xlink:href="#DejaVuSans-56"/>
      <use xlink:href="#DejaVuSans-61" x="60.658203"/>
      <use xlink:href="#DejaVuSans-6c" x="121.9375"/>
      <use xlink:href="#DejaVuSans-69" x="149.720703"/>
      <use xlink:href="#DejaVuSans-64" x="177.503906"/>
      <use xlink:href="#DejaVuSans-61" x="240.980469"/>
      <use xlink:href="#DejaVuSans-74" x="302.259766"/>
      <use xlink:href="#DejaVuSans-69" x="341.46875"/>
      <use xlink:href="#DejaVuSans-6f" x="369.251953"/>
      <use xlink:href="#DejaVuSans-6e" x="430.433594"/>
     </g>
    </g>
   </g>
  </g>
  <g id="axes_2">
   <g id="patch_8">
    <path d="M 374.645455 201.6 
L 615.6 201.6 
L 615.6 30.24 
L 374.645455 30.24 
z
" style="fill: #ffffff"/>
   </g>
   <g id="matplotlib.axis_3">
    <g id="xtick_7">
     <g id="line2d_17">
      <g>
       <use xlink:href="#me7b0538c08" x="385.597934" y="201.6" style="stroke: #000000; stroke-width: 0.8"/>
      </g>
     </g>
     <g id="text_18">
      <!-- 0 -->
      <g transform="translate(382.416684 216.198437)scale(0.1 -0.1)">
       <use xlink:href="#DejaVuSans-30"/>
      </g>
     </g>
    </g>
    <g id="xtick_8">
     <g id="line2d_18">
      <g>
       <use xlink:href="#me7b0538c08" x="429.628002" y="201.6" style="stroke: #000000; stroke-width: 0.8"/>
      </g>
     </g>
     <g id="text_19">
      <!-- 2000 -->
      <g transform="translate(416.903002 216.198437)scale(0.1 -0.1)">
       <use xlink:href="#DejaVuSans-32"/>
       <use xlink:href="#DejaVuSans-30" x="63.623047"/>
       <use xlink:href="#DejaVuSans-30" x="127.246094"/>
       <use xlink:href="#DejaVuSans-30" x="190.869141"/>
      </g>
     </g>
    </g>
    <g id="xtick_9">
     <g id="line2d_19">
      <g>
       <use xlink:href="#me7b0538c08" x="473.658069" y="201.6" style="stroke: #000000; stroke-width: 0.8"/>
      </g>
     </g>
     <g id="text_20">
      <!-- 4000 -->
      <g transform="translate(460.933069 216.198437)scale(0.1 -0.1)">
       <use xlink:href="#DejaVuSans-34"/>
       <use xlink:href="#DejaVuSans-30" x="63.623047"/>
       <use xlink:href="#DejaVuSans-30" x="127.246094"/>
       <use xlink:href="#DejaVuSans-30" x="190.869141"/>
      </g>
     </g>
    </g>
    <g id="xtick_10">
     <g id="line2d_20">
      <g>
       <use xlink:href="#me7b0538c08" x="517.688137" y="201.6" style="stroke: #000000; stroke-width: 0.8"/>
      </g>
     </g>
     <g id="text_21">
      <!-- 6000 -->
      <g transform="translate(504.963137 216.198437)scale(0.1 -0.1)">
       <use xlink:href="#DejaVuSans-36"/>
       <use xlink:href="#DejaVuSans-30" x="63.623047"/>
       <use xlink:href="#DejaVuSans-30" x="127.246094"/>
       <use xlink:href="#DejaVuSans-30" x="190.869141"/>
      </g>
     </g>
    </g>
    <g id="xtick_11">
     <g id="line2d_21">
      <g>
       <use xlink:href="#me7b0538c08" x="561.718205" y="201.6" style="stroke: #000000; stroke-width: 0.8"/>
      </g>
     </g>
     <g id="text_22">
      <!-- 8000 -->
      <g transform="translate(548.993205 216.198437)scale(0.1 -0.1)">
       <use xlink:href="#DejaVuSans-38"/>
       <use xlink:href="#DejaVuSans-30" x="63.623047"/>
       <use xlink:href="#DejaVuSans-30" x="127.246094"/>
       <use xlink:href="#DejaVuSans-30" x="190.869141"/>
      </g>
     </g>
    </g>
    <g id="xtick_12">
     <g id="line2d_22">
      <g>
       <use xlink:href="#me7b0538c08" x="605.748272" y="201.6" style="stroke: #000000; stroke-width: 0.8"/>
      </g>
     </g>
     <g id="text_23">
      <!-- 10000 -->
      <g transform="translate(589.842022 216.198437)scale(0.1 -0.1)">
       <use xlink:href="#DejaVuSans-31"/>
       <use xlink:href="#DejaVuSans-30" x="63.623047"/>
       <use xlink:href="#DejaVuSans-30" x="127.246094"/>
       <use xlink:href="#DejaVuSans-30" x="190.869141"/>
       <use xlink:href="#DejaVuSans-30" x="254.492188"/>
      </g>
     </g>
    </g>
    <g id="text_24">
     <!-- Number of episodes -->
     <g transform="translate(444.879759 229.876562)scale(0.1 -0.1)">
      <use xlink:href="#DejaVuSans-4e"/>
      <use xlink:href="#DejaVuSans-75" x="74.804688"/>
      <use xlink:href="#DejaVuSans-6d" x="138.183594"/>
      <use xlink:href="#DejaVuSans-62" x="235.595703"/>
      <use xlink:href="#DejaVuSans-65" x="299.072266"/>
      <use xlink:href="#DejaVuSans-72" x="360.595703"/>
      <use xlink:href="#DejaVuSans-20" x="401.708984"/>
      <use xlink:href="#DejaVuSans-6f" x="433.496094"/>
      <use xlink:href="#DejaVuSans-66" x="494.677734"/>
      <use xlink:href="#DejaVuSans-20" x="529.882812"/>
      <use xlink:href="#DejaVuSans-65" x="561.669922"/>
      <use xlink:href="#DejaVuSans-70" x="623.193359"/>
      <use xlink:href="#DejaVuSans-69" x="686.669922"/>
      <use xlink:href="#DejaVuSans-73" x="714.453125"/>
      <use xlink:href="#DejaVuSans-6f" x="766.552734"/>
      <use xlink:href="#DejaVuSans-64" x="827.734375"/>
      <use xlink:href="#DejaVuSans-65" x="891.210938"/>
      <use xlink:href="#DejaVuSans-73" x="952.734375"/>
     </g>
    </g>
   </g>
   <g id="matplotlib.axis_4">
    <g id="ytick_7">
     <g id="line2d_23">
      <g>
       <use xlink:href="#m75f9273b6a" x="374.645455" y="182.009269" style="stroke: #000000; stroke-width: 0.8"/>
      </g>
     </g>
     <g id="text_25">
      <!-- 380 -->
      <g transform="translate(348.557955 185.808488)scale(0.1 -0.1)">
       <defs>
        <path id="DejaVuSans-33" d="M 2597 2516 
Q 3050 2419 3304 2112 
Q 3559 1806 3559 1356 
Q 3559 666 3084 287 
Q 2609 -91 1734 -91 
Q 1441 -91 1130 -33 
Q 819 25 488 141 
L 488 750 
Q 750 597 1062 519 
Q 1375 441 1716 441 
Q 2309 441 2620 675 
Q 2931 909 2931 1356 
Q 2931 1769 2642 2001 
Q 2353 2234 1838 2234 
L 1294 2234 
L 1294 2753 
L 1863 2753 
Q 2328 2753 2575 2939 
Q 2822 3125 2822 3475 
Q 2822 3834 2567 4026 
Q 2313 4219 1838 4219 
Q 1578 4219 1281 4162 
Q 984 4106 628 3988 
L 628 4550 
Q 988 4650 1302 4700 
Q 1616 4750 1894 4750 
Q 2613 4750 3031 4423 
Q 3450 4097 3450 3541 
Q 3450 3153 3228 2886 
Q 3006 2619 2597 2516 
z
" transform="scale(0.015625)"/>
       </defs>
       <use xlink:href="#DejaVuSans-33"/>
       <use xlink:href="#DejaVuSans-38" x="63.623047"/>
       <use xlink:href="#DejaVuSans-30" x="127.246094"/>
      </g>
     </g>
    </g>
    <g id="ytick_8">
     <g id="line2d_24">
      <g>
       <use xlink:href="#m75f9273b6a" x="374.645455" y="156.260208" style="stroke: #000000; stroke-width: 0.8"/>
      </g>
     </g>
     <g id="text_26">
      <!-- 400 -->
      <g transform="translate(348.557955 160.059427)scale(0.1 -0.1)">
       <use xlink:href="#DejaVuSans-34"/>
       <use xlink:href="#DejaVuSans-30" x="63.623047"/>
       <use xlink:href="#DejaVuSans-30" x="127.246094"/>
      </g>
     </g>
    </g>
    <g id="ytick_9">
     <g id="line2d_25">
      <g>
       <use xlink:href="#m75f9273b6a" x="374.645455" y="130.511148" style="stroke: #000000; stroke-width: 0.8"/>
      </g>
     </g>
     <g id="text_27">
      <!-- 420 -->
      <g transform="translate(348.557955 134.310366)scale(0.1 -0.1)">
       <use xlink:href="#DejaVuSans-34"/>
       <use xlink:href="#DejaVuSans-32" x="63.623047"/>
       <use xlink:href="#DejaVuSans-30" x="127.246094"/>
      </g>
     </g>
    </g>
    <g id="ytick_10">
     <g id="line2d_26">
      <g>
       <use xlink:href="#m75f9273b6a" x="374.645455" y="104.762087" style="stroke: #000000; stroke-width: 0.8"/>
      </g>
     </g>
     <g id="text_28">
      <!-- 440 -->
      <g transform="translate(348.557955 108.561305)scale(0.1 -0.1)">
       <use xlink:href="#DejaVuSans-34"/>
       <use xlink:href="#DejaVuSans-34" x="63.623047"/>
       <use xlink:href="#DejaVuSans-30" x="127.246094"/>
      </g>
     </g>
    </g>
    <g id="ytick_11">
     <g id="line2d_27">
      <g>
       <use xlink:href="#m75f9273b6a" x="374.645455" y="79.013026" style="stroke: #000000; stroke-width: 0.8"/>
      </g>
     </g>
     <g id="text_29">
      <!-- 460 -->
      <g transform="translate(348.557955 82.812245)scale(0.1 -0.1)">
       <use xlink:href="#DejaVuSans-34"/>
       <use xlink:href="#DejaVuSans-36" x="63.623047"/>
       <use xlink:href="#DejaVuSans-30" x="127.246094"/>
      </g>
     </g>
    </g>
    <g id="ytick_12">
     <g id="line2d_28">
      <g>
       <use xlink:href="#m75f9273b6a" x="374.645455" y="53.263965" style="stroke: #000000; stroke-width: 0.8"/>
      </g>
     </g>
     <g id="text_30">
      <!-- 480 -->
      <g transform="translate(348.557955 57.063184)scale(0.1 -0.1)">
       <use xlink:href="#DejaVuSans-34"/>
       <use xlink:href="#DejaVuSans-38" x="63.623047"/>
       <use xlink:href="#DejaVuSans-30" x="127.246094"/>
      </g>
     </g>
    </g>
    <g id="text_31">
     <!-- Makespan -->
     <g transform="translate(342.478267 141.100469)rotate(-90)scale(0.1 -0.1)">
      <use xlink:href="#DejaVuSans-4d"/>
      <use xlink:href="#DejaVuSans-61" x="86.279297"/>
      <use xlink:href="#DejaVuSans-6b" x="147.558594"/>
      <use xlink:href="#DejaVuSans-65" x="201.84375"/>
      <use xlink:href="#DejaVuSans-73" x="263.367188"/>
      <use xlink:href="#DejaVuSans-70" x="315.466797"/>
      <use xlink:href="#DejaVuSans-61" x="378.943359"/>
      <use xlink:href="#DejaVuSans-6e" x="440.222656"/>
     </g>
    </g>
   </g>
   <g id="line2d_29">
    <path d="M 385.597934 48.146331 
L 386.698686 53.231787 
L 387.799437 42.224039 
L 388.900189 53.560093 
L 390.000941 46.84603 
L 391.101692 49.09263 
L 392.202444 48.661305 
L 393.303196 55.877493 
L 394.403947 52.536551 
L 395.504699 54.911903 
L 396.605451 46.974744 
L 397.706203 49.433784 
L 398.806954 54.216668 
L 399.907706 50.798481 
L 401.008458 49.182722 
L 402.109209 56.579172 
L 403.209961 50.483062 
L 404.310713 55.150079 
L 405.411464 52.761839 
L 406.512216 46.781634 
L 407.612968 52.169622 
L 408.713719 54.686615 
L 409.814471 53.547206 
L 410.915223 49.09263 
L 413.116726 56.598464 
L 414.217478 55.825984 
L 415.31823 55.375407 
L 416.418981 53.154543 
L 417.519733 55.227323 
L 418.620485 51.635318 
L 419.721236 60.293448 
L 420.821988 54.171602 
L 421.92274 62.977816 
L 423.023491 52.633126 
L 424.124243 61.226859 
L 425.224995 55.517008 
L 426.325747 59.887897 
L 427.426498 55.600695 
L 428.52725 58.407334 
L 429.628002 57.988935 
L 430.728753 59.096126 
L 431.829505 61.201124 
L 432.930257 57.963161 
L 434.031008 56.946062 
L 435.13176 61.110993 
L 436.232512 59.096126 
L 437.333263 59.817096 
L 438.434015 58.581152 
L 439.534767 59.669052 
L 440.635519 55.175814 
L 441.73627 64.754468 
L 442.837022 59.791361 
L 443.937774 57.087702 
L 445.038525 68.114741 
L 446.139277 59.205548 
L 447.240029 60.261269 
L 448.34078 58.497465 
L 449.441532 58.426664 
L 450.542284 60.744064 
L 451.643035 58.323646 
L 452.743787 62.327645 
L 453.844539 60.074603 
L 454.945291 64.542066 
L 456.046042 57.010458 
L 457.146794 59.224879 
L 458.247546 61.059484 
L 459.348297 59.057504 
L 460.449049 59.533855 
L 461.549801 56.546955 
L 462.650552 63.254613 
L 463.751304 62.610887 
L 464.852056 62.98422 
L 465.952807 57.106993 
L 467.053559 62.520756 
L 468.154311 61.233302 
L 469.255063 59.707674 
L 470.355814 55.703674 
L 471.456566 62.906976 
L 472.557318 60.950061 
L 473.658069 61.239746 
L 474.758821 58.413777 
L 475.859573 62.752488 
L 476.960324 63.557146 
L 478.061076 56.611351 
L 479.161828 63.711634 
L 481.363331 57.499697 
L 482.464083 66.138495 
L 483.564835 58.967373 
L 484.665586 58.040405 
L 485.766338 62.855506 
L 486.86709 64.81242 
L 487.967841 63.093682 
L 489.068593 63.009994 
L 490.169345 61.291216 
L 491.270096 63.994875 
L 492.370848 62.559378 
L 493.4716 63.338301 
L 494.572351 60.608867 
L 495.673103 64.142959 
L 496.773855 63.074351 
L 497.874607 58.149867 
L 498.975358 57.261521 
L 500.07611 59.739852 
L 501.176862 67.58688 
L 502.277613 61.008014 
L 503.378365 64.61931 
L 504.479117 57.158503 
L 505.579868 64.014206 
L 506.68062 64.052828 
L 507.781372 62.572265 
L 508.882123 64.960465 
L 509.982875 64.027054 
L 511.083627 62.713866 
L 512.184379 62.263249 
L 513.28513 61.213972 
L 514.385882 67.580437 
L 515.486634 60.776243 
L 516.587385 64.67078 
L 517.688137 63.96914 
L 518.788889 63.666568 
L 519.88964 65.842367 
L 520.990392 62.025074 
L 522.091144 69.427929 
L 523.191895 64.59998 
L 524.292647 64.168694 
L 525.393399 66.994663 
L 526.494151 64.657932 
L 527.594902 66.350936 
L 528.695654 65.346724 
L 529.796406 61.870585 
L 530.897157 66.260805 
L 531.997909 64.310295 
L 533.098661 64.458379 
L 534.199412 69.717613 
L 535.300164 61.387791 
L 537.501667 70.23903 
L 538.602419 62.115205 
L 539.703171 65.160019 
L 540.803923 69.627482 
L 541.904674 60.447936 
L 543.005426 70.065212 
L 544.106178 58.73564 
L 545.206929 67.689859 
L 546.307681 63.63439 
L 547.408433 63.454167 
L 548.509184 62.35338 
L 549.609936 69.073887 
L 550.710688 62.057252 
L 551.811439 63.544259 
L 552.912191 68.076119 
L 554.012943 68.958021 
L 555.113695 69.022378 
L 556.214446 64.86393 
L 557.315198 67.541815 
L 558.41595 65.398194 
L 559.516701 65.031305 
L 560.617453 67.831499 
L 561.718205 67.110529 
L 562.818956 71.71315 
L 563.919708 64.464822 
L 565.02046 64.123628 
L 566.121211 59.791361 
L 567.221963 65.520504 
L 568.322715 65.810189 
L 569.423467 67.889413 
L 570.524218 66.23507 
L 571.62497 66.441028 
L 572.725722 65.501212 
L 573.826473 68.449491 
L 574.927225 70.136051 
L 576.027977 65.906763 
L 577.128728 66.62129 
L 578.22948 69.936498 
L 579.330232 65.726501 
L 580.430983 62.134535 
L 581.531735 66.280096 
L 582.632487 69.176866 
L 583.733239 63.537854 
L 584.83399 76.637673 
L 585.934742 68.507404 
L 587.035494 68.436604 
L 588.136245 65.366016 
L 589.236997 65.411081 
L 590.337749 63.46061 
L 591.4385 63.730965 
L 592.539252 73.026377 
L 593.640004 66.608403 
L 594.740755 64.928286 
L 595.841507 64.735176 
L 596.942259 65.011974 
L 598.043011 66.62129 
L 599.143762 66.228627 
L 600.244514 69.827036 
L 601.345266 70.393518 
L 602.446017 66.608403 
L 603.546769 64.014206 
L 604.647521 69.897876 
L 604.647521 69.897876 
" clip-path="url(#p34058c78ed)" style="fill: none; stroke: #1f77b4; stroke-width: 1.5; stroke-linecap: square"/>
   </g>
   <g id="line2d_30">
    <path d="M 385.597934 51.225485 
L 387.799437 53.585828 
L 390.000941 38.029091 
L 392.202444 61.739711 
L 394.403947 53.585828 
L 396.605451 57.019023 
L 398.806954 57.770051 
L 401.008458 79.013026 
L 403.209961 48.972442 
L 405.411464 59.057504 
L 407.612968 53.693129 
L 409.814471 50.259895 
L 412.015975 73.863214 
L 414.217478 62.168835 
L 416.418981 69.357128 
L 418.620485 59.70123 
L 420.821988 82.875385 
L 423.023491 84.806565 
L 425.224995 94.784326 
L 427.426498 95.857216 
L 429.628002 138.986893 
L 431.829505 117.314754 
L 434.031008 145.853283 
L 436.232512 144.136705 
L 438.434015 160.873595 
L 440.635519 158.727814 
L 442.837022 156.903935 
L 445.038525 156.152908 
L 447.240029 153.792603 
L 449.441532 163.233899 
L 451.643035 149.393779 
L 453.844539 151.217697 
L 456.046042 159.049677 
L 458.247546 154.972755 
L 460.449049 162.912036 
L 462.650552 168.920176 
L 464.852056 178.468773 
L 467.053559 173.640825 
L 469.255063 163.770364 
L 471.456566 162.053747 
L 473.658069 162.590173 
L 475.859573 186.837218 
L 478.061076 155.723783 
L 480.262579 167.096258 
L 482.464083 193.167183 
L 484.665586 168.705575 
L 486.86709 170.207629 
L 489.068593 182.438433 
L 491.270096 162.482911 
L 493.4716 157.118497 
L 495.673103 160.551732 
L 497.874607 158.727814 
L 500.07611 166.774395 
L 502.277613 158.513251 
L 504.479117 171.709645 
L 506.68062 175.357442 
L 508.882123 165.916106 
L 511.083627 156.796634 
L 513.28513 159.800704 
L 515.486634 187.266382 
L 517.688137 176.215731 
L 519.88964 167.632723 
L 522.091144 176.215731 
L 524.292647 187.051781 
L 526.494151 159.37154 
L 528.695654 175.572004 
L 530.897157 193.810909 
L 533.098661 168.598313 
L 535.300164 175.14284 
L 537.501667 189.94855 
L 539.703171 175.357442 
L 541.904674 168.920176 
L 544.106178 185.013339 
L 546.307681 171.173219 
L 548.509184 166.130669 
L 550.710688 168.598313 
L 552.912191 171.602344 
L 555.113695 180.07809 
L 557.315198 185.335203 
L 559.516701 187.480945 
L 561.718205 177.18132 
L 563.919708 159.586142 
L 566.121211 171.816946 
L 568.322715 171.173219 
L 570.524218 171.173219 
L 572.725722 167.203559 
L 574.927225 160.229868 
L 577.128728 185.442464 
L 579.330232 174.928278 
L 581.531735 165.808805 
L 583.733239 174.391852 
L 585.934742 182.223832 
L 588.136245 173.426262 
L 590.337749 162.053747 
L 592.539252 176.859457 
L 594.740755 177.825047 
L 596.942259 173.318961 
L 599.143762 185.227902 
L 601.345266 170.207629 
L 603.546769 168.812876 
" clip-path="url(#p34058c78ed)" style="fill: none; stroke: #ff7f0e; stroke-width: 1.5; stroke-linecap: square"/>
   </g>
   <g id="patch_9">
    <path d="M 374.645455 201.6 
L 374.645455 30.24 
" style="fill: none; stroke: #000000; stroke-width: 0.8; stroke-linejoin: miter; stroke-linecap: square"/>
   </g>
   <g id="patch_10">
    <path d="M 615.6 201.6 
L 615.6 30.24 
" style="fill: none; stroke: #000000; stroke-width: 0.8; stroke-linejoin: miter; stroke-linecap: square"/>
   </g>
   <g id="patch_11">
    <path d="M 374.645455 201.6 
L 615.6 201.6 
" style="fill: none; stroke: #000000; stroke-width: 0.8; stroke-linejoin: miter; stroke-linecap: square"/>
   </g>
   <g id="patch_12">
    <path d="M 374.645455 30.24 
L 615.6 30.24 
" style="fill: none; stroke: #000000; stroke-width: 0.8; stroke-linejoin: miter; stroke-linecap: square"/>
   </g>
   <g id="text_32">
    <!-- MK10 -->
    <g transform="translate(478.376165 20.24)scale(0.12 -0.12)">
     <use xlink:href="#DejaVuSans-4d"/>
     <use xlink:href="#DejaVuSans-4b" x="86.279297"/>
     <use xlink:href="#DejaVuSans-31" x="151.855469"/>
     <use xlink:href="#DejaVuSans-30" x="215.478516"/>
    </g>
   </g>
   <g id="legend_2">
    <g id="patch_13">
     <path d="M 527.21875 132.098125 
L 608.6 132.098125 
Q 610.6 132.098125 610.6 130.098125 
L 610.6 101.741875 
Q 610.6 99.741875 608.6 99.741875 
L 527.21875 99.741875 
Q 525.21875 99.741875 525.21875 101.741875 
L 525.21875 130.098125 
Q 525.21875 132.098125 527.21875 132.098125 
z
" style="fill: #ffffff; opacity: 0.8; stroke: #cccccc; stroke-linejoin: miter"/>
    </g>
    <g id="line2d_31">
     <path d="M 529.21875 107.840312 
L 539.21875 107.840312 
L 549.21875 107.840312 
" style="fill: none; stroke: #1f77b4; stroke-width: 1.5; stroke-linecap: square"/>
    </g>
    <g id="text_33">
     <!-- Training -->
     <g transform="translate(557.21875 111.340312)scale(0.1 -0.1)">
      <use xlink:href="#DejaVuSans-54"/>
      <use xlink:href="#DejaVuSans-72" x="46.333984"/>
      <use xlink:href="#DejaVuSans-61" x="87.447266"/>
      <use xlink:href="#DejaVuSans-69" x="148.726562"/>
      <use xlink:href="#DejaVuSans-6e" x="176.509766"/>
      <use xlink:href="#DejaVuSans-69" x="239.888672"/>
      <use xlink:href="#DejaVuSans-6e" x="267.671875"/>
      <use xlink:href="#DejaVuSans-67" x="331.050781"/>
     </g>
    </g>
    <g id="line2d_32">
     <path d="M 529.21875 122.518437 
L 539.21875 122.518437 
L 549.21875 122.518437 
" style="fill: none; stroke: #ff7f0e; stroke-width: 1.5; stroke-linecap: square"/>
    </g>
    <g id="text_34">
     <!-- Validation -->
     <g transform="translate(557.21875 126.018437)scale(0.1 -0.1)">
      <use xlink:href="#DejaVuSans-56"/>
      <use xlink:href="#DejaVuSans-61" x="60.658203"/>
      <use xlink:href="#DejaVuSans-6c" x="121.9375"/>
      <use xlink:href="#DejaVuSans-69" x="149.720703"/>
      <use xlink:href="#DejaVuSans-64" x="177.503906"/>
      <use xlink:href="#DejaVuSans-61" x="240.980469"/>
      <use xlink:href="#DejaVuSans-74" x="302.259766"/>
      <use xlink:href="#DejaVuSans-69" x="341.46875"/>
      <use xlink:href="#DejaVuSans-6f" x="369.251953"/>
      <use xlink:href="#DejaVuSans-6e" x="430.433594"/>
     </g>
    </g>
   </g>
  </g>
 </g>
 <defs>
  <clipPath id="pf22e58490f">
   <rect x="85.5" y="30.24" width="240.954545" height="171.36"/>
  </clipPath>
  <clipPath id="p34058c78ed">
   <rect x="374.645455" y="30.24" width="240.954545" height="171.36"/>
  </clipPath>
 </defs>
</svg>
