<?xml version="1.0" encoding="utf-8" standalone="no"?>
<!DOCTYPE svg PUBLIC "-//W3C//DTD SVG 1.1//EN"
  "http://www.w3.org/Graphics/SVG/1.1/DTD/svg11.dtd">
<svg xmlns:xlink="http://www.w3.org/1999/xlink" width="684pt" height="252pt" viewBox="0 0 684 252" xmlns="http://www.w3.org/2000/svg" version="1.1">
 <metadata>
  <rdf:RDF xmlns:dc="http://purl.org/dc/elements/1.1/" xmlns:cc="http://creativecommons.org/ns#" xmlns:rdf="http://www.w3.org/1999/02/22-rdf-syntax-ns#">
   <cc:Work>
    <dc:type rdf:resource="http://purl.org/dc/dcmitype/StillImage"/>
    <dc:date>2022-07-03T16:25:49.797772</dc:date>
    <dc:format>image/svg+xml</dc:format>
    <dc:creator>
     <cc:Agent>
      <dc:title>Matplotlib v3.5.1, https://matplotlib.org/</dc:title>
     </cc:Agent>
    </dc:creator>
   </cc:Work>
  </rdf:RDF>
 </metadata>
 <defs>
  <style type="text/css">*{stroke-linejoin: round; stroke-linecap: butt}</style>
 </defs>
 <g id="figure_1">
  <g id="patch_1">
   <path d="M 0 252 
L 684 252 
L 684 0 
L 0 0 
z
" style="fill: #ffffff"/>
  </g>
  <g id="axes_1">
   <g id="patch_2">
    <path d="M 85.5 201.6 
L 326.454545 201.6 
L 326.454545 30.24 
L 85.5 30.24 
z
" style="fill: #ffffff"/>
   </g>
   <g id="matplotlib.axis_1">
    <g id="xtick_1">
     <g id="line2d_1">
      <defs>
       <path id="me120a523eb" d="M 0 0 
L 0 3.5 
" style="stroke: #000000; stroke-width: 0.8"/>
      </defs>
      <g>
       <use xlink:href="#me120a523eb" x="96.452479" y="201.6" style="stroke: #000000; stroke-width: 0.8"/>
      </g>
     </g>
     <g id="text_1">
      <!-- 0 -->
      <g transform="translate(93.271229 216.198437)scale(0.1 -0.1)">
       <defs>
        <path id="DejaVuSans-30" d="M 2034 4250 
Q 1547 4250 1301 3770 
Q 1056 3291 1056 2328 
Q 1056 1369 1301 889 
Q 1547 409 2034 409 
Q 2525 409 2770 889 
Q 3016 1369 3016 2328 
Q 3016 3291 2770 3770 
Q 2525 4250 2034 4250 
z
M 2034 4750 
Q 2819 4750 3233 4129 
Q 3647 3509 3647 2328 
Q 3647 1150 3233 529 
Q 2819 -91 2034 -91 
Q 1250 -91 836 529 
Q 422 1150 422 2328 
Q 422 3509 836 4129 
Q 1250 4750 2034 4750 
z
" transform="scale(0.015625)"/>
       </defs>
       <use xlink:href="#DejaVuSans-30"/>
      </g>
     </g>
    </g>
    <g id="xtick_2">
     <g id="line2d_2">
      <g>
       <use xlink:href="#me120a523eb" x="140.482547" y="201.6" style="stroke: #000000; stroke-width: 0.8"/>
      </g>
     </g>
     <g id="text_2">
      <!-- 2000 -->
      <g transform="translate(127.757547 216.198437)scale(0.1 -0.1)">
       <defs>
        <path id="DejaVuSans-32" d="M 1228 531 
L 3431 531 
L 3431 0 
L 469 0 
L 469 531 
Q 828 903 1448 1529 
Q 2069 2156 2228 2338 
Q 2531 2678 2651 2914 
Q 2772 3150 2772 3378 
Q 2772 3750 2511 3984 
Q 2250 4219 1831 4219 
Q 1534 4219 1204 4116 
Q 875 4013 500 3803 
L 500 4441 
Q 881 4594 1212 4672 
Q 1544 4750 1819 4750 
Q 2544 4750 2975 4387 
Q 3406 4025 3406 3419 
Q 3406 3131 3298 2873 
Q 3191 2616 2906 2266 
Q 2828 2175 2409 1742 
Q 1991 1309 1228 531 
z
" transform="scale(0.015625)"/>
       </defs>
       <use xlink:href="#DejaVuSans-32"/>
       <use xlink:href="#DejaVuSans-30" x="63.623047"/>
       <use xlink:href="#DejaVuSans-30" x="127.246094"/>
       <use xlink:href="#DejaVuSans-30" x="190.869141"/>
      </g>
     </g>
    </g>
    <g id="xtick_3">
     <g id="line2d_3">
      <g>
       <use xlink:href="#me120a523eb" x="184.512615" y="201.6" style="stroke: #000000; stroke-width: 0.8"/>
      </g>
     </g>
     <g id="text_3">
      <!-- 4000 -->
      <g transform="translate(171.787615 216.198437)scale(0.1 -0.1)">
       <defs>
        <path id="DejaVuSans-34" d="M 2419 4116 
L 825 1625 
L 2419 1625 
L 2419 4116 
z
M 2253 4666 
L 3047 4666 
L 3047 1625 
L 3713 1625 
L 3713 1100 
L 3047 1100 
L 3047 0 
L 2419 0 
L 2419 1100 
L 313 1100 
L 313 1709 
L 2253 4666 
z
" transform="scale(0.015625)"/>
       </defs>
       <use xlink:href="#DejaVuSans-34"/>
       <use xlink:href="#DejaVuSans-30" x="63.623047"/>
       <use xlink:href="#DejaVuSans-30" x="127.246094"/>
       <use xlink:href="#DejaVuSans-30" x="190.869141"/>
      </g>
     </g>
    </g>
    <g id="xtick_4">
     <g id="line2d_4">
      <g>
       <use xlink:href="#me120a523eb" x="228.542682" y="201.6" style="stroke: #000000; stroke-width: 0.8"/>
      </g>
     </g>
     <g id="text_4">
      <!-- 6000 -->
      <g transform="translate(215.817682 216.198437)scale(0.1 -0.1)">
       <defs>
        <path id="DejaVuSans-36" d="M 2113 2584 
Q 1688 2584 1439 2293 
Q 1191 2003 1191 1497 
Q 1191 994 1439 701 
Q 1688 409 2113 409 
Q 2538 409 2786 701 
Q 3034 994 3034 1497 
Q 3034 2003 2786 2293 
Q 2538 2584 2113 2584 
z
M 3366 4563 
L 3366 3988 
Q 3128 4100 2886 4159 
Q 2644 4219 2406 4219 
Q 1781 4219 1451 3797 
Q 1122 3375 1075 2522 
Q 1259 2794 1537 2939 
Q 1816 3084 2150 3084 
Q 2853 3084 3261 2657 
Q 3669 2231 3669 1497 
Q 3669 778 3244 343 
Q 2819 -91 2113 -91 
Q 1303 -91 875 529 
Q 447 1150 447 2328 
Q 447 3434 972 4092 
Q 1497 4750 2381 4750 
Q 2619 4750 2861 4703 
Q 3103 4656 3366 4563 
z
" transform="scale(0.015625)"/>
       </defs>
       <use xlink:href="#DejaVuSans-36"/>
       <use xlink:href="#DejaVuSans-30" x="63.623047"/>
       <use xlink:href="#DejaVuSans-30" x="127.246094"/>
       <use xlink:href="#DejaVuSans-30" x="190.869141"/>
      </g>
     </g>
    </g>
    <g id="xtick_5">
     <g id="line2d_5">
      <g>
       <use xlink:href="#me120a523eb" x="272.57275" y="201.6" style="stroke: #000000; stroke-width: 0.8"/>
      </g>
     </g>
     <g id="text_5">
      <!-- 8000 -->
      <g transform="translate(259.84775 216.198437)scale(0.1 -0.1)">
       <defs>
        <path id="DejaVuSans-38" d="M 2034 2216 
Q 1584 2216 1326 1975 
Q 1069 1734 1069 1313 
Q 1069 891 1326 650 
Q 1584 409 2034 409 
Q 2484 409 2743 651 
Q 3003 894 3003 1313 
Q 3003 1734 2745 1975 
Q 2488 2216 2034 2216 
z
M 1403 2484 
Q 997 2584 770 2862 
Q 544 3141 544 3541 
Q 544 4100 942 4425 
Q 1341 4750 2034 4750 
Q 2731 4750 3128 4425 
Q 3525 4100 3525 3541 
Q 3525 3141 3298 2862 
Q 3072 2584 2669 2484 
Q 3125 2378 3379 2068 
Q 3634 1759 3634 1313 
Q 3634 634 3220 271 
Q 2806 -91 2034 -91 
Q 1263 -91 848 271 
Q 434 634 434 1313 
Q 434 1759 690 2068 
Q 947 2378 1403 2484 
z
M 1172 3481 
Q 1172 3119 1398 2916 
Q 1625 2713 2034 2713 
Q 2441 2713 2670 2916 
Q 2900 3119 2900 3481 
Q 2900 3844 2670 4047 
Q 2441 4250 2034 4250 
Q 1625 4250 1398 4047 
Q 1172 3844 1172 3481 
z
" transform="scale(0.015625)"/>
       </defs>
       <use xlink:href="#DejaVuSans-38"/>
       <use xlink:href="#DejaVuSans-30" x="63.623047"/>
       <use xlink:href="#DejaVuSans-30" x="127.246094"/>
       <use xlink:href="#DejaVuSans-30" x="190.869141"/>
      </g>
     </g>
    </g>
    <g id="xtick_6">
     <g id="line2d_6">
      <g>
       <use xlink:href="#me120a523eb" x="316.602818" y="201.6" style="stroke: #000000; stroke-width: 0.8"/>
      </g>
     </g>
     <g id="text_6">
      <!-- 10000 -->
      <g transform="translate(300.696568 216.198437)scale(0.1 -0.1)">
       <defs>
        <path id="DejaVuSans-31" d="M 794 531 
L 1825 531 
L 1825 4091 
L 703 3866 
L 703 4441 
L 1819 4666 
L 2450 4666 
L 2450 531 
L 3481 531 
L 3481 0 
L 794 0 
L 794 531 
z
" transform="scale(0.015625)"/>
       </defs>
       <use xlink:href="#DejaVuSans-31"/>
       <use xlink:href="#DejaVuSans-30" x="63.623047"/>
       <use xlink:href="#DejaVuSans-30" x="127.246094"/>
       <use xlink:href="#DejaVuSans-30" x="190.869141"/>
       <use xlink:href="#DejaVuSans-30" x="254.492188"/>
      </g>
     </g>
    </g>
    <g id="text_7">
     <!-- Number of episodes -->
     <g transform="translate(155.734304 229.876562)scale(0.1 -0.1)">
      <defs>
       <path id="DejaVuSans-4e" d="M 628 4666 
L 1478 4666 
L 3547 763 
L 3547 4666 
L 4159 4666 
L 4159 0 
L 3309 0 
L 1241 3903 
L 1241 0 
L 628 0 
L 628 4666 
z
" transform="scale(0.015625)"/>
       <path id="DejaVuSans-75" d="M 544 1381 
L 544 3500 
L 1119 3500 
L 1119 1403 
Q 1119 906 1312 657 
Q 1506 409 1894 409 
Q 2359 409 2629 706 
Q 2900 1003 2900 1516 
L 2900 3500 
L 3475 3500 
L 3475 0 
L 2900 0 
L 2900 538 
Q 2691 219 2414 64 
Q 2138 -91 1772 -91 
Q 1169 -91 856 284 
Q 544 659 544 1381 
z
M 1991 3584 
L 1991 3584 
z
" transform="scale(0.015625)"/>
       <path id="DejaVuSans-6d" d="M 3328 2828 
Q 3544 3216 3844 3400 
Q 4144 3584 4550 3584 
Q 5097 3584 5394 3201 
Q 5691 2819 5691 2113 
L 5691 0 
L 5113 0 
L 5113 2094 
Q 5113 2597 4934 2840 
Q 4756 3084 4391 3084 
Q 3944 3084 3684 2787 
Q 3425 2491 3425 1978 
L 3425 0 
L 2847 0 
L 2847 2094 
Q 2847 2600 2669 2842 
Q 2491 3084 2119 3084 
Q 1678 3084 1418 2786 
Q 1159 2488 1159 1978 
L 1159 0 
L 581 0 
L 581 3500 
L 1159 3500 
L 1159 2956 
Q 1356 3278 1631 3431 
Q 1906 3584 2284 3584 
Q 2666 3584 2933 3390 
Q 3200 3197 3328 2828 
z
" transform="scale(0.015625)"/>
       <path id="DejaVuSans-62" d="M 3116 1747 
Q 3116 2381 2855 2742 
Q 2594 3103 2138 3103 
Q 1681 3103 1420 2742 
Q 1159 2381 1159 1747 
Q 1159 1113 1420 752 
Q 1681 391 2138 391 
Q 2594 391 2855 752 
Q 3116 1113 3116 1747 
z
M 1159 2969 
Q 1341 3281 1617 3432 
Q 1894 3584 2278 3584 
Q 2916 3584 3314 3078 
Q 3713 2572 3713 1747 
Q 3713 922 3314 415 
Q 2916 -91 2278 -91 
Q 1894 -91 1617 61 
Q 1341 213 1159 525 
L 1159 0 
L 581 0 
L 581 4863 
L 1159 4863 
L 1159 2969 
z
" transform="scale(0.015625)"/>
       <path id="DejaVuSans-65" d="M 3597 1894 
L 3597 1613 
L 953 1613 
Q 991 1019 1311 708 
Q 1631 397 2203 397 
Q 2534 397 2845 478 
Q 3156 559 3463 722 
L 3463 178 
Q 3153 47 2828 -22 
Q 2503 -91 2169 -91 
Q 1331 -91 842 396 
Q 353 884 353 1716 
Q 353 2575 817 3079 
Q 1281 3584 2069 3584 
Q 2775 3584 3186 3129 
Q 3597 2675 3597 1894 
z
M 3022 2063 
Q 3016 2534 2758 2815 
Q 2500 3097 2075 3097 
Q 1594 3097 1305 2825 
Q 1016 2553 972 2059 
L 3022 2063 
z
" transform="scale(0.015625)"/>
       <path id="DejaVuSans-72" d="M 2631 2963 
Q 2534 3019 2420 3045 
Q 2306 3072 2169 3072 
Q 1681 3072 1420 2755 
Q 1159 2438 1159 1844 
L 1159 0 
L 581 0 
L 581 3500 
L 1159 3500 
L 1159 2956 
Q 1341 3275 1631 3429 
Q 1922 3584 2338 3584 
Q 2397 3584 2469 3576 
Q 2541 3569 2628 3553 
L 2631 2963 
z
" transform="scale(0.015625)"/>
       <path id="DejaVuSans-20" transform="scale(0.015625)"/>
       <path id="DejaVuSans-6f" d="M 1959 3097 
Q 1497 3097 1228 2736 
Q 959 2375 959 1747 
Q 959 1119 1226 758 
Q 1494 397 1959 397 
Q 2419 397 2687 759 
Q 2956 1122 2956 1747 
Q 2956 2369 2687 2733 
Q 2419 3097 1959 3097 
z
M 1959 3584 
Q 2709 3584 3137 3096 
Q 3566 2609 3566 1747 
Q 3566 888 3137 398 
Q 2709 -91 1959 -91 
Q 1206 -91 779 398 
Q 353 888 353 1747 
Q 353 2609 779 3096 
Q 1206 3584 1959 3584 
z
" transform="scale(0.015625)"/>
       <path id="DejaVuSans-66" d="M 2375 4863 
L 2375 4384 
L 1825 4384 
Q 1516 4384 1395 4259 
Q 1275 4134 1275 3809 
L 1275 3500 
L 2222 3500 
L 2222 3053 
L 1275 3053 
L 1275 0 
L 697 0 
L 697 3053 
L 147 3053 
L 147 3500 
L 697 3500 
L 697 3744 
Q 697 4328 969 4595 
Q 1241 4863 1831 4863 
L 2375 4863 
z
" transform="scale(0.015625)"/>
       <path id="DejaVuSans-70" d="M 1159 525 
L 1159 -1331 
L 581 -1331 
L 581 3500 
L 1159 3500 
L 1159 2969 
Q 1341 3281 1617 3432 
Q 1894 3584 2278 3584 
Q 2916 3584 3314 3078 
Q 3713 2572 3713 1747 
Q 3713 922 3314 415 
Q 2916 -91 2278 -91 
Q 1894 -91 1617 61 
Q 1341 213 1159 525 
z
M 3116 1747 
Q 3116 2381 2855 2742 
Q 2594 3103 2138 3103 
Q 1681 3103 1420 2742 
Q 1159 2381 1159 1747 
Q 1159 1113 1420 752 
Q 1681 391 2138 391 
Q 2594 391 2855 752 
Q 3116 1113 3116 1747 
z
" transform="scale(0.015625)"/>
       <path id="DejaVuSans-69" d="M 603 3500 
L 1178 3500 
L 1178 0 
L 603 0 
L 603 3500 
z
M 603 4863 
L 1178 4863 
L 1178 4134 
L 603 4134 
L 603 4863 
z
" transform="scale(0.015625)"/>
       <path id="DejaVuSans-73" d="M 2834 3397 
L 2834 2853 
Q 2591 2978 2328 3040 
Q 2066 3103 1784 3103 
Q 1356 3103 1142 2972 
Q 928 2841 928 2578 
Q 928 2378 1081 2264 
Q 1234 2150 1697 2047 
L 1894 2003 
Q 2506 1872 2764 1633 
Q 3022 1394 3022 966 
Q 3022 478 2636 193 
Q 2250 -91 1575 -91 
Q 1294 -91 989 -36 
Q 684 19 347 128 
L 347 722 
Q 666 556 975 473 
Q 1284 391 1588 391 
Q 1994 391 2212 530 
Q 2431 669 2431 922 
Q 2431 1156 2273 1281 
Q 2116 1406 1581 1522 
L 1381 1569 
Q 847 1681 609 1914 
Q 372 2147 372 2553 
Q 372 3047 722 3315 
Q 1072 3584 1716 3584 
Q 2034 3584 2315 3537 
Q 2597 3491 2834 3397 
z
" transform="scale(0.015625)"/>
       <path id="DejaVuSans-64" d="M 2906 2969 
L 2906 4863 
L 3481 4863 
L 3481 0 
L 2906 0 
L 2906 525 
Q 2725 213 2448 61 
Q 2172 -91 1784 -91 
Q 1150 -91 751 415 
Q 353 922 353 1747 
Q 353 2572 751 3078 
Q 1150 3584 1784 3584 
Q 2172 3584 2448 3432 
Q 2725 3281 2906 2969 
z
M 947 1747 
Q 947 1113 1208 752 
Q 1469 391 1925 391 
Q 2381 391 2643 752 
Q 2906 1113 2906 1747 
Q 2906 2381 2643 2742 
Q 2381 3103 1925 3103 
Q 1469 3103 1208 2742 
Q 947 2381 947 1747 
z
" transform="scale(0.015625)"/>
      </defs>
      <use xlink:href="#DejaVuSans-4e"/>
      <use xlink:href="#DejaVuSans-75" x="74.804688"/>
      <use xlink:href="#DejaVuSans-6d" x="138.183594"/>
      <use xlink:href="#DejaVuSans-62" x="235.595703"/>
      <use xlink:href="#DejaVuSans-65" x="299.072266"/>
      <use xlink:href="#DejaVuSans-72" x="360.595703"/>
      <use xlink:href="#DejaVuSans-20" x="401.708984"/>
      <use xlink:href="#DejaVuSans-6f" x="433.496094"/>
      <use xlink:href="#DejaVuSans-66" x="494.677734"/>
      <use xlink:href="#DejaVuSans-20" x="529.882812"/>
      <use xlink:href="#DejaVuSans-65" x="561.669922"/>
      <use xlink:href="#DejaVuSans-70" x="623.193359"/>
      <use xlink:href="#DejaVuSans-69" x="686.669922"/>
      <use xlink:href="#DejaVuSans-73" x="714.453125"/>
      <use xlink:href="#DejaVuSans-6f" x="766.552734"/>
      <use xlink:href="#DejaVuSans-64" x="827.734375"/>
      <use xlink:href="#DejaVuSans-65" x="891.210938"/>
      <use xlink:href="#DejaVuSans-73" x="952.734375"/>
     </g>
    </g>
   </g>
   <g id="matplotlib.axis_2">
    <g id="ytick_1">
     <g id="line2d_7">
      <defs>
       <path id="mbd7e3e3f60" d="M 0 0 
L -3.5 0 
" style="stroke: #000000; stroke-width: 0.8"/>
      </defs>
      <g>
       <use xlink:href="#mbd7e3e3f60" x="85.5" y="192.736568" style="stroke: #000000; stroke-width: 0.8"/>
      </g>
     </g>
     <g id="text_8">
      <!-- 48 -->
      <g transform="translate(65.775 196.535787)scale(0.1 -0.1)">
       <use xlink:href="#DejaVuSans-34"/>
       <use xlink:href="#DejaVuSans-38" x="63.623047"/>
      </g>
     </g>
    </g>
    <g id="ytick_2">
     <g id="line2d_8">
      <g>
       <use xlink:href="#mbd7e3e3f60" x="85.5" y="166.951988" style="stroke: #000000; stroke-width: 0.8"/>
      </g>
     </g>
     <g id="text_9">
      <!-- 50 -->
      <g transform="translate(65.775 170.751207)scale(0.1 -0.1)">
       <defs>
        <path id="DejaVuSans-35" d="M 691 4666 
L 3169 4666 
L 3169 4134 
L 1269 4134 
L 1269 2991 
Q 1406 3038 1543 3061 
Q 1681 3084 1819 3084 
Q 2600 3084 3056 2656 
Q 3513 2228 3513 1497 
Q 3513 744 3044 326 
Q 2575 -91 1722 -91 
Q 1428 -91 1123 -41 
Q 819 9 494 109 
L 494 744 
Q 775 591 1075 516 
Q 1375 441 1709 441 
Q 2250 441 2565 725 
Q 2881 1009 2881 1497 
Q 2881 1984 2565 2268 
Q 2250 2553 1709 2553 
Q 1456 2553 1204 2497 
Q 953 2441 691 2322 
L 691 4666 
z
" transform="scale(0.015625)"/>
       </defs>
       <use xlink:href="#DejaVuSans-35"/>
       <use xlink:href="#DejaVuSans-30" x="63.623047"/>
      </g>
     </g>
    </g>
    <g id="ytick_3">
     <g id="line2d_9">
      <g>
       <use xlink:href="#mbd7e3e3f60" x="85.5" y="141.167409" style="stroke: #000000; stroke-width: 0.8"/>
      </g>
     </g>
     <g id="text_10">
      <!-- 52 -->
      <g transform="translate(65.775 144.966628)scale(0.1 -0.1)">
       <use xlink:href="#DejaVuSans-35"/>
       <use xlink:href="#DejaVuSans-32" x="63.623047"/>
      </g>
     </g>
    </g>
    <g id="ytick_4">
     <g id="line2d_10">
      <g>
       <use xlink:href="#mbd7e3e3f60" x="85.5" y="115.382829" style="stroke: #000000; stroke-width: 0.8"/>
      </g>
     </g>
     <g id="text_11">
      <!-- 54 -->
      <g transform="translate(65.775 119.182048)scale(0.1 -0.1)">
       <use xlink:href="#DejaVuSans-35"/>
       <use xlink:href="#DejaVuSans-34" x="63.623047"/>
      </g>
     </g>
    </g>
    <g id="ytick_5">
     <g id="line2d_11">
      <g>
       <use xlink:href="#mbd7e3e3f60" x="85.5" y="89.59825" style="stroke: #000000; stroke-width: 0.8"/>
      </g>
     </g>
     <g id="text_12">
      <!-- 56 -->
      <g transform="translate(65.775 93.397469)scale(0.1 -0.1)">
       <use xlink:href="#DejaVuSans-35"/>
       <use xlink:href="#DejaVuSans-36" x="63.623047"/>
      </g>
     </g>
    </g>
    <g id="ytick_6">
     <g id="line2d_12">
      <g>
       <use xlink:href="#mbd7e3e3f60" x="85.5" y="63.81367" style="stroke: #000000; stroke-width: 0.8"/>
      </g>
     </g>
     <g id="text_13">
      <!-- 58 -->
      <g transform="translate(65.775 67.612889)scale(0.1 -0.1)">
       <use xlink:href="#DejaVuSans-35"/>
       <use xlink:href="#DejaVuSans-38" x="63.623047"/>
      </g>
     </g>
    </g>
    <g id="ytick_7">
     <g id="line2d_13">
      <g>
       <use xlink:href="#mbd7e3e3f60" x="85.5" y="38.029091" style="stroke: #000000; stroke-width: 0.8"/>
      </g>
     </g>
     <g id="text_14">
      <!-- 60 -->
      <g transform="translate(65.775 41.82831)scale(0.1 -0.1)">
       <use xlink:href="#DejaVuSans-36"/>
       <use xlink:href="#DejaVuSans-30" x="63.623047"/>
      </g>
     </g>
    </g>
    <g id="text_15">
     <!-- Makespan -->
     <g transform="translate(59.695312 141.100469)rotate(-90)scale(0.1 -0.1)">
      <defs>
       <path id="DejaVuSans-4d" d="M 628 4666 
L 1569 4666 
L 2759 1491 
L 3956 4666 
L 4897 4666 
L 4897 0 
L 4281 0 
L 4281 4097 
L 3078 897 
L 2444 897 
L 1241 4097 
L 1241 0 
L 628 0 
L 628 4666 
z
" transform="scale(0.015625)"/>
       <path id="DejaVuSans-61" d="M 2194 1759 
Q 1497 1759 1228 1600 
Q 959 1441 959 1056 
Q 959 750 1161 570 
Q 1363 391 1709 391 
Q 2188 391 2477 730 
Q 2766 1069 2766 1631 
L 2766 1759 
L 2194 1759 
z
M 3341 1997 
L 3341 0 
L 2766 0 
L 2766 531 
Q 2569 213 2275 61 
Q 1981 -91 1556 -91 
Q 1019 -91 701 211 
Q 384 513 384 1019 
Q 384 1609 779 1909 
Q 1175 2209 1959 2209 
L 2766 2209 
L 2766 2266 
Q 2766 2663 2505 2880 
Q 2244 3097 1772 3097 
Q 1472 3097 1187 3025 
Q 903 2953 641 2809 
L 641 3341 
Q 956 3463 1253 3523 
Q 1550 3584 1831 3584 
Q 2591 3584 2966 3190 
Q 3341 2797 3341 1997 
z
" transform="scale(0.015625)"/>
       <path id="DejaVuSans-6b" d="M 581 4863 
L 1159 4863 
L 1159 1991 
L 2875 3500 
L 3609 3500 
L 1753 1863 
L 3688 0 
L 2938 0 
L 1159 1709 
L 1159 0 
L 581 0 
L 581 4863 
z
" transform="scale(0.015625)"/>
       <path id="DejaVuSans-6e" d="M 3513 2113 
L 3513 0 
L 2938 0 
L 2938 2094 
Q 2938 2591 2744 2837 
Q 2550 3084 2163 3084 
Q 1697 3084 1428 2787 
Q 1159 2491 1159 1978 
L 1159 0 
L 581 0 
L 581 3500 
L 1159 3500 
L 1159 2956 
Q 1366 3272 1645 3428 
Q 1925 3584 2291 3584 
Q 2894 3584 3203 3211 
Q 3513 2838 3513 2113 
z
" transform="scale(0.015625)"/>
      </defs>
      <use xlink:href="#DejaVuSans-4d"/>
      <use xlink:href="#DejaVuSans-61" x="86.279297"/>
      <use xlink:href="#DejaVuSans-6b" x="147.558594"/>
      <use xlink:href="#DejaVuSans-65" x="201.84375"/>
      <use xlink:href="#DejaVuSans-73" x="263.367188"/>
      <use xlink:href="#DejaVuSans-70" x="315.466797"/>
      <use xlink:href="#DejaVuSans-61" x="378.943359"/>
      <use xlink:href="#DejaVuSans-6e" x="440.222656"/>
     </g>
    </g>
   </g>
   <g id="line2d_14">
    <path d="M 96.452479 63.878146 
L 97.553231 63.684769 
L 98.653983 70.388717 
L 99.754734 77.801793 
L 100.855486 69.744112 
L 101.956238 65.683058 
L 104.157741 70.324291 
L 105.258493 76.254732 
L 106.359245 74.643196 
L 107.459996 70.001964 
L 108.560748 82.443025 
L 109.6615 73.289511 
L 110.762251 78.12412 
L 111.863003 73.676264 
L 112.963755 78.059645 
L 114.064506 67.101218 
L 115.165258 75.094424 
L 116.26601 80.057934 
L 117.366761 84.119037 
L 118.467513 76.834861 
L 119.568265 80.380261 
L 120.669017 87.406584 
L 121.769768 85.601622 
L 122.87052 89.211497 
L 123.971272 90.951934 
L 125.072023 74.707671 
L 126.172775 86.439653 
L 127.273527 77.221664 
L 128.374278 91.532113 
L 129.47503 77.28609 
L 130.575782 82.249649 
L 131.676533 82.829778 
L 132.777285 83.023204 
L 133.878037 79.348903 
L 134.978789 104.811156 
L 136.07954 81.476094 
L 138.281044 94.819612 
L 139.381795 90.694083 
L 140.482547 88.051189 
L 141.583299 78.768725 
L 142.68405 95.335315 
L 143.784802 85.214869 
L 144.885554 84.892543 
L 145.986305 105.520236 
L 147.087057 84.63474 
L 148.187809 97.140228 
L 149.288561 102.039312 
L 150.389312 91.01641 
L 151.490064 95.27084 
L 152.590816 97.462555 
L 153.691567 95.335315 
L 154.792319 84.763641 
L 155.893071 93.401452 
L 156.993822 96.688999 
L 158.094574 88.760269 
L 159.195326 98.429486 
L 160.296077 95.657642 
L 161.396829 83.990086 
L 162.497581 96.624524 
L 163.598333 98.107159 
L 164.699084 94.497334 
L 166.900588 108.743308 
L 168.001339 108.227605 
L 169.102091 106.745019 
L 170.202843 95.27084 
L 171.303594 98.429486 
L 172.404346 103.457471 
L 173.505098 92.756847 
L 174.605849 97.075802 
L 175.706601 108.678833 
L 176.807353 101.588083 
L 177.908105 110.741597 
L 179.008856 110.225894 
L 180.109608 104.682205 
L 181.21036 108.356555 
L 182.311111 96.753475 
L 183.411863 103.715323 
L 184.512615 101.007905 
L 185.613366 105.262384 
L 186.714118 110.032517 
L 187.81487 106.616068 
L 188.915621 108.163129 
L 190.016373 112.224232 
L 191.117125 102.877293 
L 192.217877 97.011326 
L 193.318628 107.067297 
L 194.41938 95.851018 
L 195.520132 113.771293 
L 196.620883 122.280203 
L 197.721635 105.584711 
L 198.822387 102.168213 
L 199.923138 99.718695 
L 201.02389 99.912072 
L 202.124642 107.647475 
L 203.225393 100.298874 
L 204.326145 116.220811 
L 205.426897 102.168213 
L 206.527649 108.614358 
L 207.6284 102.103787 
L 208.729152 112.353133 
L 209.829904 107.131772 
L 210.930655 105.133483 
L 212.031407 104.553304 
L 213.132159 119.379457 
L 214.23291 108.163129 
L 215.333662 113.191164 
L 216.434414 117.252217 
L 217.535165 109.516814 
L 218.635917 114.931601 
L 219.736669 117.252217 
L 220.837421 106.938395 
L 221.938172 117.510069 
L 223.038924 103.650848 
L 224.139676 109.00116 
L 225.240427 98.558387 
L 226.341179 106.422692 
L 227.441931 112.997738 
L 228.542682 104.811156 
L 229.643434 101.91041 
L 230.744186 99.331942 
L 231.844937 119.314982 
L 232.945689 111.83743 
L 234.046441 114.867126 
L 235.147193 114.996077 
L 236.247944 120.152963 
L 237.348696 103.19962 
L 238.449448 120.088537 
L 239.550199 104.617779 
L 240.650951 114.738225 
L 241.751703 112.095282 
L 242.852454 109.130061 
L 243.953206 126.599108 
L 245.053958 114.158046 
L 246.154709 116.607613 
L 247.255461 113.062213 
L 248.356213 118.219149 
L 249.456965 109.645764 
L 250.557716 116.027434 
L 251.658468 113.062213 
L 252.75922 117.703446 
L 253.859971 114.867126 
L 254.960723 113.25559 
L 256.061475 123.053758 
L 257.162226 112.804362 
L 258.262978 122.022351 
L 259.36373 107.45405 
L 260.464481 117.510069 
L 261.565233 115.318354 
L 262.665985 111.450677 
L 263.766737 116.027434 
L 264.867488 114.996077 
L 265.96824 118.412525 
L 267.068992 119.05713 
L 268.169743 116.994366 
L 269.270495 121.506647 
L 270.371247 126.98591 
L 271.471998 112.739886 
L 272.57275 115.060503 
L 273.673502 110.806072 
L 274.774253 110.41932 
L 275.875005 111.321776 
L 276.975757 111.386202 
L 278.076509 122.022351 
L 279.17726 116.672039 
L 280.278012 121.248845 
L 281.378764 107.067297 
L 282.479515 118.670377 
L 283.580267 116.414236 
L 284.681019 117.896822 
L 285.78177 112.67546 
L 286.882522 122.344678 
L 287.983274 122.924807 
L 289.084025 124.14959 
L 290.184777 107.583 
L 291.285529 104.295452 
L 293.487032 129.1131 
L 294.587784 116.414236 
L 295.688536 114.09362 
L 296.789287 118.283575 
L 297.890039 124.085115 
L 298.990791 120.862043 
L 300.091542 114.09362 
L 301.192294 117.703446 
L 302.293046 112.030856 
L 303.393797 114.415898 
L 304.494549 122.409104 
L 305.595301 115.705156 
L 306.696053 119.186031 
L 307.796804 115.576206 
L 308.897556 108.356555 
L 309.998308 114.415898 
L 311.099059 117.252217 
L 312.199811 115.640681 
L 313.300563 112.417609 
L 314.401314 108.614358 
L 315.502066 116.349761 
L 315.502066 116.349761 
" clip-path="url(#pd57bdb0cc7)" style="fill: none; stroke: #1f77b4; stroke-width: 1.5; stroke-linecap: square"/>
   </g>
   <g id="line2d_15">
    <path d="M 96.452479 46.623967 
L 98.653983 67.036743 
L 100.855486 38.029091 
L 103.056989 54.144453 
L 105.258493 72.408547 
L 107.459996 60.590598 
L 109.6615 84.226446 
L 111.863003 97.118736 
L 114.064506 122.903315 
L 116.26601 133.646923 
L 118.467513 143.31614 
L 120.669017 168.02633 
L 122.87052 176.621206 
L 125.072023 180.918619 
L 127.273527 178.769937 
L 129.47503 150.836626 
L 131.676533 156.20843 
L 133.878037 159.431503 
L 136.07954 162.654575 
L 138.281044 155.13404 
L 140.482547 169.10072 
L 142.68405 169.10072 
L 144.885554 155.13404 
L 147.087057 149.762285 
L 149.288561 172.323792 
L 151.490064 169.10072 
L 153.691567 159.431503 
L 155.893071 159.431503 
L 158.094574 159.431503 
L 160.296077 150.836626 
L 162.497581 168.02633 
L 164.699084 193.810909 
L 166.900588 181.99301 
L 169.102091 180.918619 
L 171.303594 163.728916 
L 173.505098 181.99301 
L 175.706601 176.621206 
L 177.908105 164.803257 
L 180.109608 186.290423 
L 182.311111 178.769937 
L 184.512615 180.918619 
L 186.714118 166.951988 
L 188.915621 157.282771 
L 191.117125 171.249402 
L 193.318628 163.728916 
L 195.520132 156.20843 
L 197.721635 165.877647 
L 199.923138 157.282771 
L 202.124642 178.769937 
L 204.326145 171.249402 
L 206.527649 154.059699 
L 208.729152 157.282771 
L 210.930655 177.695547 
L 213.132159 158.357112 
L 215.333662 168.02633 
L 217.535165 144.390481 
L 219.736669 151.910967 
L 221.938172 148.687895 
L 224.139676 163.728916 
L 226.341179 152.985358 
L 228.542682 173.398133 
L 230.744186 161.580185 
L 232.945689 165.877647 
L 235.147193 159.431503 
L 237.348696 162.654575 
L 239.550199 164.803257 
L 241.751703 155.13404 
L 243.953206 144.390481 
L 246.154709 131.498192 
L 248.356213 163.728916 
L 250.557716 147.613554 
L 252.75922 117.531561 
L 254.960723 150.836626 
L 257.162226 141.167409 
L 259.36373 143.31614 
L 261.565233 128.275119 
L 263.766737 126.126388 
L 265.96824 128.275119 
L 268.169743 151.910967 
L 270.371247 128.275119 
L 272.57275 126.126388 
L 274.774253 129.34946 
L 276.975757 132.572533 
L 279.17726 150.836626 
L 281.378764 127.200778 
L 283.580267 144.390481 
L 285.78177 166.951988 
L 287.983274 173.398133 
L 290.184777 176.621206 
L 292.386281 156.20843 
L 294.587784 158.357112 
L 296.789287 175.546865 
L 298.990791 161.580185 
L 301.192294 169.10072 
L 303.393797 166.951988 
L 305.595301 166.951988 
L 307.796804 186.290423 
L 309.998308 178.769937 
L 312.199811 177.695547 
L 314.401314 173.398133 
" clip-path="url(#pd57bdb0cc7)" style="fill: none; stroke: #ff7f0e; stroke-width: 1.5; stroke-linecap: square"/>
   </g>
   <g id="patch_3">
    <path d="M 85.5 201.6 
L 85.5 30.24 
" style="fill: none; stroke: #000000; stroke-width: 0.8; stroke-linejoin: miter; stroke-linecap: square"/>
   </g>
   <g id="patch_4">
    <path d="M 326.454545 201.6 
L 326.454545 30.24 
" style="fill: none; stroke: #000000; stroke-width: 0.8; stroke-linejoin: miter; stroke-linecap: square"/>
   </g>
   <g id="patch_5">
    <path d="M 85.5 201.6 
L 326.454545 201.6 
" style="fill: none; stroke: #000000; stroke-width: 0.8; stroke-linejoin: miter; stroke-linecap: square"/>
   </g>
   <g id="patch_6">
    <path d="M 85.5 30.24 
L 326.454545 30.24 
" style="fill: none; stroke: #000000; stroke-width: 0.8; stroke-linejoin: miter; stroke-linecap: square"/>
   </g>
   <g id="text_16">
    <!-- MK01 -->
    <g transform="translate(189.23071 20.24)scale(0.12 -0.12)">
     <defs>
      <path id="DejaVuSans-4b" d="M 628 4666 
L 1259 4666 
L 1259 2694 
L 3353 4666 
L 4166 4666 
L 1850 2491 
L 4331 0 
L 3500 0 
L 1259 2247 
L 1259 0 
L 628 0 
L 628 4666 
z
" transform="scale(0.015625)"/>
     </defs>
     <use xlink:href="#DejaVuSans-4d"/>
     <use xlink:href="#DejaVuSans-4b" x="86.279297"/>
     <use xlink:href="#DejaVuSans-30" x="151.855469"/>
     <use xlink:href="#DejaVuSans-31" x="215.478516"/>
    </g>
   </g>
   <g id="legend_1">
    <g id="patch_7">
     <path d="M 238.073295 67.59625 
L 319.454545 67.59625 
Q 321.454545 67.59625 321.454545 65.59625 
L 321.454545 37.24 
Q 321.454545 35.24 319.454545 35.24 
L 238.073295 35.24 
Q 236.073295 35.24 236.073295 37.24 
L 236.073295 65.59625 
Q 236.073295 67.59625 238.073295 67.59625 
z
" style="fill: #ffffff; opacity: 0.8; stroke: #cccccc; stroke-linejoin: miter"/>
    </g>
    <g id="line2d_16">
     <path d="M 240.073295 43.338437 
L 250.073295 43.338437 
L 260.073295 43.338437 
" style="fill: none; stroke: #1f77b4; stroke-width: 1.5; stroke-linecap: square"/>
    </g>
    <g id="text_17">
     <!-- Training -->
     <g transform="translate(268.073295 46.838437)scale(0.1 -0.1)">
      <defs>
       <path id="DejaVuSans-54" d="M -19 4666 
L 3928 4666 
L 3928 4134 
L 2272 4134 
L 2272 0 
L 1638 0 
L 1638 4134 
L -19 4134 
L -19 4666 
z
" transform="scale(0.015625)"/>
       <path id="DejaVuSans-67" d="M 2906 1791 
Q 2906 2416 2648 2759 
Q 2391 3103 1925 3103 
Q 1463 3103 1205 2759 
Q 947 2416 947 1791 
Q 947 1169 1205 825 
Q 1463 481 1925 481 
Q 2391 481 2648 825 
Q 2906 1169 2906 1791 
z
M 3481 434 
Q 3481 -459 3084 -895 
Q 2688 -1331 1869 -1331 
Q 1566 -1331 1297 -1286 
Q 1028 -1241 775 -1147 
L 775 -588 
Q 1028 -725 1275 -790 
Q 1522 -856 1778 -856 
Q 2344 -856 2625 -561 
Q 2906 -266 2906 331 
L 2906 616 
Q 2728 306 2450 153 
Q 2172 0 1784 0 
Q 1141 0 747 490 
Q 353 981 353 1791 
Q 353 2603 747 3093 
Q 1141 3584 1784 3584 
Q 2172 3584 2450 3431 
Q 2728 3278 2906 2969 
L 2906 3500 
L 3481 3500 
L 3481 434 
z
" transform="scale(0.015625)"/>
      </defs>
      <use xlink:href="#DejaVuSans-54"/>
      <use xlink:href="#DejaVuSans-72" x="46.333984"/>
      <use xlink:href="#DejaVuSans-61" x="87.447266"/>
      <use xlink:href="#DejaVuSans-69" x="148.726562"/>
      <use xlink:href="#DejaVuSans-6e" x="176.509766"/>
      <use xlink:href="#DejaVuSans-69" x="239.888672"/>
      <use xlink:href="#DejaVuSans-6e" x="267.671875"/>
      <use xlink:href="#DejaVuSans-67" x="331.050781"/>
     </g>
    </g>
    <g id="line2d_17">
     <path d="M 240.073295 58.016562 
L 250.073295 58.016562 
L 260.073295 58.016562 
" style="fill: none; stroke: #ff7f0e; stroke-width: 1.5; stroke-linecap: square"/>
    </g>
    <g id="text_18">
     <!-- Validation -->
     <g transform="translate(268.073295 61.516562)scale(0.1 -0.1)">
      <defs>
       <path id="DejaVuSans-56" d="M 1831 0 
L 50 4666 
L 709 4666 
L 2188 738 
L 3669 4666 
L 4325 4666 
L 2547 0 
L 1831 0 
z
" transform="scale(0.015625)"/>
       <path id="DejaVuSans-6c" d="M 603 4863 
L 1178 4863 
L 1178 0 
L 603 0 
L 603 4863 
z
" transform="scale(0.015625)"/>
       <path id="DejaVuSans-74" d="M 1172 4494 
L 1172 3500 
L 2356 3500 
L 2356 3053 
L 1172 3053 
L 1172 1153 
Q 1172 725 1289 603 
Q 1406 481 1766 481 
L 2356 481 
L 2356 0 
L 1766 0 
Q 1100 0 847 248 
Q 594 497 594 1153 
L 594 3053 
L 172 3053 
L 172 3500 
L 594 3500 
L 594 4494 
L 1172 4494 
z
" transform="scale(0.015625)"/>
      </defs>
      <use xlink:href="#DejaVuSans-56"/>
      <use xlink:href="#DejaVuSans-61" x="60.658203"/>
      <use xlink:href="#DejaVuSans-6c" x="121.9375"/>
      <use xlink:href="#DejaVuSans-69" x="149.720703"/>
      <use xlink:href="#DejaVuSans-64" x="177.503906"/>
      <use xlink:href="#DejaVuSans-61" x="240.980469"/>
      <use xlink:href="#DejaVuSans-74" x="302.259766"/>
      <use xlink:href="#DejaVuSans-69" x="341.46875"/>
      <use xlink:href="#DejaVuSans-6f" x="369.251953"/>
      <use xlink:href="#DejaVuSans-6e" x="430.433594"/>
     </g>
    </g>
   </g>
  </g>
  <g id="axes_2">
   <g id="patch_8">
    <path d="M 374.645455 201.6 
L 615.6 201.6 
L 615.6 30.24 
L 374.645455 30.24 
z
" style="fill: #ffffff"/>
   </g>
   <g id="matplotlib.axis_3">
    <g id="xtick_7">
     <g id="line2d_18">
      <g>
       <use xlink:href="#me120a523eb" x="385.597934" y="201.6" style="stroke: #000000; stroke-width: 0.8"/>
      </g>
     </g>
     <g id="text_19">
      <!-- 0 -->
      <g transform="translate(382.416684 216.198437)scale(0.1 -0.1)">
       <use xlink:href="#DejaVuSans-30"/>
      </g>
     </g>
    </g>
    <g id="xtick_8">
     <g id="line2d_19">
      <g>
       <use xlink:href="#me120a523eb" x="429.628002" y="201.6" style="stroke: #000000; stroke-width: 0.8"/>
      </g>
     </g>
     <g id="text_20">
      <!-- 2000 -->
      <g transform="translate(416.903002 216.198437)scale(0.1 -0.1)">
       <use xlink:href="#DejaVuSans-32"/>
       <use xlink:href="#DejaVuSans-30" x="63.623047"/>
       <use xlink:href="#DejaVuSans-30" x="127.246094"/>
       <use xlink:href="#DejaVuSans-30" x="190.869141"/>
      </g>
     </g>
    </g>
    <g id="xtick_9">
     <g id="line2d_20">
      <g>
       <use xlink:href="#me120a523eb" x="473.658069" y="201.6" style="stroke: #000000; stroke-width: 0.8"/>
      </g>
     </g>
     <g id="text_21">
      <!-- 4000 -->
      <g transform="translate(460.933069 216.198437)scale(0.1 -0.1)">
       <use xlink:href="#DejaVuSans-34"/>
       <use xlink:href="#DejaVuSans-30" x="63.623047"/>
       <use xlink:href="#DejaVuSans-30" x="127.246094"/>
       <use xlink:href="#DejaVuSans-30" x="190.869141"/>
      </g>
     </g>
    </g>
    <g id="xtick_10">
     <g id="line2d_21">
      <g>
       <use xlink:href="#me120a523eb" x="517.688137" y="201.6" style="stroke: #000000; stroke-width: 0.8"/>
      </g>
     </g>
     <g id="text_22">
      <!-- 6000 -->
      <g transform="translate(504.963137 216.198437)scale(0.1 -0.1)">
       <use xlink:href="#DejaVuSans-36"/>
       <use xlink:href="#DejaVuSans-30" x="63.623047"/>
       <use xlink:href="#DejaVuSans-30" x="127.246094"/>
       <use xlink:href="#DejaVuSans-30" x="190.869141"/>
      </g>
     </g>
    </g>
    <g id="xtick_11">
     <g id="line2d_22">
      <g>
       <use xlink:href="#me120a523eb" x="561.718205" y="201.6" style="stroke: #000000; stroke-width: 0.8"/>
      </g>
     </g>
     <g id="text_23">
      <!-- 8000 -->
      <g transform="translate(548.993205 216.198437)scale(0.1 -0.1)">
       <use xlink:href="#DejaVuSans-38"/>
       <use xlink:href="#DejaVuSans-30" x="63.623047"/>
       <use xlink:href="#DejaVuSans-30" x="127.246094"/>
       <use xlink:href="#DejaVuSans-30" x="190.869141"/>
      </g>
     </g>
    </g>
    <g id="xtick_12">
     <g id="line2d_23">
      <g>
       <use xlink:href="#me120a523eb" x="605.748272" y="201.6" style="stroke: #000000; stroke-width: 0.8"/>
      </g>
     </g>
     <g id="text_24">
      <!-- 10000 -->
      <g transform="translate(589.842022 216.198437)scale(0.1 -0.1)">
       <use xlink:href="#DejaVuSans-31"/>
       <use xlink:href="#DejaVuSans-30" x="63.623047"/>
       <use xlink:href="#DejaVuSans-30" x="127.246094"/>
       <use xlink:href="#DejaVuSans-30" x="190.869141"/>
       <use xlink:href="#DejaVuSans-30" x="254.492188"/>
      </g>
     </g>
    </g>
    <g id="text_25">
     <!-- Number of episodes -->
     <g transform="translate(444.879759 229.876562)scale(0.1 -0.1)">
      <use xlink:href="#DejaVuSans-4e"/>
      <use xlink:href="#DejaVuSans-75" x="74.804688"/>
      <use xlink:href="#DejaVuSans-6d" x="138.183594"/>
      <use xlink:href="#DejaVuSans-62" x="235.595703"/>
      <use xlink:href="#DejaVuSans-65" x="299.072266"/>
      <use xlink:href="#DejaVuSans-72" x="360.595703"/>
      <use xlink:href="#DejaVuSans-20" x="401.708984"/>
      <use xlink:href="#DejaVuSans-6f" x="433.496094"/>
      <use xlink:href="#DejaVuSans-66" x="494.677734"/>
      <use xlink:href="#DejaVuSans-20" x="529.882812"/>
      <use xlink:href="#DejaVuSans-65" x="561.669922"/>
      <use xlink:href="#DejaVuSans-70" x="623.193359"/>
      <use xlink:href="#DejaVuSans-69" x="686.669922"/>
      <use xlink:href="#DejaVuSans-73" x="714.453125"/>
      <use xlink:href="#DejaVuSans-6f" x="766.552734"/>
      <use xlink:href="#DejaVuSans-64" x="827.734375"/>
      <use xlink:href="#DejaVuSans-65" x="891.210938"/>
      <use xlink:href="#DejaVuSans-73" x="952.734375"/>
     </g>
    </g>
   </g>
   <g id="matplotlib.axis_4">
    <g id="ytick_8">
     <g id="line2d_24">
      <g>
       <use xlink:href="#mbd7e3e3f60" x="374.645455" y="197.077298" style="stroke: #000000; stroke-width: 0.8"/>
      </g>
     </g>
     <g id="text_26">
      <!-- 40 -->
      <g transform="translate(354.920455 200.876517)scale(0.1 -0.1)">
       <use xlink:href="#DejaVuSans-34"/>
       <use xlink:href="#DejaVuSans-30" x="63.623047"/>
      </g>
     </g>
    </g>
    <g id="ytick_9">
     <g id="line2d_25">
      <g>
       <use xlink:href="#mbd7e3e3f60" x="374.645455" y="166.925979" style="stroke: #000000; stroke-width: 0.8"/>
      </g>
     </g>
     <g id="text_27">
      <!-- 50 -->
      <g transform="translate(354.920455 170.725198)scale(0.1 -0.1)">
       <use xlink:href="#DejaVuSans-35"/>
       <use xlink:href="#DejaVuSans-30" x="63.623047"/>
      </g>
     </g>
    </g>
    <g id="ytick_10">
     <g id="line2d_26">
      <g>
       <use xlink:href="#mbd7e3e3f60" x="374.645455" y="136.77466" style="stroke: #000000; stroke-width: 0.8"/>
      </g>
     </g>
     <g id="text_28">
      <!-- 60 -->
      <g transform="translate(354.920455 140.573879)scale(0.1 -0.1)">
       <use xlink:href="#DejaVuSans-36"/>
       <use xlink:href="#DejaVuSans-30" x="63.623047"/>
      </g>
     </g>
    </g>
    <g id="ytick_11">
     <g id="line2d_27">
      <g>
       <use xlink:href="#mbd7e3e3f60" x="374.645455" y="106.623341" style="stroke: #000000; stroke-width: 0.8"/>
      </g>
     </g>
     <g id="text_29">
      <!-- 70 -->
      <g transform="translate(354.920455 110.42256)scale(0.1 -0.1)">
       <defs>
        <path id="DejaVuSans-37" d="M 525 4666 
L 3525 4666 
L 3525 4397 
L 1831 0 
L 1172 0 
L 2766 4134 
L 525 4134 
L 525 4666 
z
" transform="scale(0.015625)"/>
       </defs>
       <use xlink:href="#DejaVuSans-37"/>
       <use xlink:href="#DejaVuSans-30" x="63.623047"/>
      </g>
     </g>
    </g>
    <g id="ytick_12">
     <g id="line2d_28">
      <g>
       <use xlink:href="#mbd7e3e3f60" x="374.645455" y="76.472023" style="stroke: #000000; stroke-width: 0.8"/>
      </g>
     </g>
     <g id="text_30">
      <!-- 80 -->
      <g transform="translate(354.920455 80.271241)scale(0.1 -0.1)">
       <use xlink:href="#DejaVuSans-38"/>
       <use xlink:href="#DejaVuSans-30" x="63.623047"/>
      </g>
     </g>
    </g>
    <g id="ytick_13">
     <g id="line2d_29">
      <g>
       <use xlink:href="#mbd7e3e3f60" x="374.645455" y="46.320704" style="stroke: #000000; stroke-width: 0.8"/>
      </g>
     </g>
     <g id="text_31">
      <!-- 90 -->
      <g transform="translate(354.920455 50.119922)scale(0.1 -0.1)">
       <defs>
        <path id="DejaVuSans-39" d="M 703 97 
L 703 672 
Q 941 559 1184 500 
Q 1428 441 1663 441 
Q 2288 441 2617 861 
Q 2947 1281 2994 2138 
Q 2813 1869 2534 1725 
Q 2256 1581 1919 1581 
Q 1219 1581 811 2004 
Q 403 2428 403 3163 
Q 403 3881 828 4315 
Q 1253 4750 1959 4750 
Q 2769 4750 3195 4129 
Q 3622 3509 3622 2328 
Q 3622 1225 3098 567 
Q 2575 -91 1691 -91 
Q 1453 -91 1209 -44 
Q 966 3 703 97 
z
M 1959 2075 
Q 2384 2075 2632 2365 
Q 2881 2656 2881 3163 
Q 2881 3666 2632 3958 
Q 2384 4250 1959 4250 
Q 1534 4250 1286 3958 
Q 1038 3666 1038 3163 
Q 1038 2656 1286 2365 
Q 1534 2075 1959 2075 
z
" transform="scale(0.015625)"/>
       </defs>
       <use xlink:href="#DejaVuSans-39"/>
       <use xlink:href="#DejaVuSans-30" x="63.623047"/>
      </g>
     </g>
    </g>
    <g id="text_32">
     <!-- Makespan -->
     <g transform="translate(348.840767 141.100469)rotate(-90)scale(0.1 -0.1)">
      <use xlink:href="#DejaVuSans-4d"/>
      <use xlink:href="#DejaVuSans-61" x="86.279297"/>
      <use xlink:href="#DejaVuSans-6b" x="147.558594"/>
      <use xlink:href="#DejaVuSans-65" x="201.84375"/>
      <use xlink:href="#DejaVuSans-73" x="263.367188"/>
      <use xlink:href="#DejaVuSans-70" x="315.466797"/>
      <use xlink:href="#DejaVuSans-61" x="378.943359"/>
      <use xlink:href="#DejaVuSans-6e" x="440.222656"/>
     </g>
    </g>
   </g>
   <g id="line2d_30">
    <path d="M 385.597934 140.211909 
L 386.698686 140.091301 
L 387.799437 142.005916 
L 388.900189 144.40294 
L 390.000941 140.151605 
L 391.101692 140.799859 
L 392.202444 143.498403 
L 393.303196 141.659171 
L 394.403947 143.63409 
L 395.504699 139.895321 
L 396.605451 142.533562 
L 397.706203 144.644156 
L 398.806954 145.443165 
L 399.907706 144.734607 
L 401.008458 144.40294 
L 402.109209 142.458179 
L 403.209961 147.05626 
L 404.310713 145.714527 
L 405.411464 147.282397 
L 406.512216 146.016035 
L 407.612968 146.890426 
L 408.713719 147.101485 
L 409.814471 149.347755 
L 410.915223 144.80999 
L 412.015975 145.29241 
L 413.116726 147.810043 
L 414.217478 150.67442 
L 415.31823 149.724646 
L 416.418981 150.779949 
L 417.519733 151.277449 
L 418.620485 146.55876 
L 419.721236 152.845319 
L 420.821988 150.795028 
L 421.92274 151.774937 
L 423.023491 153.041298 
L 424.124243 151.985995 
L 425.224995 152.785015 
L 426.325747 150.478429 
L 427.426498 149.649275 
L 428.52725 150.991008 
L 429.628002 151.880466 
L 430.728753 150.297529 
L 431.829505 156.177038 
L 432.930257 152.52872 
L 434.031008 154.307648 
L 435.13176 155.091589 
L 436.232512 151.790016 
L 437.333263 154.57901 
L 438.434015 155.453401 
L 439.534767 154.835305 
L 440.635519 154.609168 
L 441.73627 155.197118 
L 442.837022 155.498627 
L 443.937774 156.011205 
L 445.038525 156.05643 
L 446.139277 155.75491 
L 447.240029 152.453348 
L 448.34078 157.111722 
L 449.441532 158.981112 
L 450.542284 157.850437 
L 451.643035 156.991125 
L 452.743787 157.307713 
L 453.844539 157.262476 
L 454.945291 156.463468 
L 456.046042 159.855491 
L 457.146794 157.594142 
L 458.247546 155.935822 
L 459.348297 156.64438 
L 460.449049 157.790133 
L 461.549801 159.146933 
L 462.650552 155.197118 
L 463.751304 159.448454 
L 464.852056 157.247409 
L 465.952807 160.639432 
L 467.053559 157.187105 
L 468.154311 158.981112 
L 469.255063 158.3027 
L 470.355814 157.172026 
L 472.557318 159.810266 
L 473.658069 158.438387 
L 474.758821 158.453454 
L 475.859573 158.332858 
L 476.960324 159.493679 
L 478.061076 157.292634 
L 479.161828 159.342924 
L 480.262579 159.945953 
L 481.363331 158.016259 
L 482.464083 161.076628 
L 483.564835 160.699736 
L 484.665586 161.061549 
L 485.766338 161.694724 
L 486.86709 162.02639 
L 487.967841 161.197224 
L 489.068593 160.624353 
L 490.169345 160.383149 
L 491.270096 161.981165 
L 492.370848 160.503745 
L 493.4716 160.383149 
L 494.572351 159.056483 
L 495.673103 160.533903 
L 496.773855 160.564049 
L 497.874607 161.04647 
L 498.975358 162.780173 
L 500.07611 159.96102 
L 501.176862 161.83041 
L 502.277613 162.358056 
L 503.378365 160.699736 
L 504.479117 160.06655 
L 505.579868 163.775172 
L 506.68062 162.342977 
L 507.781372 163.458573 
L 508.882123 161.483665 
L 509.982875 162.915848 
L 511.083627 162.433428 
L 512.184379 163.39828 
L 513.28513 161.619352 
L 514.385882 163.39828 
L 515.486634 159.689658 
L 516.587385 163.09676 
L 517.688137 163.533956 
L 519.88964 162.358056 
L 520.990392 164.890768 
L 522.091144 162.388203 
L 523.191895 162.101773 
L 524.292647 166.322951 
L 525.393399 164.875689 
L 526.494151 162.222369 
L 527.594902 165.011376 
L 528.695654 163.458573 
L 529.796406 164.212356 
L 530.897157 163.141985 
L 531.997909 162.493732 
L 533.098661 162.840477 
L 534.199412 162.689723 
L 535.300164 162.071615 
L 536.400916 164.875689 
L 537.501667 163.790239 
L 538.602419 163.971151 
L 539.703171 164.57418 
L 540.803923 164.890768 
L 541.904674 163.00631 
L 543.005426 163.925926 
L 544.106178 162.358056 
L 545.206929 161.860557 
L 546.307681 163.322898 
L 547.408433 161.543969 
L 548.509184 164.317885 
L 549.609936 160.352991 
L 550.710688 161.332911 
L 551.811439 163.428427 
L 552.912191 159.885649 
L 554.012943 162.538957 
L 555.113695 161.272607 
L 556.214446 161.920861 
L 557.315198 164.634484 
L 558.41595 162.162065 
L 559.516701 162.041469 
L 560.617453 162.659565 
L 561.718205 159.795187 
L 562.818956 162.780173 
L 563.919708 165.16213 
L 565.02046 161.091695 
L 566.121211 159.222316 
L 567.221963 160.533903 
L 569.423467 161.001245 
L 570.524218 161.031391 
L 571.62497 161.679645 
L 572.725722 160.971098 
L 573.826473 161.604273 
L 576.027977 160.45852 
L 577.128728 161.287686 
L 578.22948 159.945953 
L 579.330232 161.378136 
L 580.430983 161.679645 
L 581.531735 160.126854 
L 582.632487 158.875583 
L 583.733239 160.352991 
L 584.83399 160.594207 
L 585.934742 157.081575 
L 587.035494 158.589141 
L 588.136245 158.60422 
L 589.236997 159.538904 
L 590.337749 158.091642 
L 591.4385 161.363057 
L 592.539252 159.825345 
L 593.640004 159.629366 
L 594.740755 156.342871 
L 595.841507 157.563996 
L 596.942259 155.121735 
L 598.043011 158.845425 
L 599.143762 159.373071 
L 600.244514 157.744908 
L 601.345266 160.533903 
L 602.446017 159.448454 
L 603.546769 158.543916 
L 604.647521 156.991125 
L 604.647521 156.991125 
" clip-path="url(#pf77f735406)" style="fill: none; stroke: #1f77b4; stroke-width: 1.5; stroke-linecap: square"/>
   </g>
   <g id="line2d_31">
    <path d="M 385.597934 45.818189 
L 387.799437 38.029091 
L 390.000941 56.622397 
L 392.202444 81.497235 
L 394.403947 105.869558 
L 396.605451 98.331729 
L 398.806954 120.693949 
L 401.008458 138.784752 
L 403.209961 151.096537 
L 405.411464 172.956243 
L 407.612968 173.458769 
L 409.814471 188.28316 
L 412.015975 183.509205 
L 414.217478 182.001639 
L 416.418981 191.298292 
L 418.620485 193.55964 
L 420.821988 184.514245 
L 423.023491 188.785685 
L 425.224995 189.036943 
L 427.426498 188.28316 
L 429.628002 190.795777 
L 431.829505 188.031902 
L 434.031008 190.544509 
L 436.232512 188.031902 
L 438.434015 185.016771 
L 440.635519 189.539468 
L 442.837022 189.539468 
L 445.038525 189.790726 
L 447.240029 192.052074 
L 449.441532 192.5546 
L 451.643035 193.810909 
L 453.844539 185.016771 
L 456.046042 187.529377 
L 458.247546 188.28316 
L 460.449049 186.524337 
L 462.650552 188.534428 
L 464.852056 185.016771 
L 467.053559 189.036943 
L 469.255063 189.790726 
L 471.456566 183.760462 
L 473.658069 187.780645 
L 475.859573 186.273079 
L 478.061076 188.28316 
L 480.262579 187.026862 
L 482.464083 186.021811 
L 484.665586 180.494073 
L 486.86709 184.765513 
L 489.068593 186.273079 
L 491.270096 188.785685 
L 493.4716 182.755422 
L 495.673103 188.785685 
L 497.874607 190.293251 
L 500.07611 193.057126 
L 502.277613 188.28316 
L 504.479117 185.519296 
L 506.68062 190.041994 
L 508.882123 189.036943 
L 511.083627 185.519296 
L 513.28513 190.795777 
L 515.486634 185.016771 
L 517.688137 190.293251 
L 519.88964 186.021811 
L 522.091144 186.021811 
L 524.292647 184.765513 
L 526.494151 187.278119 
L 528.695654 188.031902 
L 530.897157 185.016771 
L 533.098661 180.996599 
L 535.300164 183.257947 
L 537.501667 179.74029 
L 539.703171 184.262988 
L 541.904674 188.28316 
L 544.106178 188.031902 
L 546.307681 184.765513 
L 548.509184 184.01173 
L 550.710688 185.519296 
L 552.912191 181.750382 
L 555.113695 181.247856 
L 557.315198 179.237764 
L 559.516701 181.750382 
L 561.718205 179.74029 
L 563.919708 190.795777 
L 566.121211 184.514245 
L 568.322715 179.489033 
L 570.524218 187.026862 
L 572.725722 186.524337 
L 574.927225 185.016771 
L 577.128728 189.539468 
L 579.330232 187.278119 
L 581.531735 186.273079 
L 583.733239 188.28316 
L 585.934742 182.755422 
L 588.136245 185.268028 
L 590.337749 185.770554 
L 592.539252 185.770554 
L 594.740755 188.534428 
L 596.942259 188.785685 
L 599.143762 190.041994 
L 601.345266 190.041994 
L 603.546769 192.5546 
" clip-path="url(#pf77f735406)" style="fill: none; stroke: #ff7f0e; stroke-width: 1.5; stroke-linecap: square"/>
   </g>
   <g id="patch_9">
    <path d="M 374.645455 201.6 
L 374.645455 30.24 
" style="fill: none; stroke: #000000; stroke-width: 0.8; stroke-linejoin: miter; stroke-linecap: square"/>
   </g>
   <g id="patch_10">
    <path d="M 615.6 201.6 
L 615.6 30.24 
" style="fill: none; stroke: #000000; stroke-width: 0.8; stroke-linejoin: miter; stroke-linecap: square"/>
   </g>
   <g id="patch_11">
    <path d="M 374.645455 201.6 
L 615.6 201.6 
" style="fill: none; stroke: #000000; stroke-width: 0.8; stroke-linejoin: miter; stroke-linecap: square"/>
   </g>
   <g id="patch_12">
    <path d="M 374.645455 30.24 
L 615.6 30.24 
" style="fill: none; stroke: #000000; stroke-width: 0.8; stroke-linejoin: miter; stroke-linecap: square"/>
   </g>
   <g id="text_33">
    <!-- MK02 -->
    <g transform="translate(478.376165 20.24)scale(0.12 -0.12)">
     <use xlink:href="#DejaVuSans-4d"/>
     <use xlink:href="#DejaVuSans-4b" x="86.279297"/>
     <use xlink:href="#DejaVuSans-30" x="151.855469"/>
     <use xlink:href="#DejaVuSans-32" x="215.478516"/>
    </g>
   </g>
   <g id="legend_2">
    <g id="patch_13">
     <path d="M 527.21875 67.59625 
L 608.6 67.59625 
Q 610.6 67.59625 610.6 65.59625 
L 610.6 37.24 
Q 610.6 35.24 608.6 35.24 
L 527.21875 35.24 
Q 525.21875 35.24 525.21875 37.24 
L 525.21875 65.59625 
Q 525.21875 67.59625 527.21875 67.59625 
z
" style="fill: #ffffff; opacity: 0.8; stroke: #cccccc; stroke-linejoin: miter"/>
    </g>
    <g id="line2d_32">
     <path d="M 529.21875 43.338437 
L 539.21875 43.338437 
L 549.21875 43.338437 
" style="fill: none; stroke: #1f77b4; stroke-width: 1.5; stroke-linecap: square"/>
    </g>
    <g id="text_34">
     <!-- Training -->
     <g transform="translate(557.21875 46.838437)scale(0.1 -0.1)">
      <use xlink:href="#DejaVuSans-54"/>
      <use xlink:href="#DejaVuSans-72" x="46.333984"/>
      <use xlink:href="#DejaVuSans-61" x="87.447266"/>
      <use xlink:href="#DejaVuSans-69" x="148.726562"/>
      <use xlink:href="#DejaVuSans-6e" x="176.509766"/>
      <use xlink:href="#DejaVuSans-69" x="239.888672"/>
      <use xlink:href="#DejaVuSans-6e" x="267.671875"/>
      <use xlink:href="#DejaVuSans-67" x="331.050781"/>
     </g>
    </g>
    <g id="line2d_33">
     <path d="M 529.21875 58.016562 
L 539.21875 58.016562 
L 549.21875 58.016562 
" style="fill: none; stroke: #ff7f0e; stroke-width: 1.5; stroke-linecap: square"/>
    </g>
    <g id="text_35">
     <!-- Validation -->
     <g transform="translate(557.21875 61.516562)scale(0.1 -0.1)">
      <use xlink:href="#DejaVuSans-56"/>
      <use xlink:href="#DejaVuSans-61" x="60.658203"/>
      <use xlink:href="#DejaVuSans-6c" x="121.9375"/>
      <use xlink:href="#DejaVuSans-69" x="149.720703"/>
      <use xlink:href="#DejaVuSans-64" x="177.503906"/>
      <use xlink:href="#DejaVuSans-61" x="240.980469"/>
      <use xlink:href="#DejaVuSans-74" x="302.259766"/>
      <use xlink:href="#DejaVuSans-69" x="341.46875"/>
      <use xlink:href="#DejaVuSans-6f" x="369.251953"/>
      <use xlink:href="#DejaVuSans-6e" x="430.433594"/>
     </g>
    </g>
   </g>
  </g>
 </g>
 <defs>
  <clipPath id="pd57bdb0cc7">
   <rect x="85.5" y="30.24" width="240.954545" height="171.36"/>
  </clipPath>
  <clipPath id="pf77f735406">
   <rect x="374.645455" y="30.24" width="240.954545" height="171.36"/>
  </clipPath>
 </defs>
</svg>
