<?xml version="1.0" encoding="utf-8" standalone="no"?>
<!DOCTYPE svg PUBLIC "-//W3C//DTD SVG 1.1//EN"
  "http://www.w3.org/Graphics/SVG/1.1/DTD/svg11.dtd">
<svg xmlns:xlink="http://www.w3.org/1999/xlink" width="792pt" height="252pt" viewBox="0 0 792 252" xmlns="http://www.w3.org/2000/svg" version="1.1">
 <metadata>
  <rdf:RDF xmlns:dc="http://purl.org/dc/elements/1.1/" xmlns:cc="http://creativecommons.org/ns#" xmlns:rdf="http://www.w3.org/1999/02/22-rdf-syntax-ns#">
   <cc:Work>
    <dc:type rdf:resource="http://purl.org/dc/dcmitype/StillImage"/>
    <dc:date>2022-07-03T16:27:29.343684</dc:date>
    <dc:format>image/svg+xml</dc:format>
    <dc:creator>
     <cc:Agent>
      <dc:title>Matplotlib v3.5.1, https://matplotlib.org/</dc:title>
     </cc:Agent>
    </dc:creator>
   </cc:Work>
  </rdf:RDF>
 </metadata>
 <defs>
  <style type="text/css">*{stroke-linejoin: round; stroke-linecap: butt}</style>
 </defs>
 <g id="figure_1">
  <g id="patch_1">
   <path d="M 0 252 
L 792 252 
L 792 0 
L 0 0 
z
" style="fill: #ffffff"/>
  </g>
  <g id="axes_1">
   <g id="patch_2">
    <path d="M 99 201.6 
L 378 201.6 
L 378 30.24 
L 99 30.24 
z
" style="fill: #ffffff"/>
   </g>
   <g id="matplotlib.axis_1">
    <g id="xtick_1">
     <g id="line2d_1">
      <defs>
       <path id="m4c99b40b58" d="M 0 0 
L 0 3.5 
" style="stroke: #000000; stroke-width: 0.8"/>
      </defs>
      <g>
       <use xlink:href="#m4c99b40b58" x="111.681818" y="201.6" style="stroke: #000000; stroke-width: 0.8"/>
      </g>
     </g>
     <g id="text_1">
      <!-- 0 -->
      <g transform="translate(108.500568 216.198437)scale(0.1 -0.1)">
       <defs>
        <path id="DejaVuSans-30" d="M 2034 4250 
Q 1547 4250 1301 3770 
Q 1056 3291 1056 2328 
Q 1056 1369 1301 889 
Q 1547 409 2034 409 
Q 2525 409 2770 889 
Q 3016 1369 3016 2328 
Q 3016 3291 2770 3770 
Q 2525 4250 2034 4250 
z
M 2034 4750 
Q 2819 4750 3233 4129 
Q 3647 3509 3647 2328 
Q 3647 1150 3233 529 
Q 2819 -91 2034 -91 
Q 1250 -91 836 529 
Q 422 1150 422 2328 
Q 422 3509 836 4129 
Q 1250 4750 2034 4750 
z
" transform="scale(0.015625)"/>
       </defs>
       <use xlink:href="#DejaVuSans-30"/>
      </g>
     </g>
    </g>
    <g id="xtick_2">
     <g id="line2d_2">
      <g>
       <use xlink:href="#m4c99b40b58" x="162.664002" y="201.6" style="stroke: #000000; stroke-width: 0.8"/>
      </g>
     </g>
     <g id="text_2">
      <!-- 2000 -->
      <g transform="translate(149.939002 216.198437)scale(0.1 -0.1)">
       <defs>
        <path id="DejaVuSans-32" d="M 1228 531 
L 3431 531 
L 3431 0 
L 469 0 
L 469 531 
Q 828 903 1448 1529 
Q 2069 2156 2228 2338 
Q 2531 2678 2651 2914 
Q 2772 3150 2772 3378 
Q 2772 3750 2511 3984 
Q 2250 4219 1831 4219 
Q 1534 4219 1204 4116 
Q 875 4013 500 3803 
L 500 4441 
Q 881 4594 1212 4672 
Q 1544 4750 1819 4750 
Q 2544 4750 2975 4387 
Q 3406 4025 3406 3419 
Q 3406 3131 3298 2873 
Q 3191 2616 2906 2266 
Q 2828 2175 2409 1742 
Q 1991 1309 1228 531 
z
" transform="scale(0.015625)"/>
       </defs>
       <use xlink:href="#DejaVuSans-32"/>
       <use xlink:href="#DejaVuSans-30" x="63.623047"/>
       <use xlink:href="#DejaVuSans-30" x="127.246094"/>
       <use xlink:href="#DejaVuSans-30" x="190.869141"/>
      </g>
     </g>
    </g>
    <g id="xtick_3">
     <g id="line2d_3">
      <g>
       <use xlink:href="#m4c99b40b58" x="213.646185" y="201.6" style="stroke: #000000; stroke-width: 0.8"/>
      </g>
     </g>
     <g id="text_3">
      <!-- 4000 -->
      <g transform="translate(200.921185 216.198437)scale(0.1 -0.1)">
       <defs>
        <path id="DejaVuSans-34" d="M 2419 4116 
L 825 1625 
L 2419 1625 
L 2419 4116 
z
M 2253 4666 
L 3047 4666 
L 3047 1625 
L 3713 1625 
L 3713 1100 
L 3047 1100 
L 3047 0 
L 2419 0 
L 2419 1100 
L 313 1100 
L 313 1709 
L 2253 4666 
z
" transform="scale(0.015625)"/>
       </defs>
       <use xlink:href="#DejaVuSans-34"/>
       <use xlink:href="#DejaVuSans-30" x="63.623047"/>
       <use xlink:href="#DejaVuSans-30" x="127.246094"/>
       <use xlink:href="#DejaVuSans-30" x="190.869141"/>
      </g>
     </g>
    </g>
    <g id="xtick_4">
     <g id="line2d_4">
      <g>
       <use xlink:href="#m4c99b40b58" x="264.628369" y="201.6" style="stroke: #000000; stroke-width: 0.8"/>
      </g>
     </g>
     <g id="text_4">
      <!-- 6000 -->
      <g transform="translate(251.903369 216.198437)scale(0.1 -0.1)">
       <defs>
        <path id="DejaVuSans-36" d="M 2113 2584 
Q 1688 2584 1439 2293 
Q 1191 2003 1191 1497 
Q 1191 994 1439 701 
Q 1688 409 2113 409 
Q 2538 409 2786 701 
Q 3034 994 3034 1497 
Q 3034 2003 2786 2293 
Q 2538 2584 2113 2584 
z
M 3366 4563 
L 3366 3988 
Q 3128 4100 2886 4159 
Q 2644 4219 2406 4219 
Q 1781 4219 1451 3797 
Q 1122 3375 1075 2522 
Q 1259 2794 1537 2939 
Q 1816 3084 2150 3084 
Q 2853 3084 3261 2657 
Q 3669 2231 3669 1497 
Q 3669 778 3244 343 
Q 2819 -91 2113 -91 
Q 1303 -91 875 529 
Q 447 1150 447 2328 
Q 447 3434 972 4092 
Q 1497 4750 2381 4750 
Q 2619 4750 2861 4703 
Q 3103 4656 3366 4563 
z
" transform="scale(0.015625)"/>
       </defs>
       <use xlink:href="#DejaVuSans-36"/>
       <use xlink:href="#DejaVuSans-30" x="63.623047"/>
       <use xlink:href="#DejaVuSans-30" x="127.246094"/>
       <use xlink:href="#DejaVuSans-30" x="190.869141"/>
      </g>
     </g>
    </g>
    <g id="xtick_5">
     <g id="line2d_5">
      <g>
       <use xlink:href="#m4c99b40b58" x="315.610553" y="201.6" style="stroke: #000000; stroke-width: 0.8"/>
      </g>
     </g>
     <g id="text_5">
      <!-- 8000 -->
      <g transform="translate(302.885553 216.198437)scale(0.1 -0.1)">
       <defs>
        <path id="DejaVuSans-38" d="M 2034 2216 
Q 1584 2216 1326 1975 
Q 1069 1734 1069 1313 
Q 1069 891 1326 650 
Q 1584 409 2034 409 
Q 2484 409 2743 651 
Q 3003 894 3003 1313 
Q 3003 1734 2745 1975 
Q 2488 2216 2034 2216 
z
M 1403 2484 
Q 997 2584 770 2862 
Q 544 3141 544 3541 
Q 544 4100 942 4425 
Q 1341 4750 2034 4750 
Q 2731 4750 3128 4425 
Q 3525 4100 3525 3541 
Q 3525 3141 3298 2862 
Q 3072 2584 2669 2484 
Q 3125 2378 3379 2068 
Q 3634 1759 3634 1313 
Q 3634 634 3220 271 
Q 2806 -91 2034 -91 
Q 1263 -91 848 271 
Q 434 634 434 1313 
Q 434 1759 690 2068 
Q 947 2378 1403 2484 
z
M 1172 3481 
Q 1172 3119 1398 2916 
Q 1625 2713 2034 2713 
Q 2441 2713 2670 2916 
Q 2900 3119 2900 3481 
Q 2900 3844 2670 4047 
Q 2441 4250 2034 4250 
Q 1625 4250 1398 4047 
Q 1172 3844 1172 3481 
z
" transform="scale(0.015625)"/>
       </defs>
       <use xlink:href="#DejaVuSans-38"/>
       <use xlink:href="#DejaVuSans-30" x="63.623047"/>
       <use xlink:href="#DejaVuSans-30" x="127.246094"/>
       <use xlink:href="#DejaVuSans-30" x="190.869141"/>
      </g>
     </g>
    </g>
    <g id="xtick_6">
     <g id="line2d_6">
      <g>
       <use xlink:href="#m4c99b40b58" x="366.592736" y="201.6" style="stroke: #000000; stroke-width: 0.8"/>
      </g>
     </g>
     <g id="text_6">
      <!-- 10000 -->
      <g transform="translate(350.686486 216.198437)scale(0.1 -0.1)">
       <defs>
        <path id="DejaVuSans-31" d="M 794 531 
L 1825 531 
L 1825 4091 
L 703 3866 
L 703 4441 
L 1819 4666 
L 2450 4666 
L 2450 531 
L 3481 531 
L 3481 0 
L 794 0 
L 794 531 
z
" transform="scale(0.015625)"/>
       </defs>
       <use xlink:href="#DejaVuSans-31"/>
       <use xlink:href="#DejaVuSans-30" x="63.623047"/>
       <use xlink:href="#DejaVuSans-30" x="127.246094"/>
       <use xlink:href="#DejaVuSans-30" x="190.869141"/>
       <use xlink:href="#DejaVuSans-30" x="254.492188"/>
      </g>
     </g>
    </g>
    <g id="text_7">
     <!-- Number of episodes -->
     <g transform="translate(188.257031 229.876562)scale(0.1 -0.1)">
      <defs>
       <path id="DejaVuSans-4e" d="M 628 4666 
L 1478 4666 
L 3547 763 
L 3547 4666 
L 4159 4666 
L 4159 0 
L 3309 0 
L 1241 3903 
L 1241 0 
L 628 0 
L 628 4666 
z
" transform="scale(0.015625)"/>
       <path id="DejaVuSans-75" d="M 544 1381 
L 544 3500 
L 1119 3500 
L 1119 1403 
Q 1119 906 1312 657 
Q 1506 409 1894 409 
Q 2359 409 2629 706 
Q 2900 1003 2900 1516 
L 2900 3500 
L 3475 3500 
L 3475 0 
L 2900 0 
L 2900 538 
Q 2691 219 2414 64 
Q 2138 -91 1772 -91 
Q 1169 -91 856 284 
Q 544 659 544 1381 
z
M 1991 3584 
L 1991 3584 
z
" transform="scale(0.015625)"/>
       <path id="DejaVuSans-6d" d="M 3328 2828 
Q 3544 3216 3844 3400 
Q 4144 3584 4550 3584 
Q 5097 3584 5394 3201 
Q 5691 2819 5691 2113 
L 5691 0 
L 5113 0 
L 5113 2094 
Q 5113 2597 4934 2840 
Q 4756 3084 4391 3084 
Q 3944 3084 3684 2787 
Q 3425 2491 3425 1978 
L 3425 0 
L 2847 0 
L 2847 2094 
Q 2847 2600 2669 2842 
Q 2491 3084 2119 3084 
Q 1678 3084 1418 2786 
Q 1159 2488 1159 1978 
L 1159 0 
L 581 0 
L 581 3500 
L 1159 3500 
L 1159 2956 
Q 1356 3278 1631 3431 
Q 1906 3584 2284 3584 
Q 2666 3584 2933 3390 
Q 3200 3197 3328 2828 
z
" transform="scale(0.015625)"/>
       <path id="DejaVuSans-62" d="M 3116 1747 
Q 3116 2381 2855 2742 
Q 2594 3103 2138 3103 
Q 1681 3103 1420 2742 
Q 1159 2381 1159 1747 
Q 1159 1113 1420 752 
Q 1681 391 2138 391 
Q 2594 391 2855 752 
Q 3116 1113 3116 1747 
z
M 1159 2969 
Q 1341 3281 1617 3432 
Q 1894 3584 2278 3584 
Q 2916 3584 3314 3078 
Q 3713 2572 3713 1747 
Q 3713 922 3314 415 
Q 2916 -91 2278 -91 
Q 1894 -91 1617 61 
Q 1341 213 1159 525 
L 1159 0 
L 581 0 
L 581 4863 
L 1159 4863 
L 1159 2969 
z
" transform="scale(0.015625)"/>
       <path id="DejaVuSans-65" d="M 3597 1894 
L 3597 1613 
L 953 1613 
Q 991 1019 1311 708 
Q 1631 397 2203 397 
Q 2534 397 2845 478 
Q 3156 559 3463 722 
L 3463 178 
Q 3153 47 2828 -22 
Q 2503 -91 2169 -91 
Q 1331 -91 842 396 
Q 353 884 353 1716 
Q 353 2575 817 3079 
Q 1281 3584 2069 3584 
Q 2775 3584 3186 3129 
Q 3597 2675 3597 1894 
z
M 3022 2063 
Q 3016 2534 2758 2815 
Q 2500 3097 2075 3097 
Q 1594 3097 1305 2825 
Q 1016 2553 972 2059 
L 3022 2063 
z
" transform="scale(0.015625)"/>
       <path id="DejaVuSans-72" d="M 2631 2963 
Q 2534 3019 2420 3045 
Q 2306 3072 2169 3072 
Q 1681 3072 1420 2755 
Q 1159 2438 1159 1844 
L 1159 0 
L 581 0 
L 581 3500 
L 1159 3500 
L 1159 2956 
Q 1341 3275 1631 3429 
Q 1922 3584 2338 3584 
Q 2397 3584 2469 3576 
Q 2541 3569 2628 3553 
L 2631 2963 
z
" transform="scale(0.015625)"/>
       <path id="DejaVuSans-20" transform="scale(0.015625)"/>
       <path id="DejaVuSans-6f" d="M 1959 3097 
Q 1497 3097 1228 2736 
Q 959 2375 959 1747 
Q 959 1119 1226 758 
Q 1494 397 1959 397 
Q 2419 397 2687 759 
Q 2956 1122 2956 1747 
Q 2956 2369 2687 2733 
Q 2419 3097 1959 3097 
z
M 1959 3584 
Q 2709 3584 3137 3096 
Q 3566 2609 3566 1747 
Q 3566 888 3137 398 
Q 2709 -91 1959 -91 
Q 1206 -91 779 398 
Q 353 888 353 1747 
Q 353 2609 779 3096 
Q 1206 3584 1959 3584 
z
" transform="scale(0.015625)"/>
       <path id="DejaVuSans-66" d="M 2375 4863 
L 2375 4384 
L 1825 4384 
Q 1516 4384 1395 4259 
Q 1275 4134 1275 3809 
L 1275 3500 
L 2222 3500 
L 2222 3053 
L 1275 3053 
L 1275 0 
L 697 0 
L 697 3053 
L 147 3053 
L 147 3500 
L 697 3500 
L 697 3744 
Q 697 4328 969 4595 
Q 1241 4863 1831 4863 
L 2375 4863 
z
" transform="scale(0.015625)"/>
       <path id="DejaVuSans-70" d="M 1159 525 
L 1159 -1331 
L 581 -1331 
L 581 3500 
L 1159 3500 
L 1159 2969 
Q 1341 3281 1617 3432 
Q 1894 3584 2278 3584 
Q 2916 3584 3314 3078 
Q 3713 2572 3713 1747 
Q 3713 922 3314 415 
Q 2916 -91 2278 -91 
Q 1894 -91 1617 61 
Q 1341 213 1159 525 
z
M 3116 1747 
Q 3116 2381 2855 2742 
Q 2594 3103 2138 3103 
Q 1681 3103 1420 2742 
Q 1159 2381 1159 1747 
Q 1159 1113 1420 752 
Q 1681 391 2138 391 
Q 2594 391 2855 752 
Q 3116 1113 3116 1747 
z
" transform="scale(0.015625)"/>
       <path id="DejaVuSans-69" d="M 603 3500 
L 1178 3500 
L 1178 0 
L 603 0 
L 603 3500 
z
M 603 4863 
L 1178 4863 
L 1178 4134 
L 603 4134 
L 603 4863 
z
" transform="scale(0.015625)"/>
       <path id="DejaVuSans-73" d="M 2834 3397 
L 2834 2853 
Q 2591 2978 2328 3040 
Q 2066 3103 1784 3103 
Q 1356 3103 1142 2972 
Q 928 2841 928 2578 
Q 928 2378 1081 2264 
Q 1234 2150 1697 2047 
L 1894 2003 
Q 2506 1872 2764 1633 
Q 3022 1394 3022 966 
Q 3022 478 2636 193 
Q 2250 -91 1575 -91 
Q 1294 -91 989 -36 
Q 684 19 347 128 
L 347 722 
Q 666 556 975 473 
Q 1284 391 1588 391 
Q 1994 391 2212 530 
Q 2431 669 2431 922 
Q 2431 1156 2273 1281 
Q 2116 1406 1581 1522 
L 1381 1569 
Q 847 1681 609 1914 
Q 372 2147 372 2553 
Q 372 3047 722 3315 
Q 1072 3584 1716 3584 
Q 2034 3584 2315 3537 
Q 2597 3491 2834 3397 
z
" transform="scale(0.015625)"/>
       <path id="DejaVuSans-64" d="M 2906 2969 
L 2906 4863 
L 3481 4863 
L 3481 0 
L 2906 0 
L 2906 525 
Q 2725 213 2448 61 
Q 2172 -91 1784 -91 
Q 1150 -91 751 415 
Q 353 922 353 1747 
Q 353 2572 751 3078 
Q 1150 3584 1784 3584 
Q 2172 3584 2448 3432 
Q 2725 3281 2906 2969 
z
M 947 1747 
Q 947 1113 1208 752 
Q 1469 391 1925 391 
Q 2381 391 2643 752 
Q 2906 1113 2906 1747 
Q 2906 2381 2643 2742 
Q 2381 3103 1925 3103 
Q 1469 3103 1208 2742 
Q 947 2381 947 1747 
z
" transform="scale(0.015625)"/>
      </defs>
      <use xlink:href="#DejaVuSans-4e"/>
      <use xlink:href="#DejaVuSans-75" x="74.804688"/>
      <use xlink:href="#DejaVuSans-6d" x="138.183594"/>
      <use xlink:href="#DejaVuSans-62" x="235.595703"/>
      <use xlink:href="#DejaVuSans-65" x="299.072266"/>
      <use xlink:href="#DejaVuSans-72" x="360.595703"/>
      <use xlink:href="#DejaVuSans-20" x="401.708984"/>
      <use xlink:href="#DejaVuSans-6f" x="433.496094"/>
      <use xlink:href="#DejaVuSans-66" x="494.677734"/>
      <use xlink:href="#DejaVuSans-20" x="529.882812"/>
      <use xlink:href="#DejaVuSans-65" x="561.669922"/>
      <use xlink:href="#DejaVuSans-70" x="623.193359"/>
      <use xlink:href="#DejaVuSans-69" x="686.669922"/>
      <use xlink:href="#DejaVuSans-73" x="714.453125"/>
      <use xlink:href="#DejaVuSans-6f" x="766.552734"/>
      <use xlink:href="#DejaVuSans-64" x="827.734375"/>
      <use xlink:href="#DejaVuSans-65" x="891.210938"/>
      <use xlink:href="#DejaVuSans-73" x="952.734375"/>
     </g>
    </g>
   </g>
   <g id="matplotlib.axis_2">
    <g id="ytick_1">
     <g id="line2d_7">
      <defs>
       <path id="mb0ce6541a1" d="M 0 0 
L -3.5 0 
" style="stroke: #000000; stroke-width: 0.8"/>
      </defs>
      <g>
       <use xlink:href="#mb0ce6541a1" x="99" y="165.292117" style="stroke: #000000; stroke-width: 0.8"/>
      </g>
     </g>
     <g id="text_8">
      <!-- 260 -->
      <g transform="translate(72.9125 169.091335)scale(0.1 -0.1)">
       <use xlink:href="#DejaVuSans-32"/>
       <use xlink:href="#DejaVuSans-36" x="63.623047"/>
       <use xlink:href="#DejaVuSans-30" x="127.246094"/>
      </g>
     </g>
    </g>
    <g id="ytick_2">
     <g id="line2d_8">
      <g>
       <use xlink:href="#mb0ce6541a1" x="99" y="125.728488" style="stroke: #000000; stroke-width: 0.8"/>
      </g>
     </g>
     <g id="text_9">
      <!-- 280 -->
      <g transform="translate(72.9125 129.527707)scale(0.1 -0.1)">
       <use xlink:href="#DejaVuSans-32"/>
       <use xlink:href="#DejaVuSans-38" x="63.623047"/>
       <use xlink:href="#DejaVuSans-30" x="127.246094"/>
      </g>
     </g>
    </g>
    <g id="ytick_3">
     <g id="line2d_9">
      <g>
       <use xlink:href="#mb0ce6541a1" x="99" y="86.164859" style="stroke: #000000; stroke-width: 0.8"/>
      </g>
     </g>
     <g id="text_10">
      <!-- 300 -->
      <g transform="translate(72.9125 89.964078)scale(0.1 -0.1)">
       <defs>
        <path id="DejaVuSans-33" d="M 2597 2516 
Q 3050 2419 3304 2112 
Q 3559 1806 3559 1356 
Q 3559 666 3084 287 
Q 2609 -91 1734 -91 
Q 1441 -91 1130 -33 
Q 819 25 488 141 
L 488 750 
Q 750 597 1062 519 
Q 1375 441 1716 441 
Q 2309 441 2620 675 
Q 2931 909 2931 1356 
Q 2931 1769 2642 2001 
Q 2353 2234 1838 2234 
L 1294 2234 
L 1294 2753 
L 1863 2753 
Q 2328 2753 2575 2939 
Q 2822 3125 2822 3475 
Q 2822 3834 2567 4026 
Q 2313 4219 1838 4219 
Q 1578 4219 1281 4162 
Q 984 4106 628 3988 
L 628 4550 
Q 988 4650 1302 4700 
Q 1616 4750 1894 4750 
Q 2613 4750 3031 4423 
Q 3450 4097 3450 3541 
Q 3450 3153 3228 2886 
Q 3006 2619 2597 2516 
z
" transform="scale(0.015625)"/>
       </defs>
       <use xlink:href="#DejaVuSans-33"/>
       <use xlink:href="#DejaVuSans-30" x="63.623047"/>
       <use xlink:href="#DejaVuSans-30" x="127.246094"/>
      </g>
     </g>
    </g>
    <g id="ytick_4">
     <g id="line2d_10">
      <g>
       <use xlink:href="#mb0ce6541a1" x="99" y="46.601231" style="stroke: #000000; stroke-width: 0.8"/>
      </g>
     </g>
     <g id="text_11">
      <!-- 320 -->
      <g transform="translate(72.9125 50.400449)scale(0.1 -0.1)">
       <use xlink:href="#DejaVuSans-33"/>
       <use xlink:href="#DejaVuSans-32" x="63.623047"/>
       <use xlink:href="#DejaVuSans-30" x="127.246094"/>
      </g>
     </g>
    </g>
    <g id="text_12">
     <!-- Makespan -->
     <g transform="translate(66.832812 141.100469)rotate(-90)scale(0.1 -0.1)">
      <defs>
       <path id="DejaVuSans-4d" d="M 628 4666 
L 1569 4666 
L 2759 1491 
L 3956 4666 
L 4897 4666 
L 4897 0 
L 4281 0 
L 4281 4097 
L 3078 897 
L 2444 897 
L 1241 4097 
L 1241 0 
L 628 0 
L 628 4666 
z
" transform="scale(0.015625)"/>
       <path id="DejaVuSans-61" d="M 2194 1759 
Q 1497 1759 1228 1600 
Q 959 1441 959 1056 
Q 959 750 1161 570 
Q 1363 391 1709 391 
Q 2188 391 2477 730 
Q 2766 1069 2766 1631 
L 2766 1759 
L 2194 1759 
z
M 3341 1997 
L 3341 0 
L 2766 0 
L 2766 531 
Q 2569 213 2275 61 
Q 1981 -91 1556 -91 
Q 1019 -91 701 211 
Q 384 513 384 1019 
Q 384 1609 779 1909 
Q 1175 2209 1959 2209 
L 2766 2209 
L 2766 2266 
Q 2766 2663 2505 2880 
Q 2244 3097 1772 3097 
Q 1472 3097 1187 3025 
Q 903 2953 641 2809 
L 641 3341 
Q 956 3463 1253 3523 
Q 1550 3584 1831 3584 
Q 2591 3584 2966 3190 
Q 3341 2797 3341 1997 
z
" transform="scale(0.015625)"/>
       <path id="DejaVuSans-6b" d="M 581 4863 
L 1159 4863 
L 1159 1991 
L 2875 3500 
L 3609 3500 
L 1753 1863 
L 3688 0 
L 2938 0 
L 1159 1709 
L 1159 0 
L 581 0 
L 581 4863 
z
" transform="scale(0.015625)"/>
       <path id="DejaVuSans-6e" d="M 3513 2113 
L 3513 0 
L 2938 0 
L 2938 2094 
Q 2938 2591 2744 2837 
Q 2550 3084 2163 3084 
Q 1697 3084 1428 2787 
Q 1159 2491 1159 1978 
L 1159 0 
L 581 0 
L 581 3500 
L 1159 3500 
L 1159 2956 
Q 1366 3272 1645 3428 
Q 1925 3584 2291 3584 
Q 2894 3584 3203 3211 
Q 3513 2838 3513 2113 
z
" transform="scale(0.015625)"/>
      </defs>
      <use xlink:href="#DejaVuSans-4d"/>
      <use xlink:href="#DejaVuSans-61" x="86.279297"/>
      <use xlink:href="#DejaVuSans-6b" x="147.558594"/>
      <use xlink:href="#DejaVuSans-65" x="201.84375"/>
      <use xlink:href="#DejaVuSans-73" x="263.367188"/>
      <use xlink:href="#DejaVuSans-70" x="315.466797"/>
      <use xlink:href="#DejaVuSans-61" x="378.943359"/>
      <use xlink:href="#DejaVuSans-6e" x="440.222656"/>
     </g>
    </g>
   </g>
   <g id="line2d_11">
    <path d="M 111.681818 57.926331 
L 112.956373 57.619716 
L 114.230927 59.696782 
L 115.505482 58.143902 
L 116.780037 59.45941 
L 118.054591 55.94815 
L 119.329146 62.37724 
L 120.6037 55.918448 
L 121.878255 65.651127 
L 123.15281 64.484008 
L 124.427364 58.391175 
L 125.701919 56.076737 
L 126.976473 64.33562 
L 128.251028 65.522541 
L 129.525582 64.830165 
L 130.800137 60.567187 
L 132.074692 63.039913 
L 133.349246 62.941029 
L 134.623801 65.819256 
L 135.898355 65.779714 
L 137.17291 72.693449 
L 138.447465 67.896383 
L 139.722019 63.979562 
L 140.996574 64.780723 
L 142.271128 64.157591 
L 143.545683 65.008194 
L 144.820238 62.851984 
L 146.094792 62.901426 
L 147.369347 57.540572 
L 148.643901 67.194107 
L 149.918456 66.303901 
L 151.193011 69.112945 
L 153.74212 68.796429 
L 155.016674 71.140569 
L 156.291229 66.87759 
L 157.565783 70.00309 
L 158.840338 69.053602 
L 160.114893 73.009965 
L 161.389447 67.382036 
L 162.664002 64.029004 
L 163.938556 72.317589 
L 165.213111 77.055312 
L 166.487666 76.926725 
L 167.76222 75.799208 
L 169.036775 67.045719 
L 170.311329 71.249354 
L 171.585884 70.289965 
L 172.860439 69.172288 
L 174.134993 67.886482 
L 175.409548 71.002082 
L 176.684102 75.05739 
L 177.958657 74.048498 
L 179.233212 79.448955 
L 180.507766 76.056381 
L 181.782321 67.154565 
L 184.33143 75.779407 
L 185.605984 73.544052 
L 186.880539 79.725869 
L 188.155094 73.079208 
L 190.704203 75.284861 
L 191.978757 71.546069 
L 193.253312 68.460111 
L 194.527867 80.675418 
L 195.802421 74.068299 
L 197.076976 82.376625 
L 198.35153 77.322386 
L 199.626085 75.996978 
L 200.90064 72.386833 
L 202.175194 82.623898 
L 203.449749 81.090819 
L 204.724303 82.119452 
L 205.998858 78.163089 
L 207.273413 83.603088 
L 208.547967 81.931522 
L 209.822522 76.293753 
L 211.097076 77.98506 
L 212.371631 82.85143 
L 213.646185 86.402231 
L 214.92074 76.81794 
L 216.195295 84.02845 
L 217.469849 81.575464 
L 218.744404 83.276731 
L 220.018958 80.625975 
L 221.293513 80.596274 
L 222.568068 92.564247 
L 223.842622 79.617084 
L 225.117177 78.400521 
L 226.391731 77.510316 
L 227.666286 80.042385 
L 228.940841 85.97693 
L 230.215395 82.841529 
L 231.48995 81.150162 
L 232.764504 75.344204 
L 235.313614 80.892989 
L 236.588168 82.366724 
L 237.862723 76.135465 
L 239.137277 78.756579 
L 240.411832 79.9435 
L 241.686386 85.858244 
L 242.960941 79.261025 
L 244.235496 83.009657 
L 245.51005 84.938396 
L 246.784605 80.556732 
L 248.059159 86.550619 
L 249.333714 80.032485 
L 250.608269 79.646725 
L 251.882823 79.725869 
L 253.157378 78.558749 
L 254.431932 86.046173 
L 255.706487 83.009657 
L 256.981042 85.284554 
L 258.255596 84.048191 
L 259.530151 79.597282 
L 262.07926 80.843546 
L 263.353815 79.795113 
L 264.628369 80.447886 
L 265.902924 80.833646 
L 267.177478 79.35001 
L 268.452033 84.522995 
L 269.726587 77.935617 
L 271.001142 85.917587 
L 272.275697 82.841529 
L 273.550251 80.705059 
L 274.824806 82.287641 
L 276.09936 75.502432 
L 277.373915 82.85143 
L 278.64847 78.687336 
L 279.923024 80.190773 
L 281.197579 82.792086 
L 282.472133 82.564555 
L 283.746688 82.564555 
L 285.021243 78.331278 
L 286.295797 75.45299 
L 287.570352 73.929812 
L 288.844906 83.64269 
L 290.119461 86.244003 
L 291.394016 78.618092 
L 292.66857 83.959206 
L 293.943125 85.818702 
L 295.217679 79.409353 
L 296.492234 85.620871 
L 297.766788 81.605166 
L 299.041343 80.873248 
L 300.315898 84.522995 
L 301.590452 87.134149 
L 302.865007 87.223194 
L 304.139561 82.930513 
L 305.414116 83.64269 
L 306.688671 86.194561 
L 307.963225 91.149855 
L 309.23778 88.865058 
L 310.512334 81.802996 
L 311.786889 88.103499 
L 313.061444 83.25693 
L 314.335998 86.609962 
L 315.610553 87.816624 
L 316.885107 85.432942 
L 318.159662 88.70683 
L 319.434217 88.340871 
L 320.708771 86.224202 
L 321.983326 82.159054 
L 323.25788 84.869153 
L 324.532435 88.004554 
L 325.806989 86.95612 
L 327.081544 88.815615 
L 328.356099 87.767181 
L 329.630653 82.841529 
L 330.905208 86.995722 
L 332.179762 82.070009 
L 333.454317 88.32107 
L 334.728872 84.691124 
L 337.277981 88.785974 
L 339.82709 85.947288 
L 341.101645 86.056074 
L 342.376199 85.789 
L 343.650754 85.20547 
L 344.925308 83.197587 
L 346.199863 89.023346 
L 347.474418 82.970116 
L 348.748972 84.305364 
L 350.023527 87.618794 
L 351.298081 86.807792 
L 352.572636 88.271627 
L 353.84719 81.654608 
L 355.121745 87.391322 
L 356.3963 87.015463 
L 357.670854 89.221176 
L 358.945409 89.854148 
L 360.219963 87.450665 
L 361.494518 90.022337 
L 362.769073 89.181574 
L 364.043627 90.635569 
L 365.318182 87.450665 
L 365.318182 87.450665 
" clip-path="url(#pa4e7846c52)" style="fill: none; stroke: #1f77b4; stroke-width: 1.5; stroke-linecap: square"/>
   </g>
   <g id="line2d_12">
    <path d="M 111.681818 38.029091 
L 114.230927 50.557593 
L 116.780037 38.193959 
L 119.329146 75.44973 
L 121.878255 57.481228 
L 124.427364 72.482458 
L 126.976473 85.835182 
L 129.525582 99.682453 
L 132.074692 88.967263 
L 134.623801 91.604858 
L 137.17291 120.947903 
L 139.722019 112.046087 
L 142.271128 126.717579 
L 144.820238 139.575758 
L 147.369347 146.334524 
L 149.918456 167.10543 
L 152.467565 157.049714 
L 155.016674 152.104261 
L 157.565783 141.224263 
L 160.114893 126.882447 
L 162.664002 141.389071 
L 165.213111 154.24725 
L 167.76222 149.631534 
L 170.311329 157.049714 
L 172.860439 169.578156 
L 175.409548 176.996367 
L 177.958657 193.810909 
L 180.507766 179.139387 
L 183.056875 172.215752 
L 185.605984 144.68608 
L 188.155094 151.774523 
L 190.704203 170.23757 
L 193.253312 158.203613 
L 195.802421 175.677569 
L 198.35153 154.24725 
L 200.90064 165.292117 
L 203.449749 163.973349 
L 205.998858 166.281207 
L 208.547967 154.24725 
L 211.097076 185.238769 
L 213.646185 164.303026 
L 216.195295 173.864226 
L 218.744404 165.127248 
L 221.293513 171.721206 
L 223.842622 168.259389 
L 226.391731 176.172115 
L 228.940841 174.358772 
L 231.48995 154.906664 
L 234.039059 171.061792 
L 236.588168 170.732116 
L 239.137277 161.335754 
L 241.686386 180.458184 
L 244.235496 167.270298 
L 246.784605 173.039974 
L 249.333714 170.402439 
L 251.882823 182.601204 
L 254.431932 190.349092 
L 256.981042 179.79877 
L 259.530151 173.699388 
L 262.07926 174.358772 
L 264.628369 179.633932 
L 267.177478 165.621793 
L 269.726587 171.886075 
L 272.275697 174.193933 
L 274.824806 172.875166 
L 277.373915 174.193933 
L 279.923024 181.282407 
L 282.472133 176.66666 
L 285.021243 166.610884 
L 287.570352 170.072702 
L 290.119461 161.665431 
L 292.66857 166.610884 
L 295.217679 175.018185 
L 297.766788 177.985458 
L 300.315898 167.270298 
L 302.865007 171.061792 
L 305.414116 181.447275 
L 307.963225 179.469094 
L 310.512334 185.403638 
L 313.061444 183.920002 
L 315.610553 177.985458 
L 318.159662 178.644841 
L 320.708771 184.08484 
L 323.25788 177.820589 
L 325.806989 191.338182 
L 328.356099 173.864226 
L 330.905208 161.995168 
L 333.454317 171.39153 
L 336.003426 183.09575 
L 338.552535 174.853317 
L 341.101645 175.512731 
L 343.650754 187.052112 
L 346.199863 171.721206 
L 348.748972 175.512731 
L 351.298081 177.985458 
L 353.84719 175.347862 
L 356.3963 188.865456 
L 358.945409 182.766043 
L 361.494518 175.512731 
L 364.043627 177.326044 
" clip-path="url(#pa4e7846c52)" style="fill: none; stroke: #ff7f0e; stroke-width: 1.5; stroke-linecap: square"/>
   </g>
   <g id="patch_3">
    <path d="M 99 201.6 
L 99 30.24 
" style="fill: none; stroke: #000000; stroke-width: 0.8; stroke-linejoin: miter; stroke-linecap: square"/>
   </g>
   <g id="patch_4">
    <path d="M 378 201.6 
L 378 30.24 
" style="fill: none; stroke: #000000; stroke-width: 0.8; stroke-linejoin: miter; stroke-linecap: square"/>
   </g>
   <g id="patch_5">
    <path d="M 99 201.6 
L 378 201.6 
" style="fill: none; stroke: #000000; stroke-width: 0.8; stroke-linejoin: miter; stroke-linecap: square"/>
   </g>
   <g id="patch_6">
    <path d="M 99 30.24 
L 378 30.24 
" style="fill: none; stroke: #000000; stroke-width: 0.8; stroke-linejoin: miter; stroke-linecap: square"/>
   </g>
   <g id="text_13">
    <!-- MK03 -->
    <g transform="translate(221.753437 20.24)scale(0.12 -0.12)">
     <defs>
      <path id="DejaVuSans-4b" d="M 628 4666 
L 1259 4666 
L 1259 2694 
L 3353 4666 
L 4166 4666 
L 1850 2491 
L 4331 0 
L 3500 0 
L 1259 2247 
L 1259 0 
L 628 0 
L 628 4666 
z
" transform="scale(0.015625)"/>
     </defs>
     <use xlink:href="#DejaVuSans-4d"/>
     <use xlink:href="#DejaVuSans-4b" x="86.279297"/>
     <use xlink:href="#DejaVuSans-30" x="151.855469"/>
     <use xlink:href="#DejaVuSans-33" x="215.478516"/>
    </g>
   </g>
   <g id="legend_1">
    <g id="patch_7">
     <path d="M 289.61875 67.59625 
L 371 67.59625 
Q 373 67.59625 373 65.59625 
L 373 37.24 
Q 373 35.24 371 35.24 
L 289.61875 35.24 
Q 287.61875 35.24 287.61875 37.24 
L 287.61875 65.59625 
Q 287.61875 67.59625 289.61875 67.59625 
z
" style="fill: #ffffff; opacity: 0.8; stroke: #cccccc; stroke-linejoin: miter"/>
    </g>
    <g id="line2d_13">
     <path d="M 291.61875 43.338437 
L 301.61875 43.338437 
L 311.61875 43.338437 
" style="fill: none; stroke: #1f77b4; stroke-width: 1.5; stroke-linecap: square"/>
    </g>
    <g id="text_14">
     <!-- Training -->
     <g transform="translate(319.61875 46.838437)scale(0.1 -0.1)">
      <defs>
       <path id="DejaVuSans-54" d="M -19 4666 
L 3928 4666 
L 3928 4134 
L 2272 4134 
L 2272 0 
L 1638 0 
L 1638 4134 
L -19 4134 
L -19 4666 
z
" transform="scale(0.015625)"/>
       <path id="DejaVuSans-67" d="M 2906 1791 
Q 2906 2416 2648 2759 
Q 2391 3103 1925 3103 
Q 1463 3103 1205 2759 
Q 947 2416 947 1791 
Q 947 1169 1205 825 
Q 1463 481 1925 481 
Q 2391 481 2648 825 
Q 2906 1169 2906 1791 
z
M 3481 434 
Q 3481 -459 3084 -895 
Q 2688 -1331 1869 -1331 
Q 1566 -1331 1297 -1286 
Q 1028 -1241 775 -1147 
L 775 -588 
Q 1028 -725 1275 -790 
Q 1522 -856 1778 -856 
Q 2344 -856 2625 -561 
Q 2906 -266 2906 331 
L 2906 616 
Q 2728 306 2450 153 
Q 2172 0 1784 0 
Q 1141 0 747 490 
Q 353 981 353 1791 
Q 353 2603 747 3093 
Q 1141 3584 1784 3584 
Q 2172 3584 2450 3431 
Q 2728 3278 2906 2969 
L 2906 3500 
L 3481 3500 
L 3481 434 
z
" transform="scale(0.015625)"/>
      </defs>
      <use xlink:href="#DejaVuSans-54"/>
      <use xlink:href="#DejaVuSans-72" x="46.333984"/>
      <use xlink:href="#DejaVuSans-61" x="87.447266"/>
      <use xlink:href="#DejaVuSans-69" x="148.726562"/>
      <use xlink:href="#DejaVuSans-6e" x="176.509766"/>
      <use xlink:href="#DejaVuSans-69" x="239.888672"/>
      <use xlink:href="#DejaVuSans-6e" x="267.671875"/>
      <use xlink:href="#DejaVuSans-67" x="331.050781"/>
     </g>
    </g>
    <g id="line2d_14">
     <path d="M 291.61875 58.016562 
L 301.61875 58.016562 
L 311.61875 58.016562 
" style="fill: none; stroke: #ff7f0e; stroke-width: 1.5; stroke-linecap: square"/>
    </g>
    <g id="text_15">
     <!-- Validation -->
     <g transform="translate(319.61875 61.516562)scale(0.1 -0.1)">
      <defs>
       <path id="DejaVuSans-56" d="M 1831 0 
L 50 4666 
L 709 4666 
L 2188 738 
L 3669 4666 
L 4325 4666 
L 2547 0 
L 1831 0 
z
" transform="scale(0.015625)"/>
       <path id="DejaVuSans-6c" d="M 603 4863 
L 1178 4863 
L 1178 0 
L 603 0 
L 603 4863 
z
" transform="scale(0.015625)"/>
       <path id="DejaVuSans-74" d="M 1172 4494 
L 1172 3500 
L 2356 3500 
L 2356 3053 
L 1172 3053 
L 1172 1153 
Q 1172 725 1289 603 
Q 1406 481 1766 481 
L 2356 481 
L 2356 0 
L 1766 0 
Q 1100 0 847 248 
Q 594 497 594 1153 
L 594 3053 
L 172 3053 
L 172 3500 
L 594 3500 
L 594 4494 
L 1172 4494 
z
" transform="scale(0.015625)"/>
      </defs>
      <use xlink:href="#DejaVuSans-56"/>
      <use xlink:href="#DejaVuSans-61" x="60.658203"/>
      <use xlink:href="#DejaVuSans-6c" x="121.9375"/>
      <use xlink:href="#DejaVuSans-69" x="149.720703"/>
      <use xlink:href="#DejaVuSans-64" x="177.503906"/>
      <use xlink:href="#DejaVuSans-61" x="240.980469"/>
      <use xlink:href="#DejaVuSans-74" x="302.259766"/>
      <use xlink:href="#DejaVuSans-69" x="341.46875"/>
      <use xlink:href="#DejaVuSans-6f" x="369.251953"/>
      <use xlink:href="#DejaVuSans-6e" x="430.433594"/>
     </g>
    </g>
   </g>
  </g>
  <g id="axes_2">
   <g id="patch_8">
    <path d="M 433.8 201.6 
L 712.8 201.6 
L 712.8 30.24 
L 433.8 30.24 
z
" style="fill: #ffffff"/>
   </g>
   <g id="matplotlib.axis_3">
    <g id="xtick_7">
     <g id="line2d_15">
      <g>
       <use xlink:href="#m4c99b40b58" x="446.481818" y="201.6" style="stroke: #000000; stroke-width: 0.8"/>
      </g>
     </g>
     <g id="text_16">
      <!-- 0 -->
      <g transform="translate(443.300568 216.198437)scale(0.1 -0.1)">
       <use xlink:href="#DejaVuSans-30"/>
      </g>
     </g>
    </g>
    <g id="xtick_8">
     <g id="line2d_16">
      <g>
       <use xlink:href="#m4c99b40b58" x="497.464002" y="201.6" style="stroke: #000000; stroke-width: 0.8"/>
      </g>
     </g>
     <g id="text_17">
      <!-- 2000 -->
      <g transform="translate(484.739002 216.198437)scale(0.1 -0.1)">
       <use xlink:href="#DejaVuSans-32"/>
       <use xlink:href="#DejaVuSans-30" x="63.623047"/>
       <use xlink:href="#DejaVuSans-30" x="127.246094"/>
       <use xlink:href="#DejaVuSans-30" x="190.869141"/>
      </g>
     </g>
    </g>
    <g id="xtick_9">
     <g id="line2d_17">
      <g>
       <use xlink:href="#m4c99b40b58" x="548.446185" y="201.6" style="stroke: #000000; stroke-width: 0.8"/>
      </g>
     </g>
     <g id="text_18">
      <!-- 4000 -->
      <g transform="translate(535.721185 216.198437)scale(0.1 -0.1)">
       <use xlink:href="#DejaVuSans-34"/>
       <use xlink:href="#DejaVuSans-30" x="63.623047"/>
       <use xlink:href="#DejaVuSans-30" x="127.246094"/>
       <use xlink:href="#DejaVuSans-30" x="190.869141"/>
      </g>
     </g>
    </g>
    <g id="xtick_10">
     <g id="line2d_18">
      <g>
       <use xlink:href="#m4c99b40b58" x="599.428369" y="201.6" style="stroke: #000000; stroke-width: 0.8"/>
      </g>
     </g>
     <g id="text_19">
      <!-- 6000 -->
      <g transform="translate(586.703369 216.198437)scale(0.1 -0.1)">
       <use xlink:href="#DejaVuSans-36"/>
       <use xlink:href="#DejaVuSans-30" x="63.623047"/>
       <use xlink:href="#DejaVuSans-30" x="127.246094"/>
       <use xlink:href="#DejaVuSans-30" x="190.869141"/>
      </g>
     </g>
    </g>
    <g id="xtick_11">
     <g id="line2d_19">
      <g>
       <use xlink:href="#m4c99b40b58" x="650.410553" y="201.6" style="stroke: #000000; stroke-width: 0.8"/>
      </g>
     </g>
     <g id="text_20">
      <!-- 8000 -->
      <g transform="translate(637.685553 216.198437)scale(0.1 -0.1)">
       <use xlink:href="#DejaVuSans-38"/>
       <use xlink:href="#DejaVuSans-30" x="63.623047"/>
       <use xlink:href="#DejaVuSans-30" x="127.246094"/>
       <use xlink:href="#DejaVuSans-30" x="190.869141"/>
      </g>
     </g>
    </g>
    <g id="xtick_12">
     <g id="line2d_20">
      <g>
       <use xlink:href="#m4c99b40b58" x="701.392736" y="201.6" style="stroke: #000000; stroke-width: 0.8"/>
      </g>
     </g>
     <g id="text_21">
      <!-- 10000 -->
      <g transform="translate(685.486486 216.198437)scale(0.1 -0.1)">
       <use xlink:href="#DejaVuSans-31"/>
       <use xlink:href="#DejaVuSans-30" x="63.623047"/>
       <use xlink:href="#DejaVuSans-30" x="127.246094"/>
       <use xlink:href="#DejaVuSans-30" x="190.869141"/>
       <use xlink:href="#DejaVuSans-30" x="254.492188"/>
      </g>
     </g>
    </g>
    <g id="text_22">
     <!-- Number of episodes -->
     <g transform="translate(523.057031 229.876562)scale(0.1 -0.1)">
      <use xlink:href="#DejaVuSans-4e"/>
      <use xlink:href="#DejaVuSans-75" x="74.804688"/>
      <use xlink:href="#DejaVuSans-6d" x="138.183594"/>
      <use xlink:href="#DejaVuSans-62" x="235.595703"/>
      <use xlink:href="#DejaVuSans-65" x="299.072266"/>
      <use xlink:href="#DejaVuSans-72" x="360.595703"/>
      <use xlink:href="#DejaVuSans-20" x="401.708984"/>
      <use xlink:href="#DejaVuSans-6f" x="433.496094"/>
      <use xlink:href="#DejaVuSans-66" x="494.677734"/>
      <use xlink:href="#DejaVuSans-20" x="529.882812"/>
      <use xlink:href="#DejaVuSans-65" x="561.669922"/>
      <use xlink:href="#DejaVuSans-70" x="623.193359"/>
      <use xlink:href="#DejaVuSans-69" x="686.669922"/>
      <use xlink:href="#DejaVuSans-73" x="714.453125"/>
      <use xlink:href="#DejaVuSans-6f" x="766.552734"/>
      <use xlink:href="#DejaVuSans-64" x="827.734375"/>
      <use xlink:href="#DejaVuSans-65" x="891.210938"/>
      <use xlink:href="#DejaVuSans-73" x="952.734375"/>
     </g>
    </g>
   </g>
   <g id="matplotlib.axis_4">
    <g id="ytick_5">
     <g id="line2d_21">
      <g>
       <use xlink:href="#mb0ce6541a1" x="433.8" y="192.945428" style="stroke: #000000; stroke-width: 0.8"/>
      </g>
     </g>
     <g id="text_23">
      <!-- 90.0 -->
      <g transform="translate(404.534375 196.744647)scale(0.1 -0.1)">
       <defs>
        <path id="DejaVuSans-39" d="M 703 97 
L 703 672 
Q 941 559 1184 500 
Q 1428 441 1663 441 
Q 2288 441 2617 861 
Q 2947 1281 2994 2138 
Q 2813 1869 2534 1725 
Q 2256 1581 1919 1581 
Q 1219 1581 811 2004 
Q 403 2428 403 3163 
Q 403 3881 828 4315 
Q 1253 4750 1959 4750 
Q 2769 4750 3195 4129 
Q 3622 3509 3622 2328 
Q 3622 1225 3098 567 
Q 2575 -91 1691 -91 
Q 1453 -91 1209 -44 
Q 966 3 703 97 
z
M 1959 2075 
Q 2384 2075 2632 2365 
Q 2881 2656 2881 3163 
Q 2881 3666 2632 3958 
Q 2384 4250 1959 4250 
Q 1534 4250 1286 3958 
Q 1038 3666 1038 3163 
Q 1038 2656 1286 2365 
Q 1534 2075 1959 2075 
z
" transform="scale(0.015625)"/>
        <path id="DejaVuSans-2e" d="M 684 794 
L 1344 794 
L 1344 0 
L 684 0 
L 684 794 
z
" transform="scale(0.015625)"/>
       </defs>
       <use xlink:href="#DejaVuSans-39"/>
       <use xlink:href="#DejaVuSans-30" x="63.623047"/>
       <use xlink:href="#DejaVuSans-2e" x="127.246094"/>
       <use xlink:href="#DejaVuSans-30" x="159.033203"/>
      </g>
     </g>
    </g>
    <g id="ytick_6">
     <g id="line2d_22">
      <g>
       <use xlink:href="#mb0ce6541a1" x="433.8" y="166.981792" style="stroke: #000000; stroke-width: 0.8"/>
      </g>
     </g>
     <g id="text_24">
      <!-- 92.5 -->
      <g transform="translate(404.534375 170.781011)scale(0.1 -0.1)">
       <defs>
        <path id="DejaVuSans-35" d="M 691 4666 
L 3169 4666 
L 3169 4134 
L 1269 4134 
L 1269 2991 
Q 1406 3038 1543 3061 
Q 1681 3084 1819 3084 
Q 2600 3084 3056 2656 
Q 3513 2228 3513 1497 
Q 3513 744 3044 326 
Q 2575 -91 1722 -91 
Q 1428 -91 1123 -41 
Q 819 9 494 109 
L 494 744 
Q 775 591 1075 516 
Q 1375 441 1709 441 
Q 2250 441 2565 725 
Q 2881 1009 2881 1497 
Q 2881 1984 2565 2268 
Q 2250 2553 1709 2553 
Q 1456 2553 1204 2497 
Q 953 2441 691 2322 
L 691 4666 
z
" transform="scale(0.015625)"/>
       </defs>
       <use xlink:href="#DejaVuSans-39"/>
       <use xlink:href="#DejaVuSans-32" x="63.623047"/>
       <use xlink:href="#DejaVuSans-2e" x="127.246094"/>
       <use xlink:href="#DejaVuSans-35" x="159.033203"/>
      </g>
     </g>
    </g>
    <g id="ytick_7">
     <g id="line2d_23">
      <g>
       <use xlink:href="#mb0ce6541a1" x="433.8" y="141.018155" style="stroke: #000000; stroke-width: 0.8"/>
      </g>
     </g>
     <g id="text_25">
      <!-- 95.0 -->
      <g transform="translate(404.534375 144.817374)scale(0.1 -0.1)">
       <use xlink:href="#DejaVuSans-39"/>
       <use xlink:href="#DejaVuSans-35" x="63.623047"/>
       <use xlink:href="#DejaVuSans-2e" x="127.246094"/>
       <use xlink:href="#DejaVuSans-30" x="159.033203"/>
      </g>
     </g>
    </g>
    <g id="ytick_8">
     <g id="line2d_24">
      <g>
       <use xlink:href="#mb0ce6541a1" x="433.8" y="115.054519" style="stroke: #000000; stroke-width: 0.8"/>
      </g>
     </g>
     <g id="text_26">
      <!-- 97.5 -->
      <g transform="translate(404.534375 118.853738)scale(0.1 -0.1)">
       <defs>
        <path id="DejaVuSans-37" d="M 525 4666 
L 3525 4666 
L 3525 4397 
L 1831 0 
L 1172 0 
L 2766 4134 
L 525 4134 
L 525 4666 
z
" transform="scale(0.015625)"/>
       </defs>
       <use xlink:href="#DejaVuSans-39"/>
       <use xlink:href="#DejaVuSans-37" x="63.623047"/>
       <use xlink:href="#DejaVuSans-2e" x="127.246094"/>
       <use xlink:href="#DejaVuSans-35" x="159.033203"/>
      </g>
     </g>
    </g>
    <g id="ytick_9">
     <g id="line2d_25">
      <g>
       <use xlink:href="#mb0ce6541a1" x="433.8" y="89.090883" style="stroke: #000000; stroke-width: 0.8"/>
      </g>
     </g>
     <g id="text_27">
      <!-- 100.0 -->
      <g transform="translate(398.171875 92.890101)scale(0.1 -0.1)">
       <use xlink:href="#DejaVuSans-31"/>
       <use xlink:href="#DejaVuSans-30" x="63.623047"/>
       <use xlink:href="#DejaVuSans-30" x="127.246094"/>
       <use xlink:href="#DejaVuSans-2e" x="190.869141"/>
       <use xlink:href="#DejaVuSans-30" x="222.65625"/>
      </g>
     </g>
    </g>
    <g id="ytick_10">
     <g id="line2d_26">
      <g>
       <use xlink:href="#mb0ce6541a1" x="433.8" y="63.127246" style="stroke: #000000; stroke-width: 0.8"/>
      </g>
     </g>
     <g id="text_28">
      <!-- 102.5 -->
      <g transform="translate(398.171875 66.926465)scale(0.1 -0.1)">
       <use xlink:href="#DejaVuSans-31"/>
       <use xlink:href="#DejaVuSans-30" x="63.623047"/>
       <use xlink:href="#DejaVuSans-32" x="127.246094"/>
       <use xlink:href="#DejaVuSans-2e" x="190.869141"/>
       <use xlink:href="#DejaVuSans-35" x="222.65625"/>
      </g>
     </g>
    </g>
    <g id="ytick_11">
     <g id="line2d_27">
      <g>
       <use xlink:href="#mb0ce6541a1" x="433.8" y="37.16361" style="stroke: #000000; stroke-width: 0.8"/>
      </g>
     </g>
     <g id="text_29">
      <!-- 105.0 -->
      <g transform="translate(398.171875 40.962829)scale(0.1 -0.1)">
       <use xlink:href="#DejaVuSans-31"/>
       <use xlink:href="#DejaVuSans-30" x="63.623047"/>
       <use xlink:href="#DejaVuSans-35" x="127.246094"/>
       <use xlink:href="#DejaVuSans-2e" x="190.869141"/>
       <use xlink:href="#DejaVuSans-30" x="222.65625"/>
      </g>
     </g>
    </g>
    <g id="text_30">
     <!-- Makespan -->
     <g transform="translate(392.092187 141.100469)rotate(-90)scale(0.1 -0.1)">
      <use xlink:href="#DejaVuSans-4d"/>
      <use xlink:href="#DejaVuSans-61" x="86.279297"/>
      <use xlink:href="#DejaVuSans-6b" x="147.558594"/>
      <use xlink:href="#DejaVuSans-65" x="201.84375"/>
      <use xlink:href="#DejaVuSans-73" x="263.367188"/>
      <use xlink:href="#DejaVuSans-70" x="315.466797"/>
      <use xlink:href="#DejaVuSans-61" x="378.943359"/>
      <use xlink:href="#DejaVuSans-6e" x="440.222656"/>
     </g>
    </g>
   </g>
   <g id="line2d_28">
    <path d="M 446.481818 58.142193 
L 447.756373 45.67968 
L 449.030927 54.455401 
L 450.305482 70.033583 
L 451.580037 54.299626 
L 452.854591 57.051765 
L 454.129146 56.169011 
L 455.4037 67.904546 
L 456.678255 60.94631 
L 457.95281 72.110642 
L 459.227364 49.626124 
L 460.501919 81.769118 
L 461.776473 38.981096 
L 463.051028 59.128824 
L 464.325582 59.492353 
L 465.600137 54.14385 
L 466.874692 58.609599 
L 468.149246 76.732166 
L 469.423801 45.783556 
L 470.698355 58.24607 
L 471.97291 65.308182 
L 473.247465 47.70484 
L 474.522019 43.083316 
L 475.796574 61.413637 
L 477.071128 58.557621 
L 478.345683 46.043208 
L 479.620238 58.349947 
L 480.894792 66.76214 
L 482.169347 84.41746 
L 483.443901 66.502487 
L 484.718456 64.425428 
L 485.993011 59.803904 
L 487.267565 49.73 
L 488.54212 50.197327 
L 489.816674 69.410481 
L 491.091229 61.725188 
L 492.365783 75.953289 
L 493.640338 69.514279 
L 494.914893 52.689893 
L 496.189447 90.129412 
L 497.464002 56.169011 
L 498.738556 62.244492 
L 500.013111 73.720375 
L 501.287666 69.514279 
L 502.56222 61.777166 
L 503.836775 78.809305 
L 505.111329 49.678102 
L 506.385884 87.740802 
L 507.660439 72.993396 
L 508.934993 53.261096 
L 510.209548 52.741792 
L 511.484102 66.035161 
L 512.758657 64.425428 
L 514.033212 86.858048 
L 515.307766 66.294813 
L 516.582321 56.117033 
L 519.13143 82.859626 
L 520.405984 69.306604 
L 521.680539 59.544252 
L 522.955094 72.733823 
L 524.229648 64.996631 
L 525.504203 61.050187 
L 526.778757 63.438797 
L 528.053312 72.006845 
L 529.327867 39.967648 
L 530.602421 65.619733 
L 533.15153 76.26484 
L 534.426085 55.961257 
L 535.70064 88.415803 
L 536.975194 52.534118 
L 538.249749 60.998209 
L 539.524303 84.313583 
L 540.798858 71.85099 
L 542.073413 74.603208 
L 543.347967 82.496097 
L 544.622522 82.236445 
L 545.897076 91.271819 
L 547.171631 62.65992 
L 548.446185 77.355348 
L 549.72074 75.382086 
L 550.995295 65.100508 
L 552.269849 78.861204 
L 553.544404 74.707006 
L 554.818958 64.892755 
L 556.093513 65.412059 
L 557.368068 74.758984 
L 558.642622 56.428663 
L 559.917177 79.172755 
L 561.191731 70.397033 
L 562.466286 80.159385 
L 563.740841 70.656685 
L 565.015395 44.485374 
L 566.28995 64.425428 
L 567.564504 76.26484 
L 568.839059 74.395455 
L 570.113614 94.595161 
L 571.388168 79.847834 
L 572.662723 85.819439 
L 573.937277 86.650295 
L 575.211832 68.42385 
L 576.486386 72.837621 
L 577.760941 75.485963 
L 579.035496 72.214519 
L 580.31005 79.484306 
L 581.584605 82.755749 
L 582.859159 85.144438 
L 584.133714 64.425428 
L 585.408269 74.291578 
L 586.682823 77.770775 
L 587.957378 89.298557 
L 589.231932 74.447354 
L 590.506487 78.29 
L 591.781042 70.241257 
L 593.055596 71.072113 
L 594.330151 73.045374 
L 595.604705 63.386899 
L 596.87926 65.256284 
L 598.153815 84.261684 
L 599.428369 73.149172 
L 600.702924 72.785722 
L 601.977478 74.55123 
L 603.252033 81.976872 
L 604.526587 73.928129 
L 605.801142 71.279866 
L 607.075697 59.336578 
L 608.350251 86.234867 
L 609.624806 78.238102 
L 610.89936 77.459145 
L 612.173915 73.668476 
L 613.44847 75.58976 
L 614.723024 97.503076 
L 615.997579 66.76214 
L 617.272133 72.474171 
L 618.546688 82.392299 
L 619.821243 77.199572 
L 621.095797 90.337166 
L 622.370352 84.832808 
L 623.644906 86.961845 
L 624.919461 69.877808 
L 626.194016 87.585027 
L 627.46857 71.954867 
L 630.017679 81.353691 
L 631.292234 92.206551 
L 632.566788 85.975215 
L 633.841343 83.326952 
L 635.115898 76.472593 
L 636.390452 96.30877 
L 637.665007 81.561444 
L 638.939561 78.96508 
L 640.214116 73.772353 
L 641.488671 107.161551 
L 642.763225 88.987006 
L 644.03778 83.846257 
L 645.312334 68.7873 
L 646.586889 73.149172 
L 647.861444 85.76754 
L 649.135998 58.973049 
L 650.410553 73.87623 
L 651.685107 83.950054 
L 652.959662 83.119278 
L 654.234217 74.343556 
L 655.508771 79.847834 
L 656.783326 108.875161 
L 658.05788 83.898155 
L 659.332435 73.045374 
L 660.606989 73.20115 
L 661.881544 69.150829 
L 663.156099 79.536284 
L 664.430653 70.864438 
L 665.705208 88.312005 
L 666.979762 82.70385 
L 668.254317 82.132647 
L 669.528872 80.938263 
L 670.803426 72.993396 
L 672.077981 68.839278 
L 673.352535 82.651872 
L 674.62709 100.099439 
L 675.901645 65.671711 
L 677.176199 69.877808 
L 678.450754 91.635348 
L 679.725308 76.991819 
L 680.999863 89.86976 
L 682.274418 99.216685 
L 683.548972 88.052353 
L 684.823527 84.365482 
L 686.098081 84.884786 
L 687.372636 66.39869 
L 688.64719 80.67869 
L 689.921745 83.794279 
L 691.1963 90.804492 
L 692.470854 81.146016 
L 693.745409 84.10583 
L 695.019963 80.00361 
L 696.294518 84.157808 
L 697.569073 80.055509 
L 698.843627 71.954867 
L 700.118182 72.370295 
L 700.118182 72.370295 
" clip-path="url(#p4a3f77b626)" style="fill: none; stroke: #1f77b4; stroke-width: 1.5; stroke-linecap: square"/>
   </g>
   <g id="line2d_29">
    <path d="M 446.481818 38.029091 
L 449.030927 66.589091 
L 451.580037 94.28361 
L 454.129146 90.821765 
L 456.678255 68.319974 
L 459.227364 83.898155 
L 461.776473 95.149091 
L 464.325582 64.858129 
L 466.874692 95.149091 
L 469.423801 76.974545 
L 471.97291 63.992727 
L 474.522019 68.319974 
L 477.071128 100.341818 
L 479.620238 114.189038 
L 482.169347 121.978129 
L 484.718456 77.839947 
L 487.267565 94.28361 
L 489.816674 126.305455 
L 492.365783 102.938182 
L 494.914893 121.112727 
L 497.464002 105.534545 
L 500.013111 63.992727 
L 502.56222 135.825428 
L 505.111329 121.112727 
L 507.660439 141.018155 
L 510.209548 126.305455 
L 512.758657 137.556311 
L 515.307766 148.807246 
L 517.856875 137.556311 
L 520.405984 78.705428 
L 522.955094 116.785402 
L 525.504203 137.556311 
L 528.053312 121.112727 
L 530.602421 116.785402 
L 533.15153 147.076364 
L 535.70064 136.690909 
L 538.249749 146.210883 
L 540.798858 119.381765 
L 543.347967 141.018155 
L 545.897076 141.883636 
L 548.446185 148.807246 
L 550.995295 133.229064 
L 553.544404 158.32722 
L 556.093513 138.421792 
L 558.642622 164.385428 
L 561.191731 135.825428 
L 563.740841 188.618182 
L 566.28995 183.425455 
L 568.839059 161.789064 
L 571.388168 129.76722 
L 573.937277 156.596337 
L 576.486386 132.363584 
L 579.035496 121.112727 
L 581.584605 172.174519 
L 584.133714 146.210883 
L 586.682823 161.789064 
L 589.231932 163.519947 
L 591.781042 185.156337 
L 594.330151 187.752701 
L 596.87926 187.752701 
L 599.428369 180.829091 
L 601.977478 181.694493 
L 604.526587 166.116311 
L 607.075697 186.021818 
L 609.624806 166.116311 
L 612.173915 181.694493 
L 614.723024 170.443636 
L 617.272133 167.847273 
L 619.821243 163.519947 
L 622.370352 176.501765 
L 624.919461 180.829091 
L 627.46857 181.694493 
L 630.017679 159.192701 
L 632.566788 164.385428 
L 635.115898 167.847273 
L 637.665007 167.847273 
L 640.214116 165.250909 
L 642.763225 152.269091 
L 645.312334 164.385428 
L 647.861444 166.116311 
L 650.410553 160.058182 
L 652.959662 182.559974 
L 655.508771 173.905402 
L 658.05788 176.501765 
L 660.606989 185.156337 
L 663.156099 176.501765 
L 665.705208 134.094545 
L 668.254317 166.981792 
L 670.803426 134.959947 
L 673.352535 162.654545 
L 675.901645 182.559974 
L 678.450754 187.752701 
L 680.999863 169.578155 
L 683.548972 183.425455 
L 686.098081 187.752701 
L 688.64719 193.810909 
L 691.1963 151.40361 
L 693.745409 166.116311 
L 696.294518 158.32722 
L 698.843627 143.614519 
" clip-path="url(#p4a3f77b626)" style="fill: none; stroke: #ff7f0e; stroke-width: 1.5; stroke-linecap: square"/>
   </g>
   <g id="patch_9">
    <path d="M 433.8 201.6 
L 433.8 30.24 
" style="fill: none; stroke: #000000; stroke-width: 0.8; stroke-linejoin: miter; stroke-linecap: square"/>
   </g>
   <g id="patch_10">
    <path d="M 712.8 201.6 
L 712.8 30.24 
" style="fill: none; stroke: #000000; stroke-width: 0.8; stroke-linejoin: miter; stroke-linecap: square"/>
   </g>
   <g id="patch_11">
    <path d="M 433.8 201.6 
L 712.8 201.6 
" style="fill: none; stroke: #000000; stroke-width: 0.8; stroke-linejoin: miter; stroke-linecap: square"/>
   </g>
   <g id="patch_12">
    <path d="M 433.8 30.24 
L 712.8 30.24 
" style="fill: none; stroke: #000000; stroke-width: 0.8; stroke-linejoin: miter; stroke-linecap: square"/>
   </g>
   <g id="text_31">
    <!-- MK04 -->
    <g transform="translate(556.553437 20.24)scale(0.12 -0.12)">
     <use xlink:href="#DejaVuSans-4d"/>
     <use xlink:href="#DejaVuSans-4b" x="86.279297"/>
     <use xlink:href="#DejaVuSans-30" x="151.855469"/>
     <use xlink:href="#DejaVuSans-34" x="215.478516"/>
    </g>
   </g>
   <g id="legend_2">
    <g id="patch_13">
     <path d="M 440.8 196.6 
L 522.18125 196.6 
Q 524.18125 196.6 524.18125 194.6 
L 524.18125 166.24375 
Q 524.18125 164.24375 522.18125 164.24375 
L 440.8 164.24375 
Q 438.8 164.24375 438.8 166.24375 
L 438.8 194.6 
Q 438.8 196.6 440.8 196.6 
z
" style="fill: #ffffff; opacity: 0.8; stroke: #cccccc; stroke-linejoin: miter"/>
    </g>
    <g id="line2d_30">
     <path d="M 442.8 172.342187 
L 452.8 172.342187 
L 462.8 172.342187 
" style="fill: none; stroke: #1f77b4; stroke-width: 1.5; stroke-linecap: square"/>
    </g>
    <g id="text_32">
     <!-- Training -->
     <g transform="translate(470.8 175.842187)scale(0.1 -0.1)">
      <use xlink:href="#DejaVuSans-54"/>
      <use xlink:href="#DejaVuSans-72" x="46.333984"/>
      <use xlink:href="#DejaVuSans-61" x="87.447266"/>
      <use xlink:href="#DejaVuSans-69" x="148.726562"/>
      <use xlink:href="#DejaVuSans-6e" x="176.509766"/>
      <use xlink:href="#DejaVuSans-69" x="239.888672"/>
      <use xlink:href="#DejaVuSans-6e" x="267.671875"/>
      <use xlink:href="#DejaVuSans-67" x="331.050781"/>
     </g>
    </g>
    <g id="line2d_31">
     <path d="M 442.8 187.020312 
L 452.8 187.020312 
L 462.8 187.020312 
" style="fill: none; stroke: #ff7f0e; stroke-width: 1.5; stroke-linecap: square"/>
    </g>
    <g id="text_33">
     <!-- Validation -->
     <g transform="translate(470.8 190.520312)scale(0.1 -0.1)">
      <use xlink:href="#DejaVuSans-56"/>
      <use xlink:href="#DejaVuSans-61" x="60.658203"/>
      <use xlink:href="#DejaVuSans-6c" x="121.9375"/>
      <use xlink:href="#DejaVuSans-69" x="149.720703"/>
      <use xlink:href="#DejaVuSans-64" x="177.503906"/>
      <use xlink:href="#DejaVuSans-61" x="240.980469"/>
      <use xlink:href="#DejaVuSans-74" x="302.259766"/>
      <use xlink:href="#DejaVuSans-69" x="341.46875"/>
      <use xlink:href="#DejaVuSans-6f" x="369.251953"/>
      <use xlink:href="#DejaVuSans-6e" x="430.433594"/>
     </g>
    </g>
   </g>
  </g>
 </g>
 <defs>
  <clipPath id="pa4e7846c52">
   <rect x="99" y="30.24" width="279" height="171.36"/>
  </clipPath>
  <clipPath id="p4a3f77b626">
   <rect x="433.8" y="30.24" width="279" height="171.36"/>
  </clipPath>
 </defs>
</svg>
