<?xml version="1.0" encoding="utf-8" standalone="no"?>
<!DOCTYPE svg PUBLIC "-//W3C//DTD SVG 1.1//EN"
  "http://www.w3.org/Graphics/SVG/1.1/DTD/svg11.dtd">
<svg xmlns:xlink="http://www.w3.org/1999/xlink" width="684pt" height="252pt" viewBox="0 0 684 252" xmlns="http://www.w3.org/2000/svg" version="1.1">
 <metadata>
  <rdf:RDF xmlns:dc="http://purl.org/dc/elements/1.1/" xmlns:cc="http://creativecommons.org/ns#" xmlns:rdf="http://www.w3.org/1999/02/22-rdf-syntax-ns#">
   <cc:Work>
    <dc:type rdf:resource="http://purl.org/dc/dcmitype/StillImage"/>
    <dc:date>2022-07-03T16:25:50.015194</dc:date>
    <dc:format>image/svg+xml</dc:format>
    <dc:creator>
     <cc:Agent>
      <dc:title>Matplotlib v3.5.1, https://matplotlib.org/</dc:title>
     </cc:Agent>
    </dc:creator>
   </cc:Work>
  </rdf:RDF>
 </metadata>
 <defs>
  <style type="text/css">*{stroke-linejoin: round; stroke-linecap: butt}</style>
 </defs>
 <g id="figure_1">
  <g id="patch_1">
   <path d="M 0 252 
L 684 252 
L 684 0 
L 0 0 
z
" style="fill: #ffffff"/>
  </g>
  <g id="axes_1">
   <g id="patch_2">
    <path d="M 85.5 201.6 
L 326.454545 201.6 
L 326.454545 30.24 
L 85.5 30.24 
z
" style="fill: #ffffff"/>
   </g>
   <g id="matplotlib.axis_1">
    <g id="xtick_1">
     <g id="line2d_1">
      <defs>
       <path id="m02c902d50e" d="M 0 0 
L 0 3.5 
" style="stroke: #000000; stroke-width: 0.8"/>
      </defs>
      <g>
       <use xlink:href="#m02c902d50e" x="96.452479" y="201.6" style="stroke: #000000; stroke-width: 0.8"/>
      </g>
     </g>
     <g id="text_1">
      <!-- 0 -->
      <g transform="translate(93.271229 216.198437)scale(0.1 -0.1)">
       <defs>
        <path id="DejaVuSans-30" d="M 2034 4250 
Q 1547 4250 1301 3770 
Q 1056 3291 1056 2328 
Q 1056 1369 1301 889 
Q 1547 409 2034 409 
Q 2525 409 2770 889 
Q 3016 1369 3016 2328 
Q 3016 3291 2770 3770 
Q 2525 4250 2034 4250 
z
M 2034 4750 
Q 2819 4750 3233 4129 
Q 3647 3509 3647 2328 
Q 3647 1150 3233 529 
Q 2819 -91 2034 -91 
Q 1250 -91 836 529 
Q 422 1150 422 2328 
Q 422 3509 836 4129 
Q 1250 4750 2034 4750 
z
" transform="scale(0.015625)"/>
       </defs>
       <use xlink:href="#DejaVuSans-30"/>
      </g>
     </g>
    </g>
    <g id="xtick_2">
     <g id="line2d_2">
      <g>
       <use xlink:href="#m02c902d50e" x="140.482547" y="201.6" style="stroke: #000000; stroke-width: 0.8"/>
      </g>
     </g>
     <g id="text_2">
      <!-- 2000 -->
      <g transform="translate(127.757547 216.198437)scale(0.1 -0.1)">
       <defs>
        <path id="DejaVuSans-32" d="M 1228 531 
L 3431 531 
L 3431 0 
L 469 0 
L 469 531 
Q 828 903 1448 1529 
Q 2069 2156 2228 2338 
Q 2531 2678 2651 2914 
Q 2772 3150 2772 3378 
Q 2772 3750 2511 3984 
Q 2250 4219 1831 4219 
Q 1534 4219 1204 4116 
Q 875 4013 500 3803 
L 500 4441 
Q 881 4594 1212 4672 
Q 1544 4750 1819 4750 
Q 2544 4750 2975 4387 
Q 3406 4025 3406 3419 
Q 3406 3131 3298 2873 
Q 3191 2616 2906 2266 
Q 2828 2175 2409 1742 
Q 1991 1309 1228 531 
z
" transform="scale(0.015625)"/>
       </defs>
       <use xlink:href="#DejaVuSans-32"/>
       <use xlink:href="#DejaVuSans-30" x="63.623047"/>
       <use xlink:href="#DejaVuSans-30" x="127.246094"/>
       <use xlink:href="#DejaVuSans-30" x="190.869141"/>
      </g>
     </g>
    </g>
    <g id="xtick_3">
     <g id="line2d_3">
      <g>
       <use xlink:href="#m02c902d50e" x="184.512615" y="201.6" style="stroke: #000000; stroke-width: 0.8"/>
      </g>
     </g>
     <g id="text_3">
      <!-- 4000 -->
      <g transform="translate(171.787615 216.198437)scale(0.1 -0.1)">
       <defs>
        <path id="DejaVuSans-34" d="M 2419 4116 
L 825 1625 
L 2419 1625 
L 2419 4116 
z
M 2253 4666 
L 3047 4666 
L 3047 1625 
L 3713 1625 
L 3713 1100 
L 3047 1100 
L 3047 0 
L 2419 0 
L 2419 1100 
L 313 1100 
L 313 1709 
L 2253 4666 
z
" transform="scale(0.015625)"/>
       </defs>
       <use xlink:href="#DejaVuSans-34"/>
       <use xlink:href="#DejaVuSans-30" x="63.623047"/>
       <use xlink:href="#DejaVuSans-30" x="127.246094"/>
       <use xlink:href="#DejaVuSans-30" x="190.869141"/>
      </g>
     </g>
    </g>
    <g id="xtick_4">
     <g id="line2d_4">
      <g>
       <use xlink:href="#m02c902d50e" x="228.542682" y="201.6" style="stroke: #000000; stroke-width: 0.8"/>
      </g>
     </g>
     <g id="text_4">
      <!-- 6000 -->
      <g transform="translate(215.817682 216.198437)scale(0.1 -0.1)">
       <defs>
        <path id="DejaVuSans-36" d="M 2113 2584 
Q 1688 2584 1439 2293 
Q 1191 2003 1191 1497 
Q 1191 994 1439 701 
Q 1688 409 2113 409 
Q 2538 409 2786 701 
Q 3034 994 3034 1497 
Q 3034 2003 2786 2293 
Q 2538 2584 2113 2584 
z
M 3366 4563 
L 3366 3988 
Q 3128 4100 2886 4159 
Q 2644 4219 2406 4219 
Q 1781 4219 1451 3797 
Q 1122 3375 1075 2522 
Q 1259 2794 1537 2939 
Q 1816 3084 2150 3084 
Q 2853 3084 3261 2657 
Q 3669 2231 3669 1497 
Q 3669 778 3244 343 
Q 2819 -91 2113 -91 
Q 1303 -91 875 529 
Q 447 1150 447 2328 
Q 447 3434 972 4092 
Q 1497 4750 2381 4750 
Q 2619 4750 2861 4703 
Q 3103 4656 3366 4563 
z
" transform="scale(0.015625)"/>
       </defs>
       <use xlink:href="#DejaVuSans-36"/>
       <use xlink:href="#DejaVuSans-30" x="63.623047"/>
       <use xlink:href="#DejaVuSans-30" x="127.246094"/>
       <use xlink:href="#DejaVuSans-30" x="190.869141"/>
      </g>
     </g>
    </g>
    <g id="xtick_5">
     <g id="line2d_5">
      <g>
       <use xlink:href="#m02c902d50e" x="272.57275" y="201.6" style="stroke: #000000; stroke-width: 0.8"/>
      </g>
     </g>
     <g id="text_5">
      <!-- 8000 -->
      <g transform="translate(259.84775 216.198437)scale(0.1 -0.1)">
       <defs>
        <path id="DejaVuSans-38" d="M 2034 2216 
Q 1584 2216 1326 1975 
Q 1069 1734 1069 1313 
Q 1069 891 1326 650 
Q 1584 409 2034 409 
Q 2484 409 2743 651 
Q 3003 894 3003 1313 
Q 3003 1734 2745 1975 
Q 2488 2216 2034 2216 
z
M 1403 2484 
Q 997 2584 770 2862 
Q 544 3141 544 3541 
Q 544 4100 942 4425 
Q 1341 4750 2034 4750 
Q 2731 4750 3128 4425 
Q 3525 4100 3525 3541 
Q 3525 3141 3298 2862 
Q 3072 2584 2669 2484 
Q 3125 2378 3379 2068 
Q 3634 1759 3634 1313 
Q 3634 634 3220 271 
Q 2806 -91 2034 -91 
Q 1263 -91 848 271 
Q 434 634 434 1313 
Q 434 1759 690 2068 
Q 947 2378 1403 2484 
z
M 1172 3481 
Q 1172 3119 1398 2916 
Q 1625 2713 2034 2713 
Q 2441 2713 2670 2916 
Q 2900 3119 2900 3481 
Q 2900 3844 2670 4047 
Q 2441 4250 2034 4250 
Q 1625 4250 1398 4047 
Q 1172 3844 1172 3481 
z
" transform="scale(0.015625)"/>
       </defs>
       <use xlink:href="#DejaVuSans-38"/>
       <use xlink:href="#DejaVuSans-30" x="63.623047"/>
       <use xlink:href="#DejaVuSans-30" x="127.246094"/>
       <use xlink:href="#DejaVuSans-30" x="190.869141"/>
      </g>
     </g>
    </g>
    <g id="xtick_6">
     <g id="line2d_6">
      <g>
       <use xlink:href="#m02c902d50e" x="316.602818" y="201.6" style="stroke: #000000; stroke-width: 0.8"/>
      </g>
     </g>
     <g id="text_6">
      <!-- 10000 -->
      <g transform="translate(300.696568 216.198437)scale(0.1 -0.1)">
       <defs>
        <path id="DejaVuSans-31" d="M 794 531 
L 1825 531 
L 1825 4091 
L 703 3866 
L 703 4441 
L 1819 4666 
L 2450 4666 
L 2450 531 
L 3481 531 
L 3481 0 
L 794 0 
L 794 531 
z
" transform="scale(0.015625)"/>
       </defs>
       <use xlink:href="#DejaVuSans-31"/>
       <use xlink:href="#DejaVuSans-30" x="63.623047"/>
       <use xlink:href="#DejaVuSans-30" x="127.246094"/>
       <use xlink:href="#DejaVuSans-30" x="190.869141"/>
       <use xlink:href="#DejaVuSans-30" x="254.492188"/>
      </g>
     </g>
    </g>
    <g id="text_7">
     <!-- Number of episodes -->
     <g transform="translate(155.734304 229.876562)scale(0.1 -0.1)">
      <defs>
       <path id="DejaVuSans-4e" d="M 628 4666 
L 1478 4666 
L 3547 763 
L 3547 4666 
L 4159 4666 
L 4159 0 
L 3309 0 
L 1241 3903 
L 1241 0 
L 628 0 
L 628 4666 
z
" transform="scale(0.015625)"/>
       <path id="DejaVuSans-75" d="M 544 1381 
L 544 3500 
L 1119 3500 
L 1119 1403 
Q 1119 906 1312 657 
Q 1506 409 1894 409 
Q 2359 409 2629 706 
Q 2900 1003 2900 1516 
L 2900 3500 
L 3475 3500 
L 3475 0 
L 2900 0 
L 2900 538 
Q 2691 219 2414 64 
Q 2138 -91 1772 -91 
Q 1169 -91 856 284 
Q 544 659 544 1381 
z
M 1991 3584 
L 1991 3584 
z
" transform="scale(0.015625)"/>
       <path id="DejaVuSans-6d" d="M 3328 2828 
Q 3544 3216 3844 3400 
Q 4144 3584 4550 3584 
Q 5097 3584 5394 3201 
Q 5691 2819 5691 2113 
L 5691 0 
L 5113 0 
L 5113 2094 
Q 5113 2597 4934 2840 
Q 4756 3084 4391 3084 
Q 3944 3084 3684 2787 
Q 3425 2491 3425 1978 
L 3425 0 
L 2847 0 
L 2847 2094 
Q 2847 2600 2669 2842 
Q 2491 3084 2119 3084 
Q 1678 3084 1418 2786 
Q 1159 2488 1159 1978 
L 1159 0 
L 581 0 
L 581 3500 
L 1159 3500 
L 1159 2956 
Q 1356 3278 1631 3431 
Q 1906 3584 2284 3584 
Q 2666 3584 2933 3390 
Q 3200 3197 3328 2828 
z
" transform="scale(0.015625)"/>
       <path id="DejaVuSans-62" d="M 3116 1747 
Q 3116 2381 2855 2742 
Q 2594 3103 2138 3103 
Q 1681 3103 1420 2742 
Q 1159 2381 1159 1747 
Q 1159 1113 1420 752 
Q 1681 391 2138 391 
Q 2594 391 2855 752 
Q 3116 1113 3116 1747 
z
M 1159 2969 
Q 1341 3281 1617 3432 
Q 1894 3584 2278 3584 
Q 2916 3584 3314 3078 
Q 3713 2572 3713 1747 
Q 3713 922 3314 415 
Q 2916 -91 2278 -91 
Q 1894 -91 1617 61 
Q 1341 213 1159 525 
L 1159 0 
L 581 0 
L 581 4863 
L 1159 4863 
L 1159 2969 
z
" transform="scale(0.015625)"/>
       <path id="DejaVuSans-65" d="M 3597 1894 
L 3597 1613 
L 953 1613 
Q 991 1019 1311 708 
Q 1631 397 2203 397 
Q 2534 397 2845 478 
Q 3156 559 3463 722 
L 3463 178 
Q 3153 47 2828 -22 
Q 2503 -91 2169 -91 
Q 1331 -91 842 396 
Q 353 884 353 1716 
Q 353 2575 817 3079 
Q 1281 3584 2069 3584 
Q 2775 3584 3186 3129 
Q 3597 2675 3597 1894 
z
M 3022 2063 
Q 3016 2534 2758 2815 
Q 2500 3097 2075 3097 
Q 1594 3097 1305 2825 
Q 1016 2553 972 2059 
L 3022 2063 
z
" transform="scale(0.015625)"/>
       <path id="DejaVuSans-72" d="M 2631 2963 
Q 2534 3019 2420 3045 
Q 2306 3072 2169 3072 
Q 1681 3072 1420 2755 
Q 1159 2438 1159 1844 
L 1159 0 
L 581 0 
L 581 3500 
L 1159 3500 
L 1159 2956 
Q 1341 3275 1631 3429 
Q 1922 3584 2338 3584 
Q 2397 3584 2469 3576 
Q 2541 3569 2628 3553 
L 2631 2963 
z
" transform="scale(0.015625)"/>
       <path id="DejaVuSans-20" transform="scale(0.015625)"/>
       <path id="DejaVuSans-6f" d="M 1959 3097 
Q 1497 3097 1228 2736 
Q 959 2375 959 1747 
Q 959 1119 1226 758 
Q 1494 397 1959 397 
Q 2419 397 2687 759 
Q 2956 1122 2956 1747 
Q 2956 2369 2687 2733 
Q 2419 3097 1959 3097 
z
M 1959 3584 
Q 2709 3584 3137 3096 
Q 3566 2609 3566 1747 
Q 3566 888 3137 398 
Q 2709 -91 1959 -91 
Q 1206 -91 779 398 
Q 353 888 353 1747 
Q 353 2609 779 3096 
Q 1206 3584 1959 3584 
z
" transform="scale(0.015625)"/>
       <path id="DejaVuSans-66" d="M 2375 4863 
L 2375 4384 
L 1825 4384 
Q 1516 4384 1395 4259 
Q 1275 4134 1275 3809 
L 1275 3500 
L 2222 3500 
L 2222 3053 
L 1275 3053 
L 1275 0 
L 697 0 
L 697 3053 
L 147 3053 
L 147 3500 
L 697 3500 
L 697 3744 
Q 697 4328 969 4595 
Q 1241 4863 1831 4863 
L 2375 4863 
z
" transform="scale(0.015625)"/>
       <path id="DejaVuSans-70" d="M 1159 525 
L 1159 -1331 
L 581 -1331 
L 581 3500 
L 1159 3500 
L 1159 2969 
Q 1341 3281 1617 3432 
Q 1894 3584 2278 3584 
Q 2916 3584 3314 3078 
Q 3713 2572 3713 1747 
Q 3713 922 3314 415 
Q 2916 -91 2278 -91 
Q 1894 -91 1617 61 
Q 1341 213 1159 525 
z
M 3116 1747 
Q 3116 2381 2855 2742 
Q 2594 3103 2138 3103 
Q 1681 3103 1420 2742 
Q 1159 2381 1159 1747 
Q 1159 1113 1420 752 
Q 1681 391 2138 391 
Q 2594 391 2855 752 
Q 3116 1113 3116 1747 
z
" transform="scale(0.015625)"/>
       <path id="DejaVuSans-69" d="M 603 3500 
L 1178 3500 
L 1178 0 
L 603 0 
L 603 3500 
z
M 603 4863 
L 1178 4863 
L 1178 4134 
L 603 4134 
L 603 4863 
z
" transform="scale(0.015625)"/>
       <path id="DejaVuSans-73" d="M 2834 3397 
L 2834 2853 
Q 2591 2978 2328 3040 
Q 2066 3103 1784 3103 
Q 1356 3103 1142 2972 
Q 928 2841 928 2578 
Q 928 2378 1081 2264 
Q 1234 2150 1697 2047 
L 1894 2003 
Q 2506 1872 2764 1633 
Q 3022 1394 3022 966 
Q 3022 478 2636 193 
Q 2250 -91 1575 -91 
Q 1294 -91 989 -36 
Q 684 19 347 128 
L 347 722 
Q 666 556 975 473 
Q 1284 391 1588 391 
Q 1994 391 2212 530 
Q 2431 669 2431 922 
Q 2431 1156 2273 1281 
Q 2116 1406 1581 1522 
L 1381 1569 
Q 847 1681 609 1914 
Q 372 2147 372 2553 
Q 372 3047 722 3315 
Q 1072 3584 1716 3584 
Q 2034 3584 2315 3537 
Q 2597 3491 2834 3397 
z
" transform="scale(0.015625)"/>
       <path id="DejaVuSans-64" d="M 2906 2969 
L 2906 4863 
L 3481 4863 
L 3481 0 
L 2906 0 
L 2906 525 
Q 2725 213 2448 61 
Q 2172 -91 1784 -91 
Q 1150 -91 751 415 
Q 353 922 353 1747 
Q 353 2572 751 3078 
Q 1150 3584 1784 3584 
Q 2172 3584 2448 3432 
Q 2725 3281 2906 2969 
z
M 947 1747 
Q 947 1113 1208 752 
Q 1469 391 1925 391 
Q 2381 391 2643 752 
Q 2906 1113 2906 1747 
Q 2906 2381 2643 2742 
Q 2381 3103 1925 3103 
Q 1469 3103 1208 2742 
Q 947 2381 947 1747 
z
" transform="scale(0.015625)"/>
      </defs>
      <use xlink:href="#DejaVuSans-4e"/>
      <use xlink:href="#DejaVuSans-75" x="74.804688"/>
      <use xlink:href="#DejaVuSans-6d" x="138.183594"/>
      <use xlink:href="#DejaVuSans-62" x="235.595703"/>
      <use xlink:href="#DejaVuSans-65" x="299.072266"/>
      <use xlink:href="#DejaVuSans-72" x="360.595703"/>
      <use xlink:href="#DejaVuSans-20" x="401.708984"/>
      <use xlink:href="#DejaVuSans-6f" x="433.496094"/>
      <use xlink:href="#DejaVuSans-66" x="494.677734"/>
      <use xlink:href="#DejaVuSans-20" x="529.882812"/>
      <use xlink:href="#DejaVuSans-65" x="561.669922"/>
      <use xlink:href="#DejaVuSans-70" x="623.193359"/>
      <use xlink:href="#DejaVuSans-69" x="686.669922"/>
      <use xlink:href="#DejaVuSans-73" x="714.453125"/>
      <use xlink:href="#DejaVuSans-6f" x="766.552734"/>
      <use xlink:href="#DejaVuSans-64" x="827.734375"/>
      <use xlink:href="#DejaVuSans-65" x="891.210938"/>
      <use xlink:href="#DejaVuSans-73" x="952.734375"/>
     </g>
    </g>
   </g>
   <g id="matplotlib.axis_2">
    <g id="ytick_1">
     <g id="line2d_7">
      <defs>
       <path id="md8dd795169" d="M 0 0 
L -3.5 0 
" style="stroke: #000000; stroke-width: 0.8"/>
      </defs>
      <g>
       <use xlink:href="#md8dd795169" x="85.5" y="201.350103" style="stroke: #000000; stroke-width: 0.8"/>
      </g>
     </g>
     <g id="text_8">
      <!-- 200 -->
      <g transform="translate(59.4125 205.149322)scale(0.1 -0.1)">
       <use xlink:href="#DejaVuSans-32"/>
       <use xlink:href="#DejaVuSans-30" x="63.623047"/>
       <use xlink:href="#DejaVuSans-30" x="127.246094"/>
      </g>
     </g>
    </g>
    <g id="ytick_2">
     <g id="line2d_8">
      <g>
       <use xlink:href="#md8dd795169" x="85.5" y="175.937081" style="stroke: #000000; stroke-width: 0.8"/>
      </g>
     </g>
     <g id="text_9">
      <!-- 250 -->
      <g transform="translate(59.4125 179.7363)scale(0.1 -0.1)">
       <defs>
        <path id="DejaVuSans-35" d="M 691 4666 
L 3169 4666 
L 3169 4134 
L 1269 4134 
L 1269 2991 
Q 1406 3038 1543 3061 
Q 1681 3084 1819 3084 
Q 2600 3084 3056 2656 
Q 3513 2228 3513 1497 
Q 3513 744 3044 326 
Q 2575 -91 1722 -91 
Q 1428 -91 1123 -41 
Q 819 9 494 109 
L 494 744 
Q 775 591 1075 516 
Q 1375 441 1709 441 
Q 2250 441 2565 725 
Q 2881 1009 2881 1497 
Q 2881 1984 2565 2268 
Q 2250 2553 1709 2553 
Q 1456 2553 1204 2497 
Q 953 2441 691 2322 
L 691 4666 
z
" transform="scale(0.015625)"/>
       </defs>
       <use xlink:href="#DejaVuSans-32"/>
       <use xlink:href="#DejaVuSans-35" x="63.623047"/>
       <use xlink:href="#DejaVuSans-30" x="127.246094"/>
      </g>
     </g>
    </g>
    <g id="ytick_3">
     <g id="line2d_9">
      <g>
       <use xlink:href="#md8dd795169" x="85.5" y="150.524059" style="stroke: #000000; stroke-width: 0.8"/>
      </g>
     </g>
     <g id="text_10">
      <!-- 300 -->
      <g transform="translate(59.4125 154.323277)scale(0.1 -0.1)">
       <defs>
        <path id="DejaVuSans-33" d="M 2597 2516 
Q 3050 2419 3304 2112 
Q 3559 1806 3559 1356 
Q 3559 666 3084 287 
Q 2609 -91 1734 -91 
Q 1441 -91 1130 -33 
Q 819 25 488 141 
L 488 750 
Q 750 597 1062 519 
Q 1375 441 1716 441 
Q 2309 441 2620 675 
Q 2931 909 2931 1356 
Q 2931 1769 2642 2001 
Q 2353 2234 1838 2234 
L 1294 2234 
L 1294 2753 
L 1863 2753 
Q 2328 2753 2575 2939 
Q 2822 3125 2822 3475 
Q 2822 3834 2567 4026 
Q 2313 4219 1838 4219 
Q 1578 4219 1281 4162 
Q 984 4106 628 3988 
L 628 4550 
Q 988 4650 1302 4700 
Q 1616 4750 1894 4750 
Q 2613 4750 3031 4423 
Q 3450 4097 3450 3541 
Q 3450 3153 3228 2886 
Q 3006 2619 2597 2516 
z
" transform="scale(0.015625)"/>
       </defs>
       <use xlink:href="#DejaVuSans-33"/>
       <use xlink:href="#DejaVuSans-30" x="63.623047"/>
       <use xlink:href="#DejaVuSans-30" x="127.246094"/>
      </g>
     </g>
    </g>
    <g id="ytick_4">
     <g id="line2d_10">
      <g>
       <use xlink:href="#md8dd795169" x="85.5" y="125.111037" style="stroke: #000000; stroke-width: 0.8"/>
      </g>
     </g>
     <g id="text_11">
      <!-- 350 -->
      <g transform="translate(59.4125 128.910255)scale(0.1 -0.1)">
       <use xlink:href="#DejaVuSans-33"/>
       <use xlink:href="#DejaVuSans-35" x="63.623047"/>
       <use xlink:href="#DejaVuSans-30" x="127.246094"/>
      </g>
     </g>
    </g>
    <g id="ytick_5">
     <g id="line2d_11">
      <g>
       <use xlink:href="#md8dd795169" x="85.5" y="99.698014" style="stroke: #000000; stroke-width: 0.8"/>
      </g>
     </g>
     <g id="text_12">
      <!-- 400 -->
      <g transform="translate(59.4125 103.497233)scale(0.1 -0.1)">
       <use xlink:href="#DejaVuSans-34"/>
       <use xlink:href="#DejaVuSans-30" x="63.623047"/>
       <use xlink:href="#DejaVuSans-30" x="127.246094"/>
      </g>
     </g>
    </g>
    <g id="ytick_6">
     <g id="line2d_12">
      <g>
       <use xlink:href="#md8dd795169" x="85.5" y="74.284992" style="stroke: #000000; stroke-width: 0.8"/>
      </g>
     </g>
     <g id="text_13">
      <!-- 450 -->
      <g transform="translate(59.4125 78.084211)scale(0.1 -0.1)">
       <use xlink:href="#DejaVuSans-34"/>
       <use xlink:href="#DejaVuSans-35" x="63.623047"/>
       <use xlink:href="#DejaVuSans-30" x="127.246094"/>
      </g>
     </g>
    </g>
    <g id="ytick_7">
     <g id="line2d_13">
      <g>
       <use xlink:href="#md8dd795169" x="85.5" y="48.87197" style="stroke: #000000; stroke-width: 0.8"/>
      </g>
     </g>
     <g id="text_14">
      <!-- 500 -->
      <g transform="translate(59.4125 52.671189)scale(0.1 -0.1)">
       <use xlink:href="#DejaVuSans-35"/>
       <use xlink:href="#DejaVuSans-30" x="63.623047"/>
       <use xlink:href="#DejaVuSans-30" x="127.246094"/>
      </g>
     </g>
    </g>
    <g id="text_15">
     <!-- Makespan -->
     <g transform="translate(53.332812 141.100469)rotate(-90)scale(0.1 -0.1)">
      <defs>
       <path id="DejaVuSans-4d" d="M 628 4666 
L 1569 4666 
L 2759 1491 
L 3956 4666 
L 4897 4666 
L 4897 0 
L 4281 0 
L 4281 4097 
L 3078 897 
L 2444 897 
L 1241 4097 
L 1241 0 
L 628 0 
L 628 4666 
z
" transform="scale(0.015625)"/>
       <path id="DejaVuSans-61" d="M 2194 1759 
Q 1497 1759 1228 1600 
Q 959 1441 959 1056 
Q 959 750 1161 570 
Q 1363 391 1709 391 
Q 2188 391 2477 730 
Q 2766 1069 2766 1631 
L 2766 1759 
L 2194 1759 
z
M 3341 1997 
L 3341 0 
L 2766 0 
L 2766 531 
Q 2569 213 2275 61 
Q 1981 -91 1556 -91 
Q 1019 -91 701 211 
Q 384 513 384 1019 
Q 384 1609 779 1909 
Q 1175 2209 1959 2209 
L 2766 2209 
L 2766 2266 
Q 2766 2663 2505 2880 
Q 2244 3097 1772 3097 
Q 1472 3097 1187 3025 
Q 903 2953 641 2809 
L 641 3341 
Q 956 3463 1253 3523 
Q 1550 3584 1831 3584 
Q 2591 3584 2966 3190 
Q 3341 2797 3341 1997 
z
" transform="scale(0.015625)"/>
       <path id="DejaVuSans-6b" d="M 581 4863 
L 1159 4863 
L 1159 1991 
L 2875 3500 
L 3609 3500 
L 1753 1863 
L 3688 0 
L 2938 0 
L 1159 1709 
L 1159 0 
L 581 0 
L 581 4863 
z
" transform="scale(0.015625)"/>
       <path id="DejaVuSans-6e" d="M 3513 2113 
L 3513 0 
L 2938 0 
L 2938 2094 
Q 2938 2591 2744 2837 
Q 2550 3084 2163 3084 
Q 1697 3084 1428 2787 
Q 1159 2491 1159 1978 
L 1159 0 
L 581 0 
L 581 3500 
L 1159 3500 
L 1159 2956 
Q 1366 3272 1645 3428 
Q 1925 3584 2291 3584 
Q 2894 3584 3203 3211 
Q 3513 2838 3513 2113 
z
" transform="scale(0.015625)"/>
      </defs>
      <use xlink:href="#DejaVuSans-4d"/>
      <use xlink:href="#DejaVuSans-61" x="86.279297"/>
      <use xlink:href="#DejaVuSans-6b" x="147.558594"/>
      <use xlink:href="#DejaVuSans-65" x="201.84375"/>
      <use xlink:href="#DejaVuSans-73" x="263.367188"/>
      <use xlink:href="#DejaVuSans-70" x="315.466797"/>
      <use xlink:href="#DejaVuSans-61" x="378.943359"/>
      <use xlink:href="#DejaVuSans-6e" x="440.222656"/>
     </g>
    </g>
   </g>
   <g id="line2d_14">
    <path d="M 96.452479 133.316896 
L 97.553231 134.041176 
L 98.653983 138.249572 
L 99.754734 136.912845 
L 100.855486 136.399497 
L 101.956238 137.898871 
L 103.056989 140.341059 
L 105.258493 138.447786 
L 106.359245 140.165708 
L 107.459996 140.206378 
L 108.560748 139.654904 
L 109.6615 143.337249 
L 110.762251 140.605349 
L 111.863003 147.484656 
L 112.963755 147.233069 
L 114.064506 145.18478 
L 115.165258 144.907787 
L 117.366761 148.709565 
L 118.467513 145.787068 
L 119.568265 147.200031 
L 120.669017 150.119985 
L 121.769768 149.690504 
L 122.87052 150.854425 
L 123.971272 152.981494 
L 125.072023 150.933205 
L 126.172775 151.850611 
L 127.273527 152.984037 
L 128.374278 155.626998 
L 129.47503 155.017079 
L 130.575782 152.770577 
L 131.676533 155.011992 
L 132.777285 156.656222 
L 133.878037 156.226742 
L 134.978789 158.36397 
L 136.07954 156.978973 
L 137.180292 159.654956 
L 138.281044 157.144148 
L 139.381795 159.624461 
L 140.482547 157.672743 
L 141.583299 157.54059 
L 142.68405 156.633344 
L 143.784802 159.93958 
L 144.885554 159.268673 
L 145.986305 159.128904 
L 147.087057 160.740097 
L 148.187809 160.836667 
L 149.288561 159.639709 
L 150.389312 161.024721 
L 151.490064 161.489784 
L 152.590816 160.890025 
L 153.691567 163.713423 
L 154.792319 163.954835 
L 155.893071 163.133999 
L 156.993822 163.032341 
L 158.094574 166.112413 
L 159.195326 161.56602 
L 160.296077 165.609225 
L 161.396829 165.339848 
L 162.497581 164.249634 
L 163.598333 165.022185 
L 164.699084 164.170855 
L 166.900588 164.762983 
L 168.001339 167.344939 
L 169.102091 165.896393 
L 170.202843 167.28395 
L 171.303594 164.717225 
L 172.404346 165.876059 
L 173.505098 165.085717 
L 174.605849 165.977717 
L 175.706601 166.676575 
L 176.807353 166.585092 
L 177.908105 168.168318 
L 179.008856 166.485977 
L 180.109608 165.721043 
L 181.21036 166.369072 
L 182.311111 168.155615 
L 183.411863 168.564761 
L 184.512615 166.966287 
L 185.613366 166.72486 
L 186.714118 168.2039 
L 188.915621 168.107329 
L 190.016373 167.278862 
L 191.117125 168.717248 
L 192.217877 168.882423 
L 194.41938 168.269976 
L 195.520132 169.332239 
L 196.620883 168.796028 
L 197.721635 169.634655 
L 198.822387 169.512661 
L 199.923138 170.076839 
L 201.02389 169.070477 
L 203.225393 168.153071 
L 204.326145 169.708347 
L 205.426897 170.811279 
L 206.527649 169.492342 
L 207.6284 168.87988 
L 208.729152 169.60416 
L 209.829904 169.482167 
L 210.930655 168.142911 
L 212.031407 170.409749 
L 214.23291 168.155615 
L 215.333662 170.010762 
L 216.434414 169.731225 
L 217.535165 171.062865 
L 218.635917 170.773153 
L 219.736669 170.343672 
L 220.837421 170.102245 
L 221.938172 171.479642 
L 223.038924 169.985355 
L 224.139676 171.332243 
L 225.240427 169.835412 
L 226.341179 168.920549 
L 227.441931 171.220425 
L 228.542682 170.539357 
L 229.643434 171.980271 
L 230.744186 170.971382 
L 231.844937 170.75029 
L 232.945689 171.413566 
L 234.046441 171.385615 
L 235.147193 172.287775 
L 236.247944 170.424996 
L 237.348696 170.793488 
L 238.449448 170.897674 
L 239.550199 172.104793 
L 240.650951 170.646088 
L 241.751703 170.940888 
L 242.852454 171.965024 
L 243.953206 171.342402 
L 245.053958 170.023466 
L 246.154709 171.624498 
L 247.255461 171.26871 
L 249.456965 171.179771 
L 250.557716 172.691833 
L 251.658468 171.400863 
L 252.75922 170.521567 
L 253.859971 170.013306 
L 254.960723 170.859564 
L 256.061475 171.906579 
L 257.162226 171.006948 
L 258.262978 170.821438 
L 259.36373 172.140375 
L 260.464481 172.099721 
L 261.565233 171.085728 
L 262.665985 171.355106 
L 263.766737 171.289045 
L 264.867488 169.830324 
L 265.96824 170.557148 
L 267.068992 172.676586 
L 268.169743 172.503779 
L 269.270495 172.67913 
L 270.371247 171.197546 
L 271.471998 171.59146 
L 272.57275 171.128941 
L 273.673502 171.817624 
L 274.774253 173.212805 
L 275.875005 172.234402 
L 276.975757 172.460581 
L 278.076509 172.93326 
L 279.17726 171.563494 
L 280.278012 171.243303 
L 281.378764 173.263634 
L 282.479515 171.477099 
L 283.580267 172.175957 
L 284.681019 172.371626 
L 285.78177 172.793491 
L 286.882522 172.084474 
L 287.983274 172.534274 
L 289.084025 171.967568 
L 290.184777 172.051435 
L 291.285529 172.478372 
L 292.386281 172.625757 
L 293.487032 173.022207 
L 294.587784 173.540635 
L 295.688536 173.426273 
L 296.789287 172.526658 
L 297.890039 172.93326 
L 298.990791 173.761727 
L 300.091542 172.836689 
L 301.192294 172.280143 
L 302.293046 173.446608 
L 303.393797 172.841777 
L 304.494549 173.548258 
L 305.595301 174.778248 
L 306.696053 173.393235 
L 307.796804 171.743932 
L 309.998308 172.658795 
L 311.099059 174.252196 
L 312.199811 173.743936 
L 313.300563 172.417384 
L 315.502066 172.93326 
L 315.502066 172.93326 
" clip-path="url(#pe7c824ca93)" style="fill: none; stroke: #1f77b4; stroke-width: 1.5; stroke-linecap: square"/>
   </g>
   <g id="line2d_15">
    <path d="M 96.452479 42.306929 
L 98.653983 42.010454 
L 100.855486 38.029091 
L 103.056989 49.803786 
L 105.258493 51.116782 
L 107.459996 51.921533 
L 109.6615 52.726284 
L 111.863003 43.238745 
L 114.064506 40.400952 
L 116.26601 44.424691 
L 118.467513 49.719066 
L 120.669017 57.724168 
L 122.87052 60.180765 
L 125.072023 74.623827 
L 127.273527 85.509082 
L 129.47503 92.074108 
L 131.676533 86.864438 
L 133.878037 110.498549 
L 136.07954 114.395207 
L 138.281044 129.261825 
L 140.482547 136.504536 
L 142.68405 159.842172 
L 144.885554 172.591028 
L 147.087057 176.021794 
L 149.288561 175.894728 
L 151.490064 180.426712 
L 153.691567 181.316168 
L 155.893071 182.247984 
L 158.094574 182.713884 
L 160.296077 180.596138 
L 162.497581 179.494904 
L 164.699084 184.323378 
L 166.900588 180.807908 
L 169.102091 182.290336 
L 171.303594 184.323378 
L 173.505098 184.492796 
L 175.706601 186.949393 
L 177.908105 185.424612 
L 180.109608 184.365731 
L 182.311111 180.765555 
L 184.512615 182.332689 
L 186.714118 183.942183 
L 188.915621 185.932872 
L 191.117125 185.636382 
L 193.318628 190.210726 
L 195.520132 191.650802 
L 197.721635 187.118811 
L 199.923138 187.372941 
L 202.124642 193.133223 
L 204.326145 189.1095 
L 206.527649 189.024787 
L 208.729152 185.001056 
L 210.930655 189.490695 
L 213.132159 189.1095 
L 215.333662 190.846051 
L 217.535165 188.81301 
L 219.736669 189.278918 
L 221.938172 190.126021 
L 224.139676 188.177684 
L 226.341179 188.135332 
L 228.542682 190.507216 
L 230.744186 188.304749 
L 232.945689 192.540258 
L 235.147193 193.810909 
L 237.348696 190.718986 
L 239.550199 190.634281 
L 241.751703 189.448335 
L 243.953206 189.151852 
L 246.154709 187.838849 
L 248.356213 186.35642 
L 250.557716 186.187002 
L 252.75922 189.871891 
L 254.960723 188.85537 
L 257.162226 189.36363 
L 259.36373 189.06714 
L 261.565233 191.989637 
L 263.766737 189.151852 
L 265.96824 187.034098 
L 268.169743 188.643592 
L 270.371247 189.533048 
L 272.57275 191.269607 
L 274.774253 190.168373 
L 276.975757 188.770657 
L 279.17726 190.126021 
L 281.378764 186.61055 
L 283.580267 191.184894 
L 285.78177 190.464856 
L 287.983274 184.238666 
L 290.184777 186.652903 
L 292.386281 187.161163 
L 294.587784 188.092979 
L 296.789287 186.144642 
L 298.990791 189.194205 
L 301.192294 190.083661 
L 303.393797 187.245876 
L 305.595301 189.024787 
L 307.796804 189.405983 
L 309.998308 187.161163 
L 312.199811 189.06714 
L 314.401314 190.846051 
" clip-path="url(#pe7c824ca93)" style="fill: none; stroke: #ff7f0e; stroke-width: 1.5; stroke-linecap: square"/>
   </g>
   <g id="patch_3">
    <path d="M 85.5 201.6 
L 85.5 30.24 
" style="fill: none; stroke: #000000; stroke-width: 0.8; stroke-linejoin: miter; stroke-linecap: square"/>
   </g>
   <g id="patch_4">
    <path d="M 326.454545 201.6 
L 326.454545 30.24 
" style="fill: none; stroke: #000000; stroke-width: 0.8; stroke-linejoin: miter; stroke-linecap: square"/>
   </g>
   <g id="patch_5">
    <path d="M 85.5 201.6 
L 326.454545 201.6 
" style="fill: none; stroke: #000000; stroke-width: 0.8; stroke-linejoin: miter; stroke-linecap: square"/>
   </g>
   <g id="patch_6">
    <path d="M 85.5 30.24 
L 326.454545 30.24 
" style="fill: none; stroke: #000000; stroke-width: 0.8; stroke-linejoin: miter; stroke-linecap: square"/>
   </g>
   <g id="text_16">
    <!-- MK07 -->
    <g transform="translate(189.23071 20.24)scale(0.12 -0.12)">
     <defs>
      <path id="DejaVuSans-4b" d="M 628 4666 
L 1259 4666 
L 1259 2694 
L 3353 4666 
L 4166 4666 
L 1850 2491 
L 4331 0 
L 3500 0 
L 1259 2247 
L 1259 0 
L 628 0 
L 628 4666 
z
" transform="scale(0.015625)"/>
      <path id="DejaVuSans-37" d="M 525 4666 
L 3525 4666 
L 3525 4397 
L 1831 0 
L 1172 0 
L 2766 4134 
L 525 4134 
L 525 4666 
z
" transform="scale(0.015625)"/>
     </defs>
     <use xlink:href="#DejaVuSans-4d"/>
     <use xlink:href="#DejaVuSans-4b" x="86.279297"/>
     <use xlink:href="#DejaVuSans-30" x="151.855469"/>
     <use xlink:href="#DejaVuSans-37" x="215.478516"/>
    </g>
   </g>
   <g id="legend_1">
    <g id="patch_7">
     <path d="M 238.073295 67.59625 
L 319.454545 67.59625 
Q 321.454545 67.59625 321.454545 65.59625 
L 321.454545 37.24 
Q 321.454545 35.24 319.454545 35.24 
L 238.073295 35.24 
Q 236.073295 35.24 236.073295 37.24 
L 236.073295 65.59625 
Q 236.073295 67.59625 238.073295 67.59625 
z
" style="fill: #ffffff; opacity: 0.8; stroke: #cccccc; stroke-linejoin: miter"/>
    </g>
    <g id="line2d_16">
     <path d="M 240.073295 43.338437 
L 250.073295 43.338437 
L 260.073295 43.338437 
" style="fill: none; stroke: #1f77b4; stroke-width: 1.5; stroke-linecap: square"/>
    </g>
    <g id="text_17">
     <!-- Training -->
     <g transform="translate(268.073295 46.838437)scale(0.1 -0.1)">
      <defs>
       <path id="DejaVuSans-54" d="M -19 4666 
L 3928 4666 
L 3928 4134 
L 2272 4134 
L 2272 0 
L 1638 0 
L 1638 4134 
L -19 4134 
L -19 4666 
z
" transform="scale(0.015625)"/>
       <path id="DejaVuSans-67" d="M 2906 1791 
Q 2906 2416 2648 2759 
Q 2391 3103 1925 3103 
Q 1463 3103 1205 2759 
Q 947 2416 947 1791 
Q 947 1169 1205 825 
Q 1463 481 1925 481 
Q 2391 481 2648 825 
Q 2906 1169 2906 1791 
z
M 3481 434 
Q 3481 -459 3084 -895 
Q 2688 -1331 1869 -1331 
Q 1566 -1331 1297 -1286 
Q 1028 -1241 775 -1147 
L 775 -588 
Q 1028 -725 1275 -790 
Q 1522 -856 1778 -856 
Q 2344 -856 2625 -561 
Q 2906 -266 2906 331 
L 2906 616 
Q 2728 306 2450 153 
Q 2172 0 1784 0 
Q 1141 0 747 490 
Q 353 981 353 1791 
Q 353 2603 747 3093 
Q 1141 3584 1784 3584 
Q 2172 3584 2450 3431 
Q 2728 3278 2906 2969 
L 2906 3500 
L 3481 3500 
L 3481 434 
z
" transform="scale(0.015625)"/>
      </defs>
      <use xlink:href="#DejaVuSans-54"/>
      <use xlink:href="#DejaVuSans-72" x="46.333984"/>
      <use xlink:href="#DejaVuSans-61" x="87.447266"/>
      <use xlink:href="#DejaVuSans-69" x="148.726562"/>
      <use xlink:href="#DejaVuSans-6e" x="176.509766"/>
      <use xlink:href="#DejaVuSans-69" x="239.888672"/>
      <use xlink:href="#DejaVuSans-6e" x="267.671875"/>
      <use xlink:href="#DejaVuSans-67" x="331.050781"/>
     </g>
    </g>
    <g id="line2d_17">
     <path d="M 240.073295 58.016562 
L 250.073295 58.016562 
L 260.073295 58.016562 
" style="fill: none; stroke: #ff7f0e; stroke-width: 1.5; stroke-linecap: square"/>
    </g>
    <g id="text_18">
     <!-- Validation -->
     <g transform="translate(268.073295 61.516562)scale(0.1 -0.1)">
      <defs>
       <path id="DejaVuSans-56" d="M 1831 0 
L 50 4666 
L 709 4666 
L 2188 738 
L 3669 4666 
L 4325 4666 
L 2547 0 
L 1831 0 
z
" transform="scale(0.015625)"/>
       <path id="DejaVuSans-6c" d="M 603 4863 
L 1178 4863 
L 1178 0 
L 603 0 
L 603 4863 
z
" transform="scale(0.015625)"/>
       <path id="DejaVuSans-74" d="M 1172 4494 
L 1172 3500 
L 2356 3500 
L 2356 3053 
L 1172 3053 
L 1172 1153 
Q 1172 725 1289 603 
Q 1406 481 1766 481 
L 2356 481 
L 2356 0 
L 1766 0 
Q 1100 0 847 248 
Q 594 497 594 1153 
L 594 3053 
L 172 3053 
L 172 3500 
L 594 3500 
L 594 4494 
L 1172 4494 
z
" transform="scale(0.015625)"/>
      </defs>
      <use xlink:href="#DejaVuSans-56"/>
      <use xlink:href="#DejaVuSans-61" x="60.658203"/>
      <use xlink:href="#DejaVuSans-6c" x="121.9375"/>
      <use xlink:href="#DejaVuSans-69" x="149.720703"/>
      <use xlink:href="#DejaVuSans-64" x="177.503906"/>
      <use xlink:href="#DejaVuSans-61" x="240.980469"/>
      <use xlink:href="#DejaVuSans-74" x="302.259766"/>
      <use xlink:href="#DejaVuSans-69" x="341.46875"/>
      <use xlink:href="#DejaVuSans-6f" x="369.251953"/>
      <use xlink:href="#DejaVuSans-6e" x="430.433594"/>
     </g>
    </g>
   </g>
  </g>
  <g id="axes_2">
   <g id="patch_8">
    <path d="M 374.645455 201.6 
L 615.6 201.6 
L 615.6 30.24 
L 374.645455 30.24 
z
" style="fill: #ffffff"/>
   </g>
   <g id="matplotlib.axis_3">
    <g id="xtick_7">
     <g id="line2d_18">
      <g>
       <use xlink:href="#m02c902d50e" x="385.597934" y="201.6" style="stroke: #000000; stroke-width: 0.8"/>
      </g>
     </g>
     <g id="text_19">
      <!-- 0 -->
      <g transform="translate(382.416684 216.198437)scale(0.1 -0.1)">
       <use xlink:href="#DejaVuSans-30"/>
      </g>
     </g>
    </g>
    <g id="xtick_8">
     <g id="line2d_19">
      <g>
       <use xlink:href="#m02c902d50e" x="429.628002" y="201.6" style="stroke: #000000; stroke-width: 0.8"/>
      </g>
     </g>
     <g id="text_20">
      <!-- 2000 -->
      <g transform="translate(416.903002 216.198437)scale(0.1 -0.1)">
       <use xlink:href="#DejaVuSans-32"/>
       <use xlink:href="#DejaVuSans-30" x="63.623047"/>
       <use xlink:href="#DejaVuSans-30" x="127.246094"/>
       <use xlink:href="#DejaVuSans-30" x="190.869141"/>
      </g>
     </g>
    </g>
    <g id="xtick_9">
     <g id="line2d_20">
      <g>
       <use xlink:href="#m02c902d50e" x="473.658069" y="201.6" style="stroke: #000000; stroke-width: 0.8"/>
      </g>
     </g>
     <g id="text_21">
      <!-- 4000 -->
      <g transform="translate(460.933069 216.198437)scale(0.1 -0.1)">
       <use xlink:href="#DejaVuSans-34"/>
       <use xlink:href="#DejaVuSans-30" x="63.623047"/>
       <use xlink:href="#DejaVuSans-30" x="127.246094"/>
       <use xlink:href="#DejaVuSans-30" x="190.869141"/>
      </g>
     </g>
    </g>
    <g id="xtick_10">
     <g id="line2d_21">
      <g>
       <use xlink:href="#m02c902d50e" x="517.688137" y="201.6" style="stroke: #000000; stroke-width: 0.8"/>
      </g>
     </g>
     <g id="text_22">
      <!-- 6000 -->
      <g transform="translate(504.963137 216.198437)scale(0.1 -0.1)">
       <use xlink:href="#DejaVuSans-36"/>
       <use xlink:href="#DejaVuSans-30" x="63.623047"/>
       <use xlink:href="#DejaVuSans-30" x="127.246094"/>
       <use xlink:href="#DejaVuSans-30" x="190.869141"/>
      </g>
     </g>
    </g>
    <g id="xtick_11">
     <g id="line2d_22">
      <g>
       <use xlink:href="#m02c902d50e" x="561.718205" y="201.6" style="stroke: #000000; stroke-width: 0.8"/>
      </g>
     </g>
     <g id="text_23">
      <!-- 8000 -->
      <g transform="translate(548.993205 216.198437)scale(0.1 -0.1)">
       <use xlink:href="#DejaVuSans-38"/>
       <use xlink:href="#DejaVuSans-30" x="63.623047"/>
       <use xlink:href="#DejaVuSans-30" x="127.246094"/>
       <use xlink:href="#DejaVuSans-30" x="190.869141"/>
      </g>
     </g>
    </g>
    <g id="xtick_12">
     <g id="line2d_23">
      <g>
       <use xlink:href="#m02c902d50e" x="605.748272" y="201.6" style="stroke: #000000; stroke-width: 0.8"/>
      </g>
     </g>
     <g id="text_24">
      <!-- 10000 -->
      <g transform="translate(589.842022 216.198437)scale(0.1 -0.1)">
       <use xlink:href="#DejaVuSans-31"/>
       <use xlink:href="#DejaVuSans-30" x="63.623047"/>
       <use xlink:href="#DejaVuSans-30" x="127.246094"/>
       <use xlink:href="#DejaVuSans-30" x="190.869141"/>
       <use xlink:href="#DejaVuSans-30" x="254.492188"/>
      </g>
     </g>
    </g>
    <g id="text_25">
     <!-- Number of episodes -->
     <g transform="translate(444.879759 229.876562)scale(0.1 -0.1)">
      <use xlink:href="#DejaVuSans-4e"/>
      <use xlink:href="#DejaVuSans-75" x="74.804688"/>
      <use xlink:href="#DejaVuSans-6d" x="138.183594"/>
      <use xlink:href="#DejaVuSans-62" x="235.595703"/>
      <use xlink:href="#DejaVuSans-65" x="299.072266"/>
      <use xlink:href="#DejaVuSans-72" x="360.595703"/>
      <use xlink:href="#DejaVuSans-20" x="401.708984"/>
      <use xlink:href="#DejaVuSans-6f" x="433.496094"/>
      <use xlink:href="#DejaVuSans-66" x="494.677734"/>
      <use xlink:href="#DejaVuSans-20" x="529.882812"/>
      <use xlink:href="#DejaVuSans-65" x="561.669922"/>
      <use xlink:href="#DejaVuSans-70" x="623.193359"/>
      <use xlink:href="#DejaVuSans-69" x="686.669922"/>
      <use xlink:href="#DejaVuSans-73" x="714.453125"/>
      <use xlink:href="#DejaVuSans-6f" x="766.552734"/>
      <use xlink:href="#DejaVuSans-64" x="827.734375"/>
      <use xlink:href="#DejaVuSans-65" x="891.210938"/>
      <use xlink:href="#DejaVuSans-73" x="952.734375"/>
     </g>
    </g>
   </g>
   <g id="matplotlib.axis_4">
    <g id="ytick_8">
     <g id="line2d_24">
      <g>
       <use xlink:href="#md8dd795169" x="374.645455" y="199.026563" style="stroke: #000000; stroke-width: 0.8"/>
      </g>
     </g>
     <g id="text_26">
      <!-- 470 -->
      <g transform="translate(348.557955 202.825782)scale(0.1 -0.1)">
       <use xlink:href="#DejaVuSans-34"/>
       <use xlink:href="#DejaVuSans-37" x="63.623047"/>
       <use xlink:href="#DejaVuSans-30" x="127.246094"/>
      </g>
     </g>
    </g>
    <g id="ytick_9">
     <g id="line2d_25">
      <g>
       <use xlink:href="#md8dd795169" x="374.645455" y="177.294615" style="stroke: #000000; stroke-width: 0.8"/>
      </g>
     </g>
     <g id="text_27">
      <!-- 480 -->
      <g transform="translate(348.557955 181.093834)scale(0.1 -0.1)">
       <use xlink:href="#DejaVuSans-34"/>
       <use xlink:href="#DejaVuSans-38" x="63.623047"/>
       <use xlink:href="#DejaVuSans-30" x="127.246094"/>
      </g>
     </g>
    </g>
    <g id="ytick_10">
     <g id="line2d_26">
      <g>
       <use xlink:href="#md8dd795169" x="374.645455" y="155.562667" style="stroke: #000000; stroke-width: 0.8"/>
      </g>
     </g>
     <g id="text_28">
      <!-- 490 -->
      <g transform="translate(348.557955 159.361886)scale(0.1 -0.1)">
       <defs>
        <path id="DejaVuSans-39" d="M 703 97 
L 703 672 
Q 941 559 1184 500 
Q 1428 441 1663 441 
Q 2288 441 2617 861 
Q 2947 1281 2994 2138 
Q 2813 1869 2534 1725 
Q 2256 1581 1919 1581 
Q 1219 1581 811 2004 
Q 403 2428 403 3163 
Q 403 3881 828 4315 
Q 1253 4750 1959 4750 
Q 2769 4750 3195 4129 
Q 3622 3509 3622 2328 
Q 3622 1225 3098 567 
Q 2575 -91 1691 -91 
Q 1453 -91 1209 -44 
Q 966 3 703 97 
z
M 1959 2075 
Q 2384 2075 2632 2365 
Q 2881 2656 2881 3163 
Q 2881 3666 2632 3958 
Q 2384 4250 1959 4250 
Q 1534 4250 1286 3958 
Q 1038 3666 1038 3163 
Q 1038 2656 1286 2365 
Q 1534 2075 1959 2075 
z
" transform="scale(0.015625)"/>
       </defs>
       <use xlink:href="#DejaVuSans-34"/>
       <use xlink:href="#DejaVuSans-39" x="63.623047"/>
       <use xlink:href="#DejaVuSans-30" x="127.246094"/>
      </g>
     </g>
    </g>
    <g id="ytick_11">
     <g id="line2d_27">
      <g>
       <use xlink:href="#md8dd795169" x="374.645455" y="133.830719" style="stroke: #000000; stroke-width: 0.8"/>
      </g>
     </g>
     <g id="text_29">
      <!-- 500 -->
      <g transform="translate(348.557955 137.629937)scale(0.1 -0.1)">
       <use xlink:href="#DejaVuSans-35"/>
       <use xlink:href="#DejaVuSans-30" x="63.623047"/>
       <use xlink:href="#DejaVuSans-30" x="127.246094"/>
      </g>
     </g>
    </g>
    <g id="ytick_12">
     <g id="line2d_28">
      <g>
       <use xlink:href="#md8dd795169" x="374.645455" y="112.09877" style="stroke: #000000; stroke-width: 0.8"/>
      </g>
     </g>
     <g id="text_30">
      <!-- 510 -->
      <g transform="translate(348.557955 115.897989)scale(0.1 -0.1)">
       <use xlink:href="#DejaVuSans-35"/>
       <use xlink:href="#DejaVuSans-31" x="63.623047"/>
       <use xlink:href="#DejaVuSans-30" x="127.246094"/>
      </g>
     </g>
    </g>
    <g id="ytick_13">
     <g id="line2d_29">
      <g>
       <use xlink:href="#md8dd795169" x="374.645455" y="90.366822" style="stroke: #000000; stroke-width: 0.8"/>
      </g>
     </g>
     <g id="text_31">
      <!-- 520 -->
      <g transform="translate(348.557955 94.166041)scale(0.1 -0.1)">
       <use xlink:href="#DejaVuSans-35"/>
       <use xlink:href="#DejaVuSans-32" x="63.623047"/>
       <use xlink:href="#DejaVuSans-30" x="127.246094"/>
      </g>
     </g>
    </g>
    <g id="ytick_14">
     <g id="line2d_30">
      <g>
       <use xlink:href="#md8dd795169" x="374.645455" y="68.634874" style="stroke: #000000; stroke-width: 0.8"/>
      </g>
     </g>
     <g id="text_32">
      <!-- 530 -->
      <g transform="translate(348.557955 72.434093)scale(0.1 -0.1)">
       <use xlink:href="#DejaVuSans-35"/>
       <use xlink:href="#DejaVuSans-33" x="63.623047"/>
       <use xlink:href="#DejaVuSans-30" x="127.246094"/>
      </g>
     </g>
    </g>
    <g id="ytick_15">
     <g id="line2d_31">
      <g>
       <use xlink:href="#md8dd795169" x="374.645455" y="46.902926" style="stroke: #000000; stroke-width: 0.8"/>
      </g>
     </g>
     <g id="text_33">
      <!-- 540 -->
      <g transform="translate(348.557955 50.702144)scale(0.1 -0.1)">
       <use xlink:href="#DejaVuSans-35"/>
       <use xlink:href="#DejaVuSans-34" x="63.623047"/>
       <use xlink:href="#DejaVuSans-30" x="127.246094"/>
      </g>
     </g>
    </g>
    <g id="text_34">
     <!-- Makespan -->
     <g transform="translate(342.478267 141.100469)rotate(-90)scale(0.1 -0.1)">
      <use xlink:href="#DejaVuSans-4d"/>
      <use xlink:href="#DejaVuSans-61" x="86.279297"/>
      <use xlink:href="#DejaVuSans-6b" x="147.558594"/>
      <use xlink:href="#DejaVuSans-65" x="201.84375"/>
      <use xlink:href="#DejaVuSans-73" x="263.367188"/>
      <use xlink:href="#DejaVuSans-70" x="315.466797"/>
      <use xlink:href="#DejaVuSans-61" x="378.943359"/>
      <use xlink:href="#DejaVuSans-6e" x="440.222656"/>
     </g>
    </g>
   </g>
   <g id="line2d_32">
    <path d="M 385.597934 168.514889 
L 386.698686 168.08029 
L 387.799437 174.610751 
L 388.900189 168.12373 
L 390.000941 168.35194 
L 391.101692 172.198471 
L 392.202444 167.754258 
L 393.303196 171.329206 
L 394.403947 166.624221 
L 395.504699 171.383523 
L 396.605451 170.872854 
L 397.706203 177.044719 
L 398.806954 168.31931 
L 399.907706 163.462251 
L 401.008458 165.51587 
L 402.109209 173.241628 
L 403.209961 170.340365 
L 404.310713 183.173078 
L 405.411464 172.893909 
L 406.512216 175.784229 
L 407.612968 170.090469 
L 408.713719 172.285417 
L 409.814471 171.350959 
L 410.915223 167.613061 
L 412.015975 176.273211 
L 413.116726 170.416435 
L 414.217478 170.003523 
L 415.31823 174.08914 
L 416.418981 181.315039 
L 417.519733 172.187594 
L 418.620485 170.92717 
L 419.721236 165.852713 
L 420.821988 164.603165 
L 421.92274 177.609705 
L 423.023491 169.362467 
L 424.124243 173.480648 
L 425.224995 178.576792 
L 426.325747 171.676925 
L 427.426498 172.633136 
L 428.52725 159.409198 
L 429.628002 174.925841 
L 430.728753 177.903107 
L 431.829505 175.001911 
L 432.930257 162.38653 
L 434.031008 177.664087 
L 435.13176 179.554756 
L 436.232512 170.590328 
L 437.333263 173.665351 
L 438.434015 177.522824 
L 439.534767 163.831657 
L 440.635519 161.060847 
L 441.73627 180.478338 
L 442.837022 167.939027 
L 443.937774 167.384852 
L 445.038525 171.144503 
L 446.139277 167.721695 
L 447.240029 182.760232 
L 448.34078 178.00093 
L 449.441532 179.772089 
L 450.542284 166.515587 
L 451.643035 177.229422 
L 452.743787 169.77538 
L 453.844539 176.957773 
L 454.945291 181.358479 
L 456.046042 172.296294 
L 458.247546 176.381844 
L 459.348297 175.07798 
L 460.449049 190.627187 
L 461.549801 173.208998 
L 462.650552 179.848093 
L 463.751304 188.649571 
L 464.852056 168.884362 
L 465.952807 175.708159 
L 467.053559 179.978479 
L 469.255063 173.132928 
L 470.355814 178.055247 
L 471.456566 164.983448 
L 472.557318 187.552097 
L 473.658069 184.357498 
L 474.758821 179.076651 
L 475.859573 172.42668 
L 476.960324 180.804304 
L 478.061076 177.490195 
L 479.161828 180.141495 
L 480.262579 180.597847 
L 481.363331 175.414823 
L 482.464083 172.872156 
L 483.564835 186.726273 
L 484.665586 180.239318 
L 485.766338 191.952804 
L 486.86709 178.826688 
L 487.967841 184.314058 
L 489.068593 176.631807 
L 490.169345 189.290627 
L 491.270096 184.640024 
L 492.370848 179.000581 
L 493.4716 171.057557 
L 494.572351 184.161919 
L 496.773855 178.728932 
L 497.874607 174.252156 
L 498.975358 173.69798 
L 500.07611 175.751665 
L 501.176862 185.04206 
L 503.378365 177.664087 
L 504.479117 177.642334 
L 505.579868 170.351242 
L 506.68062 182.597216 
L 507.781372 177.501071 
L 508.882123 182.27125 
L 509.982875 190.54024 
L 511.083627 186.628516 
L 512.184379 178.392089 
L 513.28513 167.710818 
L 514.385882 176.957773 
L 515.486634 180.663041 
L 516.587385 178.891882 
L 517.688137 179.51125 
L 518.788889 182.618969 
L 519.88964 180.880373 
L 520.990392 183.58599 
L 522.091144 177.338055 
L 524.292647 178.511599 
L 525.393399 182.966622 
L 526.494151 176.055878 
L 527.594902 175.306123 
L 528.695654 169.721063 
L 529.796406 174.328225 
L 530.897157 184.618271 
L 531.997909 163.516568 
L 534.199412 190.507611 
L 535.300164 184.216235 
L 536.400916 185.759185 
L 537.501667 184.303182 
L 538.602419 185.16157 
L 539.703171 183.553427 
L 540.803923 172.828716 
L 541.904674 174.643315 
L 543.005426 174.675945 
L 544.106178 179.869846 
L 545.206929 181.401985 
L 546.307681 188.877714 
L 547.408433 179.54388 
L 548.509184 173.730544 
L 549.609936 180.510967 
L 550.710688 190.355537 
L 551.811439 173.81749 
L 552.912191 184.618271 
L 554.012943 178.620232 
L 555.113695 186.780589 
L 556.214446 168.514889 
L 557.315198 187.041362 
L 558.41595 186.758902 
L 559.516701 175.34963 
L 560.617453 190.953153 
L 561.718205 186.215604 
L 562.818956 179.576443 
L 563.919708 179.217914 
L 565.02046 172.567943 
L 566.121211 186.519817 
L 567.221963 180.978196 
L 568.322715 179.46781 
L 569.423467 173.513277 
L 570.524218 175.382193 
L 571.62497 182.282126 
L 572.725722 176.273211 
L 573.826473 183.075321 
L 574.927225 185.248516 
L 576.027977 188.497432 
L 577.128728 186.411183 
L 578.22948 180.92388 
L 579.330232 180.206688 
L 580.430983 189.877432 
L 581.531735 175.566896 
L 582.632487 173.991383 
L 583.733239 181.271532 
L 584.83399 173.067735 
L 585.934742 178.261703 
L 587.035494 178.098687 
L 588.136245 185.596235 
L 590.337749 188.508308 
L 591.4385 184.976867 
L 592.539252 183.357847 
L 593.640004 179.761212 
L 594.740755 180.424021 
L 595.841507 190.790136 
L 596.942259 170.981487 
L 598.043011 176.838263 
L 599.143762 183.977216 
L 600.244514 178.413842 
L 601.345266 173.752297 
L 602.446017 187.378271 
L 603.546769 193.810909 
L 604.647521 185.096377 
L 604.647521 185.096377 
" clip-path="url(#p1e0a195fa3)" style="fill: none; stroke: #1f77b4; stroke-width: 1.5; stroke-linecap: square"/>
   </g>
   <g id="line2d_33">
    <path d="M 385.597934 58.493254 
L 387.799437 129.122152 
L 390.000941 95.437566 
L 392.202444 95.618754 
L 394.403947 40.745584 
L 396.605451 79.681903 
L 398.806954 75.878812 
L 401.008458 42.194293 
L 403.209961 38.029091 
L 405.411464 61.934234 
L 407.612968 85.658189 
L 409.814471 77.146598 
L 412.015975 44.548675 
L 414.217478 83.666182 
L 416.418981 112.823191 
L 418.620485 106.665783 
L 420.821988 49.438364 
L 423.023491 65.737325 
L 425.224995 69.721471 
L 427.426498 76.06 
L 429.628002 42.918779 
L 431.829505 68.815929 
L 434.031008 75.516702 
L 436.232512 70.445825 
L 438.434015 98.516303 
L 440.635519 48.532822 
L 442.837022 81.311799 
L 445.038525 89.280225 
L 447.240029 93.988858 
L 449.441532 78.414251 
L 451.643035 88.917981 
L 453.844539 72.800208 
L 456.046042 113.547545 
L 458.247546 116.807337 
L 460.449049 124.956818 
L 462.650552 133.830719 
L 464.852056 160.452355 
L 467.053559 137.271633 
L 469.255063 139.082584 
L 471.456566 139.263706 
L 473.658069 147.232065 
L 475.859573 145.602168 
L 478.061076 131.295347 
L 480.262579 137.995987 
L 482.464083 161.176776 
L 484.665586 127.130012 
L 486.86709 141.980199 
L 489.068593 141.980199 
L 491.270096 158.460282 
L 493.4716 106.846839 
L 495.673103 147.956485 
L 497.874607 131.295347 
L 500.07611 134.917316 
L 502.277613 150.12968 
L 504.479117 169.145135 
L 506.68062 154.476069 
L 508.882123 137.814931 
L 511.083627 147.051009 
L 513.28513 142.885675 
L 515.486634 109.563399 
L 517.688137 136.909389 
L 519.88964 130.752048 
L 522.091144 138.35823 
L 524.292647 162.62555 
L 526.494151 151.216277 
L 528.695654 147.413186 
L 530.897157 167.515238 
L 533.098661 173.672646 
L 535.300164 130.027628 
L 537.501667 149.586381 
L 539.703171 163.34997 
L 541.904674 145.602168 
L 544.106178 138.35823 
L 546.307681 129.846506 
L 548.509184 147.413186 
L 550.710688 161.357831 
L 552.912191 168.601836 
L 555.113695 130.027628 
L 557.315198 134.917316 
L 559.516701 153.570594 
L 561.718205 168.420714 
L 563.919708 141.074723 
L 566.121211 148.318662 
L 568.322715 135.822792 
L 570.524218 144.877814 
L 572.725722 146.688766 
L 574.927225 134.917316 
L 577.128728 156.287087 
L 579.330232 126.224537 
L 581.531735 145.239991 
L 583.733239 153.027295 
L 585.934742 180.554407 
L 588.136245 160.633477 
L 590.337749 169.145135 
L 592.539252 176.026896 
L 594.740755 155.743789 
L 596.942259 159.365758 
L 599.143762 138.35823 
L 601.345266 170.05061 
L 603.546769 175.12142 
" clip-path="url(#p1e0a195fa3)" style="fill: none; stroke: #ff7f0e; stroke-width: 1.5; stroke-linecap: square"/>
   </g>
   <g id="patch_9">
    <path d="M 374.645455 201.6 
L 374.645455 30.24 
" style="fill: none; stroke: #000000; stroke-width: 0.8; stroke-linejoin: miter; stroke-linecap: square"/>
   </g>
   <g id="patch_10">
    <path d="M 615.6 201.6 
L 615.6 30.24 
" style="fill: none; stroke: #000000; stroke-width: 0.8; stroke-linejoin: miter; stroke-linecap: square"/>
   </g>
   <g id="patch_11">
    <path d="M 374.645455 201.6 
L 615.6 201.6 
" style="fill: none; stroke: #000000; stroke-width: 0.8; stroke-linejoin: miter; stroke-linecap: square"/>
   </g>
   <g id="patch_12">
    <path d="M 374.645455 30.24 
L 615.6 30.24 
" style="fill: none; stroke: #000000; stroke-width: 0.8; stroke-linejoin: miter; stroke-linecap: square"/>
   </g>
   <g id="text_35">
    <!-- MK08 -->
    <g transform="translate(478.376165 20.24)scale(0.12 -0.12)">
     <use xlink:href="#DejaVuSans-4d"/>
     <use xlink:href="#DejaVuSans-4b" x="86.279297"/>
     <use xlink:href="#DejaVuSans-30" x="151.855469"/>
     <use xlink:href="#DejaVuSans-38" x="215.478516"/>
    </g>
   </g>
   <g id="legend_2">
    <g id="patch_13">
     <path d="M 527.21875 67.59625 
L 608.6 67.59625 
Q 610.6 67.59625 610.6 65.59625 
L 610.6 37.24 
Q 610.6 35.24 608.6 35.24 
L 527.21875 35.24 
Q 525.21875 35.24 525.21875 37.24 
L 525.21875 65.59625 
Q 525.21875 67.59625 527.21875 67.59625 
z
" style="fill: #ffffff; opacity: 0.8; stroke: #cccccc; stroke-linejoin: miter"/>
    </g>
    <g id="line2d_34">
     <path d="M 529.21875 43.338437 
L 539.21875 43.338437 
L 549.21875 43.338437 
" style="fill: none; stroke: #1f77b4; stroke-width: 1.5; stroke-linecap: square"/>
    </g>
    <g id="text_36">
     <!-- Training -->
     <g transform="translate(557.21875 46.838437)scale(0.1 -0.1)">
      <use xlink:href="#DejaVuSans-54"/>
      <use xlink:href="#DejaVuSans-72" x="46.333984"/>
      <use xlink:href="#DejaVuSans-61" x="87.447266"/>
      <use xlink:href="#DejaVuSans-69" x="148.726562"/>
      <use xlink:href="#DejaVuSans-6e" x="176.509766"/>
      <use xlink:href="#DejaVuSans-69" x="239.888672"/>
      <use xlink:href="#DejaVuSans-6e" x="267.671875"/>
      <use xlink:href="#DejaVuSans-67" x="331.050781"/>
     </g>
    </g>
    <g id="line2d_35">
     <path d="M 529.21875 58.016562 
L 539.21875 58.016562 
L 549.21875 58.016562 
" style="fill: none; stroke: #ff7f0e; stroke-width: 1.5; stroke-linecap: square"/>
    </g>
    <g id="text_37">
     <!-- Validation -->
     <g transform="translate(557.21875 61.516562)scale(0.1 -0.1)">
      <use xlink:href="#DejaVuSans-56"/>
      <use xlink:href="#DejaVuSans-61" x="60.658203"/>
      <use xlink:href="#DejaVuSans-6c" x="121.9375"/>
      <use xlink:href="#DejaVuSans-69" x="149.720703"/>
      <use xlink:href="#DejaVuSans-64" x="177.503906"/>
      <use xlink:href="#DejaVuSans-61" x="240.980469"/>
      <use xlink:href="#DejaVuSans-74" x="302.259766"/>
      <use xlink:href="#DejaVuSans-69" x="341.46875"/>
      <use xlink:href="#DejaVuSans-6f" x="369.251953"/>
      <use xlink:href="#DejaVuSans-6e" x="430.433594"/>
     </g>
    </g>
   </g>
  </g>
 </g>
 <defs>
  <clipPath id="pe7c824ca93">
   <rect x="85.5" y="30.24" width="240.954545" height="171.36"/>
  </clipPath>
  <clipPath id="p1e0a195fa3">
   <rect x="374.645455" y="30.24" width="240.954545" height="171.36"/>
  </clipPath>
 </defs>
</svg>
